<?xml version="1.0" encoding="UTF-8"?>
<svg xmlns="http://www.w3.org/2000/svg" xmlns:xlink="http://www.w3.org/1999/xlink" width="283.46pt" height="283.46pt" viewBox="0 0 283.46 283.46" version="1.2">
<g id="surface63354">
<path style=" stroke:none;fill-rule:nonzero;fill:rgb(100%,100%,100%);fill-opacity:1;" d="M 0 0 L 283.460938 0 L 283.460938 283.460938 L 0 283.460938 Z M 0 0 "/>
<path style="fill:none;stroke-width:0.85;stroke-linecap:round;stroke-linejoin:round;stroke:rgb(20%,20%,80%);stroke-opacity:1;comp-op:src;clip-to-self:true;stroke-miterlimit:10;" d="M 135.601562 39.441406 L 135.273438 39.464844 L 134.871094 39.300781 L 134.542969 39.140625 L 134.144531 38.980469 L 133.605469 38.839844 L 133.273438 38.773438 L 132.921875 38.726562 L 132.523438 38.703125 L 132.097656 38.703125 L 131.675781 38.679688 L 130.476562 38.679688 L 130.054688 38.703125 L 129.609375 38.726562 L 129.136719 38.75 L 128.621094 38.796875 L 128.058594 38.863281 L 127.46875 38.933594 L 126.882812 39.027344 L 126.292969 39.140625 L 125.660156 39.257812 L 125.023438 39.347656 L 124.390625 39.464844 L 123.757812 39.578125 L 123.121094 39.695312 L 122.511719 39.808594 L 121.921875 39.949219 L 121.289062 40.0625 L 120.652344 40.179688 L 119.996094 40.316406 L 119.3125 40.457031 L 118.65625 40.617188 L 117.976562 40.824219 L 117.292969 41.03125 L 116.613281 41.261719 L 115.882812 41.492188 L 115.15625 41.722656 L 114.402344 41.953125 L 113.628906 42.183594 L 112.074219 42.738281 L 111.347656 43.015625 L 110.640625 43.3125 L 109.890625 43.660156 L 109.136719 44.007812 L 108.316406 44.398438 L 107.46875 44.789062 L 106.648438 45.203125 L 105.800781 45.644531 L 105 46.082031 L 104.179688 46.542969 L 103.332031 47.027344 L 102.488281 47.535156 L 101.640625 48.0625 L 100.820312 48.640625 L 100.019531 49.21875 L 99.242188 49.792969 L 98.445312 50.394531 L 97.667969 50.992188 L 96.871094 51.589844 L 96.09375 52.191406 L 95.320312 52.789062 L 94.566406 53.390625 L 93.839844 54.035156 L 93.085938 54.679688 L 92.359375 55.351562 L 91.582031 56.042969 L 90.785156 56.757812 L 90.007812 57.472656 L 89.253906 58.210938 L 88.503906 58.945312 L 87.796875 59.683594 L 87.117188 60.398438 L 86.457031 61.136719 L 85.800781 61.875 L 85.097656 62.660156 L 84.414062 63.464844 L 83.710938 64.296875 L 83.027344 65.125 L 82.394531 65.957031 L 81.78125 66.832031 L 81.195312 67.707031 L 80.605469 68.609375 L 80.066406 69.53125 L 79.503906 70.453125 L 78.960938 71.375 L 78.375 72.34375 L 77.808594 73.289062 L 77.269531 74.257812 L 76.753906 75.226562 L 76.28125 76.171875 L 75.859375 77.09375 L 75.484375 77.992188 L 75.109375 78.867188 L 74.777344 79.699219 L 74.472656 80.503906 L 73.957031 82.074219 L 73.746094 82.855469 L 73.53125 83.617188 L 73.34375 84.355469 L 73.179688 85.09375 L 73.015625 85.808594 L 72.875 86.5 L 72.757812 87.191406 L 72.640625 87.859375 L 72.570312 88.527344 L 72.5 89.175781 L 72.40625 89.820312 L 72.335938 90.464844 L 72.242188 91.089844 L 72.167969 91.734375 L 72.121094 92.402344 L 72.097656 93.09375 L 72.050781 93.785156 L 72.003906 94.5 L 71.933594 95.191406 L 71.839844 95.976562 L 71.769531 96.804688 L 71.699219 97.589844 L 71.652344 98.398438 L 71.582031 99.136719 L 71.535156 99.871094 L 71.464844 100.632812 L 71.394531 101.371094 L 71.347656 102.800781 L 71.347656 105.222656 L 71.371094 106.074219 L 71.371094 106.90625 L 71.417969 107.734375 L 71.464844 108.566406 L 71.535156 109.371094 L 71.652344 110.179688 L 71.792969 110.964844 L 71.957031 111.746094 L 72.144531 112.507812 L 72.359375 113.269531 L 72.570312 114.054688 L 72.78125 114.835938 L 72.992188 115.621094 L 73.226562 116.40625 L 73.460938 117.210938 L 73.722656 117.972656 L 74.027344 118.734375 L 74.332031 119.472656 L 74.660156 120.164062 L 75.011719 120.902344 L 75.367188 121.636719 L 75.765625 122.398438 L 76.210938 123.183594 L 76.683594 123.96875 L 77.199219 124.726562 L 77.738281 125.535156 L 78.304688 126.34375 L 78.890625 127.148438 L 79.457031 127.980469 L 80.066406 128.832031 L 80.699219 129.664062 L 81.359375 130.46875 L 82.0625 131.230469 L 82.792969 132.015625 L 83.589844 132.796875 L 84.390625 133.605469 L 85.167969 134.390625 L 85.917969 135.171875 L 86.648438 135.933594 L 87.445312 136.695312 L 88.292969 137.457031 L 89.207031 138.214844 L 90.171875 138.976562 L 91.160156 139.714844 L 92.121094 140.429688 L 93.109375 141.167969 L 94.097656 141.859375 L 95.109375 142.550781 L 96.164062 143.21875 L 97.246094 143.867188 L 98.328125 144.535156 L 99.457031 145.179688 L 100.605469 145.824219 L 101.78125 146.449219 L 103.003906 147.046875 L 104.25 147.625 L 105.519531 148.152344 L 108.199219 149.214844 L 109.539062 149.722656 L 110.855469 150.253906 L 112.195312 150.734375 L 113.601562 151.242188 L 115.0625 151.726562 L 116.519531 152.1875 L 118 152.648438 L 119.457031 153.089844 L 120.914062 153.503906 L 122.371094 153.894531 L 123.804688 154.265625 L 125.261719 154.609375 L 126.71875 154.933594 L 128.222656 155.230469 L 129.75 155.53125 L 131.277344 155.808594 L 132.78125 156.0625 L 134.308594 156.316406 L 135.835938 156.523438 L 137.339844 156.730469 L 138.867188 156.890625 L 140.394531 157.03125 L 141.804688 157.121094 L 143.144531 157.167969 L 144.414062 157.167969 L 145.660156 157.121094 L 147 157.054688 L 148.410156 156.960938 L 149.867188 156.871094 L 151.347656 156.730469 L 152.851562 156.59375 L 154.378906 156.40625 L 155.882812 156.175781 L 157.386719 155.925781 L 158.867188 155.625 L 160.324219 155.300781 L 161.78125 154.933594 L 163.191406 154.515625 L 164.601562 154.078125 L 165.988281 153.59375 L 167.351562 153.066406 L 168.691406 152.488281 L 170.007812 151.890625 L 171.324219 151.242188 L 173.910156 149.859375 L 175.179688 149.121094 L 176.398438 148.363281 L 177.621094 147.554688 L 178.820312 146.703125 L 179.996094 145.847656 L 181.148438 144.972656 L 182.230469 144.097656 L 183.285156 143.242188 L 184.296875 142.367188 L 185.285156 141.46875 L 186.222656 140.566406 L 187.117188 139.644531 L 187.988281 138.722656 L 188.785156 137.800781 L 189.585938 136.855469 L 190.335938 135.910156 L 191.089844 134.941406 L 191.816406 133.949219 L 192.523438 132.9375 L 193.203125 131.898438 L 193.839844 130.859375 L 194.402344 129.777344 L 194.894531 128.71875 L 195.34375 127.679688 L 195.742188 126.640625 L 196.117188 125.605469 L 196.496094 124.566406 L 196.824219 123.484375 L 197.152344 122.398438 L 197.433594 121.339844 L 197.714844 120.277344 L 197.953125 119.21875 L 198.164062 118.15625 L 198.351562 117.097656 L 198.492188 116.035156 L 198.609375 114.976562 L 198.703125 113.914062 L 198.773438 112.832031 L 198.84375 111.722656 L 198.890625 110.640625 L 198.890625 109.558594 L 198.84375 107.433594 L 198.773438 106.398438 L 198.703125 105.359375 L 198.609375 104.324219 L 198.492188 103.285156 L 198.351562 102.246094 L 198.210938 101.1875 L 198.046875 100.101562 L 197.882812 99.042969 L 197.714844 97.980469 L 197.527344 96.921875 L 197.316406 95.882812 L 197.105469 94.847656 L 196.589844 92.769531 L 196.304688 91.734375 L 196 90.71875 L 195.671875 89.726562 L 195.296875 88.734375 L 194.941406 87.769531 L 194.566406 86.777344 L 194.167969 85.761719 L 193.792969 84.746094 L 193.367188 83.757812 L 192.945312 82.742188 L 192.476562 81.75 L 191.980469 80.78125 L 191.488281 79.8125 L 190.949219 78.84375 L 190.382812 77.898438 L 189.796875 76.976562 L 189.230469 76.054688 L 188.644531 75.132812 L 188.082031 74.1875 L 187.492188 73.265625 L 186.882812 72.320312 L 186.246094 71.398438 L 185.566406 70.476562 L 184.882812 69.574219 L 184.203125 68.675781 L 183.519531 67.777344 L 182.816406 66.878906 L 182.085938 66.003906 L 181.3125 65.148438 L 180.488281 64.34375 L 179.667969 63.558594 L 178.84375 62.773438 L 178.023438 61.992188 L 177.199219 61.230469 L 176.351562 60.46875 L 175.507812 59.707031 L 174.636719 58.96875 L 173.746094 58.210938 L 172.875 57.472656 L 172.027344 56.734375 L 171.160156 56.019531 L 170.3125 55.304688 L 169.421875 54.636719 L 168.527344 53.988281 L 167.632812 53.34375 L 166.742188 52.746094 L 165.894531 52.144531 L 165.050781 51.546875 L 164.203125 50.96875 L 163.355469 50.371094 L 162.488281 49.792969 L 161.640625 49.21875 L 160.796875 48.640625 L 159.925781 48.109375 L 159.078125 47.578125 L 158.257812 47.09375 L 157.386719 46.613281 L 156.542969 46.148438 L 155.695312 45.6875 L 154.847656 45.25 L 154.050781 44.8125 L 153.25 44.398438 L 152.453125 43.984375 L 151.652344 43.566406 L 150.855469 43.175781 L 150.007812 42.785156 L 149.183594 42.4375 L 148.363281 42.136719 L 147.539062 41.863281 L 146.742188 41.632812 L 145.894531 41.402344 L 145.027344 41.171875 L 144.132812 40.9375 L 143.238281 40.730469 L 142.347656 40.546875 L 140.652344 40.226562 L 139.785156 40.085938 L 138.914062 39.949219 L 137.90625 39.785156 L 136.871094 39.648438 L 135.90625 39.488281 L 134.988281 39.371094 L 134.167969 39.234375 L 133.34375 39.117188 L 132.5 39.027344 L 131.605469 38.933594 L 130.785156 38.863281 L 130.007812 38.816406 L 129.183594 38.796875 L 127.398438 38.796875 L 126.410156 38.839844 L 125.402344 38.886719 L 124.390625 38.980469 L 123.378906 39.09375 L 122.324219 39.234375 L 121.242188 39.394531 L 120.089844 39.578125 L 117.785156 39.992188 L 116.636719 40.246094 L 115.460938 40.523438 L 114.261719 40.800781 L 113.039062 41.101562 L 111.863281 41.421875 L 110.734375 41.746094 L 109.585938 42.070312 L 108.386719 42.4375 L 107.164062 42.832031 L 105.964844 43.246094 L 104.8125 43.683594 L 103.734375 44.121094 L 102.652344 44.558594 L 101.546875 45.042969 L 100.464844 45.550781 L 99.410156 46.105469 L 98.375 46.679688 L 97.363281 47.28125 L 96.351562 47.902344 L 95.367188 48.570312 L 94.425781 49.261719 L 93.53125 49.976562 L 92.710938 50.714844 L 91.886719 51.476562 L 91.066406 52.304688 L 90.242188 53.136719 L 89.46875 53.988281 L 88.738281 54.820312 L 88.035156 55.671875 L 87.375 56.550781 L 86.742188 57.449219 L 86.082031 58.394531 L 85.449219 59.363281 L 84.835938 60.308594 L 84.226562 61.296875 L 83.613281 62.335938 L 83.050781 63.351562 L 82.511719 64.386719 L 81.992188 65.425781 L 81.476562 66.464844 L 80.960938 67.5 L 80.464844 68.515625 L 79.972656 69.53125 L 79.480469 70.566406 L 78.984375 71.582031 L 78.492188 72.597656 L 78 73.609375 L 77.503906 74.625 L 76.988281 75.617188 L 76.519531 76.585938 L 76.09375 77.53125 L 75.695312 78.429688 L 75.320312 79.375 L 74.941406 80.320312 L 74.566406 81.242188 L 74.191406 82.140625 L 73.816406 83.042969 L 73.484375 83.917969 L 73.15625 84.769531 L 72.828125 85.625 L 72.523438 86.5 L 72.214844 87.398438 L 71.910156 88.296875 L 71.628906 89.21875 L 71.371094 90.144531 L 71.113281 91.066406 L 70.855469 92.078125 L 70.617188 93.117188 L 70.382812 94.132812 L 70.195312 95.101562 L 70.054688 96.070312 L 69.914062 97.058594 L 69.796875 98.050781 L 69.703125 99.019531 L 69.609375 99.917969 L 69.5625 100.796875 L 69.515625 101.695312 L 69.46875 103.445312 L 69.492188 104.300781 L 69.515625 105.128906 L 69.5625 105.984375 L 69.65625 107.6875 L 69.75 108.542969 L 69.867188 109.417969 L 70.054688 110.269531 L 70.265625 111.101562 L 70.5 111.886719 L 70.734375 112.644531 L 71.019531 113.429688 L 71.300781 114.191406 L 71.628906 115 L 71.957031 115.804688 L 72.289062 116.613281 L 72.640625 117.417969 L 73.390625 118.941406 L 73.769531 119.703125 L 74.167969 120.417969 L 74.613281 121.199219 L 75.109375 122.007812 L 75.578125 122.769531 L 76.023438 123.460938 L 76.542969 124.175781 L 77.105469 124.820312 L 77.714844 125.464844 L 78.351562 126.132812 L 79.03125 126.804688 L 79.714844 127.519531 L 80.464844 128.277344 L 81.289062 129.085938 L 82.085938 129.847656 L 82.933594 130.609375 L 83.804688 131.34375 L 84.695312 132.128906 L 85.589844 132.890625 L 86.457031 133.695312 L 87.351562 134.550781 L 88.292969 135.402344 L 89.230469 136.234375 L 90.21875 137.039062 L 91.160156 137.824219 L 92.074219 138.585938 L 92.992188 139.390625 L 93.957031 140.199219 L 94.964844 141.027344 L 96.046875 141.859375 L 97.105469 142.644531 L 98.140625 143.382812 L 99.195312 144.140625 L 100.277344 144.878906 L 101.40625 145.640625 L 102.558594 146.402344 L 103.710938 147.117188 L 104.859375 147.832031 L 106.035156 148.546875 L 107.28125 149.261719 L 108.527344 149.953125 L 109.75 150.621094 L 111.042969 151.289062 L 112.359375 151.910156 L 113.746094 152.511719 L 115.179688 153.109375 L 116.589844 153.664062 L 118.023438 154.195312 L 119.480469 154.679688 L 120.9375 155.09375 L 122.441406 155.507812 L 123.945312 155.878906 L 125.449219 156.222656 L 126.976562 156.523438 L 128.503906 156.777344 L 130.03125 156.984375 L 131.605469 157.144531 L 133.179688 157.285156 L 134.636719 157.375 L 136 157.421875 L 137.316406 157.445312 L 138.585938 157.421875 L 139.972656 157.351562 L 141.453125 157.238281 L 143.003906 157.078125 L 144.601562 156.847656 L 146.246094 156.570312 L 147.894531 156.246094 L 149.539062 155.925781 L 151.183594 155.578125 L 152.78125 155.230469 L 154.332031 154.839844 L 155.835938 154.425781 L 157.339844 153.988281 L 158.84375 153.503906 L 160.324219 153.019531 L 161.78125 152.488281 L 163.214844 151.957031 L 164.601562 151.382812 L 165.964844 150.804688 L 167.28125 150.230469 L 168.550781 149.652344 L 169.75 149.074219 L 170.925781 148.476562 L 172.097656 147.878906 L 173.226562 147.253906 L 174.332031 146.632812 L 175.414062 146.007812 L 176.449219 145.410156 L 177.480469 144.8125 L 178.492188 144.210938 L 179.480469 143.632812 L 180.417969 143.058594 L 181.3125 142.480469 L 182.183594 141.90625 L 183.003906 141.304688 L 183.804688 140.707031 L 184.601562 140.105469 L 185.378906 139.460938 L 186.128906 138.839844 L 186.8125 138.171875 L 187.492188 137.5 L 188.152344 136.808594 L 188.785156 136.070312 L 189.421875 135.289062 L 190.054688 134.480469 L 190.691406 133.675781 L 191.324219 132.84375 L 191.910156 132.015625 L 192.476562 131.183594 L 193.015625 130.332031 L 193.53125 129.476562 L 194.027344 128.625 L 194.519531 127.773438 L 195.015625 126.871094 L 195.507812 125.972656 L 196.023438 125.050781 L 196.542969 124.105469 L 197.035156 123.160156 L 197.550781 122.191406 L 198.046875 121.246094 L 198.515625 120.300781 L 198.9375 119.332031 L 199.363281 118.386719 L 199.785156 117.417969 L 200.160156 116.472656 L 200.535156 115.550781 L 200.890625 114.652344 L 201.195312 113.730469 L 201.453125 112.832031 L 201.6875 111.929688 L 201.921875 111.007812 L 202.136719 110.085938 L 202.371094 109.164062 L 202.582031 108.242188 L 202.769531 107.296875 L 202.910156 106.351562 L 203.097656 104.507812 L 203.144531 103.609375 L 203.167969 102.707031 L 203.167969 101.808594 L 203.027344 100.011719 L 202.910156 99.089844 L 202.792969 98.191406 L 202.628906 97.3125 L 202.488281 96.4375 L 202.324219 95.585938 L 202.160156 94.730469 L 201.992188 93.855469 L 201.804688 93.023438 L 201.570312 92.171875 L 201.359375 91.339844 L 201.125 90.511719 L 200.890625 89.679688 L 200.628906 88.851562 L 200.371094 88.023438 L 200.089844 87.191406 L 199.808594 86.363281 L 199.503906 85.53125 L 199.21875 84.703125 L 198.9375 83.871094 L 198.609375 83.042969 L 198.28125 82.210938 L 197.929688 81.402344 L 197.574219 80.621094 L 197.222656 79.8125 L 196.894531 79.007812 L 196.542969 78.199219 L 196.164062 77.390625 L 195.8125 76.5625 L 195.460938 75.753906 L 195.085938 74.949219 L 194.683594 74.164062 L 194.285156 73.355469 L 193.863281 72.574219 L 193.460938 71.789062 L 193.039062 71.027344 L 192.570312 70.269531 L 192.074219 69.507812 L 191.558594 68.769531 L 191.019531 68.03125 L 190.5 67.292969 L 189.515625 65.816406 L 189.019531 65.078125 L 188.503906 64.363281 L 187.988281 63.652344 L 187.445312 62.9375 L 186.882812 62.242188 L 186.269531 61.574219 L 185.660156 60.90625 L 185.003906 60.238281 L 184.367188 59.59375 L 183.757812 58.96875 L 183.144531 58.324219 L 182.511719 57.703125 L 181.875 57.101562 L 181.21875 56.503906 L 180.535156 55.902344 L 179.832031 55.304688 L 179.101562 54.703125 L 178.398438 54.105469 L 177.691406 53.527344 L 177.035156 52.953125 L 176.375 52.375 L 175.695312 51.824219 L 174.894531 51.199219 L 174.050781 50.53125 L 173.179688 49.863281 L 172.335938 49.21875 L 171.582031 48.664062 L 170.902344 48.179688 L 170.21875 47.695312 L 169.539062 47.234375 L 168.808594 46.820312 L 168.105469 46.449219 L 167.375 46.128906 L 166.671875 45.804688 L 165.964844 45.503906 L 165.261719 45.160156 L 164.53125 44.835938 L 163.804688 44.488281 L 163.074219 44.167969 L 162.300781 43.84375 L 161.570312 43.542969 L 160.84375 43.222656 L 160.160156 42.921875 L 159.503906 42.621094 L 158.820312 42.324219 L 158.117188 42.046875 L 157.386719 41.792969 L 156.613281 41.539062 L 155.859375 41.285156 L 155.109375 41.054688 L 154.355469 40.800781 L 153.652344 40.546875 L 152.945312 40.316406 L 152.242188 40.085938 L 151.511719 39.878906 L 150.738281 39.671875 L 149.9375 39.488281 L 149.113281 39.300781 L 148.339844 39.140625 L 147.585938 39.027344 L 146.835938 38.910156 L 146.058594 38.816406 L 145.261719 38.726562 L 144.460938 38.632812 L 143.664062 38.566406 L 142.886719 38.472656 L 142.132812 38.402344 L 141.382812 38.355469 L 140.582031 38.3125 L 139.738281 38.289062 L 138.890625 38.265625 L 136.496094 38.265625 L 135.765625 38.289062 L 135.0625 38.3125 L 134.332031 38.335938 L 133.554688 38.402344 L 132.78125 38.472656 L 132.003906 38.566406 L 131.277344 38.65625 L 130.570312 38.75 L 129.914062 38.839844 L 129.230469 38.933594 L 128.550781 39.046875 L 127.84375 39.140625 L 127.140625 39.257812 L 126.386719 39.371094 L 125.660156 39.511719 L 124.953125 39.671875 L 124.25 39.808594 L 123.566406 39.972656 L 122.863281 40.15625 L 122.183594 40.363281 L 121.453125 40.617188 L 120.652344 40.894531 L 119.832031 41.171875 L 119.03125 41.445312 L 118.28125 41.722656 L 117.550781 42 L 116.777344 42.324219 L 115.976562 42.691406 L 115.132812 43.0625 L 113.4375 43.84375 L 112.640625 44.238281 L 111.839844 44.652344 L 111.089844 45.089844 L 110.242188 45.597656 L 109.351562 46.105469 L 108.503906 46.613281 L 107.632812 47.074219 L 106.859375 47.535156 L 106.128906 47.972656 L 105.355469 48.480469 L 104.554688 49.007812 L 103.78125 49.539062 L 102.980469 50.09375 L 102.179688 50.625 L 101.40625 51.175781 L 100.675781 51.753906 L 99.972656 52.351562 L 99.265625 52.953125 L 98.585938 53.550781 L 97.855469 54.195312 L 97.082031 54.890625 L 96.351562 55.558594 L 95.648438 56.203125 L 94.941406 56.894531 L 94.285156 57.609375 L 93.652344 58.347656 L 93.039062 59.132812 L 92.453125 59.9375 L 91.816406 60.746094 L 91.160156 61.574219 L 90.523438 62.40625 L 89.914062 63.234375 L 89.300781 64.113281 L 88.714844 64.964844 L 88.128906 65.839844 L 87.5625 66.71875 L 87.046875 67.59375 L 86.53125 68.492188 L 86.011719 69.414062 L 85.496094 70.335938 L 84.953125 71.28125 L 84.414062 72.226562 L 83.875 73.148438 L 83.355469 74.050781 L 82.886719 74.949219 L 82.441406 75.871094 L 82.015625 76.792969 L 81.617188 77.738281 L 81.242188 78.683594 L 80.867188 79.722656 L 80.441406 80.828125 L 80.042969 81.867188 L 79.644531 82.878906 L 79.242188 83.964844 L 78.820312 85.09375 L 78.398438 86.199219 L 78 87.285156 L 77.621094 88.367188 L 77.269531 89.449219 L 76.941406 90.511719 L 76.636719 91.59375 L 76.351562 92.65625 L 76.070312 93.714844 L 75.8125 94.777344 L 75.554688 95.835938 L 75.296875 96.898438 L 75.035156 97.960938 L 74.777344 99.019531 L 74.519531 100.082031 L 74.285156 101.117188 L 74.074219 102.15625 L 73.839844 103.191406 L 73.578125 104.253906 L 73.34375 105.3125 L 73.132812 106.375 L 72.921875 107.433594 L 72.734375 108.472656 L 72.546875 109.558594 L 72.359375 110.710938 L 72.191406 111.839844 L 72.050781 112.945312 L 71.933594 114.054688 L 71.839844 115.183594 L 71.792969 116.195312 L 71.746094 117.1875 L 71.792969 118.273438 L 71.933594 119.332031 L 72.097656 120.460938 L 72.335938 121.660156 L 72.570312 122.722656 L 72.828125 123.738281 L 73.132812 124.773438 L 73.53125 125.8125 L 73.957031 126.804688 L 74.425781 127.792969 L 74.917969 128.761719 L 75.460938 129.730469 L 76.070312 130.675781 L 76.777344 131.621094 L 77.527344 132.519531 L 78.304688 133.421875 L 79.101562 134.296875 L 79.855469 135.148438 L 80.652344 135.980469 L 81.5 136.785156 L 82.394531 137.570312 L 83.332031 138.332031 L 84.273438 139.046875 L 85.214844 139.738281 L 86.105469 140.453125 L 87 141.144531 L 87.941406 141.835938 L 88.902344 142.480469 L 89.914062 143.105469 L 90.925781 143.726562 L 91.933594 144.328125 L 92.921875 144.925781 L 93.933594 145.523438 L 94.964844 146.148438 L 95.976562 146.746094 L 96.964844 147.347656 L 97.976562 147.945312 L 98.960938 148.5 L 99.949219 149.054688 L 100.984375 149.558594 L 101.921875 150.019531 L 102.769531 150.4375 L 103.734375 150.921875 L 104.765625 151.429688 L 105.847656 151.933594 L 107.023438 152.464844 L 108.082031 152.878906 L 109.066406 153.273438 L 110.101562 153.664062 L 111.207031 154.054688 L 112.359375 154.425781 L 113.554688 154.792969 L 114.730469 155.140625 L 115.90625 155.460938 L 117.128906 155.785156 L 118.398438 156.109375 L 119.667969 156.40625 L 120.9375 156.730469 L 122.253906 157.078125 L 123.566406 157.375 L 124.90625 157.675781 L 126.246094 157.953125 L 127.539062 158.183594 L 128.808594 158.390625 L 130.101562 158.597656 L 131.464844 158.78125 L 132.828125 158.945312 L 134.214844 159.082031 L 135.625 159.199219 L 137.058594 159.3125 L 138.46875 159.382812 L 139.855469 159.453125 L 141.242188 159.496094 L 143.96875 159.496094 L 145.355469 159.476562 L 146.765625 159.453125 L 148.222656 159.453125 L 149.632812 159.429688 L 151.066406 159.40625 L 152.453125 159.359375 L 153.792969 159.3125 L 155.179688 159.222656 L 156.566406 159.128906 L 158 158.992188 L 159.457031 158.828125 L 160.960938 158.644531 L 162.441406 158.414062 L 163.898438 158.136719 L 165.308594 157.835938 L 166.71875 157.492188 L 168.105469 157.144531 L 169.46875 156.753906 L 170.832031 156.339844 L 172.171875 155.878906 L 173.507812 155.417969 L 174.800781 154.886719 L 176.046875 154.308594 L 177.246094 153.6875 L 178.445312 152.996094 L 179.621094 152.28125 L 180.796875 151.542969 L 181.898438 150.78125 L 182.933594 149.976562 L 183.921875 149.144531 L 184.882812 148.269531 L 185.824219 147.347656 L 186.742188 146.378906 L 187.585938 145.410156 L 188.386719 144.371094 L 189.160156 143.335938 L 189.914062 142.226562 L 190.664062 141.097656 L 191.441406 139.945312 L 192.171875 138.769531 L 192.851562 137.546875 L 193.507812 136.300781 L 194.121094 135.035156 L 194.707031 133.765625 L 195.25 132.476562 L 195.765625 131.183594 L 196.257812 129.894531 L 196.777344 128.578125 L 197.246094 127.242188 L 197.738281 125.902344 L 198.210938 124.519531 L 198.65625 123.136719 L 199.078125 121.777344 L 199.480469 120.394531 L 199.878906 119.03125 L 200.628906 116.3125 L 200.984375 114.953125 L 201.3125 113.613281 L 201.59375 112.300781 L 201.898438 110.984375 L 202.160156 109.648438 L 202.417969 108.335938 L 202.652344 107.042969 L 202.863281 105.753906 L 203.074219 104.460938 L 203.238281 103.167969 L 203.402344 101.855469 L 203.546875 100.519531 L 203.6875 99.203125 L 203.828125 97.84375 L 203.945312 96.507812 L 204.039062 95.191406 L 204.085938 93.878906 L 204.085938 92.585938 L 204.039062 91.320312 L 203.945312 90.074219 L 203.804688 88.875 L 203.640625 87.675781 L 203.425781 86.523438 L 203.167969 85.417969 L 202.863281 84.308594 L 202.535156 83.226562 L 202.207031 82.117188 L 201.828125 81.035156 L 201.429688 79.953125 L 200.984375 78.890625 L 200.488281 77.851562 L 199.996094 76.839844 L 199.480469 75.847656 L 198.914062 74.855469 L 198.304688 73.910156 L 197.667969 72.964844 L 196.988281 72.042969 L 196.304688 71.144531 L 195.601562 70.269531 L 194.871094 69.4375 L 194.121094 68.609375 L 193.296875 67.777344 L 192.453125 66.925781 L 191.582031 66.070312 L 190.691406 65.21875 L 189.820312 64.34375 L 188.972656 63.464844 L 188.105469 62.613281 L 187.210938 61.761719 L 186.269531 60.929688 L 185.308594 60.101562 L 184.367188 59.269531 L 183.402344 58.484375 L 182.441406 57.679688 L 181.429688 56.917969 L 180.417969 56.179688 L 179.386719 55.441406 L 178.351562 54.75 L 177.339844 54.082031 L 176.398438 53.414062 L 175.414062 52.722656 L 174.355469 52.054688 L 173.25 51.382812 L 172.125 50.738281 L 170.996094 50.140625 L 169.914062 49.539062 L 168.832031 48.964844 L 167.726562 48.410156 L 166.648438 47.878906 L 165.613281 47.394531 L 164.53125 46.910156 L 163.355469 46.425781 L 162.136719 45.941406 L 160.890625 45.457031 L 159.714844 45.019531 L 158.5625 44.605469 L 157.386719 44.214844 L 156.164062 43.84375 L 154.988281 43.5 L 153.839844 43.199219 L 152.640625 42.875 L 151.394531 42.578125 L 150.078125 42.277344 L 148.691406 42 L 147.351562 41.746094 L 146.035156 41.515625 L 144.71875 41.308594 L 143.402344 41.125 L 142.0625 40.960938 L 140.699219 40.847656 L 139.316406 40.730469 L 137.90625 40.617188 L 136.542969 40.5 L 135.226562 40.363281 L 133.933594 40.246094 L 132.664062 40.15625 L 131.394531 40.0625 L 130.148438 39.992188 L 128.878906 39.949219 L 126.246094 39.902344 L 124.929688 39.925781 L 123.617188 39.972656 L 122.347656 40.0625 L 121.078125 40.15625 L 119.808594 40.316406 L 118.5625 40.5 L 117.339844 40.753906 L 116.09375 41.03125 L 114.847656 41.355469 L 113.652344 41.699219 L 112.476562 42.09375 L 111.347656 42.507812 L 110.21875 42.96875 L 109.066406 43.476562 L 107.917969 44.027344 L 106.789062 44.605469 L 105.707031 45.203125 L 104.625 45.851562 L 103.519531 46.566406 L 102.441406 47.328125 L 101.382812 48.132812 L 100.371094 48.941406 L 99.433594 49.769531 L 98.492188 50.691406 L 97.527344 51.636719 L 96.566406 52.652344 L 95.578125 53.691406 L 94.660156 54.726562 L 93.769531 55.789062 L 92.875 56.894531 L 92.003906 58.046875 L 91.113281 59.222656 L 90.242188 60.445312 L 89.398438 61.667969 L 88.597656 62.867188 L 87.84375 64.089844 L 87.140625 65.308594 L 86.480469 66.554688 L 85.824219 67.777344 L 85.144531 69 L 84.4375 70.222656 L 83.734375 71.464844 L 83.074219 72.734375 L 82.441406 74.050781 L 81.804688 75.363281 L 81.21875 76.699219 L 80.628906 78.0625 L 80.066406 79.445312 L 79.527344 80.828125 L 79.007812 82.1875 L 78.515625 83.546875 L 78.023438 84.910156 L 77.550781 86.269531 L 77.082031 87.652344 L 76.636719 89.058594 L 76.234375 90.488281 L 75.882812 91.917969 L 75.554688 93.371094 L 75.25 94.800781 L 74.941406 96.253906 L 74.636719 97.726562 L 74.378906 99.179688 L 74.144531 100.632812 L 73.957031 102.085938 L 73.792969 103.515625 L 73.675781 104.921875 L 73.554688 106.351562 L 73.507812 107.78125 L 73.507812 109.234375 L 73.578125 110.6875 L 73.699219 112.117188 L 73.863281 113.523438 L 74.050781 114.882812 L 74.261719 116.242188 L 74.496094 117.582031 L 74.800781 118.894531 L 75.132812 120.1875 L 75.460938 121.453125 L 75.835938 122.699219 L 76.234375 123.898438 L 76.707031 125.050781 L 77.246094 126.179688 L 77.855469 127.289062 L 78.515625 128.347656 L 79.195312 129.433594 L 79.925781 130.492188 L 80.675781 131.554688 L 81.476562 132.613281 L 82.324219 133.675781 L 83.214844 134.757812 L 84.179688 135.839844 L 85.167969 136.902344 L 86.175781 137.917969 L 87.234375 138.90625 L 88.363281 139.898438 L 89.515625 140.890625 L 90.734375 141.835938 L 91.980469 142.78125 L 93.273438 143.703125 L 94.636719 144.625 L 96.070312 145.523438 L 97.550781 146.425781 L 99.078125 147.324219 L 100.675781 148.199219 L 102.277344 149.054688 L 103.757812 149.8125 L 105.167969 150.527344 L 106.507812 151.175781 L 107.84375 151.820312 L 109.351562 152.535156 L 110.996094 153.273438 L 112.78125 154.035156 L 114.636719 154.816406 L 116.566406 155.601562 L 118.492188 156.363281 L 120.394531 157.121094 L 122.300781 157.835938 L 124.25 158.507812 L 126.199219 159.152344 L 128.152344 159.726562 L 130.078125 160.257812 L 132.003906 160.695312 L 133.957031 161.066406 L 135.90625 161.320312 L 137.90625 161.527344 L 139.925781 161.640625 L 141.945312 161.6875 L 143.96875 161.6875 L 145.988281 161.617188 L 148.035156 161.480469 L 150.078125 161.320312 L 152.121094 161.089844 L 154.144531 160.8125 L 156.164062 160.464844 L 158.1875 160.097656 L 160.207031 159.660156 L 162.207031 159.152344 L 164.203125 158.574219 L 166.152344 157.90625 L 168.058594 157.191406 L 169.960938 156.40625 L 171.839844 155.53125 L 173.675781 154.585938 L 175.484375 153.570312 L 177.222656 152.488281 L 178.914062 151.335938 L 180.558594 150.136719 L 182.136719 148.84375 L 183.664062 147.53125 L 185.097656 146.195312 L 186.460938 144.8125 L 187.75 143.425781 L 188.949219 141.996094 L 190.125 140.566406 L 191.230469 139.09375 L 192.3125 137.617188 L 193.320312 136.117188 L 194.285156 134.574219 L 195.203125 133.003906 L 196.070312 131.4375 L 196.917969 129.871094 L 197.714844 128.277344 L 198.46875 126.6875 L 199.171875 125.097656 L 199.832031 123.507812 L 200.441406 121.890625 L 201.054688 120.277344 L 201.640625 118.664062 L 202.183594 117.050781 L 202.699219 115.414062 L 203.191406 113.800781 L 203.664062 112.160156 L 204.109375 110.570312 L 204.53125 108.980469 L 204.90625 107.414062 L 205.238281 105.84375 L 205.542969 104.324219 L 205.777344 102.824219 L 205.941406 101.347656 L 206.058594 99.894531 L 206.105469 98.441406 L 206.082031 97.015625 L 206.035156 95.605469 L 205.964844 94.175781 L 205.847656 92.792969 L 205.660156 91.410156 L 205.449219 90.074219 L 205.167969 88.734375 L 204.835938 87.421875 L 204.484375 86.109375 L 204.085938 84.792969 L 203.640625 83.480469 L 203.144531 82.1875 L 202.605469 80.898438 L 202.039062 79.652344 L 200.914062 77.160156 L 200.300781 75.941406 L 199.667969 74.695312 L 199.007812 73.472656 L 198.304688 72.273438 L 197.574219 71.097656 L 196.847656 69.921875 L 196.070312 68.769531 L 195.296875 67.640625 L 194.472656 66.507812 L 193.605469 65.402344 L 192.710938 64.320312 L 191.792969 63.28125 L 190.832031 62.265625 L 189.84375 61.296875 L 188.878906 60.332031 L 187.871094 59.40625 L 186.835938 58.484375 L 185.753906 57.5625 L 184.648438 56.664062 L 183.546875 55.789062 L 182.417969 54.933594 L 181.265625 54.082031 L 180.113281 53.25 L 178.914062 52.398438 L 177.691406 51.546875 L 176.449219 50.691406 L 175.203125 49.886719 L 173.933594 49.078125 L 172.664062 48.292969 L 171.371094 47.511719 L 168.832031 45.988281 L 167.5625 45.25 L 164.976562 43.820312 L 163.640625 43.128906 L 162.277344 42.484375 L 160.914062 41.863281 L 159.527344 41.285156 L 158.117188 40.730469 L 156.707031 40.203125 L 155.25 39.71875 L 153.769531 39.28125 L 152.289062 38.863281 L 150.808594 38.472656 L 149.328125 38.148438 L 147.820312 37.828125 L 146.316406 37.550781 L 144.789062 37.296875 L 143.238281 37.066406 L 141.664062 36.859375 L 140.089844 36.695312 L 138.515625 36.535156 L 136.941406 36.398438 L 135.367188 36.28125 L 133.816406 36.191406 L 132.242188 36.121094 L 130.6875 36.074219 L 129.160156 36.027344 L 127.609375 36.050781 L 126.082031 36.074219 L 124.554688 36.167969 L 123.027344 36.328125 L 121.523438 36.511719 L 120.019531 36.765625 L 118.539062 37.019531 L 117.035156 37.320312 L 115.554688 37.640625 L 114.097656 38.011719 L 112.640625 38.378906 L 111.207031 38.796875 L 109.796875 39.210938 L 108.410156 39.671875 L 107.023438 40.15625 L 105.660156 40.707031 L 104.273438 41.308594 L 102.910156 41.953125 L 101.570312 42.644531 L 100.253906 43.359375 L 98.984375 44.097656 L 97.761719 44.90625 L 96.589844 45.734375 L 95.414062 46.632812 L 94.261719 47.578125 L 93.132812 48.546875 L 92.003906 49.539062 L 90.855469 50.578125 L 89.773438 51.636719 L 88.714844 52.722656 L 87.703125 53.828125 L 86.742188 54.933594 L 85.777344 56.042969 L 84.835938 57.171875 L 83.921875 58.277344 L 83.027344 59.386719 L 82.15625 60.515625 L 81.359375 61.644531 L 80.558594 62.796875 L 79.785156 63.949219 L 79.007812 65.125 L 78.257812 66.300781 L 77.550781 67.476562 L 76.871094 68.628906 L 76.234375 69.804688 L 75.671875 71.003906 L 75.132812 72.203125 L 74.636719 73.449219 L 74.144531 74.71875 L 73.699219 75.984375 L 73.296875 77.230469 L 72.921875 78.5 L 72.59375 79.742188 L 72.289062 81.011719 L 72.027344 82.28125 L 71.816406 83.546875 L 71.605469 84.792969 L 71.441406 86.085938 L 71.277344 87.351562 L 71.160156 88.644531 L 71.089844 89.914062 L 71.042969 91.203125 L 71.019531 92.472656 L 71.042969 93.761719 L 71.089844 95.054688 L 71.136719 96.320312 L 71.207031 97.636719 L 71.277344 98.925781 L 71.347656 100.242188 L 71.441406 101.53125 L 71.511719 102.847656 L 71.605469 104.136719 L 71.722656 105.476562 L 71.839844 106.789062 L 72.003906 108.128906 L 72.191406 109.488281 L 72.382812 110.824219 L 72.617188 112.183594 L 72.875 113.523438 L 73.132812 114.859375 L 73.414062 116.195312 L 73.722656 117.582031 L 74.050781 118.964844 L 74.402344 120.347656 L 74.777344 121.753906 L 75.179688 123.136719 L 75.601562 124.519531 L 76.070312 125.882812 L 76.589844 127.242188 L 77.152344 128.554688 L 77.785156 129.871094 L 78.46875 131.136719 L 79.148438 132.40625 L 79.878906 133.652344 L 80.628906 134.917969 L 81.40625 136.140625 L 82.253906 137.363281 L 83.167969 138.585938 L 84.132812 139.761719 L 85.144531 140.960938 L 86.199219 142.136719 L 87.304688 143.289062 L 88.480469 144.441406 L 89.703125 145.570312 L 90.972656 146.679688 L 92.3125 147.761719 L 93.722656 148.84375 L 95.179688 149.929688 L 96.707031 151.011719 L 98.304688 152.097656 L 99.972656 153.132812 L 101.710938 154.125 L 103.496094 155.09375 L 105.355469 156.039062 L 107.234375 156.960938 L 109.136719 157.859375 L 111.042969 158.691406 L 113.015625 159.476562 L 115.035156 160.210938 L 117.128906 160.859375 L 119.242188 161.457031 L 121.40625 162.011719 L 123.542969 162.496094 L 125.707031 162.957031 L 127.917969 163.347656 L 130.148438 163.695312 L 132.429688 164.015625 L 134.730469 164.246094 L 137.035156 164.453125 L 139.339844 164.59375 L 141.617188 164.6875 L 143.898438 164.6875 L 146.175781 164.617188 L 148.457031 164.453125 L 150.710938 164.179688 L 152.992188 163.855469 L 155.203125 163.441406 L 157.363281 162.980469 L 159.503906 162.449219 L 161.570312 161.847656 L 163.617188 161.179688 L 165.636719 160.421875 L 167.65625 159.566406 L 169.65625 158.621094 L 171.605469 157.605469 L 173.507812 156.476562 L 175.367188 155.277344 L 177.152344 153.988281 L 178.867188 152.625 L 180.535156 151.199219 L 182.183594 149.699219 L 183.804688 148.128906 L 185.378906 146.492188 L 186.90625 144.789062 L 188.363281 143.035156 L 189.75 141.238281 L 191.066406 139.371094 L 192.359375 137.457031 L 193.582031 135.519531 L 194.753906 133.558594 L 195.882812 131.597656 L 196.988281 129.640625 L 198.023438 127.65625 L 199.007812 125.671875 L 199.925781 123.667969 L 200.75 121.683594 L 201.5 119.703125 L 202.207031 117.71875 L 202.839844 115.734375 L 203.402344 113.777344 L 203.898438 111.816406 L 204.34375 109.902344 L 204.71875 108.011719 L 205.003906 106.121094 L 205.191406 104.253906 L 205.308594 102.410156 L 205.332031 100.566406 L 205.332031 98.789062 L 205.261719 97.015625 L 205.144531 95.238281 L 204.957031 93.484375 L 204.71875 91.757812 L 204.390625 90.050781 L 204.039062 88.367188 L 203.617188 86.753906 L 203.167969 85.140625 L 202.675781 83.59375 L 202.160156 82.074219 L 201.617188 80.550781 L 201.054688 79.074219 L 200.441406 77.601562 L 199.785156 76.148438 L 199.054688 74.71875 L 198.304688 73.289062 L 197.527344 71.929688 L 196.707031 70.566406 L 195.90625 69.207031 L 195.085938 67.871094 L 194.238281 66.554688 L 193.320312 65.242188 L 192.382812 63.949219 L 191.394531 62.683594 L 190.40625 61.460938 L 189.398438 60.238281 L 188.386719 59.085938 L 187.351562 57.957031 L 186.292969 56.847656 L 185.191406 55.765625 L 184.085938 54.703125 L 182.933594 53.667969 L 181.757812 52.652344 L 180.535156 51.683594 L 179.316406 50.761719 L 178.070312 49.863281 L 176.824219 48.984375 L 175.554688 48.15625 L 174.261719 47.347656 L 172.921875 46.566406 L 171.582031 45.851562 L 170.21875 45.136719 L 168.832031 44.421875 L 167.46875 43.730469 L 166.082031 43.0625 L 164.671875 42.390625 L 163.285156 41.746094 L 161.851562 41.148438 L 160.417969 40.570312 L 158.960938 40.039062 L 157.503906 39.511719 L 156.070312 39.046875 L 154.613281 38.609375 L 153.15625 38.21875 L 151.652344 37.851562 L 150.101562 37.527344 L 148.527344 37.226562 L 146.976562 36.925781 L 145.425781 36.675781 L 143.875 36.464844 L 142.324219 36.28125 L 140.75 36.121094 L 139.171875 36.003906 L 137.597656 35.890625 L 136.023438 35.84375 L 134.472656 35.820312 L 132.898438 35.84375 L 131.300781 35.9375 L 129.703125 36.097656 L 128.082031 36.28125 L 126.460938 36.535156 L 124.835938 36.8125 L 123.167969 37.136719 L 121.523438 37.503906 L 119.855469 37.917969 L 118.1875 38.355469 L 116.519531 38.816406 L 114.894531 39.324219 L 113.25 39.855469 L 111.628906 40.457031 L 109.984375 41.101562 L 108.363281 41.792969 L 106.765625 42.53125 L 105.214844 43.3125 L 103.664062 44.097656 L 102.179688 44.90625 L 100.699219 45.734375 L 99.265625 46.632812 L 97.855469 47.578125 L 96.519531 48.570312 L 95.25 49.632812 L 94.027344 50.738281 L 92.875 51.890625 L 91.746094 53.089844 L 90.640625 54.359375 L 89.585938 55.625 L 88.574219 56.941406 L 87.609375 58.277344 L 86.695312 59.636719 L 85.800781 61.023438 L 84.953125 62.429688 L 84.132812 63.859375 L 83.355469 65.289062 L 82.628906 66.785156 L 81.96875 68.285156 L 81.335938 69.828125 L 80.769531 71.398438 L 80.253906 72.988281 L 79.761719 74.554688 L 79.3125 76.148438 L 78.867188 77.738281 L 78.445312 79.351562 L 78.046875 80.964844 L 77.644531 82.648438 L 77.292969 84.355469 L 76.941406 86.109375 L 76.660156 87.882812 L 76.421875 89.703125 L 76.234375 91.503906 L 76.117188 93.300781 L 76.046875 95.144531 L 76 97.015625 L 76 98.90625 L 76.023438 100.816406 L 76.070312 102.730469 L 76.164062 104.644531 L 76.328125 106.605469 L 76.566406 108.589844 L 76.871094 110.546875 L 77.222656 112.507812 L 77.597656 114.421875 L 78.023438 116.3125 L 78.445312 118.179688 L 78.9375 120.046875 L 79.433594 121.890625 L 79.949219 123.691406 L 80.511719 125.464844 L 81.125 127.171875 L 81.804688 128.855469 L 82.582031 130.515625 L 83.449219 132.128906 L 84.414062 133.742188 L 85.449219 135.335938 L 86.53125 136.855469 L 87.65625 138.378906 L 88.855469 139.851562 L 90.125 141.304688 L 91.488281 142.757812 L 92.898438 144.1875 L 94.402344 145.570312 L 95.976562 146.953125 L 97.621094 148.269531 L 99.3125 149.515625 L 101.078125 150.691406 L 102.910156 151.796875 L 104.789062 152.855469 L 106.695312 153.847656 L 108.621094 154.769531 L 110.570312 155.648438 L 112.570312 156.429688 L 114.613281 157.167969 L 116.730469 157.835938 L 118.867188 158.484375 L 121.054688 159.058594 L 123.238281 159.613281 L 125.449219 160.121094 L 127.679688 160.582031 L 132.195312 161.457031 L 134.496094 161.847656 L 136.777344 162.242188 L 139.078125 162.585938 L 141.382812 162.886719 L 143.6875 163.117188 L 146.011719 163.277344 L 148.339844 163.371094 L 150.640625 163.324219 L 152.945312 163.140625 L 155.203125 162.863281 L 157.433594 162.472656 L 159.621094 161.988281 L 161.78125 161.410156 L 163.921875 160.742188 L 166.058594 159.9375 L 168.199219 159.011719 L 170.289062 158 L 172.335938 156.871094 L 174.332031 155.671875 L 176.304688 154.378906 L 178.234375 152.949219 L 180.160156 151.429688 L 182.015625 149.789062 L 183.828125 148.0625 L 185.566406 146.261719 L 187.234375 144.394531 L 188.808594 142.480469 L 190.335938 140.5 L 191.769531 138.46875 L 193.15625 136.394531 L 194.449219 134.273438 L 195.671875 132.105469 L 196.824219 129.871094 L 197.882812 127.609375 L 198.867188 125.304688 L 199.761719 122.953125 L 200.582031 120.625 L 201.335938 118.273438 L 202.039062 115.945312 L 202.652344 113.589844 L 203.191406 111.261719 L 203.664062 108.957031 L 204.085938 106.628906 L 204.460938 104.324219 L 204.742188 101.972656 L 204.957031 99.621094 L 205.121094 97.265625 L 205.214844 94.9375 L 205.261719 92.65625 L 205.238281 90.417969 L 205.121094 88.183594 L 204.957031 85.992188 L 204.71875 83.800781 L 204.390625 81.65625 L 203.96875 79.582031 L 203.472656 77.554688 L 202.910156 75.617188 L 202.324219 73.703125 L 201.664062 71.859375 L 200.960938 70.058594 L 200.136719 68.285156 L 199.21875 66.578125 L 198.234375 64.917969 L 197.175781 63.351562 L 196.046875 61.851562 L 194.871094 60.398438 L 193.605469 59.039062 L 192.289062 57.703125 L 190.925781 56.433594 L 189.492188 55.234375 L 188.011719 54.035156 L 186.484375 52.90625 L 184.929688 51.800781 L 183.332031 50.738281 L 181.6875 49.699219 L 180.019531 48.710938 L 178.351562 47.742188 L 176.636719 46.84375 L 174.894531 45.964844 L 173.109375 45.160156 L 171.300781 44.375 L 169.492188 43.613281 L 167.65625 42.921875 L 165.800781 42.230469 L 163.875 41.585938 L 161.945312 40.960938 L 160.019531 40.363281 L 158.117188 39.785156 L 156.257812 39.234375 L 154.378906 38.726562 L 152.5 38.242188 L 150.59375 37.78125 L 148.667969 37.367188 L 146.742188 36.996094 L 144.8125 36.652344 L 142.863281 36.351562 L 140.890625 36.097656 L 138.9375 35.890625 L 137.011719 35.75 L 135.109375 35.636719 L 133.226562 35.542969 L 131.371094 35.519531 L 129.492188 35.542969 L 127.585938 35.636719 L 125.683594 35.773438 L 123.757812 35.980469 L 121.828125 36.234375 L 119.902344 36.535156 L 117.976562 36.882812 L 116.117188 37.296875 L 114.285156 37.734375 L 112.429688 38.21875 L 110.59375 38.75 L 108.761719 39.300781 L 106.953125 39.925781 L 105.144531 40.570312 L 103.378906 41.261719 L 101.640625 41.976562 L 99.949219 42.714844 L 98.304688 43.5 L 96.707031 44.328125 L 95.15625 45.183594 L 93.652344 46.128906 L 92.167969 47.117188 L 90.757812 48.15625 L 89.398438 49.261719 L 88.082031 50.414062 L 86.835938 51.613281 L 85.636719 52.835938 L 84.484375 54.082031 L 83.378906 55.328125 L 82.347656 56.617188 L 81.359375 57.933594 L 80.417969 59.269531 L 79.480469 60.652344 L 78.585938 62.058594 L 77.714844 63.488281 L 76.917969 64.941406 L 76.210938 66.441406 L 75.578125 67.960938 L 74.964844 69.507812 L 74.402344 71.097656 L 73.863281 72.710938 L 73.34375 74.347656 L 72.828125 75.984375 L 72.382812 77.667969 L 71.957031 79.351562 L 71.558594 81.082031 L 71.230469 82.855469 L 70.902344 84.632812 L 70.617188 86.476562 L 70.382812 88.320312 L 70.195312 90.1875 L 70.054688 92.101562 L 69.984375 94.039062 L 69.960938 96.023438 L 70.007812 98.050781 L 70.125 100.101562 L 70.242188 102.15625 L 70.429688 104.230469 L 70.617188 106.328125 L 70.878906 108.449219 L 71.183594 110.59375 L 71.488281 112.785156 L 71.863281 115 L 72.265625 117.1875 L 72.734375 119.378906 L 73.226562 121.546875 L 73.792969 123.644531 L 74.378906 125.695312 L 75.058594 127.65625 L 75.8125 129.570312 L 76.636719 131.414062 L 77.574219 133.234375 L 78.609375 135.035156 L 79.714844 136.808594 L 80.890625 138.585938 L 82.132812 140.335938 L 83.449219 142.089844 L 84.859375 143.820312 L 86.339844 145.546875 L 87.914062 147.253906 L 89.539062 148.9375 L 91.230469 150.550781 L 92.992188 152.121094 L 94.777344 153.664062 L 96.636719 155.210938 L 98.5625 156.730469 L 100.558594 158.230469 L 102.652344 159.707031 L 104.765625 161.136719 L 106.90625 162.496094 L 109.042969 163.808594 L 111.230469 165.03125 L 113.414062 166.183594 L 115.671875 167.199219 L 117.953125 168.121094 L 120.253906 168.949219 L 122.605469 169.664062 L 124.976562 170.265625 L 127.351562 170.773438 L 129.75 171.164062 L 132.195312 171.464844 L 134.660156 171.671875 L 137.152344 171.808594 L 139.714844 171.855469 L 142.277344 171.808594 L 144.835938 171.695312 L 147.398438 171.488281 L 149.960938 171.210938 L 152.476562 170.820312 L 154.988281 170.335938 L 157.457031 169.734375 L 159.855469 169.019531 L 162.230469 168.214844 L 164.578125 167.292969 L 166.882812 166.230469 L 169.207031 165.054688 L 171.488281 163.785156 L 173.699219 162.402344 L 175.859375 160.902344 L 177.953125 159.335938 L 179.949219 157.675781 L 181.875 155.925781 L 183.710938 154.054688 L 185.449219 152.121094 L 187.117188 150.113281 L 188.691406 148.085938 L 190.195312 146.007812 L 191.628906 143.886719 L 192.992188 141.742188 L 194.238281 139.554688 L 195.414062 137.316406 L 196.519531 135.011719 L 197.574219 132.660156 L 198.539062 130.285156 L 199.457031 127.886719 L 200.324219 125.488281 L 201.148438 123.066406 L 201.921875 120.648438 L 202.628906 118.203125 L 203.308594 115.78125 L 203.921875 113.339844 L 204.4375 110.917969 L 204.882812 108.496094 L 205.238281 106.097656 L 205.542969 103.746094 L 205.777344 101.371094 L 205.941406 99.042969 L 206.058594 96.714844 L 206.105469 94.429688 L 206.082031 92.195312 L 206.011719 90.027344 L 205.847656 87.90625 L 205.613281 85.832031 L 205.308594 83.847656 L 204.90625 81.933594 L 204.4375 80.066406 L 203.898438 78.269531 L 203.261719 76.539062 L 202.558594 74.902344 L 201.804688 73.289062 L 200.984375 71.742188 L 200.089844 70.222656 L 199.101562 68.746094 L 198.070312 67.316406 L 196.964844 65.910156 L 195.835938 64.527344 L 194.683594 63.1875 L 193.460938 61.875 L 192.195312 60.605469 L 190.832031 59.363281 L 189.445312 58.140625 L 188.035156 56.964844 L 186.601562 55.835938 L 185.121094 54.773438 L 183.59375 53.734375 L 182.039062 52.746094 L 180.441406 51.800781 L 178.820312 50.855469 L 177.175781 49.953125 L 175.507812 49.078125 L 173.816406 48.226562 L 172.097656 47.394531 L 170.335938 46.566406 L 168.574219 45.757812 L 166.8125 44.996094 L 165.003906 44.257812 L 163.191406 43.542969 L 161.335938 42.851562 L 159.503906 42.207031 L 157.667969 41.585938 L 155.8125 41.007812 L 153.957031 40.476562 L 152.050781 39.972656 L 150.125 39.488281 L 148.222656 39.046875 L 146.292969 38.632812 L 144.367188 38.242188 L 142.394531 37.871094 L 140.394531 37.503906 L 138.398438 37.179688 L 136.421875 36.90625 L 134.449219 36.652344 L 132.5 36.464844 L 130.546875 36.28125 L 128.574219 36.121094 L 126.625 36.003906 L 124.648438 35.9375 L 122.699219 35.890625 L 120.75 35.890625 L 118.820312 35.9375 L 116.941406 36.027344 L 115.132812 36.167969 L 113.34375 36.351562 L 111.558594 36.605469 L 109.773438 36.90625 L 107.988281 37.25 L 106.199219 37.640625 L 104.484375 38.058594 L 102.792969 38.542969 L 101.148438 39.070312 L 99.550781 39.671875 L 97.976562 40.316406 L 96.421875 41.03125 L 94.941406 41.816406 L 93.460938 42.667969 L 92.003906 43.589844 L 90.617188 44.605469 L 89.230469 45.667969 L 87.890625 46.796875 L 86.578125 47.996094 L 85.285156 49.238281 L 84.039062 50.578125 L 82.816406 51.960938 L 81.640625 53.414062 L 80.535156 54.933594 L 79.433594 56.457031 L 78.375 58.046875 L 77.363281 59.660156 L 76.421875 61.34375 L 75.507812 63.050781 L 74.636719 64.828125 L 73.769531 66.648438 L 72.921875 68.515625 L 72.121094 70.429688 L 71.347656 72.320312 L 70.617188 74.257812 L 69.9375 76.195312 L 69.347656 78.128906 L 68.808594 80.089844 L 68.363281 82.050781 L 67.988281 83.988281 L 67.679688 85.898438 L 67.445312 87.789062 L 67.257812 89.679688 L 67.164062 91.550781 L 67.164062 93.417969 L 67.210938 95.261719 L 67.351562 97.082031 L 67.5625 98.949219 L 67.84375 100.816406 L 68.199219 102.707031 L 68.621094 104.621094 L 69.113281 106.535156 L 69.679688 108.472656 L 70.359375 110.410156 L 71.089844 112.347656 L 71.910156 114.285156 L 72.804688 116.195312 L 73.769531 118.085938 L 74.824219 119.933594 L 75.929688 121.753906 L 77.128906 123.550781 L 78.398438 125.28125 L 79.714844 126.988281 L 81.101562 128.648438 L 82.582031 130.261719 L 84.132812 131.851562 L 85.777344 133.421875 L 87.492188 134.917969 L 89.253906 136.394531 L 91.042969 137.800781 L 92.898438 139.183594 L 94.800781 140.5 L 96.753906 141.789062 L 98.75 143.011719 L 100.773438 144.210938 L 102.816406 145.339844 L 104.882812 146.402344 L 106.976562 147.371094 L 109.113281 148.269531 L 111.277344 149.054688 L 113.4375 149.8125 L 115.601562 150.503906 L 117.761719 151.175781 L 119.949219 151.796875 L 122.132812 152.375 L 124.34375 152.902344 L 126.578125 153.339844 L 128.832031 153.757812 L 131.066406 154.078125 L 133.296875 154.378906 L 135.53125 154.632812 L 137.738281 154.839844 L 139.949219 155 L 142.160156 155.140625 L 144.367188 155.253906 L 146.554688 155.347656 L 148.667969 155.417969 L 150.738281 155.460938 L 152.734375 155.460938 L 154.753906 155.417969 L 156.753906 155.324219 L 158.75 155.210938 L 160.726562 155.023438 L 162.652344 154.816406 L 164.53125 154.539062 L 166.363281 154.195312 L 168.175781 153.824219 L 169.960938 153.363281 L 171.722656 152.878906 L 173.4375 152.351562 L 175.15625 151.773438 L 176.847656 151.152344 L 178.492188 150.484375 L 180.089844 149.769531 L 181.640625 148.984375 L 183.144531 148.109375 L 184.601562 147.183594 L 186.035156 146.171875 L 187.421875 145.085938 L 188.738281 143.933594 L 190.007812 142.6875 L 191.230469 141.351562 L 192.429688 139.96875 L 193.53125 138.492188 L 194.566406 136.949219 L 195.507812 135.335938 L 196.402344 133.652344 L 197.246094 131.921875 L 198.046875 130.167969 L 198.773438 128.347656 L 199.480469 126.480469 L 200.089844 124.566406 L 200.652344 122.628906 L 201.148438 120.671875 L 201.59375 118.6875 L 201.96875 116.75 L 202.300781 114.789062 L 202.582031 112.855469 L 202.792969 110.917969 L 202.957031 108.980469 L 203.074219 107.066406 L 203.121094 105.175781 L 203.121094 103.285156 L 203.074219 101.417969 L 202.957031 99.550781 L 202.816406 97.683594 L 202.628906 95.835938 L 202.394531 93.992188 L 202.136719 92.125 L 201.828125 90.257812 L 201.476562 88.414062 L 201.078125 86.570312 L 200.605469 84.769531 L 200.113281 82.996094 L 199.527344 81.289062 L 198.890625 79.605469 L 198.1875 77.945312 L 197.457031 76.308594 L 196.660156 74.695312 L 195.835938 73.082031 L 194.941406 71.511719 L 194.003906 69.945312 L 192.992188 68.398438 L 191.957031 66.878906 L 190.855469 65.402344 L 189.703125 63.972656 L 188.527344 62.589844 L 187.304688 61.230469 L 186.058594 59.9375 L 184.765625 58.671875 L 183.449219 57.449219 L 182.085938 56.273438 L 180.703125 55.140625 L 179.292969 54.035156 L 177.859375 52.953125 L 176.375 51.890625 L 174.894531 50.875 L 173.367188 49.886719 L 171.839844 48.941406 L 170.3125 48.019531 L 168.761719 47.140625 L 167.210938 46.289062 L 165.636719 45.457031 L 164.039062 44.675781 L 162.417969 43.914062 L 160.75 43.175781 L 159.03125 42.484375 L 157.316406 41.816406 L 155.578125 41.171875 L 153.839844 40.570312 L 152.097656 39.992188 L 150.359375 39.488281 L 148.574219 39.027344 L 146.742188 38.609375 L 144.90625 38.242188 L 143.074219 37.894531 L 141.195312 37.597656 L 139.316406 37.296875 L 137.433594 37.042969 L 135.53125 36.835938 L 133.628906 36.652344 L 131.746094 36.511719 L 129.867188 36.421875 L 127.964844 36.375 L 126.035156 36.375 L 124.132812 36.441406 L 122.230469 36.535156 L 120.300781 36.695312 L 118.375 36.882812 L 116.472656 37.136719 L 114.566406 37.410156 L 112.710938 37.734375 L 110.832031 38.101562 L 108.972656 38.519531 L 107.09375 38.980469 L 105.238281 39.464844 L 103.449219 39.992188 L 101.6875 40.570312 L 99.949219 41.191406 L 98.210938 41.863281 L 96.542969 42.53125 L 94.894531 43.246094 L 93.320312 43.984375 L 91.792969 44.765625 L 90.3125 45.574219 L 88.878906 46.449219 L 87.492188 47.371094 L 86.128906 48.339844 L 84.8125 49.308594 L 83.542969 50.324219 L 82.324219 51.382812 L 81.171875 52.46875 L 80.066406 53.597656 L 79.007812 54.75 L 78 55.949219 L 77.058594 57.171875 L 76.1875 58.417969 L 75.390625 59.683594 L 74.660156 60.953125 L 73.980469 62.289062 L 73.34375 63.652344 L 72.710938 65.058594 L 72.121094 66.488281 L 71.558594 67.960938 L 71.042969 69.460938 L 70.570312 71.003906 L 70.148438 72.550781 L 69.75 74.140625 L 69.398438 75.753906 L 69.042969 77.390625 L 68.714844 79.050781 L 68.386719 80.734375 L 68.105469 82.441406 L 67.820312 84.148438 L 67.5625 85.878906 L 67.328125 87.628906 L 67.117188 89.429688 L 66.929688 91.273438 L 66.789062 93.164062 L 66.671875 95.078125 L 66.625 97.035156 L 66.625 99.019531 L 66.671875 101.070312 L 66.765625 103.167969 L 66.953125 105.246094 L 67.210938 107.296875 L 67.515625 109.304688 L 67.890625 111.285156 L 68.316406 113.269531 L 68.808594 115.25 L 69.375 117.1875 L 70.007812 119.078125 L 70.710938 120.921875 L 71.535156 122.722656 L 72.40625 124.472656 L 73.34375 126.179688 L 74.332031 127.863281 L 75.390625 129.476562 L 76.542969 131.070312 L 77.761719 132.613281 L 79.03125 134.113281 L 80.347656 135.566406 L 81.710938 136.972656 L 83.121094 138.355469 L 84.554688 139.691406 L 86.035156 141.027344 L 87.539062 142.320312 L 89.089844 143.589844 L 90.6875 144.878906 L 92.335938 146.171875 L 94.027344 147.4375 L 95.742188 148.730469 L 97.503906 150.019531 L 99.335938 151.289062 L 101.195312 152.582031 L 103.097656 153.871094 L 105 155.140625 L 106.90625 156.339844 L 108.832031 157.515625 L 110.734375 158.644531 L 112.617188 159.707031 L 114.519531 160.671875 L 116.472656 161.597656 L 118.46875 162.425781 L 120.535156 163.1875 L 122.605469 163.902344 L 124.695312 164.523438 L 126.789062 165.101562 L 128.878906 165.585938 L 130.996094 166 L 133.132812 166.324219 L 135.34375 166.578125 L 137.550781 166.761719 L 139.785156 166.875 L 142.015625 166.921875 L 144.25 166.875 L 146.484375 166.738281 L 148.714844 166.507812 L 150.925781 166.207031 L 153.132812 165.839844 L 155.34375 165.398438 L 157.503906 164.871094 L 159.644531 164.246094 L 161.734375 163.53125 L 163.78125 162.75 L 165.847656 161.917969 L 167.917969 160.996094 L 169.960938 159.980469 L 171.980469 158.898438 L 173.933594 157.746094 L 175.835938 156.546875 L 177.667969 155.300781 L 179.480469 154.035156 L 181.21875 152.71875 L 182.910156 151.359375 L 184.53125 149.953125 L 186.082031 148.476562 L 187.5625 146.953125 L 189.019531 145.386719 L 190.40625 143.75 L 191.746094 142.089844 L 193.015625 140.382812 L 194.191406 138.632812 L 195.296875 136.832031 L 196.328125 135.011719 L 197.339844 133.191406 L 198.28125 131.34375 L 199.171875 129.476562 L 199.996094 127.539062 L 200.75 125.605469 L 201.453125 123.621094 L 202.136719 121.636719 L 202.746094 119.632812 L 203.332031 117.625 L 203.828125 115.621094 L 204.226562 113.589844 L 204.578125 111.5625 L 204.859375 109.558594 L 205.050781 107.597656 L 205.144531 105.636719 L 205.167969 103.675781 L 205.097656 101.742188 L 204.957031 99.828125 L 204.742188 97.9375 L 204.460938 96.089844 L 204.085938 94.246094 L 203.640625 92.402344 L 203.121094 90.558594 L 202.558594 88.691406 L 201.945312 86.84375 L 201.289062 85 L 200.582031 83.179688 L 199.832031 81.402344 L 198.984375 79.699219 L 198.09375 78.015625 L 197.128906 76.378906 L 196.140625 74.765625 L 195.109375 73.171875 L 194.027344 71.652344 L 192.898438 70.152344 L 191.699219 68.699219 L 190.453125 67.246094 L 189.183594 65.773438 L 187.871094 64.320312 L 186.53125 62.890625 L 185.167969 61.484375 L 183.78125 60.078125 L 182.324219 58.714844 L 180.84375 57.378906 L 179.339844 56.066406 L 177.785156 54.84375 L 176.210938 53.667969 L 174.636719 52.535156 L 173.039062 51.476562 L 171.417969 50.414062 L 169.75 49.425781 L 168.035156 48.457031 L 166.316406 47.511719 L 164.578125 46.613281 L 162.816406 45.734375 L 161.054688 44.882812 L 159.242188 44.027344 L 157.457031 43.246094 L 155.648438 42.484375 L 153.792969 41.792969 L 151.910156 41.125 L 150.03125 40.523438 L 148.128906 39.972656 L 146.199219 39.464844 L 144.226562 38.980469 L 142.230469 38.542969 L 140.183594 38.125 L 138.140625 37.757812 L 136.09375 37.390625 L 134.050781 37.066406 L 132.027344 36.789062 L 129.984375 36.558594 L 127.941406 36.351562 L 125.917969 36.191406 L 123.898438 36.074219 L 121.898438 36.003906 L 119.925781 35.960938 L 117.953125 35.9375 L 115.976562 35.980469 L 114.050781 36.050781 L 112.144531 36.144531 L 110.289062 36.304688 L 108.480469 36.464844 L 106.695312 36.675781 L 104.90625 36.90625 L 103.191406 37.15625 L 101.523438 37.457031 L 99.925781 37.757812 L 98.351562 38.101562 L 96.847656 38.496094 L 95.34375 38.933594 L 93.886719 39.441406 L 92.453125 39.992188 L 91.042969 40.617188 L 89.679688 41.308594 L 88.363281 42.046875 L 87.117188 42.851562 L 85.871094 43.683594 L 84.648438 44.582031 L 83.472656 45.503906 L 82.347656 46.472656 L 81.3125 47.511719 L 80.300781 48.570312 L 79.3125 49.679688 L 78.328125 50.832031 L 77.386719 52.03125 L 76.492188 53.273438 L 75.625 54.566406 L 74.824219 55.878906 L 74.050781 57.195312 L 73.273438 58.554688 L 72.546875 59.9375 L 71.863281 61.320312 L 71.207031 62.707031 L 70.59375 64.113281 L 70.054688 65.519531 L 69.585938 66.949219 L 69.160156 68.378906 L 68.761719 69.851562 L 68.410156 71.375 L 68.105469 72.894531 L 67.796875 74.464844 L 67.539062 76.078125 L 67.304688 77.738281 L 67.09375 79.445312 L 66.929688 81.195312 L 66.765625 83.019531 L 66.601562 84.863281 L 66.457031 86.777344 L 66.363281 88.734375 L 66.292969 90.695312 L 66.269531 92.65625 L 66.316406 94.59375 L 66.363281 96.574219 L 66.480469 98.582031 L 66.625 100.609375 L 66.835938 102.6875 L 67.070312 104.761719 L 67.375 106.8125 L 67.703125 108.863281 L 68.058594 110.941406 L 68.433594 112.992188 L 68.832031 115.042969 L 69.277344 117.097656 L 69.796875 119.101562 L 70.40625 121.0625 L 71.089844 123 L 71.839844 124.914062 L 72.640625 126.804688 L 73.460938 128.671875 L 74.332031 130.515625 L 75.273438 132.3125 L 76.28125 134.136719 L 77.363281 135.933594 L 78.515625 137.730469 L 79.714844 139.507812 L 81.007812 141.261719 L 82.394531 143.011719 L 83.875 144.71875 L 85.425781 146.378906 L 87.070312 147.96875 L 88.738281 149.515625 L 90.476562 150.988281 L 92.289062 152.394531 L 94.167969 153.78125 L 96.140625 155.117188 L 98.164062 156.386719 L 100.207031 157.585938 L 102.300781 158.714844 L 104.414062 159.75 L 106.578125 160.652344 L 108.808594 161.433594 L 111.089844 162.101562 L 113.414062 162.65625 L 115.765625 163.117188 L 118.140625 163.507812 L 120.558594 163.808594 L 122.957031 164.015625 L 125.378906 164.15625 L 127.796875 164.179688 L 130.265625 164.132812 L 132.757812 164.015625 L 135.273438 163.832031 L 137.832031 163.601562 L 140.371094 163.324219 L 142.886719 163.003906 L 145.355469 162.609375 L 147.820312 162.195312 L 150.242188 161.710938 L 152.664062 161.15625 L 155.039062 160.582031 L 157.363281 159.914062 L 159.667969 159.152344 L 161.921875 158.367188 L 164.132812 157.515625 L 166.246094 156.640625 L 168.316406 155.714844 L 170.335938 154.75 L 172.3125 153.6875 L 174.238281 152.535156 L 176.117188 151.3125 L 177.929688 150 L 179.621094 148.636719 L 181.265625 147.183594 L 182.816406 145.6875 L 184.273438 144.140625 L 185.683594 142.527344 L 186.976562 140.867188 L 188.199219 139.160156 L 189.351562 137.433594 L 190.453125 135.632812 L 191.511719 133.765625 L 192.5 131.828125 L 193.390625 129.871094 L 194.191406 127.886719 L 194.917969 125.859375 L 195.601562 123.804688 L 196.210938 121.730469 L 196.777344 119.585938 L 197.269531 117.441406 L 197.691406 115.296875 L 198.046875 113.128906 L 198.375 110.984375 L 198.609375 108.820312 L 198.820312 106.675781 L 198.960938 104.507812 L 199.054688 102.316406 L 199.101562 100.125 L 199.101562 97.960938 L 199.03125 95.835938 L 198.914062 93.785156 L 198.726562 91.757812 L 198.445312 89.75 L 198.117188 87.769531 L 197.714844 85.785156 L 197.292969 83.824219 L 196.824219 81.910156 L 196.304688 80.019531 L 195.765625 78.175781 L 195.15625 76.378906 L 194.472656 74.648438 L 193.722656 72.988281 L 192.921875 71.398438 L 192.097656 69.875 L 191.230469 68.378906 L 190.335938 66.902344 L 189.398438 65.425781 L 188.457031 64.019531 L 187.46875 62.636719 L 186.460938 61.320312 L 185.425781 60.054688 L 184.390625 58.808594 L 183.308594 57.585938 L 182.207031 56.410156 L 181.054688 55.234375 L 179.878906 54.105469 L 178.703125 53.019531 L 177.527344 51.984375 L 176.328125 50.96875 L 175.132812 50 L 173.910156 49.054688 L 172.664062 48.132812 L 171.394531 47.28125 L 170.125 46.472656 L 168.855469 45.710938 L 167.585938 44.972656 L 166.316406 44.28125 L 165.050781 43.636719 L 163.78125 42.992188 L 162.488281 42.367188 L 161.195312 41.769531 L 159.925781 41.191406 L 158.703125 40.617188 L 157.480469 40.085938 L 156.257812 39.578125 L 155.039062 39.070312 L 153.816406 38.585938 L 152.640625 38.101562 L 151.464844 37.640625 L 150.3125 37.203125 L 149.183594 36.765625 L 148.058594 36.328125 L 147 35.914062 L 145.917969 35.519531 L 144.859375 35.175781 L 143.828125 34.828125 L 142.816406 34.53125 L 141.851562 34.230469 L 140.9375 33.953125 L 140.042969 33.699219 L 139.195312 33.46875 L 138.351562 33.261719 L 137.550781 33.078125 L 136.777344 32.960938 L 136.046875 32.847656 L 135.367188 32.777344 L 134.730469 32.730469 L 134.097656 32.683594 L 133.507812 32.660156 L 132.945312 32.660156 L 132.429688 32.683594 L 131.886719 32.730469 L 131.347656 32.777344 L 130.832031 32.847656 L 130.265625 32.9375 L 129.679688 33.078125 L 128.996094 33.285156 L 128.199219 33.5625 L 127.1875 33.929688 L 126.011719 34.414062 L 124.601562 35.058594 L 123.472656 35.613281 L 117.667969 39.003906 "/>
</g>
</svg>
