<?xml version="1.0" encoding="UTF-8"?>
<svg xmlns="http://www.w3.org/2000/svg" xmlns:xlink="http://www.w3.org/1999/xlink" width="283.46pt" height="283.46pt" viewBox="0 0 283.46 283.46" version="1.2">
<g id="surface95998">
<path style=" stroke:none;fill-rule:nonzero;fill:rgb(100%,100%,100%);fill-opacity:1;" d="M 0 0 L 283.460938 0 L 283.460938 283.460938 L 0 283.460938 Z M 0 0 "/>
<path style="fill:none;stroke-width:0.85;stroke-linecap:round;stroke-linejoin:round;stroke:rgb(0%,0%,0%);stroke-opacity:1;comp-op:src;clip-to-self:true;stroke-miterlimit:10;" d="M 140.253906 34.550781 L 139.925781 34.53125 L 139.621094 34.53125 L 139.148438 34.507812 L 136.328125 34.507812 L 135.742188 34.53125 L 135.414062 34.574219 L 135.039062 34.621094 L 134.613281 34.691406 L 134.214844 34.738281 L 133.816406 34.804688 L 133.414062 34.851562 L 132.992188 34.898438 L 132.546875 34.945312 L 132.050781 34.992188 L 131.535156 35.035156 L 131.019531 35.105469 L 130.5 35.199219 L 130.007812 35.289062 L 129.539062 35.382812 L 129.066406 35.476562 L 128.597656 35.566406 L 128.082031 35.660156 L 127.515625 35.75 L 126.929688 35.84375 L 126.316406 35.9375 L 125.683594 36.050781 L 125.050781 36.191406 L 124.4375 36.328125 L 123.851562 36.464844 L 123.261719 36.605469 L 122.675781 36.765625 L 122.0625 36.949219 L 121.429688 37.136719 L 120.773438 37.296875 L 120.113281 37.480469 L 119.457031 37.664062 L 118.796875 37.851562 L 118.164062 38.035156 L 117.550781 38.21875 L 116.917969 38.402344 L 116.28125 38.566406 L 115.648438 38.773438 L 114.988281 38.980469 L 114.308594 39.210938 L 113.601562 39.464844 L 112.898438 39.71875 L 112.195312 39.992188 L 111.488281 40.292969 L 110.785156 40.59375 L 110.078125 40.917969 L 109.324219 41.214844 L 108.550781 41.515625 L 107.773438 41.816406 L 107.023438 42.136719 L 106.269531 42.484375 L 105.519531 42.832031 L 104.765625 43.222656 L 104.015625 43.636719 L 103.214844 44.050781 L 102.441406 44.488281 L 101.640625 44.90625 L 100.867188 45.34375 L 100.113281 45.757812 L 99.363281 46.171875 L 97.855469 47.09375 L 97.082031 47.578125 L 96.28125 48.0625 L 95.507812 48.546875 L 94.753906 49.054688 L 94.027344 49.5625 L 93.320312 50.070312 L 92.640625 50.578125 L 91.980469 51.109375 L 91.277344 51.613281 L 90.59375 52.144531 L 89.890625 52.652344 L 89.253906 53.183594 L 88.644531 53.734375 L 88.058594 54.289062 L 87.492188 54.84375 L 86.929688 55.417969 L 86.363281 56.019531 L 85.800781 56.617188 L 85.238281 57.21875 L 84.695312 57.816406 L 84.132812 58.417969 L 83.566406 59.0625 L 83.003906 59.707031 L 82.464844 60.375 L 81.945312 61.066406 L 81.476562 61.761719 L 81.03125 62.453125 L 80.558594 63.144531 L 80.113281 63.859375 L 79.644531 64.574219 L 79.171875 65.308594 L 78.703125 66.046875 L 78.234375 66.761719 L 77.761719 67.5 L 77.269531 68.238281 L 76.800781 69 L 76.328125 69.785156 L 75.882812 70.566406 L 75.460938 71.351562 L 75.035156 72.136719 L 74.636719 72.894531 L 74.238281 73.679688 L 73.839844 74.441406 L 73.4375 75.203125 L 73.0625 75.960938 L 72.265625 77.484375 L 71.886719 78.246094 L 71.511719 79.097656 L 71.136719 80.019531 L 70.808594 80.898438 L 70.476562 81.773438 L 70.242188 82.511719 L 70.007812 83.179688 L 69.820312 83.894531 L 69.65625 84.632812 L 69.421875 86.0625 L 69.324219 86.777344 L 69.207031 87.46875 L 69.089844 88.183594 L 68.996094 88.921875 L 68.925781 89.636719 L 68.925781 93.277344 L 68.949219 94.109375 L 68.949219 97.589844 L 69.042969 99.386719 L 69.136719 100.289062 L 69.207031 101.1875 L 69.347656 102.9375 L 69.421875 103.839844 L 69.515625 104.714844 L 69.632812 105.566406 L 69.773438 106.421875 L 69.960938 107.25 L 70.171875 108.082031 L 70.429688 108.910156 L 70.710938 109.742188 L 70.972656 110.546875 L 71.253906 111.355469 L 71.535156 112.160156 L 71.792969 112.945312 L 72.074219 113.753906 L 72.359375 114.535156 L 72.640625 115.367188 L 72.945312 116.195312 L 73.25 117.003906 L 73.53125 117.8125 L 73.792969 118.617188 L 74.074219 119.425781 L 74.378906 120.230469 L 74.660156 121.039062 L 74.964844 121.824219 L 75.226562 122.628906 L 75.484375 123.414062 L 75.765625 124.175781 L 76.070312 124.9375 L 76.398438 125.671875 L 76.777344 126.410156 L 77.175781 127.125 L 77.597656 127.886719 L 78.046875 128.601562 L 78.46875 129.316406 L 78.914062 130.007812 L 79.3125 130.675781 L 79.738281 131.367188 L 80.160156 132.082031 L 80.582031 132.75 L 81.007812 133.445312 L 81.429688 134.113281 L 81.875 134.78125 L 82.347656 135.449219 L 82.886719 136.117188 L 83.425781 136.765625 L 83.992188 137.410156 L 84.578125 138.054688 L 85.121094 138.699219 L 85.660156 139.371094 L 86.175781 140.039062 L 86.695312 140.683594 L 87.257812 141.351562 L 87.84375 141.996094 L 88.480469 142.621094 L 89.160156 143.242188 L 89.890625 143.867188 L 90.640625 144.488281 L 91.347656 145.132812 L 92.050781 145.777344 L 92.734375 146.425781 L 93.484375 147.164062 L 94.308594 147.898438 L 95.15625 148.59375 L 96.023438 149.261719 L 96.871094 149.90625 L 97.667969 150.574219 L 98.492188 151.21875 L 99.335938 151.890625 L 100.207031 152.535156 L 101.171875 153.15625 L 102.085938 153.734375 L 102.980469 154.285156 L 103.875 154.816406 L 104.765625 155.300781 L 105.683594 155.808594 L 106.648438 156.292969 L 107.609375 156.753906 L 108.597656 157.261719 L 109.539062 157.769531 L 110.453125 158.253906 L 111.371094 158.761719 L 112.3125 159.246094 L 113.25 159.726562 L 114.214844 160.191406 L 115.15625 160.605469 L 116.070312 160.996094 L 117.058594 161.410156 L 118.140625 161.847656 L 119.078125 162.242188 L 119.972656 162.585938 L 120.9375 162.933594 L 121.851562 163.300781 L 122.886719 163.695312 L 123.992188 164.109375 L 124.976562 164.453125 L 125.917969 164.753906 L 126.929688 165.054688 L 127.988281 165.332031 L 129.089844 165.609375 L 130.265625 165.863281 L 131.371094 166.046875 L 132.429688 166.207031 L 133.507812 166.34375 L 134.613281 166.484375 L 135.71875 166.644531 L 136.871094 166.808594 L 137.929688 166.96875 L 138.914062 167.105469 L 140.019531 167.269531 L 141.148438 167.429688 L 142.277344 167.566406 L 143.402344 167.707031 L 144.507812 167.820312 L 145.613281 167.914062 L 146.789062 168.027344 L 148.058594 168.121094 L 149.207031 168.214844 L 150.289062 168.28125 L 151.394531 168.328125 L 152.476562 168.328125 L 153.582031 168.304688 L 154.730469 168.257812 L 155.882812 168.214844 L 157.011719 168.144531 L 158.140625 168.050781 L 159.242188 167.9375 L 160.417969 167.773438 L 161.617188 167.613281 L 163.96875 167.199219 L 165.121094 166.945312 L 166.246094 166.667969 L 167.421875 166.34375 L 168.597656 166.023438 L 169.796875 165.652344 L 171.019531 165.214844 L 172.242188 164.753906 L 173.507812 164.246094 L 174.707031 163.742188 L 175.90625 163.1875 L 177.058594 162.632812 L 178.164062 162.082031 L 179.292969 161.480469 L 180.371094 160.859375 L 181.429688 160.234375 L 182.488281 159.566406 L 183.519531 158.921875 L 184.484375 158.253906 L 185.402344 157.605469 L 186.269531 156.960938 L 187.871094 155.625 L 188.644531 154.910156 L 189.46875 154.171875 L 190.289062 153.386719 L 191.160156 152.605469 L 191.980469 151.820312 L 192.78125 151.011719 L 193.507812 150.207031 L 194.214844 149.421875 L 194.917969 148.613281 L 195.625 147.761719 L 196.328125 146.910156 L 197.011719 146.078125 L 197.644531 145.316406 L 198.210938 144.625 L 198.820312 143.84375 L 199.433594 143.011719 L 200.042969 142.160156 L 200.605469 141.304688 L 201.148438 140.453125 L 201.664062 139.601562 L 202.160156 138.722656 L 202.652344 137.847656 L 203.144531 136.949219 L 203.617188 136.050781 L 204.0625 135.148438 L 204.484375 134.25 L 204.859375 133.304688 L 205.214844 132.3125 L 205.542969 131.34375 L 205.847656 130.332031 L 206.152344 129.316406 L 206.460938 128.253906 L 206.789062 127.148438 L 207.117188 125.996094 L 207.375 124.9375 L 207.609375 123.898438 L 207.824219 122.835938 L 208.058594 121.753906 L 208.269531 120.691406 L 208.480469 119.679688 L 208.667969 118.640625 L 208.878906 117.625 L 209.066406 116.566406 L 209.257812 115.480469 L 209.632812 113.316406 L 209.820312 112.277344 L 209.960938 111.238281 L 210.101562 110.226562 L 210.21875 109.234375 L 210.335938 108.21875 L 210.429688 107.203125 L 210.5 106.28125 L 210.546875 105.429688 L 210.546875 104.460938 L 210.5 103.445312 L 210.453125 102.457031 L 210.382812 101.488281 L 210.335938 100.496094 L 210.265625 99.503906 L 210.195312 98.464844 L 210.101562 97.335938 L 209.984375 96.320312 L 209.84375 95.332031 L 209.726562 94.386719 L 209.585938 93.53125 L 209.398438 92.585938 L 209.160156 91.617188 L 208.925781 90.671875 L 208.691406 89.75 L 208.433594 88.78125 L 208.175781 87.789062 L 207.917969 86.824219 L 207.65625 85.855469 L 207.398438 84.863281 L 207.117188 83.871094 L 206.507812 81.886719 L 206.175781 80.921875 L 205.472656 78.984375 L 205.097656 78.015625 L 204.695312 77.046875 L 204.25 76.078125 L 203.734375 75.0625 L 203.191406 73.980469 L 202.675781 73.035156 L 202.160156 72.136719 L 201.640625 71.257812 L 201.101562 70.40625 L 200.535156 69.554688 L 199.972656 68.722656 L 199.386719 67.871094 L 198.75 66.992188 L 198.09375 66.140625 L 197.433594 65.289062 L 196.777344 64.457031 L 196.117188 63.628906 L 195.484375 62.796875 L 194.824219 61.945312 L 194.167969 61.136719 L 193.484375 60.332031 L 192.757812 59.523438 L 192.050781 58.738281 L 191.300781 57.957031 L 190.570312 57.171875 L 189.867188 56.457031 L 189.230469 55.8125 L 188.503906 55.121094 L 187.773438 54.40625 L 186.976562 53.667969 L 186.105469 52.90625 L 185.355469 52.261719 L 184.671875 51.683594 L 183.921875 51.039062 L 183.144531 50.394531 L 182.371094 49.746094 L 181.59375 49.101562 L 180.796875 48.503906 L 179.972656 47.902344 L 179.171875 47.347656 L 178.375 46.796875 L 177.597656 46.289062 L 176.847656 45.78125 L 176.09375 45.296875 L 175.296875 44.789062 L 174.472656 44.28125 L 173.652344 43.777344 L 172.828125 43.292969 L 172.074219 42.832031 L 171.347656 42.367188 L 170.664062 41.929688 L 169.984375 41.46875 L 169.28125 41.007812 L 168.574219 40.546875 L 167.820312 40.085938 L 166.414062 39.210938 L 165.824219 38.816406 L 165.285156 38.472656 L 164.625 38.035156 L 163.851562 37.574219 L 163.121094 37.15625 L 162.417969 36.742188 L 161.78125 36.421875 L 161.21875 36.121094 L 160.605469 35.820312 L 159.925781 35.519531 L 159.171875 35.199219 L 158.328125 34.875 L 157.503906 34.621094 L 156.707031 34.367188 L 155.882812 34.183594 L 155.039062 34 L 154.214844 33.839844 L 153.4375 33.699219 L 152.617188 33.585938 L 151.746094 33.492188 L 150.855469 33.398438 L 149.9375 33.308594 L 149.042969 33.214844 L 148.199219 33.167969 L 147.328125 33.125 L 146.484375 33.101562 L 138.867188 33.101562 L 137.90625 33.125 L 137.035156 33.144531 L 136.09375 33.167969 L 135.132812 33.214844 L 134.097656 33.261719 L 132.992188 33.308594 L 132.027344 33.332031 L 131.160156 33.375 L 130.242188 33.398438 L 129.300781 33.421875 L 128.316406 33.46875 L 127.234375 33.492188 L 126.292969 33.539062 L 125.425781 33.585938 L 124.484375 33.652344 L 123.542969 33.722656 L 122.605469 33.816406 L 121.664062 33.90625 L 120.722656 34.023438 L 119.785156 34.136719 L 118.867188 34.253906 L 117.976562 34.367188 L 117.082031 34.507812 L 116.164062 34.644531 L 115.25 34.828125 L 114.308594 35.015625 L 113.390625 35.222656 L 112.476562 35.476562 L 111.488281 35.773438 L 110.429688 36.121094 L 109.421875 36.464844 L 108.433594 36.835938 L 107.421875 37.226562 L 106.410156 37.640625 L 105.402344 38.082031 L 104.414062 38.519531 L 103.378906 38.957031 L 102.371094 39.441406 L 101.359375 39.925781 L 100.417969 40.410156 L 99.480469 40.9375 L 97.691406 42.046875 L 96.753906 42.621094 L 95.90625 43.152344 L 95.132812 43.636719 L 94.308594 44.191406 L 93.507812 44.765625 L 92.734375 45.34375 L 91.957031 45.941406 L 91.160156 46.566406 L 90.359375 47.1875 L 89.585938 47.808594 L 88.832031 48.410156 L 88.152344 49.007812 L 87.515625 49.585938 L 86.882812 50.164062 L 86.269531 50.738281 L 85.636719 51.359375 L 84.976562 52.03125 L 84.296875 52.722656 L 83.613281 53.414062 L 82.933594 54.105469 L 82.277344 54.796875 L 81.59375 55.511719 L 80.960938 56.226562 L 80.300781 56.964844 L 79.691406 57.679688 L 79.054688 58.394531 L 78.445312 59.109375 L 77.808594 59.800781 L 77.222656 60.515625 L 76.636719 61.207031 L 76.070312 61.921875 L 75.53125 62.660156 L 75.011719 63.398438 L 74.496094 64.132812 L 74.003906 64.871094 L 73.507812 65.585938 L 73.015625 66.277344 L 72.546875 66.949219 L 72.050781 67.59375 L 71.605469 68.167969 L 70.808594 69.277344 L 70.40625 69.875 L 70.054688 70.453125 L 69.726562 71.050781 L 69.421875 71.652344 L 69.136719 72.25 L 68.878906 72.894531 L 68.644531 73.519531 L 68.433594 74.1875 L 68.246094 74.878906 L 68.058594 75.59375 L 67.867188 76.332031 L 67.65625 77.160156 L 67.398438 78.0625 L 67.140625 78.9375 L 66.882812 79.789062 L 66.625 80.667969 L 66.386719 81.542969 L 65.964844 83.292969 L 65.800781 84.148438 L 65.660156 84.976562 L 65.519531 85.855469 L 65.378906 86.730469 L 65.261719 87.605469 L 65.144531 88.503906 L 65.023438 89.382812 L 64.929688 90.210938 L 64.859375 91.042969 L 64.8125 91.871094 L 64.789062 92.726562 L 64.765625 93.601562 L 64.789062 94.453125 L 64.835938 95.308594 L 64.859375 96.183594 L 64.90625 97.058594 L 64.953125 97.980469 L 65.046875 100.011719 L 65.097656 101.027344 L 65.167969 102.0625 L 65.238281 103.101562 L 65.355469 104.113281 L 65.472656 105.128906 L 65.800781 107.113281 L 65.988281 108.082031 L 66.199219 109.050781 L 66.433594 110.039062 L 66.671875 111.03125 L 67.1875 113.015625 L 67.445312 114.03125 L 67.726562 115.066406 L 68.011719 116.105469 L 68.292969 117.140625 L 68.574219 118.226562 L 68.832031 119.285156 L 69.136719 120.460938 L 69.445312 121.683594 L 69.75 122.8125 L 70.03125 123.898438 L 70.335938 124.980469 L 70.664062 126.089844 L 71.019531 127.171875 L 71.394531 128.253906 L 71.792969 129.292969 L 72.167969 130.308594 L 72.59375 131.300781 L 73.015625 132.289062 L 73.4375 133.167969 L 73.839844 133.996094 L 74.308594 134.875 L 74.800781 135.726562 L 75.320312 136.578125 L 75.882812 137.410156 L 76.519531 138.238281 L 77.175781 139.023438 L 77.902344 139.875 L 78.632812 140.753906 L 79.265625 141.511719 L 79.808594 142.183594 L 80.441406 142.941406 L 81.101562 143.726562 L 81.78125 144.558594 L 82.558594 145.457031 L 83.285156 146.261719 L 84.015625 147.023438 L 84.789062 147.785156 L 85.542969 148.5 L 86.292969 149.214844 L 87.09375 149.953125 L 87.941406 150.691406 L 88.832031 151.449219 L 89.75 152.164062 L 90.664062 152.878906 L 91.582031 153.527344 L 92.476562 154.171875 L 93.414062 154.816406 L 94.378906 155.460938 L 95.390625 156.132812 L 96.421875 156.777344 L 97.480469 157.445312 L 98.5625 158.089844 L 99.667969 158.761719 L 100.773438 159.40625 L 101.851562 160.003906 L 102.933594 160.558594 L 104.039062 161.089844 L 105.144531 161.597656 L 106.292969 162.101562 L 107.515625 162.585938 L 108.714844 163.027344 L 109.890625 163.488281 L 111.066406 163.925781 L 112.265625 164.363281 L 113.484375 164.800781 L 114.753906 165.214844 L 116 165.585938 L 117.246094 165.953125 L 118.515625 166.277344 L 119.808594 166.597656 L 122.394531 167.152344 L 123.710938 167.40625 L 125.074219 167.660156 L 126.363281 167.914062 L 127.632812 168.144531 L 128.925781 168.398438 L 130.21875 168.675781 L 131.535156 168.929688 L 132.898438 169.226562 L 134.238281 169.527344 L 136.917969 170.082031 L 139.597656 170.589844 L 140.890625 170.820312 L 142.207031 171.050781 L 143.566406 171.234375 L 144.90625 171.417969 L 147.632812 171.785156 L 148.972656 171.972656 L 150.289062 172.109375 L 151.582031 172.226562 L 152.875 172.339844 L 154.214844 172.433594 L 155.554688 172.5 L 156.964844 172.59375 L 158.28125 172.640625 L 159.550781 172.6875 L 160.796875 172.710938 L 162.039062 172.753906 L 164.648438 172.753906 L 165.941406 172.734375 L 167.234375 172.664062 L 168.480469 172.546875 L 169.703125 172.410156 L 170.878906 172.25 L 172.074219 172.085938 L 174.378906 171.671875 L 175.53125 171.394531 L 176.636719 171.09375 L 177.761719 170.773438 L 178.867188 170.402344 L 179.925781 170.011719 L 180.914062 169.621094 L 181.898438 169.203125 L 182.816406 168.765625 L 183.734375 168.304688 L 184.648438 167.796875 L 185.496094 167.335938 L 186.246094 166.875 L 187.046875 166.34375 L 187.796875 165.769531 L 188.597656 165.148438 L 189.421875 164.453125 L 190.101562 163.808594 L 190.761719 163.234375 L 191.441406 162.585938 L 192.074219 161.917969 L 192.710938 161.273438 L 193.296875 160.652344 L 193.886719 159.957031 L 194.472656 159.246094 L 195.039062 158.53125 L 195.625 157.816406 L 196.164062 157.078125 L 196.683594 156.316406 L 197.199219 155.554688 L 197.714844 154.769531 L 198.210938 153.941406 L 198.703125 153.109375 L 199.171875 152.28125 L 199.621094 151.429688 L 200.042969 150.574219 L 200.464844 149.722656 L 200.914062 148.800781 L 201.40625 147.832031 L 201.804688 146.976562 L 202.183594 146.21875 L 202.605469 145.363281 L 203.003906 144.488281 L 203.425781 143.613281 L 203.828125 142.757812 L 204.226562 141.90625 L 204.625 141.027344 L 205.050781 140.175781 L 205.449219 139.277344 L 205.847656 138.402344 L 206.269531 137.523438 L 206.671875 136.671875 L 207.421875 134.875 L 207.824219 133.929688 L 208.199219 132.980469 L 208.574219 132.058594 L 208.925781 131.136719 L 209.257812 130.238281 L 209.585938 129.316406 L 209.867188 128.394531 L 210.148438 127.496094 L 210.382812 126.59375 L 210.640625 125.695312 L 210.902344 124.773438 L 211.136719 123.828125 L 211.371094 122.835938 L 211.582031 121.867188 L 211.769531 120.902344 L 211.957031 119.933594 L 212.101562 118.988281 L 212.242188 118.019531 L 212.359375 117.074219 L 212.429688 116.152344 L 212.5 115.25 L 212.523438 114.328125 L 212.570312 113.40625 L 212.59375 112.460938 L 212.59375 111.515625 L 212.570312 110.570312 L 212.546875 109.648438 L 212.523438 108.703125 L 212.476562 107.734375 L 212.382812 105.84375 L 212.289062 104.921875 L 212.195312 104.023438 L 212.074219 103.101562 L 211.933594 102.179688 L 211.769531 101.210938 L 211.628906 100.21875 L 211.464844 99.25 L 211.324219 98.257812 L 211.136719 97.246094 L 210.925781 96.253906 L 210.714844 95.238281 L 210.453125 94.269531 L 209.679688 91.433594 L 209.398438 90.511719 L 209.113281 89.613281 L 208.785156 88.691406 L 208.480469 87.746094 L 208.152344 86.800781 L 207.847656 85.855469 L 207.539062 84.886719 L 207.234375 83.941406 L 206.90625 82.972656 L 206.601562 82.003906 L 206.316406 81.011719 L 206.011719 80.019531 L 205.730469 79.03125 L 205.425781 78.039062 L 205.097656 77.070312 L 204.765625 76.101562 L 204.4375 75.132812 L 204.0625 74.210938 L 203.710938 73.265625 L 203.332031 72.320312 L 202.957031 71.375 L 202.582031 70.40625 L 202.183594 69.4375 L 201.804688 68.492188 L 201.453125 67.546875 L 201.054688 66.625 L 200.628906 65.703125 L 200.207031 64.804688 L 199.761719 63.902344 L 199.292969 63.027344 L 198.820312 62.175781 L 198.328125 61.320312 L 197.808594 60.445312 L 197.292969 59.570312 L 196.753906 58.691406 L 196.210938 57.863281 L 195.671875 57.03125 L 195.109375 56.25 L 194.519531 55.464844 L 193.910156 54.679688 L 193.273438 53.898438 L 192.617188 53.136719 L 191.910156 52.398438 L 191.230469 51.683594 L 190.523438 50.96875 L 189.820312 50.300781 L 189.136719 49.609375 L 188.386719 48.871094 L 187.5625 48.085938 L 186.742188 47.394531 L 185.894531 46.726562 L 185.097656 46.148438 L 184.34375 45.597656 L 183.519531 44.996094 L 182.675781 44.398438 L 181.851562 43.796875 L 181.007812 43.199219 L 180.113281 42.621094 L 179.195312 42.046875 L 178.304688 41.515625 L 177.386719 40.984375 L 176.472656 40.457031 L 175.554688 39.949219 L 174.636719 39.417969 L 173.699219 38.910156 L 172.78125 38.425781 L 171.910156 37.988281 L 171.042969 37.527344 L 170.171875 37.066406 L 169.304688 36.605469 L 168.363281 36.191406 L 167.445312 35.796875 L 166.554688 35.40625 L 165.660156 35.058594 L 164.742188 34.714844 L 163.851562 34.367188 L 162.910156 34.046875 L 162.015625 33.746094 L 161.148438 33.445312 L 160.300781 33.191406 L 159.480469 32.914062 L 158.65625 32.683594 L 157.808594 32.429688 L 156.941406 32.179688 L 156.046875 31.945312 L 155.203125 31.761719 L 154.402344 31.601562 L 153.582031 31.441406 L 152.78125 31.277344 L 151.933594 31.117188 L 151.113281 30.980469 L 150.265625 30.886719 L 149.398438 30.792969 L 148.644531 30.726562 L 147.917969 30.65625 L 147.023438 30.609375 L 146.011719 30.5625 L 145.074219 30.519531 L 143.238281 30.472656 L 142.371094 30.449219 L 141.476562 30.425781 L 140.605469 30.402344 L 139.691406 30.402344 L 138.796875 30.425781 L 137.882812 30.472656 L 136.988281 30.539062 L 136.09375 30.609375 L 135.203125 30.75 L 134.308594 30.886719 L 133.390625 31.023438 L 132.5 31.1875 L 131.605469 31.347656 L 130.738281 31.484375 L 129.890625 31.601562 L 129.066406 31.738281 L 128.222656 31.902344 L 127.351562 32.0625 L 126.460938 32.246094 L 124.625 32.660156 L 123.734375 32.847656 L 122.839844 33.054688 L 121.921875 33.308594 L 120.9375 33.5625 L 119.949219 33.816406 L 118.984375 34.070312 L 118.023438 34.34375 L 117.105469 34.621094 L 116.164062 34.945312 L 115.203125 35.265625 L 114.238281 35.589844 L 113.320312 35.890625 L 112.429688 36.191406 L 111.535156 36.511719 L 110.59375 36.859375 L 109.632812 37.25 L 108.644531 37.664062 L 107.632812 38.082031 L 106.648438 38.496094 L 105.707031 38.933594 L 104.71875 39.417969 L 103.664062 39.949219 L 102.699219 40.476562 L 101.734375 41.007812 L 100.796875 41.585938 L 99.855469 42.183594 L 98.960938 42.808594 L 98.070312 43.429688 L 97.152344 44.097656 L 96.234375 44.789062 L 95.320312 45.480469 L 94.449219 46.195312 L 93.578125 46.933594 L 92.734375 47.71875 L 91.863281 48.523438 L 90.996094 49.332031 L 90.148438 50.183594 L 89.300781 51.039062 L 88.503906 51.914062 L 87.773438 52.769531 L 87.046875 53.621094 L 86.339844 54.449219 L 85.613281 55.28125 L 84.882812 56.109375 L 84.132812 56.941406 L 83.425781 57.769531 L 82.746094 58.625 L 82.109375 59.5 L 81.476562 60.375 L 80.890625 61.253906 L 80.300781 62.152344 L 79.738281 63.050781 L 79.195312 63.949219 L 78.632812 64.894531 L 78.09375 65.839844 L 77.550781 66.761719 L 77.058594 67.683594 L 76.613281 68.609375 L 76.164062 69.554688 L 75.789062 70.542969 L 75.414062 71.535156 L 75.058594 72.527344 L 74.753906 73.542969 L 74.472656 74.535156 L 74.191406 75.546875 L 73.886719 76.585938 L 73.601562 77.601562 L 73.273438 78.636719 L 72.96875 79.628906 L 72.6875 80.621094 L 72.40625 81.589844 L 72.167969 82.558594 L 71.957031 83.457031 L 71.792969 84.308594 L 71.628906 85.230469 L 71.488281 86.199219 L 71.253906 88.136719 L 71.160156 89.128906 L 71.066406 90.144531 L 70.972656 91.132812 L 70.902344 92.148438 L 70.855469 93.164062 L 70.832031 94.199219 L 70.832031 95.214844 L 70.808594 96.253906 L 70.808594 97.289062 L 70.78125 98.351562 L 70.757812 99.386719 L 70.710938 100.425781 L 70.6875 101.441406 L 70.640625 102.457031 L 70.617188 103.5625 L 70.570312 104.738281 L 70.523438 105.820312 L 70.476562 106.835938 L 70.429688 107.898438 L 70.382812 110.0625 L 70.359375 111.148438 L 70.359375 114.421875 L 70.382812 115.527344 L 70.429688 116.65625 L 70.5 117.765625 L 70.59375 118.871094 L 70.6875 120 L 70.832031 121.132812 L 71.019531 122.285156 L 71.253906 123.414062 L 71.511719 124.496094 L 71.792969 125.605469 L 72.121094 126.6875 L 72.453125 127.792969 L 72.828125 128.878906 L 73.203125 129.960938 L 73.578125 130.976562 L 74.003906 131.992188 L 74.449219 132.980469 L 74.917969 133.996094 L 75.414062 134.988281 L 75.929688 135.980469 L 76.445312 136.902344 L 77.058594 137.847656 L 77.691406 138.769531 L 78.351562 139.691406 L 79.007812 140.613281 L 79.644531 141.511719 L 80.300781 142.367188 L 80.984375 143.21875 L 81.710938 144.097656 L 82.511719 144.972656 L 83.332031 145.871094 L 84.15625 146.746094 L 85 147.601562 L 85.847656 148.382812 L 86.671875 149.167969 L 87.515625 149.90625 L 88.386719 150.667969 L 89.277344 151.429688 L 90.21875 152.1875 L 91.136719 152.902344 L 92.050781 153.570312 L 92.992188 154.242188 L 93.980469 154.886719 L 94.988281 155.53125 L 96.046875 156.199219 L 97.105469 156.847656 L 98.1875 157.492188 L 99.265625 158.160156 L 100.347656 158.828125 L 101.453125 159.476562 L 102.558594 160.144531 L 103.6875 160.8125 L 104.859375 161.480469 L 106.082031 162.171875 L 107.375 162.910156 L 108.621094 163.671875 L 109.84375 164.433594 L 111.042969 165.214844 L 112.289062 165.976562 L 113.554688 166.738281 L 114.871094 167.453125 L 116.164062 168.167969 L 117.480469 168.859375 L 118.773438 169.527344 L 120.089844 170.171875 L 121.429688 170.796875 L 122.769531 171.394531 L 124.109375 171.972656 L 125.496094 172.523438 L 126.882812 173.03125 L 128.292969 173.539062 L 129.703125 174.023438 L 131.160156 174.507812 L 132.640625 174.945312 L 134.167969 175.359375 L 135.695312 175.730469 L 137.199219 176.050781 L 138.75 176.328125 L 140.300781 176.582031 L 141.875 176.789062 L 143.496094 176.953125 L 145.121094 177.066406 L 146.765625 177.113281 L 148.246094 177.136719 L 149.585938 177.160156 L 150.855469 177.136719 L 152.050781 177.136719 L 153.390625 177.089844 L 154.800781 177.019531 L 156.304688 176.929688 L 157.832031 176.789062 L 159.433594 176.605469 L 161.03125 176.398438 L 162.652344 176.121094 L 164.273438 175.820312 L 165.871094 175.5 L 167.445312 175.175781 L 169.019531 174.832031 L 170.570312 174.4375 L 172.125 174.046875 L 173.675781 173.632812 L 175.203125 173.214844 L 176.707031 172.800781 L 178.210938 172.363281 L 179.691406 171.902344 L 181.148438 171.394531 L 182.582031 170.886719 L 183.96875 170.359375 L 185.285156 169.804688 L 186.578125 169.25 L 187.847656 168.699219 L 189.089844 168.144531 L 190.335938 167.566406 L 191.558594 166.96875 L 192.734375 166.34375 L 193.863281 165.675781 L 194.96875 164.984375 L 196.023438 164.246094 L 197.082031 163.464844 L 198.117188 162.632812 L 199.125 161.804688 L 200.089844 160.925781 L 201.03125 160.027344 L 201.945312 159.128906 L 202.839844 158.183594 L 203.757812 157.238281 L 204.625 156.222656 L 205.449219 155.210938 L 206.246094 154.171875 L 207 153.089844 L 207.75 152.003906 L 208.457031 150.945312 L 209.160156 149.835938 L 209.867188 148.730469 L 210.523438 147.601562 L 211.183594 146.449219 L 211.792969 145.316406 L 212.382812 144.164062 L 212.921875 143.011719 L 213.4375 141.882812 L 213.910156 140.730469 L 214.355469 139.578125 L 214.777344 138.421875 L 215.15625 137.269531 L 215.484375 136.09375 L 215.789062 134.941406 L 216.070312 133.742188 L 216.304688 132.542969 L 216.519531 131.367188 L 216.707031 130.167969 L 216.847656 128.96875 L 216.941406 127.773438 L 217.058594 126.59375 L 217.128906 125.417969 L 217.269531 123.113281 L 217.292969 121.9375 L 217.316406 120.785156 L 217.316406 118.480469 L 217.269531 117.351562 L 217.199219 116.21875 L 217.128906 115.113281 L 217.058594 113.984375 L 217.011719 112.832031 L 216.964844 111.699219 L 216.941406 110.546875 L 216.894531 109.394531 L 216.871094 108.265625 L 216.730469 106.007812 L 216.613281 104.898438 L 216.425781 102.6875 L 216.328125 101.554688 L 216.210938 100.425781 L 216.070312 99.296875 L 215.90625 98.167969 L 215.71875 97.035156 L 215.507812 95.90625 L 215.273438 94.800781 L 215.015625 93.695312 L 214.730469 92.585938 L 214.425781 91.503906 L 214.121094 90.464844 L 213.816406 89.429688 L 213.484375 88.390625 L 213.132812 87.375 L 212.757812 86.363281 L 212.335938 85.324219 L 211.886719 84.285156 L 211.464844 83.273438 L 210.996094 82.28125 L 210.523438 81.289062 L 210.007812 80.320312 L 209.492188 79.328125 L 208.972656 78.316406 L 208.480469 77.300781 L 207.964844 76.308594 L 207.445312 75.316406 L 206.929688 74.324219 L 206.414062 73.335938 L 205.847656 72.34375 L 205.261719 71.375 L 204.671875 70.40625 L 204.0625 69.4375 L 203.472656 68.492188 L 202.886719 67.523438 L 202.277344 66.578125 L 201.664062 65.609375 L 201.054688 64.6875 L 200.417969 63.765625 L 199.808594 62.867188 L 199.195312 61.992188 L 198.539062 61.113281 L 197.882812 60.238281 L 197.199219 59.386719 L 196.542969 58.578125 L 195.859375 57.792969 L 195.179688 57.011719 L 194.496094 56.226562 L 193.816406 55.441406 L 193.132812 54.636719 L 192.453125 53.851562 L 191.769531 53.066406 L 191.089844 52.304688 L 190.40625 51.570312 L 189.75 50.832031 L 189.113281 50.09375 L 188.457031 49.378906 L 187.820312 48.664062 L 187.140625 47.972656 L 186.4375 47.328125 L 185.730469 46.703125 L 185.003906 46.105469 L 184.296875 45.503906 L 183.617188 44.929688 L 182.957031 44.351562 L 182.300781 43.777344 L 181.523438 43.105469 L 180.675781 42.4375 L 179.785156 41.769531 L 178.867188 41.125 L 178.09375 40.59375 L 177.339844 40.132812 L 176.589844 39.695312 L 175.859375 39.257812 L 175.085938 38.816406 L 174.261719 38.402344 L 173.4375 38.011719 L 172.617188 37.664062 L 171.816406 37.34375 L 171.066406 37.019531 L 170.265625 36.675781 L 169.398438 36.328125 L 168.550781 35.980469 L 167.679688 35.660156 L 166.859375 35.359375 L 166.082031 35.082031 L 165.285156 34.828125 L 164.507812 34.550781 L 163.6875 34.300781 L 162.839844 34.046875 L 161.96875 33.792969 L 161.101562 33.539062 L 160.230469 33.285156 L 159.410156 33.054688 L 157.761719 32.640625 L 156.941406 32.453125 L 156.09375 32.246094 L 155.273438 32.039062 L 154.425781 31.855469 L 153.605469 31.648438 L 152.757812 31.464844 L 151.910156 31.300781 L 151.066406 31.140625 L 150.171875 30.980469 L 149.304688 30.839844 L 148.457031 30.726562 L 147.632812 30.609375 L 146.835938 30.519531 L 146.011719 30.449219 L 145.214844 30.378906 L 144.390625 30.308594 L 143.59375 30.265625 L 142.839844 30.195312 L 142.085938 30.101562 L 141.359375 30.035156 L 140.628906 29.964844 L 139.949219 29.894531 L 139.21875 29.847656 L 138.492188 29.804688 L 137.738281 29.78125 L 136.988281 29.78125 L 136.257812 29.804688 L 135.53125 29.871094 L 134.800781 29.941406 L 134.074219 30.054688 L 133.296875 30.21875 L 132.5 30.402344 L 131.699219 30.609375 L 130.878906 30.839844 L 130.054688 31.09375 L 129.230469 31.371094 L 128.386719 31.671875 L 127.515625 31.992188 L 126.601562 32.339844 L 125.660156 32.707031 L 124.71875 33.078125 L 123.78125 33.46875 L 122.886719 33.90625 L 121.96875 34.367188 L 120.960938 34.875 L 119.925781 35.429688 L 118.9375 35.9375 L 117.976562 36.464844 L 117.011719 37.019531 L 116.023438 37.597656 L 115.011719 38.195312 L 113.933594 38.839844 L 112.921875 39.441406 L 111.933594 40.0625 L 110.902344 40.707031 L 109.867188 41.378906 L 108.832031 42.09375 L 107.75 42.785156 L 106.671875 43.476562 L 104.601562 44.90625 L 103.566406 45.667969 L 102.535156 46.449219 L 101.5 47.257812 L 100.464844 48.0625 L 99.457031 48.917969 L 98.46875 49.769531 L 97.457031 50.644531 L 96.46875 51.546875 L 95.460938 52.492188 L 94.496094 53.414062 L 93.554688 54.359375 L 92.640625 55.28125 L 91.769531 56.179688 L 90.855469 57.101562 L 89.914062 58.023438 L 89.019531 58.96875 L 88.152344 59.914062 L 87.304688 60.882812 L 86.554688 61.851562 L 85.753906 62.867188 L 84.929688 63.902344 L 84.132812 64.941406 L 83.332031 65.933594 L 82.582031 66.925781 L 81.875 67.871094 L 81.21875 68.816406 L 80.605469 69.785156 L 79.996094 70.773438 L 79.410156 71.765625 L 78.84375 72.757812 L 78.257812 73.726562 L 77.714844 74.71875 L 77.175781 75.730469 L 76.660156 76.746094 L 76.140625 77.761719 L 75.671875 78.683594 L 75.25 79.511719 L 74.824219 80.414062 L 74.425781 81.335938 L 74.050781 82.210938 L 73.722656 83.085938 L 73.414062 83.917969 L 73.109375 84.722656 L 72.828125 85.554688 L 72.523438 86.363281 L 72.214844 87.167969 L 71.933594 88 L 71.652344 88.828125 L 71.371094 89.679688 L 71.136719 90.558594 L 70.902344 91.457031 L 70.664062 92.378906 L 70.453125 93.324219 L 70.289062 94.292969 L 70.054688 96.277344 L 69.9375 97.289062 L 69.820312 98.351562 L 69.726562 99.457031 L 69.609375 100.632812 L 69.492188 101.855469 L 69.421875 102.960938 L 69.347656 104.046875 L 69.277344 105.175781 L 69.230469 106.351562 L 69.183594 107.480469 L 69.183594 109.742188 L 69.230469 110.894531 L 69.277344 112 L 69.324219 113.128906 L 69.398438 114.261719 L 69.46875 115.390625 L 69.5625 116.519531 L 69.679688 117.648438 L 69.84375 118.800781 L 70.03125 119.933594 L 70.21875 121.109375 L 70.453125 122.285156 L 70.710938 123.460938 L 70.972656 124.589844 L 71.230469 125.71875 L 71.558594 126.828125 L 71.910156 127.910156 L 72.3125 129.015625 L 72.757812 130.101562 L 73.203125 131.183594 L 73.675781 132.269531 L 74.144531 133.328125 L 74.613281 134.433594 L 75.109375 135.519531 L 75.648438 136.625 L 76.257812 137.710938 L 76.917969 138.792969 L 77.644531 139.851562 L 78.351562 140.890625 L 79.078125 141.90625 L 79.808594 142.875 L 80.558594 143.796875 L 81.359375 144.742188 L 82.230469 145.710938 L 83.097656 146.65625 L 84.039062 147.601562 L 84.976562 148.523438 L 85.941406 149.421875 L 86.929688 150.34375 L 87.988281 151.289062 L 89.042969 152.234375 L 90.148438 153.179688 L 92.40625 155.070312 L 93.554688 156.015625 L 94.777344 157.03125 L 96.046875 158.046875 L 97.363281 159.082031 L 100.042969 161.113281 L 101.453125 162.101562 L 102.863281 163.09375 L 104.320312 164.109375 L 105.824219 165.078125 L 107.375 166.023438 L 108.972656 166.898438 L 110.453125 167.683594 L 111.792969 168.375 L 113.0625 169.019531 L 114.285156 169.621094 L 115.625 170.265625 L 117.082031 170.910156 L 118.632812 171.554688 L 120.253906 172.15625 L 121.898438 172.710938 L 123.589844 173.214844 L 125.308594 173.679688 L 127.046875 174.09375 L 128.761719 174.484375 L 130.453125 174.832031 L 132.171875 175.152344 L 133.886719 175.429688 L 135.625 175.683594 L 137.386719 175.914062 L 139.125 176.121094 L 140.84375 176.304688 L 142.535156 176.445312 L 144.203125 176.558594 L 145.824219 176.652344 L 147.445312 176.699219 L 149.042969 176.746094 L 150.617188 176.746094 L 152.195312 176.722656 L 155.296875 176.628906 L 156.824219 176.558594 L 158.351562 176.492188 L 159.878906 176.421875 L 161.382812 176.375 L 162.863281 176.28125 L 164.320312 176.214844 L 165.753906 176.097656 L 167.1875 175.960938 L 168.621094 175.820312 L 170.03125 175.636719 L 171.464844 175.40625 L 172.875 175.128906 L 174.285156 174.808594 L 175.671875 174.4375 L 177.058594 174.023438 L 178.445312 173.539062 L 179.808594 173.007812 L 181.171875 172.410156 L 182.511719 171.71875 L 183.851562 170.957031 L 185.167969 170.128906 L 186.4375 169.226562 L 187.703125 168.28125 L 188.972656 167.246094 L 190.242188 166.160156 L 191.511719 165.03125 L 192.757812 163.832031 L 193.957031 162.585938 L 195.109375 161.273438 L 196.234375 159.9375 L 197.339844 158.574219 L 198.398438 157.191406 L 199.410156 155.808594 L 200.371094 154.425781 L 201.289062 153.019531 L 202.183594 151.613281 L 203.027344 150.207031 L 203.851562 148.777344 L 204.648438 147.347656 L 205.402344 145.871094 L 206.128906 144.394531 L 206.835938 142.875 L 207.515625 141.328125 L 208.175781 139.761719 L 208.808594 138.191406 L 209.398438 136.625 L 209.9375 135.058594 L 210.453125 133.488281 L 210.949219 131.921875 L 211.417969 130.398438 L 211.863281 128.878906 L 212.289062 127.355469 L 212.6875 125.835938 L 213.0625 124.289062 L 213.4375 122.746094 L 213.816406 121.152344 L 214.191406 119.585938 L 214.566406 118.042969 L 214.96875 116.472656 L 215.34375 114.953125 L 215.742188 113.429688 L 216.117188 111.910156 L 216.449219 110.386719 L 216.753906 108.863281 L 217.035156 107.390625 L 217.269531 105.9375 L 217.527344 104.507812 L 217.761719 103.101562 L 217.976562 101.695312 L 218.140625 100.289062 L 218.28125 98.882812 L 218.398438 97.496094 L 218.492188 96.160156 L 218.5625 94.847656 L 218.585938 93.53125 L 218.585938 92.242188 L 218.5625 90.972656 L 218.515625 89.679688 L 218.421875 88.414062 L 218.304688 87.144531 L 218.164062 85.878906 L 218 84.632812 L 217.8125 83.386719 L 217.574219 82.140625 L 217.316406 80.921875 L 217.035156 79.742188 L 216.730469 78.589844 L 216.402344 77.414062 L 216.070312 76.261719 L 215.71875 75.109375 L 215.34375 73.957031 L 214.96875 72.851562 L 214.542969 71.742188 L 214.144531 70.683594 L 213.699219 69.621094 L 213.25 68.5625 L 212.78125 67.523438 L 212.289062 66.488281 L 211.769531 65.472656 L 211.207031 64.480469 L 210.667969 63.488281 L 210.101562 62.542969 L 209.539062 61.597656 L 208.972656 60.652344 L 208.386719 59.707031 L 207.796875 58.785156 L 207.234375 57.886719 L 206.671875 57.011719 L 206.082031 56.15625 L 205.519531 55.304688 L 204.90625 54.496094 L 204.296875 53.714844 L 203.640625 52.953125 L 202.980469 52.191406 L 202.347656 51.476562 L 201.6875 50.785156 L 201.078125 50.117188 L 200.464844 49.449219 L 199.832031 48.800781 L 199.195312 48.15625 L 198.5625 47.558594 L 197.882812 46.980469 L 197.199219 46.425781 L 196.519531 45.917969 L 195.859375 45.414062 L 195.203125 44.90625 L 194.542969 44.398438 L 193.886719 43.914062 L 193.203125 43.429688 L 192.476562 42.96875 L 191.746094 42.507812 L 191.019531 42.070312 L 190.3125 41.632812 L 189.609375 41.191406 L 188.902344 40.753906 L 188.199219 40.316406 L 187.492188 39.925781 L 186.765625 39.554688 L 186.035156 39.210938 L 185.261719 38.839844 L 184.507812 38.496094 L 183.78125 38.148438 L 183.050781 37.828125 L 182.324219 37.527344 L 181.59375 37.226562 L 180.820312 36.925781 L 180.042969 36.628906 L 179.242188 36.351562 L 178.445312 36.074219 L 177.667969 35.820312 L 176.871094 35.542969 L 176.070312 35.289062 L 175.25 35.035156 L 174.402344 34.804688 L 173.558594 34.597656 L 172.710938 34.390625 L 171.886719 34.183594 L 171.066406 34 L 170.21875 33.816406 L 169.351562 33.628906 L 167.5625 33.308594 L 166.671875 33.167969 L 165.777344 33.054688 L 164.859375 32.9375 L 163.945312 32.847656 L 162.109375 32.707031 L 161.195312 32.640625 L 160.300781 32.570312 L 159.433594 32.523438 L 158.539062 32.476562 L 157.621094 32.429688 L 156.683594 32.410156 L 155.71875 32.363281 L 154.777344 32.292969 L 153.886719 32.246094 L 152.992188 32.15625 L 152.097656 32.085938 L 151.183594 32.015625 L 150.265625 31.945312 L 149.351562 31.878906 L 148.433594 31.832031 L 147.5625 31.761719 L 146.71875 31.714844 L 145.871094 31.671875 L 145.027344 31.625 L 143.285156 31.53125 L 142.417969 31.484375 L 141.570312 31.441406 L 140.722656 31.394531 L 139.855469 31.371094 L 139.007812 31.347656 L 136.398438 31.347656 L 135.4375 31.371094 L 134.449219 31.394531 L 133.460938 31.441406 L 132.5 31.484375 L 131.652344 31.53125 L 130.878906 31.554688 L 130.101562 31.601562 L 129.328125 31.648438 L 128.550781 31.714844 L 127.75 31.785156 L 126.929688 31.878906 L 126.035156 31.992188 L 125.191406 32.132812 L 124.367188 32.292969 L 123.589844 32.453125 L 122.863281 32.617188 L 122.109375 32.800781 L 121.289062 32.984375 L 120.441406 33.191406 L 119.574219 33.398438 L 118.679688 33.628906 L 117.832031 33.859375 L 116.988281 34.089844 L 116.140625 34.390625 L 115.25 34.714844 L 114.285156 35.082031 L 113.34375 35.476562 L 112.40625 35.867188 L 111.464844 36.257812 L 110.546875 36.675781 L 109.609375 37.089844 L 108.597656 37.550781 L 107.632812 37.988281 L 106.695312 38.402344 L 105.800781 38.863281 L 104.90625 39.300781 L 103.992188 39.785156 L 103.074219 40.292969 L 102.132812 40.800781 L 101.21875 41.308594 L 100.324219 41.816406 L 99.457031 42.347656 L 98.585938 42.898438 L 97.738281 43.476562 L 96.894531 44.074219 L 96.046875 44.652344 L 95.25 45.226562 L 94.472656 45.804688 L 93.769531 46.359375 L 93.085938 46.910156 L 92.429688 47.511719 L 91.746094 48.109375 L 91.089844 48.710938 L 90.429688 49.308594 L 89.796875 49.910156 L 89.160156 50.507812 L 88.550781 51.128906 L 87.964844 51.777344 L 87.398438 52.445312 L 86.859375 53.113281 L 86.339844 53.78125 L 85.800781 54.472656 L 85.238281 55.164062 L 84.671875 55.878906 L 84.109375 56.640625 L 83.519531 57.402344 L 82.957031 58.1875 L 82.394531 58.96875 L 81.851562 59.753906 L 81.359375 60.539062 L 80.867188 61.34375 L 80.371094 62.175781 L 79.902344 63.003906 L 79.410156 63.835938 L 78.890625 64.664062 L 78.375 65.472656 L 77.855469 66.277344 L 76.917969 67.847656 L 76.519531 68.652344 L 76.117188 69.4375 L 75.765625 70.246094 L 75.414062 71.050781 L 75.109375 71.859375 L 74.800781 72.664062 L 74.496094 73.472656 L 74.191406 74.257812 L 73.886719 75.085938 L 73.601562 75.917969 L 73.34375 76.792969 L 72.828125 78.589844 L 72.546875 79.535156 L 72.265625 80.550781 L 72.003906 81.519531 L 71.769531 82.464844 L 71.066406 85.371094 L 70.855469 86.316406 L 70.664062 87.261719 L 70.476562 88.207031 L 70.335938 89.128906 L 70.171875 90.074219 L 70.03125 91.066406 L 69.914062 92.054688 L 69.796875 93.070312 L 69.679688 94.109375 L 69.5625 95.101562 L 69.445312 96.089844 L 69.324219 97.105469 L 69.207031 98.144531 L 69.160156 99.203125 L 69.113281 100.265625 L 69.089844 101.300781 L 69.066406 102.339844 L 69.089844 103.402344 L 69.136719 104.460938 L 69.207031 105.523438 L 69.277344 106.558594 L 69.375 107.621094 L 69.46875 108.726562 L 69.5625 109.902344 L 69.679688 111.148438 L 69.796875 112.277344 L 69.914062 113.339844 L 70.101562 114.445312 L 70.289062 115.574219 L 70.5 116.679688 L 70.734375 117.8125 L 70.972656 118.894531 L 71.253906 119.976562 L 71.535156 121.0625 L 71.863281 122.167969 L 72.191406 123.277344 L 72.523438 124.40625 L 72.851562 125.511719 L 73.179688 126.574219 L 73.507812 127.632812 L 73.863281 128.671875 L 74.167969 129.617188 L 74.472656 130.492188 L 74.800781 131.460938 L 75.179688 132.476562 L 75.554688 133.488281 L 75.929688 134.503906 L 76.328125 135.496094 L 76.753906 136.464844 L 77.175781 137.433594 L 77.574219 138.355469 L 77.976562 139.300781 L 78.726562 141.144531 L 79.101562 142.113281 L 79.480469 143.058594 L 79.855469 144.003906 L 80.253906 144.925781 L 80.628906 145.800781 L 81.007812 146.65625 L 81.382812 147.460938 L 81.78125 148.246094 L 82.15625 149.03125 L 82.582031 149.8125 L 83.027344 150.574219 L 83.496094 151.3125 L 83.992188 152.050781 L 85.023438 153.433594 L 85.519531 154.101562 L 86.035156 154.75 L 86.53125 155.394531 L 87.046875 156.039062 L 87.585938 156.683594 L 88.152344 157.332031 L 88.738281 157.953125 L 89.351562 158.574219 L 89.960938 159.152344 L 90.59375 159.726562 L 91.230469 160.257812 L 91.910156 160.765625 L 92.59375 161.273438 L 93.273438 161.78125 L 93.957031 162.289062 L 94.660156 162.796875 L 95.390625 163.300781 L 96.117188 163.808594 L 96.824219 164.292969 L 97.527344 164.777344 L 98.210938 165.238281 L 98.9375 165.652344 L 99.667969 166.046875 L 100.417969 166.390625 L 101.195312 166.714844 L 101.992188 167.039062 L 102.699219 167.292969 L 103.355469 167.5 L 104.15625 167.753906 L 105.050781 168.027344 L 105.917969 168.257812 L 106.789062 168.46875 L 107.679688 168.652344 L 108.574219 168.835938 L 109.46875 168.972656 L 110.335938 169.113281 L 111.230469 169.25 L 112.167969 169.390625 L 113.132812 169.527344 L 114.121094 169.664062 L 115.109375 169.828125 L 116.070312 169.964844 L 117.058594 170.128906 L 118.046875 170.265625 L 119.03125 170.425781 L 120.066406 170.566406 L 121.054688 170.726562 L 122.039062 170.886719 L 123.027344 171.003906 L 124.015625 171.117188 L 125.023438 171.210938 L 126.035156 171.304688 L 127.023438 171.371094 L 128.011719 171.441406 L 128.996094 171.511719 L 129.984375 171.578125 L 130.972656 171.695312 L 131.957031 171.808594 L 132.945312 171.925781 L 133.910156 172.039062 L 134.847656 172.132812 L 135.8125 172.203125 L 136.777344 172.269531 L 137.738281 172.339844 L 138.75 172.410156 L 139.738281 172.480469 L 140.820312 172.546875 L 141.96875 172.59375 L 142.957031 172.640625 L 145.917969 172.640625 L 146.953125 172.617188 L 148.011719 172.570312 L 149.042969 172.523438 L 150.078125 172.480469 L 151.183594 172.433594 L 152.335938 172.363281 L 153.414062 172.292969 L 154.496094 172.203125 L 155.578125 172.132812 L 156.636719 172.0625 L 157.714844 171.996094 L 158.773438 171.925781 L 159.855469 171.832031 L 160.984375 171.71875 L 162.085938 171.601562 L 163.214844 171.488281 L 164.34375 171.347656 L 166.601562 171.074219 L 167.726562 170.886719 L 168.832031 170.679688 L 169.914062 170.449219 L 171.042969 170.195312 L 172.171875 169.894531 L 173.25 169.597656 L 174.332031 169.25 L 175.367188 168.882812 L 176.375 168.511719 L 177.386719 168.097656 L 178.445312 167.660156 L 179.457031 167.246094 L 180.464844 166.785156 L 181.359375 166.367188 L 182.160156 165.953125 L 183.050781 165.46875 L 184.015625 164.960938 L 184.929688 164.433594 L 185.847656 163.925781 L 186.71875 163.417969 L 187.539062 162.886719 L 188.339844 162.378906 L 189.160156 161.847656 L 189.984375 161.320312 L 190.808594 160.765625 L 191.628906 160.234375 L 192.382812 159.683594 L 193.132812 159.105469 L 193.863281 158.507812 L 194.566406 157.90625 L 195.296875 157.332031 L 196.046875 156.707031 L 196.824219 156.085938 L 197.597656 155.460938 L 198.375 154.816406 L 199.101562 154.171875 L 199.832031 153.480469 L 200.535156 152.765625 L 201.242188 152.050781 L 201.945312 151.289062 L 202.652344 150.550781 L 203.355469 149.835938 L 204.015625 149.144531 L 204.625 148.453125 L 205.238281 147.738281 L 205.800781 147.023438 L 206.339844 146.332031 L 206.859375 145.640625 L 207.351562 144.972656 L 207.847656 144.304688 L 208.339844 143.632812 L 208.808594 142.898438 L 209.28125 142.136719 L 209.75 141.398438 L 210.195312 140.660156 L 210.570312 140.015625 L 210.902344 139.414062 L 211.277344 138.675781 L 211.675781 137.847656 L 212.050781 137.085938 L 212.40625 136.324219 L 212.734375 135.542969 L 213.039062 134.78125 L 213.34375 133.996094 L 213.652344 133.214844 L 213.980469 132.429688 L 214.308594 131.621094 L 214.636719 130.816406 L 214.96875 130.03125 L 215.296875 129.222656 L 215.625 128.441406 L 215.953125 127.609375 L 216.28125 126.78125 L 216.589844 125.925781 L 216.871094 125.050781 L 217.128906 124.152344 L 217.691406 122.308594 L 217.976562 121.363281 L 218.257812 120.441406 L 218.515625 119.496094 L 218.773438 118.546875 L 218.984375 117.582031 L 219.195312 116.613281 L 219.386719 115.667969 L 219.574219 114.699219 L 219.761719 113.707031 L 220.089844 111.722656 L 220.207031 110.710938 L 220.441406 108.679688 L 220.535156 107.6875 L 220.558594 106.71875 L 220.535156 105.753906 L 220.511719 104.808594 L 220.441406 103.839844 L 220.371094 102.917969 L 220.277344 101.972656 L 220.160156 101.027344 L 220.066406 100.082031 L 219.503906 96.113281 L 219.363281 95.078125 L 219.21875 93.992188 L 219.078125 92.910156 L 218.9375 91.871094 L 218.773438 90.878906 L 218.5625 89.890625 L 218.140625 87.953125 L 217.90625 87.007812 L 217.691406 86.085938 L 217.457031 85.140625 L 217.222656 84.21875 L 216.707031 82.328125 L 216.449219 81.402344 L 216.1875 80.480469 L 215.882812 79.535156 L 215.578125 78.613281 L 215.273438 77.667969 L 214.96875 76.746094 L 214.636719 75.847656 L 214.332031 74.972656 L 214.003906 74.117188 L 213.675781 73.242188 L 213.34375 72.390625 L 213.015625 71.535156 L 212.664062 70.707031 L 212.3125 69.898438 L 211.933594 69.09375 L 211.558594 68.261719 L 211.160156 67.453125 L 210.738281 66.648438 L 210.289062 65.839844 L 209.796875 65.078125 L 209.304688 64.320312 L 208.785156 63.558594 L 208.292969 62.820312 L 207.796875 62.105469 L 207.304688 61.390625 L 206.789062 60.652344 L 206.246094 59.9375 L 205.121094 58.554688 L 204.53125 57.863281 L 203.921875 57.171875 L 203.308594 56.503906 L 202.675781 55.835938 L 202.085938 55.1875 L 201.476562 54.542969 L 200.867188 53.921875 L 200.230469 53.296875 L 199.597656 52.699219 L 198.890625 52.097656 L 198.1875 51.523438 L 197.480469 50.96875 L 196.777344 50.414062 L 196.117188 49.863281 L 195.460938 49.332031 L 194.800781 48.753906 L 194.097656 48.203125 L 193.414062 47.625 L 192.710938 47.074219 L 192.027344 46.519531 L 191.347656 45.964844 L 190.714844 45.480469 L 190.148438 45.019531 L 189.46875 44.46875 L 188.738281 43.84375 L 188.082031 43.269531 L 187.398438 42.691406 L 186.71875 42.136719 L 185.988281 41.585938 L 185.261719 41.054688 L 184.554688 40.523438 L 183.898438 40.109375 L 183.308594 39.71875 L 182.558594 39.257812 L 181.710938 38.773438 L 180.890625 38.335938 L 180.066406 37.917969 L 179.242188 37.503906 L 178.421875 37.136719 L 177.621094 36.742188 L 176.824219 36.398438 L 176.023438 36.027344 L 175.203125 35.707031 L 174.355469 35.359375 L 173.460938 35.035156 L 172.570312 34.691406 L 171.699219 34.390625 L 170.832031 34.070312 L 169.960938 33.769531 L 169.066406 33.492188 L 168.152344 33.191406 L 167.234375 32.914062 L 166.363281 32.660156 L 165.472656 32.410156 L 164.578125 32.199219 L 163.664062 31.992188 L 162.699219 31.808594 L 161.757812 31.648438 L 160.84375 31.507812 L 159.007812 31.234375 L 158.09375 31.070312 L 157.152344 30.910156 L 156.234375 30.75 L 155.34375 30.585938 L 154.472656 30.425781 L 153.652344 30.308594 L 152.804688 30.195312 L 151.933594 30.078125 L 150.996094 29.964844 L 150.03125 29.871094 L 149.089844 29.78125 L 148.175781 29.6875 L 147.28125 29.640625 L 146.460938 29.59375 L 145.589844 29.574219 L 144.71875 29.550781 L 143.851562 29.527344 L 142.980469 29.503906 L 142.132812 29.480469 L 141.3125 29.457031 L 140.464844 29.457031 L 139.574219 29.480469 L 138.679688 29.527344 L 137.808594 29.574219 L 137.058594 29.640625 L 136.398438 29.734375 L 135.578125 29.871094 L 134.636719 30.035156 L 133.746094 30.195312 L 132.875 30.378906 L 132.003906 30.585938 L 131.160156 30.792969 L 130.3125 31.023438 L 129.492188 31.253906 L 128.597656 31.507812 L 127.679688 31.761719 L 126.742188 32.039062 L 125.800781 32.316406 L 124.882812 32.617188 L 123.96875 32.960938 L 122.980469 33.355469 L 121.898438 33.792969 L 120.867188 34.207031 L 119.832031 34.644531 L 118.796875 35.105469 L 117.761719 35.542969 L 116.730469 36.027344 L 115.695312 36.511719 L 114.636719 37.019531 L 113.601562 37.527344 L 112.570312 38.011719 L 111.582031 38.519531 L 110.570312 39.027344 L 109.515625 39.578125 L 108.457031 40.15625 L 107.328125 40.730469 L 106.246094 41.308594 L 105.238281 41.90625 L 104.226562 42.53125 L 103.214844 43.175781 L 102.230469 43.820312 L 101.21875 44.488281 L 100.253906 45.136719 L 99.3125 45.804688 L 98.398438 46.496094 L 97.457031 47.210938 L 96.636719 47.855469 L 95.859375 48.457031 L 95.085938 49.125 L 94.308594 49.839844 L 93.554688 50.578125 L 92.828125 51.316406 L 92.097656 52.097656 L 91.371094 52.953125 L 90.640625 53.804688 L 89.9375 54.636719 L 89.277344 55.441406 L 88.691406 56.25 L 88.128906 57.03125 L 87.585938 57.863281 L 87.070312 58.671875 L 86.578125 59.5 L 86.105469 60.332031 L 85.683594 61.160156 L 85.238281 62.011719 L 84.789062 62.890625 L 84.320312 63.765625 L 83.828125 64.6875 L 83.378906 65.585938 L 82.957031 66.464844 L 82.558594 67.363281 L 82.179688 68.261719 L 81.828125 69.183594 L 81.078125 71.074219 L 80.722656 72.019531 L 80.347656 73.011719 L 79.972656 74.027344 L 79.621094 75.0625 L 79.265625 76.101562 L 78.890625 77.117188 L 78.492188 78.105469 L 78.046875 79.191406 L 77.574219 80.34375 L 77.105469 81.425781 L 76.660156 82.488281 L 76.1875 83.570312 L 75.765625 84.632812 L 75.367188 85.714844 L 74.964844 86.777344 L 74.589844 87.859375 L 74.214844 88.921875 L 73.839844 90.003906 L 73.460938 91.089844 L 73.085938 92.171875 L 72.710938 93.277344 L 72.335938 94.386719 L 71.980469 95.515625 L 71.675781 96.691406 L 71.371094 97.914062 L 71.113281 99.136719 L 70.902344 100.332031 L 70.734375 101.488281 L 70.570312 102.59375 L 70.429688 103.722656 L 70.289062 104.875 L 70.195312 106.027344 L 70.101562 107.203125 L 70.054688 108.378906 L 70.054688 113.269531 L 70.078125 114.46875 L 70.125 115.667969 L 70.21875 116.84375 L 70.3125 117.996094 L 70.59375 120.253906 L 70.78125 121.40625 L 70.972656 122.539062 L 71.183594 123.644531 L 71.417969 124.703125 L 71.652344 125.765625 L 71.933594 126.804688 L 72.242188 127.816406 L 72.570312 128.832031 L 73.273438 130.816406 L 73.625 131.804688 L 74.003906 132.796875 L 74.402344 133.8125 L 74.824219 134.804688 L 75.25 135.796875 L 75.671875 136.742188 L 76.140625 137.6875 L 76.683594 138.675781 L 77.855469 140.707031 L 78.46875 141.742188 L 79.054688 142.757812 L 79.621094 143.75 L 80.207031 144.742188 L 80.769531 145.757812 L 81.3125 146.746094 L 81.875 147.738281 L 82.464844 148.730469 L 83.097656 149.699219 L 83.757812 150.644531 L 84.414062 151.589844 L 85.097656 152.488281 L 85.753906 153.386719 L 86.386719 154.265625 L 87.023438 155.09375 L 87.703125 155.945312 L 88.433594 156.753906 L 89.183594 157.539062 L 89.984375 158.320312 L 90.785156 159.058594 L 91.582031 159.75 L 92.40625 160.421875 L 93.25 161.066406 L 94.144531 161.734375 L 95.109375 162.402344 L 96.070312 163.046875 L 97.082031 163.695312 L 98.09375 164.316406 L 99.171875 164.917969 L 100.300781 165.492188 L 101.5 166.023438 L 102.722656 166.507812 L 103.945312 166.96875 L 105.214844 167.429688 L 106.484375 167.914062 L 107.773438 168.375 L 109.089844 168.859375 L 111.769531 169.734375 L 113.109375 170.148438 L 114.449219 170.542969 L 115.8125 170.910156 L 117.175781 171.257812 L 118.5625 171.601562 L 119.972656 171.949219 L 121.359375 172.292969 L 122.699219 172.617188 L 124.109375 172.964844 L 125.542969 173.308594 L 127.023438 173.65625 L 128.503906 174.023438 L 129.960938 174.414062 L 131.394531 174.832031 L 132.804688 175.246094 L 134.238281 175.636719 L 135.671875 176.050781 L 137.128906 176.46875 L 140.089844 177.25 L 141.59375 177.621094 L 143.050781 177.921875 L 144.507812 178.195312 L 145.941406 178.40625 L 147.351562 178.589844 L 148.761719 178.726562 L 150.171875 178.84375 L 151.535156 178.933594 L 152.875 178.980469 L 154.238281 178.980469 L 155.578125 178.957031 L 156.917969 178.867188 L 158.234375 178.773438 L 159.503906 178.636719 L 160.773438 178.496094 L 162.039062 178.3125 L 163.285156 178.105469 L 164.484375 177.851562 L 165.683594 177.574219 L 166.859375 177.25 L 168.058594 176.882812 L 169.253906 176.492188 L 170.476562 176.074219 L 171.699219 175.660156 L 172.898438 175.199219 L 174.074219 174.738281 L 175.25 174.230469 L 176.351562 173.746094 L 177.457031 173.238281 L 178.5625 172.734375 L 179.644531 172.226562 L 180.726562 171.695312 L 181.78125 171.140625 L 182.792969 170.566406 L 183.804688 169.941406 L 184.8125 169.320312 L 185.800781 168.675781 L 186.789062 168.027344 L 187.75 167.335938 L 188.714844 166.644531 L 189.65625 165.929688 L 190.617188 165.167969 L 191.558594 164.386719 L 192.476562 163.578125 L 193.390625 162.773438 L 194.261719 161.988281 L 195.109375 161.203125 L 195.929688 160.421875 L 196.753906 159.636719 L 197.574219 158.828125 L 198.351562 158 L 199.125 157.191406 L 199.878906 156.363281 L 200.582031 155.554688 L 201.3125 154.703125 L 202.039062 153.824219 L 202.769531 152.949219 L 203.496094 152.027344 L 204.179688 151.152344 L 204.859375 150.296875 L 205.566406 149.421875 L 206.246094 148.523438 L 206.929688 147.601562 L 207.5625 146.65625 L 208.222656 145.710938 L 208.855469 144.765625 L 209.46875 143.867188 L 210.054688 142.964844 L 210.640625 142.042969 L 211.207031 141.097656 L 211.746094 140.152344 L 212.289062 139.207031 L 213.367188 137.316406 L 213.886719 136.394531 L 214.402344 135.449219 L 214.894531 134.503906 L 215.367188 133.535156 L 216.257812 131.597656 L 216.707031 130.628906 L 217.105469 129.640625 L 217.503906 128.648438 L 217.859375 127.679688 L 218.164062 126.757812 L 218.445312 125.859375 L 218.726562 124.867188 L 219.007812 123.828125 L 219.269531 122.859375 L 219.503906 121.914062 L 219.738281 121.015625 L 219.949219 120.164062 L 220.160156 119.21875 L 220.347656 118.273438 L 220.511719 117.304688 L 220.703125 116.359375 L 220.867188 115.4375 L 221.007812 114.535156 L 221.148438 113.636719 L 221.242188 112.738281 L 221.3125 111.863281 L 221.382812 110.964844 L 221.429688 110.085938 L 221.476562 109.234375 L 221.523438 108.359375 L 221.546875 107.480469 L 221.570312 106.582031 L 221.523438 104.738281 L 221.523438 103.839844 L 221.5 102.824219 L 221.476562 101.761719 L 221.40625 100.773438 L 221.335938 99.804688 L 221.242188 98.835938 L 221.148438 97.890625 L 220.914062 96.046875 L 220.75 95.101562 L 220.535156 94.132812 L 220.113281 92.148438 L 219.855469 91.15625 L 219.574219 90.144531 L 219.292969 89.128906 L 218.960938 88.136719 L 218.632812 87.121094 L 218.257812 86.109375 L 217.835938 85 L 217.386719 83.871094 L 216.917969 82.832031 L 216.472656 81.820312 L 215.976562 80.757812 L 215.460938 79.675781 L 214.941406 78.613281 L 214.378906 77.53125 L 213.816406 76.46875 L 213.273438 75.433594 L 212.710938 74.394531 L 212.148438 73.378906 L 211.535156 72.367188 L 210.878906 71.375 L 210.171875 70.382812 L 209.445312 69.414062 L 208.714844 68.445312 L 208.011719 67.5 L 207.328125 66.53125 L 206.671875 65.5625 L 205.964844 64.550781 L 205.238281 63.535156 L 204.484375 62.496094 L 203.710938 61.507812 L 202.933594 60.515625 L 202.160156 59.523438 L 201.40625 58.554688 L 200.628906 57.609375 L 199.855469 56.640625 L 199.03125 55.695312 L 198.1875 54.75 L 197.292969 53.78125 L 196.425781 52.835938 L 195.554688 51.914062 L 194.660156 50.992188 L 193.746094 50.09375 L 192.78125 49.195312 L 191.769531 48.316406 L 190.761719 47.441406 L 189.75 46.613281 L 188.785156 45.757812 L 187.796875 44.929688 L 186.8125 44.121094 L 185.777344 43.335938 L 184.71875 42.578125 L 183.710938 41.839844 L 182.675781 41.101562 L 181.640625 40.339844 L 180.582031 39.601562 L 179.503906 38.886719 L 177.339844 37.503906 L 176.234375 36.859375 L 175.109375 36.191406 L 173.957031 35.589844 L 172.851562 35.015625 L 171.699219 34.484375 L 170.523438 33.976562 L 169.304688 33.46875 L 168.011719 32.960938 L 166.765625 32.5 L 165.589844 32.039062 L 164.390625 31.578125 L 163.167969 31.140625 L 161.921875 30.703125 L 160.628906 30.332031 L 159.363281 29.964844 L 158.117188 29.640625 L 156.871094 29.320312 L 155.601562 29.019531 L 154.378906 28.765625 L 153.203125 28.558594 L 151.957031 28.375 L 150.664062 28.210938 L 149.421875 28.050781 L 148.246094 27.914062 L 147.09375 27.75 L 145.941406 27.589844 L 144.789062 27.453125 L 143.617188 27.289062 L 142.488281 27.152344 L 141.40625 27.011719 L 140.300781 26.898438 L 139.148438 26.804688 L 138.09375 26.738281 L 137.105469 26.691406 L 134.871094 26.691406 L 133.746094 26.738281 L 132.664062 26.78125 L 131.605469 26.851562 L 130.570312 26.96875 L 129.539062 27.058594 L 128.503906 27.199219 L 127.445312 27.359375 L 126.339844 27.519531 L 125.285156 27.703125 L 124.25 27.914062 L 123.285156 28.121094 L 122.347656 28.375 L 121.382812 28.648438 L 120.394531 28.925781 L 119.457031 29.203125 L 118.5625 29.503906 L 117.667969 29.824219 L 116.800781 30.148438 L 115.90625 30.496094 L 114.988281 30.886719 L 114.097656 31.277344 L 113.203125 31.695312 L 112.335938 32.109375 L 111.488281 32.523438 L 110.640625 32.960938 L 109.75 33.398438 L 108.832031 33.882812 L 107.917969 34.390625 L 106.953125 34.945312 L 105.964844 35.542969 L 105.074219 36.144531 L 104.226562 36.71875 L 103.355469 37.296875 L 102.441406 37.894531 L 101.546875 38.472656 L 100.628906 39.070312 L 99.738281 39.671875 L 98.867188 40.339844 L 97.953125 41.03125 L 97.035156 41.769531 L 96.117188 42.484375 L 95.25 43.199219 L 94.402344 43.914062 L 93.625 44.628906 L 92.828125 45.390625 L 92.003906 46.171875 L 91.183594 46.980469 L 90.359375 47.789062 L 89.5625 48.617188 L 88.832031 49.425781 L 88.105469 50.277344 L 87.398438 51.152344 L 86.671875 52.054688 L 85.941406 52.976562 L 85.238281 53.921875 L 84.554688 54.84375 L 83.875 55.789062 L 83.238281 56.757812 L 82.605469 57.703125 L 82.015625 58.671875 L 81.429688 59.660156 L 80.890625 60.652344 L 80.347656 61.691406 L 79.808594 62.75 L 79.265625 63.8125 L 78.726562 64.917969 L 78.164062 66.003906 L 77.621094 67.085938 L 77.058594 68.167969 L 76.566406 69.253906 L 76.070312 70.359375 L 75.648438 71.445312 L 75.273438 72.574219 L 74.871094 73.679688 L 74.519531 74.808594 L 74.144531 75.960938 L 73.816406 77.117188 L 73.507812 78.222656 L 73.179688 79.375 L 72.875 80.527344 L 72.546875 81.679688 L 72.265625 82.855469 L 72.003906 84.03125 L 71.769531 85.183594 L 71.605469 86.363281 L 71.464844 87.515625 L 71.347656 88.644531 L 71.253906 89.75 L 71.160156 90.859375 L 71.089844 91.964844 L 71.042969 93.09375 L 71.042969 96.621094 L 71.066406 97.84375 L 71.066406 100.332031 L 71.089844 101.601562 L 71.230469 104.09375 L 71.324219 105.335938 L 71.417969 106.582031 L 71.535156 107.828125 L 71.652344 109.117188 L 71.746094 110.410156 L 71.863281 111.722656 L 71.980469 113.085938 L 72.144531 114.445312 L 72.3125 115.804688 L 72.476562 117.1875 L 72.640625 118.546875 L 72.78125 119.910156 L 72.921875 121.246094 L 73.132812 122.582031 L 73.34375 123.875 L 73.601562 125.097656 L 73.839844 126.273438 L 74.074219 127.425781 L 74.308594 128.554688 L 74.589844 129.664062 L 74.894531 130.722656 L 75.226562 131.761719 L 75.578125 132.820312 L 75.953125 133.90625 L 76.375 134.988281 L 76.871094 136.050781 L 77.363281 137.132812 L 77.902344 138.214844 L 78.46875 139.324219 L 79.03125 140.40625 L 79.621094 141.511719 L 80.207031 142.621094 L 80.84375 143.726562 L 81.5 144.902344 L 82.203125 146.054688 L 82.957031 147.230469 L 83.734375 148.363281 L 84.507812 149.46875 L 85.332031 150.597656 L 86.152344 151.75 L 87.023438 152.925781 L 87.941406 154.078125 L 88.902344 155.164062 L 89.890625 156.199219 L 90.878906 157.214844 L 91.863281 158.207031 L 92.875 159.199219 L 93.910156 160.121094 L 94.964844 161.042969 L 96.070312 161.941406 L 97.199219 162.839844 L 98.328125 163.761719 L 99.457031 164.707031 L 100.628906 165.609375 L 101.828125 166.507812 L 103.050781 167.382812 L 104.273438 168.238281 L 105.519531 169.136719 L 106.8125 170.011719 L 108.175781 170.886719 L 109.5625 171.765625 L 110.925781 172.570312 L 112.289062 173.378906 L 113.652344 174.160156 L 115.035156 174.921875 L 116.445312 175.683594 L 117.90625 176.375 L 119.386719 177.019531 L 120.75 177.574219 L 122.0625 178.011719 L 123.285156 178.40625 L 124.484375 178.726562 L 125.777344 179.027344 L 127.1875 179.304688 L 128.644531 179.582031 L 130.171875 179.855469 L 131.722656 180.085938 L 133.320312 180.273438 L 134.964844 180.386719 L 136.613281 180.480469 L 138.28125 180.527344 L 139.925781 180.527344 L 141.570312 180.503906 L 143.191406 180.457031 L 144.8125 180.363281 L 146.4375 180.273438 L 148.058594 180.15625 L 149.65625 180.019531 L 151.277344 179.878906 L 152.851562 179.695312 L 154.425781 179.488281 L 156 179.257812 L 157.574219 178.980469 L 159.101562 178.703125 L 160.652344 178.40625 L 162.207031 178.082031 L 163.78125 177.734375 L 165.332031 177.367188 L 166.859375 176.953125 L 168.339844 176.492188 L 169.820312 175.984375 L 172.6875 174.875 L 174.097656 174.300781 L 175.484375 173.722656 L 176.847656 173.101562 L 179.527344 171.765625 L 180.84375 171.027344 L 182.109375 170.265625 L 183.355469 169.457031 L 185.847656 167.753906 L 187.070312 166.875 L 188.269531 165.953125 L 189.445312 165.007812 L 190.617188 164.0625 L 191.792969 163.070312 L 192.921875 162.101562 L 194.027344 161.136719 L 195.109375 160.144531 L 196.1875 159.128906 L 197.222656 158.089844 L 198.257812 157.054688 L 199.292969 156.015625 L 200.277344 154.933594 L 201.289062 153.804688 L 202.277344 152.648438 L 203.238281 151.496094 L 204.15625 150.320312 L 205.027344 149.121094 L 205.871094 147.921875 L 206.671875 146.679688 L 207.421875 145.433594 L 208.152344 144.164062 L 208.878906 142.898438 L 209.5625 141.605469 L 210.242188 140.269531 L 210.878906 138.886719 L 211.441406 137.476562 L 211.957031 136.050781 L 212.453125 134.621094 L 212.921875 133.167969 L 213.34375 131.714844 L 213.792969 130.261719 L 214.214844 128.761719 L 214.613281 127.265625 L 215.015625 125.742188 L 215.367188 124.222656 L 215.695312 122.675781 L 215.976562 121.152344 L 216.210938 119.609375 L 216.449219 118.085938 L 216.660156 116.566406 L 216.824219 115.066406 L 216.988281 113.546875 L 217.105469 112.023438 L 217.199219 110.523438 L 217.292969 108.980469 L 217.339844 107.457031 L 217.386719 105.9375 L 217.410156 104.390625 L 217.457031 102.847656 L 217.457031 99.734375 L 217.410156 98.191406 L 217.339844 96.667969 L 217.246094 95.191406 L 217.128906 93.714844 L 216.988281 92.242188 L 216.824219 90.8125 L 216.683594 89.40625 L 216.496094 88.023438 L 216.304688 86.660156 L 216.070312 85.347656 L 215.789062 84.054688 L 215.484375 82.8125 L 215.15625 81.589844 L 214.800781 80.390625 L 214.449219 79.238281 L 214.074219 78.085938 L 213.699219 76.929688 L 213.320312 75.800781 L 212.945312 74.671875 L 212.546875 73.566406 L 212.171875 72.480469 L 211.746094 71.421875 L 211.300781 70.359375 L 210.832031 69.324219 L 210.3125 68.308594 L 209.796875 67.292969 L 209.257812 66.300781 L 208.691406 65.308594 L 208.105469 64.320312 L 207.515625 63.351562 L 206.929688 62.429688 L 206.339844 61.507812 L 205.730469 60.582031 L 205.121094 59.683594 L 204.460938 58.785156 L 203.828125 57.910156 L 203.167969 57.03125 L 202.488281 56.203125 L 201.78125 55.351562 L 201.078125 54.496094 L 200.371094 53.667969 L 199.644531 52.835938 L 198.890625 52.007812 L 198.140625 51.199219 L 197.363281 50.414062 L 196.613281 49.632812 L 195.882812 48.847656 L 195.15625 48.0625 L 194.425781 47.304688 L 193.675781 46.519531 L 192.898438 45.757812 L 192.097656 44.972656 L 191.277344 44.214844 L 190.476562 43.429688 L 189.679688 42.667969 L 188.855469 41.90625 L 188.035156 41.191406 L 187.164062 40.476562 L 186.269531 39.808594 L 185.378906 39.164062 L 184.484375 38.519531 L 183.640625 37.894531 L 182.792969 37.296875 L 181.921875 36.695312 L 181.054688 36.121094 L 180.113281 35.542969 L 179.171875 35.015625 L 178.234375 34.484375 L 177.316406 33.976562 L 176.398438 33.492188 L 175.460938 33.054688 L 174.496094 32.617188 L 173.507812 32.222656 L 172.5 31.832031 L 171.535156 31.464844 L 170.570312 31.117188 L 169.609375 30.769531 L 168.621094 30.472656 L 167.632812 30.171875 L 166.625 29.847656 L 165.636719 29.550781 L 164.648438 29.25 L 163.710938 28.996094 L 162.746094 28.742188 L 161.804688 28.488281 L 160.84375 28.257812 L 159.902344 28.003906 L 158.960938 27.773438 L 158.046875 27.542969 L 157.105469 27.359375 L 156.140625 27.199219 L 155.179688 27.035156 L 154.238281 26.898438 L 153.320312 26.738281 L 152.40625 26.597656 L 151.488281 26.460938 L 150.523438 26.320312 L 149.539062 26.230469 L 148.550781 26.136719 L 147.585938 26.066406 L 146.625 26.023438 L 145.636719 26 L 143.566406 26 L 142.535156 26.042969 L 141.476562 26.113281 L 140.417969 26.207031 L 139.363281 26.273438 L 138.257812 26.367188 L 137.175781 26.4375 L 136.09375 26.527344 L 135.039062 26.644531 L 133.980469 26.78125 L 132.898438 26.945312 L 131.792969 27.105469 L 130.710938 27.265625 L 129.65625 27.453125 L 128.621094 27.636719 L 127.5625 27.84375 L 126.484375 28.050781 L 125.378906 28.257812 L 123.167969 28.71875 L 122.085938 28.996094 L 120.984375 29.296875 L 119.878906 29.617188 L 118.796875 29.941406 L 117.738281 30.265625 L 116.707031 30.632812 L 115.671875 31 L 114.613281 31.371094 L 113.554688 31.761719 L 112.523438 32.15625 L 111.535156 32.570312 L 110.523438 33.007812 L 109.351562 33.5625 L 108.105469 34.136719 L 106.835938 34.761719 L 105.566406 35.40625 L 104.507812 36.003906 L 103.496094 36.605469 L 102.535156 37.203125 L 101.570312 37.828125 L 100.628906 38.449219 L 99.714844 39.09375 L 98.820312 39.742188 L 97.953125 40.410156 L 97.105469 41.078125 L 96.257812 41.792969 L 95.414062 42.507812 L 94.566406 43.246094 L 93.746094 43.984375 L 92.992188 44.699219 L 92.242188 45.457031 L 91.535156 46.242188 L 90.785156 47.027344 L 90.03125 47.855469 L 89.253906 48.6875 L 88.527344 49.46875 L 87.84375 50.277344 L 87.164062 51.085938 L 86.507812 51.914062 L 85.847656 52.789062 L 85.191406 53.644531 L 84.53125 54.472656 L 83.875 55.28125 L 83.214844 56.109375 L 82.558594 56.941406 L 81.898438 57.816406 L 81.265625 58.738281 L 80.605469 59.707031 L 79.972656 60.652344 L 79.3125 61.597656 L 78.65625 62.566406 L 78 63.511719 L 77.363281 64.457031 L 76.777344 65.425781 L 76.210938 66.347656 L 75.71875 67.246094 L 75.25 68.167969 L 74.777344 69.09375 L 74.355469 70.039062 L 73.910156 71.003906 L 73.484375 71.949219 L 73.039062 72.894531 L 72.617188 73.863281 L 72.191406 74.832031 L 71.769531 75.777344 L 71.347656 76.675781 L 70.949219 77.601562 L 70.546875 78.5 L 70.171875 79.421875 L 69.84375 80.390625 L 69.5625 81.382812 L 69.253906 82.394531 L 68.972656 83.410156 L 68.410156 85.394531 L 68.152344 86.363281 L 67.890625 87.351562 L 67.609375 88.320312 L 67.328125 89.3125 L 67.09375 90.304688 L 66.859375 91.320312 L 66.625 92.332031 L 66.410156 93.347656 L 66.222656 94.363281 L 66.011719 95.445312 L 65.847656 96.574219 L 65.683594 97.75 L 65.542969 98.972656 L 65.402344 100.082031 L 65.285156 101.140625 L 65.144531 102.246094 L 65.046875 103.355469 L 64.953125 104.4375 L 64.859375 105.523438 L 64.8125 106.535156 L 64.8125 107.480469 L 64.859375 108.542969 L 64.953125 109.648438 L 65.046875 110.710938 L 65.121094 111.746094 L 65.191406 112.808594 L 65.308594 113.820312 L 65.449219 114.835938 L 65.613281 115.851562 L 65.800781 116.867188 L 66.011719 117.902344 L 66.199219 118.894531 L 66.433594 119.839844 L 66.671875 120.808594 L 66.953125 121.777344 L 67.257812 122.769531 L 67.5625 123.757812 L 67.890625 124.726562 L 68.199219 125.671875 L 68.503906 126.59375 L 68.808594 127.539062 L 69.136719 128.484375 L 69.492188 129.410156 L 69.890625 130.308594 L 70.289062 131.183594 L 70.734375 132.058594 L 71.207031 132.9375 L 71.675781 133.789062 L 72.167969 134.640625 L 72.640625 135.496094 L 73.109375 136.300781 L 73.578125 137.132812 L 74.050781 137.941406 L 74.542969 138.816406 L 75.058594 139.714844 L 75.578125 140.613281 L 76.140625 141.492188 L 76.707031 142.320312 L 77.292969 143.128906 L 77.902344 143.933594 L 78.515625 144.742188 L 79.125 145.523438 L 79.761719 146.308594 L 80.394531 147.09375 L 81.054688 147.855469 L 81.710938 148.570312 L 82.394531 149.261719 L 83.074219 149.953125 L 83.804688 150.621094 L 84.53125 151.3125 L 85.261719 152.003906 L 85.988281 152.671875 L 86.71875 153.320312 L 87.46875 153.941406 L 88.199219 154.539062 L 88.972656 155.140625 L 89.726562 155.738281 L 90.5 156.363281 L 91.277344 156.984375 L 92.027344 157.628906 L 92.78125 158.300781 L 93.53125 158.945312 L 94.261719 159.566406 L 95.011719 160.167969 L 95.742188 160.742188 L 96.496094 161.296875 L 97.222656 161.871094 L 97.976562 162.425781 L 98.726562 163.003906 L 99.503906 163.578125 L 100.324219 164.179688 L 101.171875 164.753906 L 102.015625 165.308594 L 102.886719 165.839844 L 103.734375 166.367188 L 104.625 166.96875 L 105.566406 167.589844 L 106.484375 168.191406 L 107.421875 168.765625 L 108.386719 169.367188 L 109.351562 169.988281 L 110.335938 170.589844 L 112.3125 171.785156 L 113.34375 172.316406 L 114.402344 172.800781 L 115.460938 173.261719 L 116.566406 173.699219 L 117.691406 174.140625 L 118.867188 174.578125 L 120.089844 174.992188 L 121.3125 175.359375 L 122.511719 175.683594 L 123.734375 175.984375 L 124.976562 176.261719 L 126.269531 176.515625 L 127.609375 176.765625 L 128.925781 176.996094 L 130.21875 177.230469 L 132.898438 177.644531 L 134.285156 177.851562 L 135.765625 178.082031 L 137.269531 178.265625 L 138.75 178.449219 L 140.207031 178.613281 L 141.664062 178.75 L 143.121094 178.910156 L 144.601562 179.050781 L 146.058594 179.210938 L 147.515625 179.351562 L 148.925781 179.488281 L 150.382812 179.582031 L 151.816406 179.648438 L 154.636719 179.695312 L 156.023438 179.671875 L 157.386719 179.648438 L 158.75 179.601562 L 160.113281 179.535156 L 161.453125 179.464844 L 162.792969 179.351562 L 164.132812 179.234375 L 165.425781 179.097656 L 166.71875 178.933594 L 167.988281 178.75 L 169.253906 178.542969 L 170.546875 178.289062 L 171.816406 178.011719 L 173.085938 177.710938 L 174.332031 177.367188 L 175.578125 176.996094 L 176.777344 176.582031 L 178 176.144531 L 179.21875 175.660156 L 180.394531 175.152344 L 181.546875 174.601562 L 182.675781 174.023438 L 183.78125 173.445312 L 184.90625 172.800781 L 186.058594 172.109375 L 187.210938 171.371094 L 188.316406 170.542969 L 189.445312 169.6875 L 190.59375 168.789062 L 191.746094 167.84375 L 192.875 166.875 L 193.980469 165.882812 L 195.039062 164.847656 L 196.070312 163.761719 L 197.105469 162.632812 L 198.117188 161.503906 L 199.125 160.375 L 200.089844 159.246094 L 201.078125 158.046875 L 202.039062 156.824219 L 202.980469 155.578125 L 203.921875 154.308594 L 204.8125 153.019531 L 205.683594 151.703125 L 206.484375 150.414062 L 207.234375 149.121094 L 207.964844 147.832031 L 208.667969 146.515625 L 209.375 145.179688 L 210.054688 143.84375 L 210.691406 142.457031 L 211.300781 141.074219 L 211.863281 139.714844 L 212.359375 138.355469 L 212.828125 137.015625 L 213.25 135.65625 L 213.652344 134.296875 L 214.003906 132.9375 L 214.332031 131.574219 L 214.613281 130.238281 L 214.871094 128.878906 L 215.109375 127.519531 L 215.296875 126.15625 L 215.484375 124.773438 L 215.695312 123.34375 L 215.90625 121.867188 L 216.140625 120.347656 L 216.351562 118.824219 L 216.519531 117.304688 L 216.683594 115.757812 L 216.847656 114.261719 L 216.964844 112.761719 L 217.105469 111.261719 L 217.199219 109.765625 L 217.269531 108.265625 L 217.316406 106.882812 L 217.339844 105.613281 L 217.363281 104.390625 L 217.386719 103.238281 L 217.386719 100.609375 L 217.339844 99.203125 L 217.269531 97.773438 L 217.152344 96.320312 L 216.988281 94.871094 L 216.800781 93.417969 L 216.589844 92.011719 L 216.351562 90.605469 L 216.070312 89.199219 L 215.765625 87.789062 L 215.390625 86.40625 L 214.992188 85.023438 L 214.589844 83.664062 L 214.167969 82.304688 L 213.699219 80.941406 L 213.179688 79.628906 L 212.640625 78.316406 L 212.074219 77.023438 L 211.488281 75.753906 L 210.855469 74.511719 L 210.148438 73.289062 L 209.421875 72.042969 L 208.644531 70.820312 L 207.871094 69.597656 L 207.070312 68.398438 L 206.222656 67.203125 L 205.332031 66.003906 L 204.390625 64.804688 L 203.425781 63.652344 L 202.441406 62.496094 L 200.417969 60.238281 L 199.386719 59.109375 L 198.328125 57.976562 L 197.246094 56.871094 L 196.140625 55.765625 L 195.015625 54.679688 L 193.839844 53.621094 L 192.640625 52.558594 L 191.394531 51.546875 L 190.148438 50.53125 L 188.902344 49.539062 L 187.632812 48.570312 L 186.339844 47.625 L 185.027344 46.679688 L 182.394531 44.835938 L 181.078125 43.9375 L 179.738281 43.0625 L 178.375 42.183594 L 177.011719 41.355469 L 175.648438 40.523438 L 174.238281 39.742188 L 172.851562 38.980469 L 171.441406 38.242188 L 170.054688 37.527344 L 167.28125 36.144531 L 165.894531 35.476562 L 164.484375 34.828125 L 163.050781 34.230469 L 161.617188 33.652344 L 160.183594 33.125 L 158.773438 32.617188 L 157.339844 32.132812 L 155.929688 31.695312 L 154.472656 31.277344 L 153.015625 30.910156 L 151.558594 30.585938 L 150.101562 30.289062 L 148.597656 30.035156 L 147.09375 29.804688 L 145.566406 29.640625 L 144.039062 29.527344 L 142.488281 29.480469 L 140.984375 29.457031 L 139.480469 29.480469 L 138 29.527344 L 136.542969 29.617188 L 135.039062 29.78125 L 133.554688 29.964844 L 132.050781 30.195312 L 130.570312 30.449219 L 129.113281 30.75 L 127.65625 31.09375 L 126.199219 31.464844 L 124.742188 31.832031 L 123.285156 32.222656 L 121.851562 32.640625 L 120.417969 33.078125 L 118.984375 33.5625 L 117.550781 34.070312 L 116.140625 34.574219 L 114.730469 35.128906 L 113.34375 35.707031 L 111.957031 36.304688 L 110.570312 36.925781 L 109.160156 37.597656 L 107.75 38.289062 L 106.363281 39.003906 L 104.976562 39.761719 L 103.640625 40.546875 L 102.300781 41.355469 L 100.984375 42.183594 L 99.667969 43.039062 L 98.375 43.890625 L 97.082031 44.765625 L 95.8125 45.6875 L 94.566406 46.632812 L 93.367188 47.601562 L 92.167969 48.59375 L 91.019531 49.609375 L 89.890625 50.625 L 88.785156 51.683594 L 87.726562 52.769531 L 86.695312 53.875 L 85.683594 54.980469 L 84.71875 56.132812 L 83.757812 57.285156 L 82.839844 58.484375 L 81.945312 59.753906 L 81.101562 61.046875 L 80.253906 62.382812 L 79.433594 63.742188 L 78.609375 65.078125 L 77.832031 66.441406 L 77.082031 67.777344 L 76.398438 69.09375 L 75.742188 70.40625 L 75.132812 71.742188 L 74.519531 73.082031 L 73.933594 74.441406 L 73.367188 75.824219 L 72.804688 77.230469 L 72.265625 78.660156 L 71.746094 80.113281 L 71.230469 81.566406 L 70.734375 83.042969 L 70.265625 84.515625 L 69.820312 86.015625 L 69.421875 87.515625 L 69.019531 89.011719 L 68.691406 90.488281 L 68.386719 91.941406 L 68.082031 93.417969 L 67.820312 94.890625 L 67.585938 96.367188 L 67.351562 97.867188 L 67.1875 99.386719 L 67.046875 100.910156 L 66.929688 102.433594 L 66.8125 103.976562 L 66.71875 105.5 L 66.648438 107.066406 L 66.648438 108.589844 L 66.671875 110.132812 L 66.765625 111.632812 L 66.90625 113.128906 L 67.070312 114.652344 L 67.304688 116.152344 L 67.539062 117.648438 L 67.820312 119.171875 L 68.128906 120.714844 L 68.480469 122.261719 L 68.902344 123.804688 L 69.347656 125.328125 L 69.867188 126.871094 L 70.453125 128.394531 L 71.066406 129.914062 L 71.746094 131.4375 L 72.429688 132.9375 L 73.15625 134.410156 L 73.910156 135.863281 L 74.707031 137.316406 L 75.578125 138.746094 L 76.492188 140.175781 L 77.457031 141.605469 L 78.46875 143.011719 L 79.503906 144.417969 L 80.558594 145.777344 L 81.640625 147.140625 L 82.746094 148.453125 L 83.898438 149.722656 L 85.074219 150.945312 L 86.292969 152.144531 L 87.539062 153.320312 L 88.808594 154.449219 L 90.148438 155.554688 L 91.511719 156.617188 L 92.875 157.675781 L 94.285156 158.714844 L 95.695312 159.726562 L 97.152344 160.671875 L 98.632812 161.617188 L 100.160156 162.542969 L 101.734375 163.441406 L 103.308594 164.316406 L 104.90625 165.148438 L 106.507812 165.976562 L 108.128906 166.761719 L 109.75 167.523438 L 111.417969 168.257812 L 113.085938 168.972656 L 114.753906 169.644531 L 116.445312 170.289062 L 118.164062 170.910156 L 119.902344 171.464844 L 121.664062 171.972656 L 123.425781 172.433594 L 125.214844 172.847656 L 127 173.261719 L 128.785156 173.632812 L 130.59375 174.023438 L 132.382812 174.414062 L 134.167969 174.785156 L 135.929688 175.105469 L 137.691406 175.40625 L 139.433594 175.660156 L 141.171875 175.867188 L 142.910156 176.03125 L 144.625 176.121094 L 146.363281 176.144531 L 148.058594 176.144531 L 149.726562 176.074219 L 151.394531 175.984375 L 153.015625 175.820312 L 154.636719 175.636719 L 156.234375 175.40625 L 157.808594 175.152344 L 159.386719 174.875 L 160.9375 174.554688 L 162.511719 174.230469 L 164.0625 173.886719 L 165.613281 173.492188 L 167.140625 173.054688 L 168.644531 172.570312 L 170.171875 172.019531 L 171.699219 171.394531 L 173.179688 170.75 L 174.683594 170.058594 L 176.140625 169.34375 L 177.621094 168.582031 L 179.078125 167.820312 L 180.511719 167.015625 L 181.945312 166.160156 L 183.355469 165.285156 L 184.742188 164.339844 L 186.082031 163.394531 L 187.398438 162.425781 L 188.691406 161.433594 L 189.984375 160.421875 L 191.230469 159.382812 L 192.476562 158.277344 L 193.652344 157.144531 L 194.800781 155.96875 L 195.929688 154.769531 L 197.011719 153.503906 L 198.09375 152.164062 L 199.148438 150.78125 L 200.160156 149.375 L 201.171875 147.898438 L 202.160156 146.425781 L 203.121094 144.902344 L 204.039062 143.359375 L 204.90625 141.8125 L 205.730469 140.246094 L 206.507812 138.675781 L 207.28125 137.0625 L 208.035156 135.425781 L 208.761719 133.789062 L 209.445312 132.128906 L 210.101562 130.46875 L 210.738281 128.785156 L 211.347656 127.078125 L 211.933594 125.375 L 212.476562 123.597656 L 212.96875 121.824219 L 213.414062 120.023438 L 213.839844 118.203125 L 214.238281 116.40625 L 214.636719 114.628906 L 214.992188 112.808594 L 215.296875 111.007812 L 215.578125 109.1875 L 215.765625 107.390625 L 215.929688 105.589844 L 216.046875 103.792969 L 216.140625 101.992188 L 216.210938 100.171875 L 216.234375 98.398438 L 216.210938 96.621094 L 216.140625 94.890625 L 216.046875 93.164062 L 215.90625 91.457031 L 215.742188 89.773438 L 215.554688 88.136719 L 215.320312 86.570312 L 215.039062 85.023438 L 214.730469 83.527344 L 214.402344 82.050781 L 214.050781 80.574219 L 213.675781 79.121094 L 213.25 77.691406 L 212.804688 76.308594 L 212.335938 74.972656 L 211.839844 73.65625 L 211.324219 72.367188 L 210.761719 71.144531 L 210.148438 69.921875 L 209.492188 68.722656 L 208.808594 67.570312 L 208.082031 66.441406 L 207.375 65.332031 L 206.648438 64.25 L 205.894531 63.210938 L 205.097656 62.199219 L 204.273438 61.230469 L 203.402344 60.261719 L 202.535156 59.339844 L 201.6875 58.417969 L 200.867188 57.496094 L 200.019531 56.617188 L 199.171875 55.742188 L 198.28125 54.890625 L 197.410156 54.011719 L 196.542969 53.160156 L 195.671875 52.304688 L 194.800781 51.476562 L 193.933594 50.644531 L 193.039062 49.839844 L 192.125 49.03125 L 191.183594 48.226562 L 190.265625 47.417969 L 189.328125 46.589844 L 188.410156 45.804688 L 187.46875 45.019531 L 186.554688 44.257812 L 185.589844 43.523438 L 184.648438 42.785156 L 183.664062 42.046875 L 182.699219 41.332031 L 181.710938 40.640625 L 180.75 39.949219 L 179.761719 39.28125 L 178.773438 38.609375 L 177.785156 37.964844 L 176.753906 37.320312 L 175.742188 36.675781 L 174.707031 36.027344 L 173.675781 35.40625 L 172.640625 34.804688 L 171.605469 34.207031 L 170.570312 33.605469 L 169.492188 33.054688 L 168.386719 32.5 L 167.234375 31.96875 L 166.105469 31.464844 L 164.976562 31 L 163.851562 30.5625 L 162.722656 30.148438 L 161.546875 29.78125 L 160.371094 29.410156 L 159.195312 29.066406 L 158.023438 28.742188 L 156.847656 28.441406 L 155.625 28.164062 L 154.425781 27.890625 L 152.027344 27.382812 L 150.785156 27.175781 L 149.539062 26.96875 L 148.269531 26.78125 L 147.023438 26.597656 L 145.777344 26.460938 L 144.507812 26.34375 L 143.238281 26.253906 L 141.96875 26.160156 L 140.722656 26.066406 L 139.433594 26 L 138.140625 25.953125 L 136.824219 25.929688 L 135.507812 25.929688 L 132.921875 25.976562 L 131.628906 26.023438 L 130.335938 26.089844 L 129.042969 26.160156 L 127.726562 26.273438 L 126.433594 26.390625 L 125.121094 26.527344 L 123.828125 26.667969 L 122.558594 26.875 L 121.242188 27.105469 L 119.925781 27.359375 L 118.609375 27.660156 L 117.316406 27.957031 L 116.023438 28.28125 L 114.707031 28.628906 L 112.121094 29.410156 L 110.808594 29.871094 L 109.492188 30.355469 L 108.152344 30.886719 L 106.835938 31.464844 L 105.542969 32.039062 L 104.25 32.683594 L 102.980469 33.332031 L 101.710938 34.023438 L 100.464844 34.761719 L 99.21875 35.519531 L 98 36.328125 L 96.753906 37.15625 L 95.53125 38.035156 L 94.332031 38.933594 L 93.132812 39.878906 L 91.980469 40.894531 L 90.832031 41.90625 L 89.726562 42.945312 L 88.644531 43.984375 L 87.585938 45.019531 L 86.554688 46.082031 L 85.519531 47.164062 L 84.507812 48.25 L 83.519531 49.308594 L 82.582031 50.394531 L 81.664062 51.476562 L 80.769531 52.582031 L 79.902344 53.691406 L 79.03125 54.796875 L 78.164062 55.902344 L 77.339844 57.03125 L 76.566406 58.210938 L 75.835938 59.386719 L 75.132812 60.5625 L 74.472656 61.761719 L 73.839844 62.980469 L 73.203125 64.203125 L 72.570312 65.402344 L 71.980469 66.601562 L 71.394531 67.800781 L 70.855469 69 L 70.335938 70.246094 L 69.796875 71.511719 L 69.277344 72.804688 L 68.785156 74.140625 L 68.292969 75.5 L 67.796875 76.886719 L 67.328125 78.246094 L 66.835938 79.605469 L 66.339844 80.941406 L 65.917969 82.28125 L 65.496094 83.640625 L 65.121094 84.976562 L 64.765625 86.339844 L 64.414062 87.699219 L 64.109375 89.058594 L 63.828125 90.417969 L 63.589844 91.804688 L 63.378906 93.1875 L 63.238281 94.59375 L 63.144531 96.023438 L 63.097656 97.476562 L 63.097656 98.949219 L 63.167969 100.425781 L 63.285156 101.925781 L 63.449219 103.421875 L 63.664062 104.921875 L 63.945312 106.421875 L 64.296875 107.941406 L 64.71875 109.441406 L 65.191406 110.984375 L 65.683594 112.53125 L 66.222656 114.097656 L 66.789062 115.644531 L 67.398438 117.1875 L 68.035156 118.734375 L 68.714844 120.253906 L 69.46875 121.800781 L 70.242188 123.34375 L 71.089844 124.867188 L 71.980469 126.433594 L 72.921875 128.003906 L 73.886719 129.59375 L 74.871094 131.230469 L 75.90625 132.84375 L 76.941406 134.480469 L 78.023438 136.09375 L 79.101562 137.730469 L 80.230469 139.347656 L 81.40625 140.984375 L 82.605469 142.621094 L 83.851562 144.234375 L 85.121094 145.847656 L 86.386719 147.414062 L 87.679688 148.9375 L 88.996094 150.414062 L 90.335938 151.820312 L 91.652344 153.179688 L 92.992188 154.472656 L 94.355469 155.695312 L 95.742188 156.890625 L 97.128906 158.046875 L 98.5625 159.152344 L 100.019531 160.191406 L 101.476562 161.203125 L 102.980469 162.195312 L 104.507812 163.164062 L 107.609375 165.054688 L 109.136719 165.953125 L 110.6875 166.828125 L 112.265625 167.730469 L 113.886719 168.628906 L 115.53125 169.527344 L 117.222656 170.402344 L 118.914062 171.28125 L 120.628906 172.109375 L 122.394531 172.917969 L 124.132812 173.746094 L 125.847656 174.578125 L 127.585938 175.382812 L 129.328125 176.191406 L 131.089844 176.953125 L 132.875 177.691406 L 134.660156 178.382812 L 136.496094 179.003906 L 138.351562 179.582031 L 140.207031 180.066406 L 142.039062 180.503906 L 143.898438 180.871094 L 145.730469 181.195312 L 147.5625 181.472656 L 149.421875 181.679688 L 151.253906 181.816406 L 153.039062 181.863281 L 154.824219 181.839844 L 156.589844 181.726562 L 158.375 181.5625 L 160.136719 181.355469 L 161.898438 181.078125 L 163.664062 180.734375 L 165.402344 180.339844 L 167.140625 179.878906 L 168.878906 179.371094 L 170.59375 178.796875 L 172.3125 178.152344 L 174.027344 177.460938 L 175.71875 176.652344 L 177.410156 175.777344 L 179.101562 174.832031 L 180.773438 173.816406 L 182.441406 172.734375 L 184.132812 171.601562 L 185.824219 170.378906 L 187.539062 169.089844 L 189.230469 167.730469 L 190.925781 166.324219 L 192.617188 164.894531 L 194.238281 163.417969 L 195.835938 161.941406 L 197.386719 160.464844 L 198.890625 158.945312 L 200.347656 157.421875 L 201.757812 155.878906 L 203.144531 154.308594 L 204.460938 152.742188 L 205.753906 151.152344 L 206.976562 149.582031 L 208.128906 148.015625 L 209.257812 146.449219 L 210.335938 144.855469 L 211.371094 143.265625 L 212.382812 141.652344 L 213.320312 140.0625 L 214.238281 138.445312 L 215.0625 136.808594 L 215.859375 135.148438 L 216.566406 133.464844 L 217.246094 131.738281 L 217.859375 130.007812 L 218.421875 128.234375 L 218.9375 126.457031 L 219.433594 124.636719 L 219.878906 122.835938 L 220.277344 121.015625 L 220.582031 119.171875 L 220.84375 117.351562 L 221.054688 115.503906 L 221.195312 113.660156 L 221.265625 111.816406 L 221.265625 109.925781 L 221.21875 108.035156 L 221.078125 106.121094 L 220.890625 104.207031 L 220.628906 102.316406 L 220.300781 100.402344 L 219.925781 98.535156 L 219.503906 96.667969 L 219.054688 94.824219 L 218.539062 93 L 218 91.203125 L 217.386719 89.40625 L 216.707031 87.652344 L 216 85.898438 L 215.273438 84.171875 L 214.472656 82.464844 L 213.675781 80.78125 L 212.828125 79.097656 L 211.933594 77.414062 L 210.996094 75.777344 L 209.019531 72.550781 L 208.035156 71.003906 L 207.023438 69.460938 L 205.964844 67.9375 L 204.859375 66.464844 L 203.757812 64.988281 L 202.605469 63.558594 L 201.476562 62.128906 L 200.347656 60.746094 L 199.195312 59.363281 L 198 58 L 196.824219 56.664062 L 195.625 55.351562 L 194.449219 54.035156 L 193.25 52.722656 L 192.003906 51.476562 L 190.761719 50.230469 L 189.492188 49.054688 L 188.222656 47.902344 L 186.976562 46.796875 L 185.730469 45.710938 L 184.484375 44.652344 L 183.214844 43.613281 L 181.96875 42.597656 L 180.703125 41.609375 L 179.433594 40.640625 L 178.164062 39.695312 L 176.871094 38.796875 L 175.578125 37.917969 L 174.285156 37.089844 L 172.96875 36.28125 L 171.699219 35.519531 L 170.429688 34.785156 L 169.160156 34.089844 L 167.871094 33.421875 L 166.601562 32.800781 L 165.355469 32.179688 L 164.085938 31.601562 L 162.839844 31.023438 L 161.570312 30.496094 L 160.300781 30.011719 L 159.078125 29.527344 L 157.859375 29.089844 L 156.636719 28.671875 L 155.414062 28.28125 L 154.191406 27.933594 L 152.96875 27.636719 L 151.699219 27.359375 L 150.429688 27.128906 L 149.113281 26.945312 L 147.773438 26.78125 L 146.363281 26.667969 L 144.882812 26.597656 L 143.355469 26.550781 L 141.734375 26.503906 L 140.019531 26.503906 L 138.164062 26.550781 L 136.046875 26.667969 L 133.605469 26.898438 L 131.628906 27.082031 L 121.664062 28.558594 "/>
</g>
</svg>
