<?xml version="1.0" encoding="UTF-8"?>
<svg xmlns="http://www.w3.org/2000/svg" xmlns:xlink="http://www.w3.org/1999/xlink" width="283.46pt" height="283.46pt" viewBox="0 0 283.46 283.46" version="1.2">
<g id="surface126194">
<path style=" stroke:none;fill-rule:nonzero;fill:rgb(100%,100%,100%);fill-opacity:1;" d="M 0 0 L 283.460938 0 L 283.460938 283.460938 L 0 283.460938 Z M 0 0 "/>
<path style="fill:none;stroke-width:0.85;stroke-linecap:round;stroke-linejoin:round;stroke:rgb(0%,0%,0%);stroke-opacity:1;comp-op:src;clip-to-self:true;stroke-miterlimit:10;" d="M 194.847656 35.847656 L 194.496094 35.640625 L 194.167969 35.386719 L 193.816406 35.0625 L 193.582031 34.855469 L 193.34375 34.601562 L 193.085938 34.347656 L 192.875 34.117188 L 192.476562 33.703125 L 192.21875 33.472656 L 191.933594 33.242188 L 191.605469 33.011719 L 190.855469 32.503906 L 190.476562 32.25 L 189.773438 31.742188 L 189.421875 31.511719 L 189.042969 31.28125 L 188.667969 31.027344 L 188.269531 30.773438 L 187.820312 30.519531 L 187.328125 30.269531 L 186.789062 30.015625 L 186.199219 29.761719 L 185.566406 29.507812 L 184.90625 29.277344 L 184.226562 29.046875 L 183.570312 28.839844 L 182.886719 28.628906 L 182.207031 28.421875 L 181.453125 28.214844 L 180.675781 28.007812 L 179.878906 27.824219 L 179.054688 27.617188 L 178.234375 27.433594 L 177.386719 27.246094 L 176.542969 27.085938 L 175.648438 26.925781 L 174.730469 26.761719 L 173.839844 26.601562 L 172.921875 26.464844 L 172.003906 26.347656 L 171.089844 26.257812 L 169.207031 26.070312 L 168.269531 26.003906 L 167.351562 25.910156 L 166.460938 25.839844 L 165.613281 25.773438 L 164.789062 25.679688 L 163.992188 25.609375 L 163.167969 25.542969 L 162.324219 25.472656 L 161.5 25.425781 L 160.699219 25.378906 L 159.949219 25.355469 L 159.21875 25.332031 L 158.515625 25.3125 L 157.832031 25.289062 L 156.449219 25.289062 L 155.742188 25.3125 L 155.0625 25.355469 L 154.425781 25.425781 L 153.792969 25.519531 L 153.203125 25.632812 L 152.617188 25.773438 L 152.003906 25.910156 L 151.371094 26.046875 L 150.710938 26.210938 L 150.054688 26.394531 L 149.445312 26.578125 L 148.855469 26.785156 L 148.292969 26.992188 L 147.796875 27.203125 L 147.304688 27.410156 L 146.835938 27.640625 L 146.386719 27.847656 L 145.941406 28.054688 L 145.496094 28.285156 L 145.027344 28.515625 L 144.578125 28.769531 L 144.15625 29 L 143.757812 29.230469 L 143.402344 29.460938 L 143.050781 29.691406 L 142.394531 30.152344 L 142.132812 30.382812 L 141.875 30.613281 L 141.359375 31.121094 L 141.101562 31.398438 L 140.890625 31.652344 L 140.699219 31.929688 L 140.511719 32.179688 L 140.347656 32.457031 L 140.160156 32.78125 L 139.949219 33.125 L 139.761719 33.496094 L 139.597656 33.863281 L 139.410156 34.234375 L 139.242188 34.625 L 139.054688 35.015625 L 138.84375 35.410156 L 138.65625 35.753906 L 138.492188 36.101562 L 138.304688 36.425781 L 138.140625 36.722656 L 137.976562 37.046875 L 137.855469 37.347656 L 137.738281 37.921875 L 137.714844 38.5 L 137.714844 39.167969 L 137.738281 39.535156 L 137.785156 39.90625 L 137.808594 40.273438 L 137.808594 40.644531 L 137.832031 40.988281 L 137.855469 41.3125 L 137.882812 41.65625 L 137.929688 42.003906 L 137.976562 42.304688 L 138.046875 42.625 L 138.117188 42.925781 L 138.210938 43.273438 L 138.492188 44.007812 L 138.632812 44.402344 L 138.773438 44.792969 L 138.890625 45.140625 L 139.03125 45.507812 L 139.171875 45.832031 L 139.339844 46.199219 L 139.527344 46.613281 L 139.714844 47.03125 L 139.925781 47.46875 L 140.136719 47.929688 L 140.347656 48.367188 L 140.558594 48.828125 L 140.75 49.289062 L 141.171875 50.210938 L 141.546875 51.132812 L 141.734375 51.550781 L 141.945312 51.964844 L 142.207031 52.355469 L 142.464844 52.726562 L 142.769531 53.117188 L 143.121094 53.484375 L 143.472656 53.855469 L 143.828125 54.199219 L 144.15625 54.546875 L 144.484375 54.890625 L 144.789062 55.214844 L 145.097656 55.515625 L 145.378906 55.792969 L 145.636719 56.070312 L 145.941406 56.34375 L 146.269531 56.644531 L 146.625 56.945312 L 147 57.265625 L 147.351562 57.566406 L 147.679688 57.84375 L 148.011719 58.121094 L 148.386719 58.421875 L 148.761719 58.71875 L 149.160156 59.019531 L 149.515625 59.320312 L 149.84375 59.597656 L 150.171875 59.851562 L 150.5 60.125 L 150.832031 60.355469 L 151.160156 60.609375 L 151.441406 60.839844 L 151.746094 61.09375 L 152.027344 61.347656 L 152.359375 61.625 L 153.015625 62.226562 L 153.367188 62.523438 L 153.746094 62.824219 L 154.121094 63.148438 L 154.542969 63.46875 L 154.964844 63.769531 L 155.390625 64.09375 L 155.8125 64.390625 L 156.234375 64.691406 L 156.636719 64.992188 L 157.035156 65.3125 L 157.410156 65.613281 L 157.738281 65.914062 L 158.09375 66.238281 L 158.46875 66.558594 L 158.84375 66.882812 L 159.242188 67.226562 L 159.644531 67.574219 L 160.042969 67.898438 L 160.441406 68.242188 L 160.867188 68.589844 L 161.289062 68.933594 L 161.710938 69.28125 L 162.160156 69.625 L 162.582031 69.972656 L 162.980469 70.292969 L 163.378906 70.640625 L 163.757812 70.941406 L 164.085938 71.238281 L 164.742188 71.839844 L 165.074219 72.164062 L 165.449219 72.507812 L 165.800781 72.855469 L 166.152344 73.199219 L 166.507812 73.546875 L 166.859375 73.914062 L 167.210938 74.285156 L 167.585938 74.652344 L 167.941406 75.019531 L 168.269531 75.390625 L 168.597656 75.734375 L 168.925781 76.105469 L 169.230469 76.472656 L 169.5625 76.867188 L 169.867188 77.234375 L 170.195312 77.625 L 170.5 78.019531 L 170.832031 78.410156 L 171.136719 78.800781 L 171.441406 79.171875 L 171.746094 79.539062 L 172.050781 79.933594 L 172.382812 80.347656 L 172.710938 80.761719 L 173.039062 81.15625 L 173.34375 81.546875 L 173.652344 81.9375 L 173.957031 82.332031 L 174.261719 82.722656 L 174.542969 83.113281 L 174.847656 83.527344 L 175.15625 83.96875 L 175.460938 84.40625 L 176.304688 85.71875 L 176.566406 86.15625 L 176.824219 86.574219 L 177.082031 87.011719 L 177.363281 87.449219 L 177.644531 87.910156 L 177.929688 88.347656 L 178.234375 88.785156 L 178.515625 89.222656 L 178.820312 89.664062 L 179.125 90.078125 L 179.433594 90.515625 L 179.714844 90.90625 L 179.996094 91.324219 L 180.253906 91.714844 L 180.488281 92.128906 L 180.75 92.542969 L 180.960938 92.960938 L 181.195312 93.398438 L 181.40625 93.835938 L 181.617188 94.296875 L 181.804688 94.734375 L 181.992188 95.195312 L 182.183594 95.679688 L 182.371094 96.164062 L 182.535156 96.671875 L 182.722656 97.179688 L 182.886719 97.6875 L 183.027344 98.191406 L 183.191406 98.699219 L 183.472656 99.714844 L 183.617188 100.222656 L 183.757812 100.753906 L 183.898438 101.28125 L 184.0625 101.8125 L 184.226562 102.320312 L 184.390625 102.851562 L 184.554688 103.359375 L 184.742188 103.867188 L 184.90625 104.394531 L 185.097656 104.925781 L 185.425781 105.988281 L 185.566406 106.472656 L 185.707031 106.976562 L 185.988281 107.945312 L 186.152344 108.453125 L 186.292969 108.9375 L 186.4375 109.421875 L 186.625 110.390625 L 186.671875 110.875 L 186.742188 111.359375 L 186.789062 112.375 L 186.765625 112.878906 L 186.742188 113.363281 L 186.671875 113.847656 L 186.625 114.332031 L 186.554688 114.816406 L 186.484375 115.324219 L 186.386719 115.808594 L 186.292969 116.292969 L 186.175781 116.777344 L 186.035156 117.261719 L 185.894531 117.769531 L 185.707031 118.277344 L 185.496094 118.78125 L 185.261719 119.3125 L 185.003906 119.84375 L 184.695312 120.398438 L 184.414062 120.949219 L 183.851562 122.011719 L 183.570312 122.5625 L 183.285156 123.09375 L 182.675781 124.109375 L 182.347656 124.59375 L 182.015625 125.101562 L 181.664062 125.609375 L 181.3125 126.113281 L 180.9375 126.621094 L 180.558594 127.105469 L 180.160156 127.566406 L 179.363281 128.535156 L 178.960938 128.996094 L 178.5625 129.480469 L 178.164062 129.941406 L 177.738281 130.378906 L 177.339844 130.820312 L 176.917969 131.257812 L 176.496094 131.671875 L 176.070312 132.109375 L 175.578125 132.546875 L 175.0625 133.007812 L 174.519531 133.445312 L 173.933594 133.910156 L 173.390625 134.324219 L 172.828125 134.738281 L 172.289062 135.152344 L 171.769531 135.546875 L 171.230469 135.9375 L 170.664062 136.328125 L 170.078125 136.699219 L 169.46875 137.089844 L 168.832031 137.460938 L 168.175781 137.804688 L 167.46875 138.175781 L 166.765625 138.496094 L 165.988281 138.867188 L 165.144531 139.210938 L 164.296875 139.558594 L 163.449219 139.855469 L 162.582031 140.15625 L 161.664062 140.433594 L 160.796875 140.6875 L 159.949219 140.917969 L 159.078125 141.125 L 158.210938 141.332031 L 157.292969 141.492188 L 156.375 141.65625 L 155.578125 141.769531 L 154.824219 141.863281 L 153.933594 141.933594 L 152.992188 141.976562 L 152.074219 142.023438 L 151.160156 142.046875 L 150.242188 142.070312 L 149.277344 142.046875 L 148.386719 142.046875 L 147.515625 142.023438 L 146.648438 142 L 145.777344 141.976562 L 144.859375 141.910156 L 143.921875 141.863281 L 142.980469 141.792969 L 142.085938 141.679688 L 141.171875 141.5625 L 140.253906 141.449219 L 139.339844 141.285156 L 137.503906 140.964844 L 136.613281 140.757812 L 135.71875 140.546875 L 134.824219 140.316406 L 133.933594 140.066406 L 132.144531 139.558594 L 131.277344 139.28125 L 130.40625 139.003906 L 129.585938 138.726562 L 128.761719 138.449219 L 127.964844 138.152344 L 127.140625 137.828125 L 126.339844 137.503906 L 125.613281 137.183594 L 124.953125 136.882812 L 124.203125 136.492188 L 123.378906 136.050781 L 122.605469 135.613281 L 121.851562 135.152344 L 121.101562 134.691406 L 120.371094 134.230469 L 119.644531 133.792969 L 118.960938 133.355469 L 118.398438 132.941406 L 117.90625 132.523438 L 117.363281 132.0625 L 116.824219 131.578125 L 116.257812 131.074219 L 115.71875 130.566406 L 115.15625 130.035156 L 114.613281 129.480469 L 114.074219 128.953125 L 113.554688 128.398438 L 113.085938 127.84375 L 112.640625 127.292969 L 112.242188 126.714844 L 111.886719 126.136719 L 111.558594 125.539062 L 111.253906 124.894531 L 110.972656 124.246094 L 110.734375 123.578125 L 110.359375 122.195312 L 110.21875 121.480469 L 110.078125 120.789062 L 109.984375 120.097656 L 109.914062 119.40625 L 109.890625 118.714844 L 109.890625 117.308594 L 109.9375 116.546875 L 110.007812 115.695312 L 110.101562 114.792969 L 110.21875 113.917969 L 110.359375 113.089844 L 110.546875 112.210938 L 110.808594 111.335938 L 111.066406 110.460938 L 111.347656 109.582031 L 111.675781 108.660156 L 112.074219 107.714844 L 112.546875 106.722656 L 113.085938 105.6875 L 113.601562 104.71875 L 114.144531 103.796875 L 114.707031 102.851562 L 115.273438 101.90625 L 115.835938 100.960938 L 116.351562 100.0625 L 116.871094 99.136719 L 117.386719 98.238281 L 117.953125 97.316406 L 118.539062 96.441406 L 119.148438 95.566406 L 119.785156 94.6875 L 120.417969 93.859375 L 121.03125 93.027344 L 121.664062 92.199219 L 122.277344 91.34375 L 122.863281 90.585938 L 123.425781 89.847656 L 124.085938 89.039062 L 124.8125 88.234375 L 125.542969 87.449219 L 126.292969 86.6875 L 127 86.019531 L 127.632812 85.351562 L 128.292969 84.683594 L 128.972656 84.035156 L 129.726562 83.367188 L 130.570312 82.699219 L 131.417969 82.054688 L 132.265625 81.40625 L 133.109375 80.832031 L 133.933594 80.277344 L 134.824219 79.703125 L 135.789062 79.078125 L 136.707031 78.503906 L 137.667969 77.949219 L 138.5625 77.464844 L 139.363281 77.003906 L 140.207031 76.566406 L 141.03125 76.128906 L 141.875 75.691406 L 142.746094 75.296875 L 143.566406 74.953125 L 144.367188 74.652344 L 145.144531 74.351562 L 145.917969 74.054688 L 146.742188 73.777344 L 147.585938 73.5 L 148.457031 73.222656 L 149.328125 72.96875 L 150.195312 72.738281 L 150.996094 72.507812 L 151.816406 72.300781 L 152.59375 72.09375 L 153.390625 71.886719 L 154.238281 71.699219 L 155.085938 71.539062 L 155.929688 71.355469 L 156.660156 71.21875 L 157.292969 71.078125 L 158.117188 70.941406 L 159.007812 70.753906 L 160.75 70.433594 L 161.59375 70.25 L 162.464844 70.0625 L 163.285156 69.902344 L 164.0625 69.765625 L 164.835938 69.625 L 165.613281 69.488281 L 166.386719 69.347656 L 167.234375 69.210938 L 167.988281 69.117188 L 168.691406 69.003906 L 169.421875 68.910156 L 170.171875 68.796875 L 170.902344 68.679688 L 171.628906 68.566406 L 172.382812 68.449219 L 173.109375 68.359375 L 173.839844 68.265625 L 174.496094 68.171875 L 175.179688 68.082031 L 175.859375 67.988281 L 176.566406 67.898438 L 177.292969 67.804688 L 178.023438 67.710938 L 178.75 67.597656 L 179.480469 67.457031 L 180.207031 67.34375 L 180.867188 67.226562 L 181.476562 67.113281 L 182.0625 66.996094 L 182.605469 66.882812 L 183.167969 66.765625 L 183.734375 66.628906 L 184.320312 66.511719 L 184.882812 66.375 L 185.425781 66.257812 L 185.964844 66.121094 L 186.460938 66.007812 L 186.929688 65.867188 L 187.351562 65.753906 L 187.726562 65.613281 L 188.082031 65.5 L 188.433594 65.359375 L 188.832031 65.199219 L 189.230469 65.015625 L 189.632812 64.828125 L 190.03125 64.621094 L 190.40625 64.414062 L 190.761719 64.230469 L 191.417969 63.816406 L 191.746094 63.585938 L 192.097656 63.332031 L 192.476562 63.054688 L 193.179688 62.5 L 193.460938 62.226562 L 193.722656 61.972656 L 193.957031 61.71875 L 194.191406 61.441406 L 194.402344 61.164062 L 194.636719 60.863281 L 194.847656 60.542969 L 195.085938 60.195312 L 195.296875 59.871094 L 195.507812 59.503906 L 195.765625 59.136719 L 196.023438 58.742188 L 196.28125 58.328125 L 196.542969 57.9375 L 196.777344 57.542969 L 196.988281 57.152344 L 197.175781 56.804688 L 197.339844 56.4375 L 197.503906 56.089844 L 197.785156 55.355469 L 197.90625 54.960938 L 198.023438 54.570312 L 198.140625 54.199219 L 198.234375 53.855469 L 198.328125 53.507812 L 198.421875 53.140625 L 198.492188 52.75 L 198.5625 52.355469 L 198.65625 51.988281 L 198.726562 51.617188 L 198.796875 51.25 L 198.867188 50.925781 L 198.9375 50.582031 L 198.984375 50.257812 L 199.054688 49.890625 L 199.101562 49.542969 L 199.148438 49.175781 L 199.195312 48.804688 L 199.242188 48.460938 L 199.292969 48.089844 L 199.339844 47.722656 L 199.410156 47.328125 L 199.457031 46.9375 L 199.480469 46.546875 L 199.527344 46.175781 L 199.527344 45.832031 L 199.550781 45.484375 L 199.527344 45.117188 L 199.527344 44.746094 L 199.503906 44.402344 L 199.457031 44.054688 L 199.410156 43.734375 L 199.363281 43.410156 L 199.269531 43.0625 L 199.171875 42.742188 L 199.054688 42.371094 L 198.914062 42.027344 L 198.75 41.679688 L 198.5625 41.3125 L 198.351562 40.964844 L 198.140625 40.644531 L 197.929688 40.320312 L 197.714844 39.996094 L 197.503906 39.699219 L 197.269531 39.375 L 197.011719 39.050781 L 196.730469 38.730469 L 196.472656 38.429688 L 196.210938 38.152344 L 195.976562 37.898438 L 195.765625 37.621094 L 195.53125 37.347656 L 195.296875 37.046875 L 195.039062 36.746094 L 194.777344 36.445312 L 194.519531 36.148438 L 194.238281 35.847656 L 193.957031 35.523438 L 193.628906 35.226562 L 193.273438 34.902344 L 192.898438 34.601562 L 192.5 34.304688 L 192.097656 34.027344 L 191.699219 33.773438 L 191.277344 33.519531 L 190.878906 33.289062 L 190.453125 33.058594 L 190.03125 32.828125 L 189.609375 32.621094 L 189.207031 32.433594 L 188.832031 32.226562 L 188.433594 32.019531 L 188.011719 31.8125 L 187.5625 31.605469 L 187.09375 31.398438 L 186.578125 31.191406 L 186.058594 30.984375 L 185.542969 30.773438 L 185.027344 30.589844 L 184.53125 30.429688 L 184.039062 30.269531 L 183.519531 30.128906 L 183.003906 29.96875 L 182.488281 29.828125 L 181.921875 29.667969 L 181.3125 29.507812 L 180.675781 29.367188 L 179.996094 29.230469 L 179.363281 29.113281 L 178.726562 29.023438 L 178.09375 28.929688 L 177.480469 28.863281 L 176.800781 28.769531 L 176.09375 28.699219 L 175.367188 28.609375 L 174.636719 28.515625 L 173.933594 28.445312 L 173.25 28.378906 L 172.617188 28.308594 L 171.980469 28.238281 L 171.324219 28.148438 L 170.6875 28.078125 L 170.03125 27.984375 L 169.375 27.894531 L 168.738281 27.800781 L 168.105469 27.707031 L 167.492188 27.640625 L 166.882812 27.546875 L 166.316406 27.453125 L 165.730469 27.386719 L 165.144531 27.316406 L 164.554688 27.269531 L 163.945312 27.222656 L 163.355469 27.15625 L 162.792969 27.109375 L 162.207031 27.039062 L 161.640625 26.992188 L 161.101562 26.949219 L 160.582031 26.902344 L 160.136719 26.878906 L 159.667969 26.855469 L 159.171875 26.832031 L 158.632812 26.808594 L 156.351562 26.808594 L 155.789062 26.832031 L 155.226562 26.878906 L 154.707031 26.925781 L 154.238281 26.949219 L 153.792969 26.992188 L 153.34375 27.039062 L 152.898438 27.085938 L 152.429688 27.132812 L 151.910156 27.203125 L 151.371094 27.269531 L 150.832031 27.363281 L 150.3125 27.453125 L 149.796875 27.570312 L 149.328125 27.664062 L 148.925781 27.777344 L 148.550781 27.871094 L 148.222656 27.960938 L 147.894531 28.078125 L 147.5625 28.191406 L 147.1875 28.332031 L 146.765625 28.46875 L 146.363281 28.628906 L 145.941406 28.792969 L 145.144531 29.113281 L 144.8125 29.277344 L 144.507812 29.414062 L 144.015625 29.667969 L 143.566406 29.96875 L 143.144531 30.289062 L 142.699219 30.683594 L 142.230469 31.191406 L 142.015625 31.445312 L 141.828125 31.699219 L 141.640625 31.972656 L 141.3125 32.527344 L 141.171875 32.828125 L 141.03125 33.125 L 140.914062 33.402344 L 140.796875 33.703125 L 140.675781 33.980469 L 140.582031 34.304688 L 140.464844 34.671875 L 140.347656 35.085938 L 140.230469 35.523438 L 140.113281 35.984375 L 140.019531 36.445312 L 139.925781 36.886719 L 139.832031 37.347656 L 139.761719 37.808594 L 139.691406 38.246094 L 139.644531 38.636719 L 139.644531 39.03125 L 139.667969 39.398438 L 139.714844 39.765625 L 139.785156 40.183594 L 139.855469 40.621094 L 139.925781 41.082031 L 140.019531 41.566406 L 140.089844 42.050781 L 140.183594 42.558594 L 140.277344 43.0625 L 140.371094 43.570312 L 140.488281 44.101562 L 140.652344 44.609375 L 140.820312 45.117188 L 141.03125 45.625 L 141.242188 46.152344 L 141.5 46.683594 L 141.804688 47.238281 L 142.160156 47.8125 L 142.535156 48.390625 L 142.957031 48.96875 L 143.378906 49.566406 L 143.851562 50.144531 L 144.34375 50.742188 L 144.835938 51.320312 L 145.402344 51.964844 L 145.988281 52.609375 L 146.554688 53.234375 L 147.09375 53.832031 L 147.679688 54.429688 L 148.269531 55.03125 L 148.902344 55.628906 L 149.5625 56.253906 L 150.242188 56.875 L 150.925781 57.496094 L 151.558594 58.074219 L 152.171875 58.628906 L 152.757812 59.179688 L 153.367188 59.734375 L 153.980469 60.289062 L 154.636719 60.816406 L 155.320312 61.347656 L 156 61.855469 L 156.683594 62.363281 L 157.339844 62.847656 L 157.976562 63.332031 L 158.585938 63.816406 L 159.21875 64.324219 L 159.855469 64.785156 L 160.535156 65.269531 L 161.21875 65.753906 L 161.875 66.214844 L 162.558594 66.699219 L 163.121094 67.113281 L 163.640625 67.503906 L 164.273438 68.011719 L 165.003906 68.566406 L 165.683594 69.09375 L 166.363281 69.625 L 167.023438 70.132812 L 167.703125 70.664062 L 168.386719 71.148438 L 169.042969 71.65625 L 169.632812 72.09375 L 170.195312 72.53125 L 170.832031 73.039062 L 171.558594 73.613281 L 172.265625 74.167969 L 172.96875 74.675781 L 173.675781 75.207031 L 174.355469 75.734375 L 175.015625 76.265625 L 175.625 76.773438 L 176.210938 77.304688 L 176.777344 77.835938 L 177.363281 78.386719 L 177.976562 78.964844 L 178.632812 79.539062 L 179.339844 80.09375 L 180.019531 80.648438 L 180.652344 81.175781 L 181.195312 81.636719 L 181.664062 82.078125 L 182.160156 82.5625 L 182.652344 83.089844 L 183.144531 83.644531 L 183.617188 84.222656 L 184.085938 84.820312 L 184.507812 85.441406 L 184.929688 86.113281 L 185.332031 86.78125 L 185.707031 87.449219 L 186.058594 88.140625 L 186.4375 88.832031 L 186.765625 89.523438 L 187.070312 90.214844 L 187.351562 90.90625 L 187.632812 91.644531 L 187.871094 92.382812 L 188.105469 93.214844 L 188.339844 94.089844 L 188.550781 94.894531 L 188.761719 95.679688 L 188.925781 96.394531 L 189.066406 97.0625 L 189.257812 97.847656 L 189.46875 98.722656 L 189.679688 99.507812 L 189.914062 100.269531 L 190.101562 100.9375 L 190.265625 101.582031 L 190.429688 102.25 L 190.570312 102.988281 L 190.714844 103.726562 L 190.808594 104.488281 L 190.878906 105.273438 L 190.925781 106.03125 L 190.925781 107.554688 L 190.878906 108.316406 L 190.808594 109.074219 L 190.691406 109.835938 L 190.546875 110.621094 L 190.382812 111.359375 L 190.242188 112.121094 L 190.054688 112.949219 L 189.84375 113.847656 L 189.632812 114.679688 L 189.398438 115.507812 L 189.136719 116.363281 L 188.878906 117.238281 L 188.574219 118.113281 L 188.269531 119.011719 L 187.917969 119.960938 L 187.515625 120.90625 L 187.09375 121.851562 L 186.648438 122.75 L 186.175781 123.671875 L 185.707031 124.570312 L 185.167969 125.539062 L 184.578125 126.554688 L 184.015625 127.476562 L 183.449219 128.398438 L 182.863281 129.320312 L 182.230469 130.265625 L 181.523438 131.1875 L 180.75 132.109375 L 179.949219 132.964844 L 179.125 133.816406 L 178.28125 134.644531 L 177.457031 135.453125 L 176.589844 136.261719 L 175.671875 137.042969 L 174.730469 137.78125 L 173.746094 138.472656 L 172.804688 139.097656 L 171.886719 139.648438 L 170.972656 140.15625 L 170.03125 140.640625 L 169.160156 141.03125 L 168.316406 141.378906 L 167.375 141.65625 L 166.4375 141.910156 L 165.496094 142.140625 L 164.53125 142.324219 L 163.542969 142.460938 L 162.535156 142.578125 L 161.546875 142.648438 L 160.558594 142.691406 L 159.503906 142.691406 L 158.421875 142.648438 L 157.292969 142.601562 L 156.140625 142.578125 L 154.988281 142.507812 L 153.839844 142.460938 L 152.59375 142.394531 L 151.207031 142.300781 L 149.960938 142.230469 L 148.761719 142.140625 L 147.515625 142.046875 L 146.246094 141.933594 L 145 141.839844 L 143.78125 141.726562 L 142.558594 141.585938 L 141.382812 141.425781 L 140.136719 141.261719 L 138.820312 141.101562 L 137.550781 140.964844 L 136.328125 140.78125 L 135.109375 140.59375 L 132.757812 140.132812 L 131.582031 139.878906 L 130.453125 139.601562 L 129.398438 139.328125 L 128.292969 139.003906 L 127.1875 138.636719 L 126.175781 138.289062 L 125.285156 137.941406 L 124.34375 137.527344 L 123.425781 137.066406 L 122.464844 136.582031 L 121.453125 136.007812 L 120.558594 135.453125 L 119.691406 134.875 L 118.9375 134.324219 L 118.257812 133.769531 L 117.574219 133.125 L 116.871094 132.433594 L 116.1875 131.742188 L 115.484375 131.003906 L 114.824219 130.265625 L 114.191406 129.503906 L 113.601562 128.71875 L 113.039062 127.960938 L 112.546875 127.199219 L 112.074219 126.414062 L 111.628906 125.652344 L 111.207031 124.871094 L 110.832031 124.109375 L 110.5 123.371094 L 110.171875 122.609375 L 109.867188 121.871094 L 109.609375 121.179688 L 109.421875 120.511719 L 109.253906 119.796875 L 109.089844 119.058594 L 108.996094 118.300781 L 108.949219 117.5625 L 108.972656 116.707031 L 109.042969 115.808594 L 109.160156 114.933594 L 109.324219 114.078125 L 109.5625 113.179688 L 109.867188 112.28125 L 110.195312 111.382812 L 110.570312 110.484375 L 111.019531 109.558594 L 111.535156 108.59375 L 112.144531 107.554688 L 112.828125 106.492188 L 113.507812 105.503906 L 114.214844 104.535156 L 114.941406 103.542969 L 115.648438 102.574219 L 116.375 101.628906 L 117.082031 100.707031 L 117.832031 99.785156 L 118.65625 98.839844 L 119.480469 97.960938 L 120.347656 97.109375 L 121.195312 96.28125 L 122.015625 95.496094 L 122.886719 94.710938 L 123.78125 93.929688 L 124.695312 93.167969 L 125.636719 92.382812 L 126.578125 91.667969 L 127.445312 90.976562 L 128.339844 90.285156 L 129.230469 89.59375 L 130.148438 88.902344 L 131.113281 88.210938 L 132.097656 87.585938 L 133.0625 86.964844 L 134.074219 86.34375 L 135.132812 85.742188 L 136.1875 85.167969 L 137.292969 84.589844 L 138.375 84.058594 L 139.410156 83.550781 L 140.464844 83.046875 L 141.570312 82.515625 L 142.699219 81.960938 L 143.875 81.453125 L 145 80.96875 L 146.058594 80.554688 L 147.140625 80.140625 L 148.246094 79.746094 L 149.328125 79.378906 L 150.429688 79.011719 L 151.464844 78.6875 L 152.453125 78.363281 L 153.507812 78.042969 L 154.613281 77.742188 L 155.671875 77.464844 L 156.683594 77.234375 L 157.738281 76.980469 L 158.820312 76.703125 L 159.996094 76.40625 L 161.242188 76.105469 L 162.253906 75.851562 L 163.144531 75.667969 L 164.179688 75.414062 L 165.261719 75.160156 L 166.4375 74.882812 L 167.65625 74.605469 L 168.691406 74.398438 L 169.585938 74.238281 L 170.617188 74.03125 L 171.722656 73.800781 L 172.804688 73.570312 L 173.910156 73.339844 L 174.964844 73.128906 L 176.023438 72.875 L 177.128906 72.625 L 178.328125 72.347656 L 179.316406 72.09375 L 180.183594 71.886719 L 181.101562 71.65625 L 181.992188 71.449219 L 182.980469 71.195312 L 184.015625 70.917969 L 184.929688 70.640625 L 185.777344 70.386719 L 186.554688 70.109375 L 187.28125 69.832031 L 188.035156 69.535156 L 188.761719 69.234375 L 189.585938 68.886719 L 190.476562 68.519531 L 191.277344 68.195312 L 192.027344 67.875 L 192.664062 67.597656 L 193.203125 67.320312 L 193.792969 66.996094 L 194.378906 66.628906 L 194.96875 66.238281 L 195.53125 65.820312 L 196.09375 65.382812 L 196.660156 64.96875 L 197.175781 64.53125 L 197.691406 64.117188 L 198.1875 63.675781 L 198.632812 63.214844 L 199.101562 62.730469 L 199.550781 62.226562 L 199.972656 61.71875 L 200.371094 61.210938 L 200.726562 60.679688 L 201.054688 60.171875 L 201.359375 59.664062 L 201.640625 59.15625 L 201.898438 58.675781 L 202.136719 58.191406 L 202.371094 57.707031 L 202.582031 57.199219 L 202.769531 56.714844 L 203.097656 55.746094 L 203.214844 55.285156 L 203.332031 54.800781 L 203.519531 53.832031 L 203.59375 53.347656 L 203.664062 52.863281 L 203.710938 52.402344 L 203.734375 51.917969 L 203.734375 51.433594 L 203.6875 50.417969 L 203.617188 49.890625 L 203.570312 49.359375 L 203.472656 48.828125 L 203.402344 48.273438 L 203.285156 47.746094 L 203.167969 47.191406 L 203.050781 46.660156 L 202.886719 46.109375 L 202.722656 45.578125 L 202.558594 45.023438 L 202.417969 44.449219 L 202.253906 43.871094 L 202.0625 43.273438 L 201.875 42.671875 L 201.6875 42.074219 L 201.476562 41.425781 L 201.242188 40.804688 L 201.007812 40.207031 L 200.726562 39.605469 L 200.417969 39.050781 L 200.089844 38.523438 L 199.738281 38.015625 L 199.316406 37.507812 L 198.867188 37 L 198.304688 36.425781 L 197.644531 35.824219 L 197.011719 35.25 L 196.425781 34.742188 L 195.859375 34.257812 L 195.273438 33.796875 L 194.636719 33.3125 L 193.980469 32.851562 L 193.203125 32.414062 L 192.40625 32.019531 L 191.605469 31.628906 L 190.785156 31.257812 L 189.960938 30.914062 L 189.136719 30.566406 L 188.292969 30.222656 L 187.398438 29.875 L 186.484375 29.53125 L 185.566406 29.207031 L 184.671875 28.863281 L 183.804688 28.539062 L 182.910156 28.214844 L 181.96875 27.894531 L 181.03125 27.570312 L 180.066406 27.269531 L 179.125 26.992188 L 178.210938 26.738281 L 176.328125 26.277344 L 175.367188 26.046875 L 174.378906 25.839844 L 173.414062 25.65625 L 172.476562 25.449219 L 171.511719 25.265625 L 170.570312 25.101562 L 169.585938 24.941406 L 168.597656 24.804688 L 167.632812 24.664062 L 166.71875 24.550781 L 165.800781 24.433594 L 164.882812 24.34375 L 163.921875 24.25 L 162.910156 24.179688 L 161.945312 24.113281 L 161.03125 24.042969 L 160.183594 23.972656 L 159.386719 23.925781 L 158.585938 23.882812 L 157.738281 23.859375 L 156.871094 23.835938 L 156 23.859375 L 155.179688 23.882812 L 154.402344 23.949219 L 153.769531 24.019531 L 153.179688 24.113281 L 152.40625 24.25 L 151.535156 24.457031 L 150.710938 24.664062 L 149.9375 24.894531 L 149.328125 25.125 L 148.832031 25.355469 L 148.316406 25.609375 L 147.820312 25.910156 L 147.328125 26.210938 L 146.835938 26.554688 L 146.339844 26.902344 L 145.847656 27.269531 L 145.355469 27.664062 L 144.882812 28.054688 L 144.414062 28.492188 L 143.921875 28.953125 L 143.449219 29.4375 L 143.003906 29.921875 L 142.605469 30.429688 L 142.277344 30.960938 L 141.992188 31.488281 L 141.734375 32.019531 L 141.5 32.574219 L 141.289062 33.125 L 141.101562 33.703125 L 140.9375 34.304688 L 140.820312 34.902344 L 140.722656 35.5 L 140.628906 36.125 L 140.558594 36.746094 L 140.511719 37.371094 L 140.488281 38.015625 L 140.511719 38.636719 L 140.558594 39.28125 L 140.628906 39.90625 L 140.699219 40.527344 L 140.820312 41.152344 L 140.960938 41.773438 L 141.148438 42.394531 L 141.335938 43.042969 L 141.546875 43.664062 L 141.828125 44.308594 L 142.132812 44.933594 L 142.488281 45.578125 L 142.957031 46.269531 L 143.496094 46.984375 L 144.015625 47.652344 L 144.53125 48.296875 L 145.027344 48.945312 L 145.472656 49.636719 L 145.917969 50.304688 L 146.339844 50.972656 L 146.789062 51.664062 L 147.234375 52.378906 L 147.726562 53.09375 L 148.246094 53.808594 L 148.832031 54.476562 L 149.445312 55.144531 L 150.078125 55.792969 L 150.6875 56.414062 L 151.324219 57.035156 L 151.933594 57.683594 L 152.570312 58.328125 L 153.226562 58.949219 L 153.886719 59.597656 L 154.589844 60.21875 L 155.34375 60.910156 L 156.1875 61.625 L 156.917969 62.246094 L 157.597656 62.777344 L 158.375 63.378906 L 159.171875 63.976562 L 159.996094 64.578125 L 160.84375 65.128906 L 161.6875 65.683594 L 162.558594 66.238281 L 163.378906 66.765625 L 164.203125 67.296875 L 165.003906 67.828125 L 165.777344 68.359375 L 166.648438 68.933594 L 167.585938 69.578125 L 168.386719 70.109375 L 169.113281 70.617188 L 169.914062 71.195312 L 170.714844 71.746094 L 171.558594 72.371094 L 172.476562 72.992188 L 173.25 73.523438 L 174.003906 74.03125 L 174.800781 74.558594 L 175.625 75.136719 L 176.398438 75.714844 L 177.152344 76.265625 L 177.929688 76.867188 L 178.726562 77.464844 L 179.503906 78.066406 L 180.300781 78.664062 L 181.03125 79.21875 L 181.734375 79.792969 L 182.441406 80.371094 L 183.144531 80.921875 L 183.875 81.523438 L 184.578125 82.121094 L 185.308594 82.699219 L 185.988281 83.277344 L 186.578125 83.78125 L 187.09375 84.242188 L 187.632812 84.773438 L 188.152344 85.351562 L 188.738281 85.996094 L 189.304688 86.6875 L 189.84375 87.355469 L 190.335938 88.003906 L 190.785156 88.578125 L 191.160156 89.132812 L 191.535156 89.707031 L 191.933594 90.332031 L 192.289062 90.953125 L 192.640625 91.574219 L 192.945312 92.199219 L 193.203125 92.84375 L 193.4375 93.511719 L 193.652344 94.160156 L 193.839844 94.804688 L 194.050781 95.472656 L 194.214844 96.140625 L 194.355469 96.808594 L 194.472656 97.5 L 194.542969 98.171875 L 194.613281 98.886719 L 194.683594 99.578125 L 194.730469 100.316406 L 194.753906 101.050781 L 194.730469 101.789062 L 194.683594 102.527344 L 194.542969 104.003906 L 194.449219 104.71875 L 194.355469 105.457031 L 194.214844 106.171875 L 194.074219 106.863281 L 193.886719 107.554688 L 193.675781 108.246094 L 193.390625 109.054688 L 193.0625 109.90625 L 192.710938 110.714844 L 192.335938 111.542969 L 191.886719 112.394531 L 191.347656 113.273438 L 190.785156 114.171875 L 190.148438 115.117188 L 189.539062 116.015625 L 188.949219 116.914062 L 188.292969 117.835938 L 187.5625 118.804688 L 186.789062 119.796875 L 185.941406 120.8125 L 185.074219 121.851562 L 184.226562 122.886719 L 183.402344 123.949219 L 182.628906 125.007812 L 181.804688 126.070312 L 180.914062 127.128906 L 179.996094 128.167969 L 179.054688 129.183594 L 178.140625 130.148438 L 177.292969 131.074219 L 176.449219 131.972656 L 175.601562 132.824219 L 174.753906 133.65625 L 173.886719 134.4375 L 173.085938 135.152344 L 172.382812 135.777344 L 171.628906 136.445312 L 170.832031 137.113281 L 169.984375 137.804688 L 169.019531 138.449219 L 168.199219 138.980469 L 167.421875 139.394531 L 166.578125 139.855469 L 164.882812 140.824219 L 164.039062 141.285156 L 163.121094 141.703125 L 162.183594 142.070312 L 161.265625 142.417969 L 160.347656 142.738281 L 159.480469 143.015625 L 158.632812 143.222656 L 157.761719 143.429688 L 156.917969 143.617188 L 156.140625 143.707031 L 155.460938 143.800781 L 154.753906 143.847656 L 154.027344 143.890625 L 153.179688 143.890625 L 152.242188 143.847656 L 151.324219 143.753906 L 150.40625 143.617188 L 149.515625 143.429688 L 148.621094 143.199219 L 147.726562 142.945312 L 146.835938 142.671875 L 145.871094 142.371094 L 144.835938 142 L 143.828125 141.632812 L 142.816406 141.261719 L 141.78125 140.871094 L 140.75 140.527344 L 139.597656 140.132812 L 138.351562 139.742188 L 137.175781 139.394531 L 136.046875 139.074219 L 134.871094 138.75 L 133.652344 138.40625 L 132.476562 138.082031 L 131.324219 137.734375 L 130.171875 137.34375 L 129.066406 136.929688 L 127.941406 136.445312 L 126.765625 135.960938 L 125.613281 135.453125 L 124.53125 134.921875 L 123.472656 134.371094 L 122.464844 133.816406 L 121.453125 133.214844 L 120.417969 132.59375 L 119.503906 132.019531 L 118.703125 131.464844 L 117.90625 130.796875 L 117.152344 130.082031 L 116.421875 129.320312 L 115.71875 128.558594 L 115.011719 127.753906 L 114.355469 126.945312 L 113.699219 126.113281 L 113.085938 125.285156 L 112.570312 124.457031 L 112.144531 123.648438 L 111.769531 122.839844 L 111.464844 122.058594 L 111.183594 121.226562 L 110.972656 120.375 L 110.808594 119.519531 L 110.640625 118.667969 L 110.570312 117.769531 L 110.546875 116.847656 L 110.570312 115.902344 L 110.617188 114.980469 L 110.734375 114.035156 L 110.925781 113.109375 L 111.136719 112.164062 L 111.417969 111.242188 L 111.839844 110.273438 L 112.359375 109.308594 L 112.992188 108.269531 L 113.722656 107.164062 L 114.496094 106.171875 L 115.25 105.179688 L 116.070312 104.164062 L 116.894531 103.128906 L 117.808594 102.089844 L 118.820312 101.050781 L 119.878906 100.0625 L 120.984375 99.070312 L 122.039062 98.148438 L 123.050781 97.246094 L 124.0625 96.394531 L 125.121094 95.519531 L 126.199219 94.6875 L 127.304688 93.835938 L 128.433594 93.003906 L 129.515625 92.199219 L 130.640625 91.390625 L 131.792969 90.585938 L 132.992188 89.777344 L 134.167969 88.992188 L 135.367188 88.210938 L 136.613281 87.472656 L 137.832031 86.734375 L 140.277344 85.304688 L 141.5 84.566406 L 142.769531 83.851562 L 144.085938 83.113281 L 145.402344 82.398438 L 146.671875 81.660156 L 147.917969 80.96875 L 149.160156 80.300781 L 150.40625 79.65625 L 151.605469 79.054688 L 152.78125 78.457031 L 153.957031 77.878906 L 155.132812 77.328125 L 156.351562 76.773438 L 157.550781 76.265625 L 158.703125 75.78125 L 159.808594 75.273438 L 160.914062 74.789062 L 161.992188 74.304688 L 163.097656 73.84375 L 164.132812 73.40625 L 165.144531 72.992188 L 166.082031 72.625 L 167.046875 72.277344 L 167.988281 71.976562 L 168.878906 71.699219 L 169.726562 71.425781 L 170.523438 71.171875 L 171.300781 70.894531 L 172.097656 70.59375 L 172.945312 70.316406 L 173.863281 70.019531 L 174.730469 69.765625 L 175.507812 69.535156 L 176.234375 69.304688 L 176.894531 69.074219 L 177.621094 68.863281 L 178.421875 68.632812 L 179.195312 68.425781 L 179.996094 68.242188 L 180.703125 68.058594 L 181.382812 67.851562 L 182.015625 67.667969 L 182.652344 67.503906 L 183.285156 67.320312 L 183.898438 67.160156 L 184.53125 66.996094 L 185.144531 66.859375 L 185.777344 66.699219 L 186.4375 66.558594 L 187.023438 66.398438 L 187.585938 66.257812 L 188.105469 66.097656 L 188.597656 65.960938 L 189.113281 65.796875 L 189.65625 65.636719 L 190.21875 65.453125 L 190.785156 65.246094 L 191.347656 65.015625 L 191.886719 64.808594 L 192.382812 64.554688 L 192.875 64.324219 L 193.367188 64.046875 L 193.839844 63.769531 L 194.285156 63.445312 L 194.753906 63.125 L 195.203125 62.777344 L 195.671875 62.410156 L 196.140625 62.015625 L 196.613281 61.648438 L 197.058594 61.257812 L 197.503906 60.839844 L 197.929688 60.425781 L 198.304688 60.035156 L 198.679688 59.621094 L 199.054688 59.179688 L 199.433594 58.71875 L 199.832031 58.210938 L 200.207031 57.707031 L 200.582031 57.199219 L 200.914062 56.714844 L 201.195312 56.230469 L 201.453125 55.792969 L 201.6875 55.332031 L 201.898438 54.890625 L 202.113281 54.453125 L 202.324219 54.039062 L 202.488281 53.625 L 202.628906 53.210938 L 202.792969 52.769531 L 202.910156 52.355469 L 203.050781 51.941406 L 203.167969 51.527344 L 203.261719 51.109375 L 203.355469 50.71875 L 203.425781 50.304688 L 203.472656 49.867188 L 203.546875 49.429688 L 203.59375 48.96875 L 203.617188 48.503906 L 203.664062 48.042969 L 203.664062 47.558594 L 203.617188 47.097656 L 203.570312 46.613281 L 203.472656 46.109375 L 203.355469 45.625 L 203.214844 45.164062 L 203.050781 44.679688 L 202.839844 44.171875 L 202.605469 43.664062 L 202.347656 43.132812 L 202.085938 42.601562 L 201.804688 42.074219 L 201.523438 41.519531 L 201.195312 40.964844 L 200.867188 40.414062 L 200.464844 39.882812 L 200.066406 39.351562 L 199.597656 38.84375 L 199.125 38.316406 L 198.609375 37.808594 L 198.09375 37.324219 L 197.527344 36.816406 L 196.941406 36.332031 L 196.351562 35.871094 L 195.226562 34.902344 L 194.636719 34.417969 L 193.980469 33.863281 L 193.25 33.289062 L 192.546875 32.757812 L 191.816406 32.25 L 191.160156 31.835938 L 190.546875 31.464844 L 189.84375 31.050781 L 189.042969 30.566406 L 188.292969 30.105469 L 187.539062 29.667969 L 186.71875 29.253906 L 185.800781 28.839844 L 184.882812 28.445312 L 183.992188 28.078125 L 183.050781 27.707031 L 182.085938 27.363281 L 181.03125 26.992188 L 179.902344 26.648438 L 178.9375 26.371094 L 178.070312 26.140625 L 177.035156 25.886719 L 174.777344 25.378906 L 173.652344 25.148438 L 172.570312 24.964844 L 171.511719 24.828125 L 170.335938 24.664062 L 169.066406 24.550781 L 167.917969 24.457031 L 166.789062 24.386719 L 165.683594 24.34375 L 164.625 24.296875 L 163.570312 24.25 L 162.488281 24.226562 L 161.476562 24.226562 L 160.535156 24.25 L 159.527344 24.273438 L 158.515625 24.34375 L 157.480469 24.433594 L 156.472656 24.527344 L 155.53125 24.664062 L 154.636719 24.871094 L 153.792969 25.078125 L 153.015625 25.289062 L 152.359375 25.519531 L 151.769531 25.726562 L 151.113281 25.980469 L 150.429688 26.277344 L 149.796875 26.601562 L 149.207031 26.925781 L 148.738281 27.246094 L 148.339844 27.570312 L 147.988281 27.917969 L 147.65625 28.285156 L 147.375 28.699219 L 147.117188 29.160156 L 146.859375 29.667969 L 146.625 30.199219 L 146.410156 30.796875 L 146.222656 31.421875 L 146.035156 32.179688 L 145.824219 33.011719 L 145.660156 33.820312 L 145.496094 34.601562 L 145.378906 35.316406 L 145.308594 35.984375 L 145.285156 36.816406 L 145.308594 37.714844 L 145.402344 38.566406 L 145.519531 39.398438 L 145.707031 40.226562 L 145.964844 41.105469 L 146.246094 41.980469 L 146.53125 42.855469 L 146.882812 43.734375 L 147.257812 44.609375 L 147.703125 45.578125 L 148.222656 46.570312 L 148.761719 47.515625 L 149.398438 48.4375 L 150.054688 49.335938 L 150.761719 50.257812 L 151.441406 51.132812 L 152.097656 51.964844 L 152.757812 52.816406 L 153.460938 53.671875 L 154.191406 54.546875 L 154.988281 55.445312 L 155.789062 56.277344 L 156.589844 57.105469 L 157.386719 57.9375 L 158.164062 58.765625 L 158.984375 59.597656 L 159.855469 60.402344 L 160.75 61.1875 L 161.640625 61.925781 L 162.582031 62.664062 L 163.472656 63.378906 L 164.390625 64.117188 L 165.308594 64.921875 L 166.222656 65.730469 L 167.164062 66.582031 L 168.058594 67.414062 L 168.925781 68.242188 L 169.773438 69.09375 L 170.523438 69.949219 L 171.324219 70.824219 L 172.125 71.722656 L 172.945312 72.601562 L 173.769531 73.5 L 174.566406 74.375 L 175.296875 75.230469 L 175.976562 76.105469 L 176.613281 76.980469 L 177.292969 77.878906 L 178 78.78125 L 178.773438 79.65625 L 179.574219 80.53125 L 180.324219 81.40625 L 181.054688 82.308594 L 181.710938 83.183594 L 182.347656 84.082031 L 182.957031 84.980469 L 183.546875 85.859375 L 184.15625 86.757812 L 184.765625 87.679688 L 185.378906 88.601562 L 185.964844 89.5 L 186.507812 90.308594 L 186.976562 91.023438 L 187.46875 91.804688 L 187.964844 92.613281 L 188.433594 93.421875 L 188.902344 94.226562 L 189.351562 95.058594 L 189.796875 95.910156 L 190.242188 96.742188 L 190.691406 97.59375 L 191.113281 98.445312 L 191.511719 99.300781 L 191.886719 100.199219 L 192.21875 101.074219 L 192.523438 101.996094 L 192.804688 102.898438 L 193.085938 103.796875 L 193.34375 104.648438 L 193.558594 105.503906 L 193.746094 106.332031 L 193.910156 107.164062 L 194.027344 107.992188 L 194.074219 108.824219 L 194.074219 109.675781 L 194.027344 110.574219 L 193.957031 111.496094 L 193.792969 112.441406 L 193.582031 113.410156 L 193.320312 114.378906 L 193.015625 115.324219 L 192.617188 116.316406 L 192.125 117.332031 L 191.628906 118.320312 L 191.113281 119.289062 L 190.546875 120.234375 L 189.984375 121.15625 L 189.351562 122.171875 L 188.691406 123.234375 L 188.035156 124.222656 L 187.328125 125.191406 L 186.554688 126.183594 L 185.730469 127.175781 L 184.90625 128.144531 L 184.132812 129.089844 L 183.378906 130.035156 L 182.605469 130.980469 L 181.804688 131.925781 L 180.960938 132.824219 L 180.089844 133.722656 L 179.21875 134.578125 L 178.375 135.40625 L 177.527344 136.214844 L 176.707031 136.976562 L 175.859375 137.691406 L 175.039062 138.359375 L 174.167969 138.980469 L 173.34375 139.535156 L 172.617188 140.042969 L 171.769531 140.570312 L 170.878906 141.125 L 169.867188 141.726562 L 168.785156 142.347656 L 167.75 142.902344 L 166.765625 143.386719 L 165.683594 143.890625 L 164.53125 144.421875 L 163.332031 144.90625 L 162.0625 145.367188 L 160.796875 145.804688 L 159.527344 146.175781 L 158.210938 146.519531 L 156.847656 146.796875 L 155.460938 147.050781 L 154.097656 147.234375 L 152.664062 147.375 L 151.183594 147.488281 L 149.632812 147.558594 L 148.058594 147.605469 L 146.53125 147.582031 L 144.976562 147.488281 L 143.449219 147.351562 L 141.921875 147.167969 L 140.417969 146.914062 L 138.960938 146.613281 L 137.503906 146.222656 L 136.09375 145.757812 L 134.683594 145.230469 L 133.320312 144.652344 L 132.003906 144.03125 L 130.710938 143.386719 L 129.445312 142.714844 L 126.953125 141.285156 L 125.683594 140.546875 L 124.484375 139.8125 L 123.332031 139.027344 L 122.230469 138.242188 L 121.125 137.414062 L 120.042969 136.535156 L 118.960938 135.636719 L 117.976562 134.714844 L 117.082031 133.792969 L 116.328125 132.847656 L 115.625 131.855469 L 115.011719 130.820312 L 114.449219 129.734375 L 113.957031 128.628906 L 113.53125 127.5 L 113.15625 126.347656 L 112.898438 125.148438 L 112.6875 123.925781 L 112.570312 122.679688 L 112.5 121.457031 L 112.5 120.234375 L 112.546875 119.035156 L 112.617188 117.859375 L 112.757812 116.707031 L 112.921875 115.578125 L 113.132812 114.449219 L 113.390625 113.320312 L 113.722656 112.210938 L 114.097656 111.082031 L 114.519531 109.929688 L 114.941406 108.800781 L 115.390625 107.691406 L 115.859375 106.609375 L 116.328125 105.546875 L 116.824219 104.535156 L 117.363281 103.542969 L 117.929688 102.550781 L 118.539062 101.605469 L 119.21875 100.683594 L 119.925781 99.808594 L 120.628906 98.929688 L 121.335938 98.101562 L 122.015625 97.316406 L 122.722656 96.488281 L 123.472656 95.65625 L 124.296875 94.804688 L 125.238281 93.90625 L 126.222656 93.050781 L 127.210938 92.222656 L 128.222656 91.390625 L 129.183594 90.585938 L 130.195312 89.777344 L 131.230469 89.015625 L 132.289062 88.277344 L 133.34375 87.542969 L 134.378906 86.804688 L 135.390625 86.113281 L 136.449219 85.441406 L 137.550781 84.820312 L 138.65625 84.222656 L 139.808594 83.621094 L 140.9375 83.023438 L 142.039062 82.445312 L 143.167969 81.890625 L 144.296875 81.316406 L 145.425781 80.738281 L 146.554688 80.164062 L 147.703125 79.585938 L 148.855469 79.011719 L 149.984375 78.503906 L 151.089844 77.996094 L 152.171875 77.511719 L 153.226562 77.027344 L 154.285156 76.542969 L 155.367188 76.082031 L 156.398438 75.667969 L 157.363281 75.296875 L 158.398438 74.882812 L 159.433594 74.492188 L 160.441406 74.074219 L 161.453125 73.683594 L 162.394531 73.316406 L 163.332031 72.96875 L 164.273438 72.644531 L 165.167969 72.324219 L 166.128906 72 L 167.117188 71.699219 L 168.035156 71.402344 L 168.925781 71.125 L 169.75 70.894531 L 170.5 70.664062 L 171.324219 70.410156 L 172.195312 70.15625 L 173.0625 69.902344 L 173.910156 69.648438 L 174.683594 69.441406 L 175.414062 69.210938 L 176.09375 69.003906 L 176.777344 68.773438 L 177.503906 68.519531 L 178.28125 68.242188 L 179.054688 67.941406 L 179.832031 67.667969 L 180.558594 67.390625 L 181.21875 67.136719 L 181.875 66.859375 L 182.488281 66.605469 L 183.121094 66.328125 L 183.804688 66.050781 L 184.460938 65.773438 L 185.167969 65.5 L 185.800781 65.246094 L 186.386719 64.992188 L 186.929688 64.738281 L 187.421875 64.484375 L 187.917969 64.230469 L 188.410156 63.953125 L 188.925781 63.675781 L 189.445312 63.402344 L 189.9375 63.101562 L 190.429688 62.824219 L 190.925781 62.523438 L 191.394531 62.226562 L 191.863281 61.949219 L 192.335938 61.648438 L 192.757812 61.347656 L 193.132812 61.070312 L 193.507812 60.75 L 193.863281 60.425781 L 194.238281 60.082031 L 194.613281 59.710938 L 194.96875 59.320312 L 195.34375 58.925781 L 195.71875 58.511719 L 196.09375 58.050781 L 196.472656 57.589844 L 196.871094 57.105469 L 197.246094 56.621094 L 197.597656 56.136719 L 197.976562 55.652344 L 198.304688 55.144531 L 198.632812 54.660156 L 198.9375 54.179688 L 199.21875 53.714844 L 199.503906 53.253906 L 199.738281 52.792969 L 200.113281 51.871094 L 200.277344 51.433594 L 200.605469 50.464844 L 200.773438 49.980469 L 200.890625 49.472656 L 201.007812 49.011719 L 201.078125 48.550781 L 201.148438 48.113281 L 201.195312 47.699219 L 201.242188 47.261719 L 201.242188 46.429688 L 201.21875 46.015625 L 201.171875 45.625 L 201.101562 45.253906 L 201.007812 44.863281 L 200.9375 44.472656 L 200.84375 44.078125 L 200.726562 43.6875 L 200.605469 43.273438 L 200.464844 42.832031 L 200.183594 42.050781 L 200.019531 41.65625 L 199.855469 41.242188 L 199.667969 40.828125 L 199.480469 40.390625 L 199.269531 39.976562 L 199.078125 39.582031 L 198.867188 39.167969 L 198.609375 38.753906 L 198.375 38.335938 L 198.09375 37.921875 L 197.808594 37.53125 L 197.527344 37.140625 L 197.246094 36.769531 L 196.964844 36.402344 L 196.707031 36.078125 L 196.472656 35.777344 L 196.234375 35.480469 L 195.953125 35.15625 L 195.648438 34.832031 L 195.320312 34.488281 L 194.96875 34.164062 L 194.613281 33.839844 L 194.214844 33.542969 L 193.816406 33.265625 L 193.367188 32.988281 L 192.429688 32.480469 L 191.910156 32.25 L 191.417969 32.042969 L 190.902344 31.835938 L 190.382812 31.652344 L 189.84375 31.488281 L 189.304688 31.304688 L 188.761719 31.121094 L 188.199219 30.960938 L 187.5625 30.796875 L 186.90625 30.613281 L 186.199219 30.453125 L 184.8125 30.175781 L 184.109375 30.058594 L 183.355469 29.945312 L 182.488281 29.828125 L 181.5 29.714844 L 180.558594 29.644531 L 179.691406 29.554688 L 178.9375 29.507812 L 178.257812 29.4375 L 177.410156 29.390625 L 176.449219 29.324219 L 175.53125 29.277344 L 174.636719 29.230469 L 173.863281 29.183594 L 173.15625 29.136719 L 172.3125 29.09375 L 171.371094 29.046875 L 170.453125 29.023438 L 169.5625 29 L 168.667969 29 L 167.796875 29.023438 L 166.953125 29.023438 L 166.128906 29.046875 L 165.402344 29.070312 L 164.71875 29.070312 L 163.875 29.09375 L 162.933594 29.136719 L 162.0625 29.160156 L 161.242188 29.207031 L 160.558594 29.253906 L 159.972656 29.300781 L 159.339844 29.34375 L 158.679688 29.390625 L 158 29.4375 L 157.292969 29.507812 L 156.636719 29.574219 L 155.976562 29.667969 L 155.367188 29.761719 L 154.800781 29.851562 L 154.261719 29.96875 L 153.746094 30.082031 L 153.226562 30.199219 L 152.6875 30.359375 L 152.171875 30.519531 L 151.605469 30.707031 L 151.089844 30.890625 L 150.59375 31.074219 L 150.125 31.257812 L 149.726562 31.421875 L 149.351562 31.582031 L 149.019531 31.742188 L 148.691406 31.929688 L 148.363281 32.113281 L 148.035156 32.34375 L 147.703125 32.574219 L 147.09375 33.082031 L 146.8125 33.335938 L 146.554688 33.566406 L 146.339844 33.820312 L 146.128906 34.050781 L 145.777344 34.535156 L 145.589844 34.808594 L 145.425781 35.109375 L 145.285156 35.433594 L 145.144531 35.753906 L 145 36.148438 L 144.882812 36.5625 L 144.789062 37 L 144.71875 37.484375 L 144.648438 37.992188 L 144.578125 38.523438 L 144.53125 39.074219 L 144.507812 39.675781 L 144.484375 40.273438 L 144.484375 40.921875 L 144.507812 41.589844 L 144.507812 42.257812 L 144.554688 42.949219 L 144.625 43.617188 L 144.71875 44.308594 L 144.859375 45.023438 L 145.050781 45.808594 L 145.261719 46.683594 L 145.472656 47.492188 L 145.707031 48.296875 L 145.988281 49.105469 L 146.316406 49.933594 L 146.671875 50.765625 L 147.046875 51.59375 L 147.539062 52.449219 L 148.058594 53.300781 L 148.644531 54.199219 L 149.304688 55.125 L 149.960938 55.976562 L 150.617188 56.804688 L 151.300781 57.636719 L 151.980469 58.488281 L 152.6875 59.34375 L 153.390625 60.195312 L 154.191406 61.046875 L 155.085938 61.878906 L 156.023438 62.664062 L 156.964844 63.421875 L 157.90625 64.207031 L 158.84375 64.992188 L 159.808594 65.796875 L 160.796875 66.605469 L 161.804688 67.414062 L 162.839844 68.21875 L 163.875 69.027344 L 164.882812 69.832031 L 165.941406 70.664062 L 167 71.492188 L 168.058594 72.324219 L 169.089844 73.128906 L 170.148438 73.984375 L 171.160156 74.8125 L 172.21875 75.714844 L 173.34375 76.660156 L 174.402344 77.558594 L 175.390625 78.480469 L 176.351562 79.378906 L 177.269531 80.300781 L 178.210938 81.246094 L 179.195312 82.214844 L 181.03125 84.199219 L 181.898438 85.1875 L 182.722656 86.179688 L 183.546875 87.195312 L 184.34375 88.234375 L 185.167969 89.292969 L 185.964844 90.378906 L 186.765625 91.4375 L 187.46875 92.519531 L 188.152344 93.605469 L 188.738281 94.710938 L 189.328125 95.820312 L 190.40625 98.03125 L 190.949219 99.160156 L 191.441406 100.269531 L 191.933594 101.375 L 192.382812 102.457031 L 192.757812 103.542969 L 193.109375 104.648438 L 193.390625 105.757812 L 193.605469 106.863281 L 193.792969 107.96875 L 193.886719 109.03125 L 193.957031 110.089844 L 193.933594 111.128906 L 193.863281 112.1875 L 193.746094 113.273438 L 193.582031 114.332031 L 193.34375 115.394531 L 193.039062 116.453125 L 192.640625 117.539062 L 192.148438 118.621094 L 191.582031 119.707031 L 190.972656 120.8125 L 190.335938 121.871094 L 189.726562 122.933594 L 189.066406 123.972656 L 188.410156 125.03125 L 187.703125 126.09375 L 186.882812 127.175781 L 186.011719 128.214844 L 185.097656 129.25 L 184.15625 130.289062 L 183.214844 131.304688 L 182.207031 132.363281 L 181.101562 133.402344 L 179.949219 134.460938 L 178.726562 135.523438 L 177.503906 136.535156 L 176.257812 137.550781 L 174.992188 138.542969 L 173.699219 139.488281 L 172.359375 140.386719 L 171.066406 141.242188 L 169.726562 142.046875 L 168.339844 142.808594 L 167.046875 143.453125 L 165.847656 143.984375 L 164.742188 144.445312 L 163.6875 144.859375 L 162.511719 145.277344 L 161.265625 145.691406 L 159.949219 146.058594 L 158.585938 146.382812 L 157.199219 146.636719 L 155.8125 146.820312 L 154.425781 146.957031 L 153.0625 147.003906 L 151.699219 147.003906 L 150.359375 146.933594 L 148.996094 146.820312 L 147.632812 146.636719 L 146.292969 146.453125 L 144.953125 146.222656 L 143.566406 146.011719 L 142.207031 145.78125 L 140.820312 145.527344 L 139.433594 145.277344 L 138.023438 145 L 136.636719 144.699219 L 135.25 144.351562 L 133.886719 143.960938 L 132.546875 143.546875 L 131.253906 143.085938 L 129.984375 142.578125 L 128.738281 142 L 127.539062 141.378906 L 126.386719 140.710938 L 125.285156 139.996094 L 124.25 139.257812 L 123.308594 138.472656 L 122.441406 137.597656 L 121.617188 136.675781 L 120.84375 135.683594 L 120.113281 134.667969 L 119.480469 133.609375 L 118.890625 132.5 L 118.398438 131.371094 L 117.976562 130.171875 L 117.621094 128.953125 L 117.292969 127.683594 L 116.988281 126.390625 L 116.730469 125.101562 L 116.496094 123.808594 L 116.304688 122.496094 L 116.164062 121.203125 L 116.070312 119.890625 L 116.023438 118.574219 L 116 117.238281 L 116.023438 115.902344 L 116.09375 114.5625 L 116.1875 113.273438 L 116.351562 111.980469 L 116.542969 110.714844 L 116.753906 109.445312 L 117.035156 108.175781 L 117.339844 106.933594 L 117.691406 105.6875 L 118.117188 104.488281 L 118.632812 103.289062 L 119.195312 102.113281 L 119.832031 100.9375 L 120.511719 99.785156 L 121.21875 98.675781 L 121.96875 97.59375 L 122.746094 96.554688 L 123.542969 95.542969 L 124.4375 94.597656 L 125.355469 93.695312 L 126.316406 92.820312 L 127.28125 91.96875 L 128.292969 91.136719 L 129.328125 90.332031 L 130.40625 89.546875 L 131.535156 88.785156 L 132.6875 88.023438 L 133.839844 87.308594 L 135.011719 86.640625 L 136.210938 85.996094 L 137.410156 85.398438 L 138.65625 84.820312 L 139.902344 84.265625 L 141.148438 83.714844 L 142.417969 83.183594 L 143.710938 82.675781 L 144.976562 82.214844 L 146.246094 81.753906 L 147.539062 81.339844 L 148.832031 80.945312 L 150.125 80.53125 L 151.441406 80.117188 L 152.734375 79.703125 L 154.050781 79.308594 L 155.34375 78.917969 L 156.683594 78.503906 L 158 78.109375 L 159.339844 77.71875 L 160.699219 77.328125 L 162.039062 76.957031 L 163.402344 76.566406 L 164.765625 76.195312 L 166.105469 75.804688 L 167.46875 75.4375 L 168.808594 75.042969 L 170.125 74.628906 L 171.464844 74.214844 L 172.78125 73.753906 L 174.074219 73.316406 L 175.34375 72.855469 L 176.589844 72.414062 L 177.835938 71.953125 L 179.078125 71.492188 L 180.300781 70.984375 L 181.453125 70.503906 L 182.535156 69.996094 L 183.570312 69.511719 L 184.578125 69.003906 L 185.589844 68.519531 L 186.554688 68.011719 L 187.46875 67.503906 L 188.363281 66.996094 L 189.207031 66.46875 L 190.054688 65.9375 L 190.925781 65.40625 L 191.746094 64.875 L 192.546875 64.347656 L 193.273438 63.839844 L 193.910156 63.308594 L 194.519531 62.777344 L 195.085938 62.269531 L 195.625 61.761719 L 196.140625 61.257812 L 196.636719 60.75 L 197.105469 60.242188 L 197.550781 59.710938 L 197.976562 59.179688 L 198.398438 58.652344 L 198.773438 58.074219 L 199.148438 57.519531 L 199.480469 56.921875 L 199.808594 56.320312 L 200.089844 55.746094 L 200.347656 55.144531 L 200.605469 54.570312 L 200.820312 53.96875 L 201.054688 53.347656 L 201.265625 52.726562 L 201.453125 52.101562 L 201.640625 51.457031 L 201.804688 50.8125 L 201.992188 50.144531 L 202.183594 49.472656 L 202.371094 48.738281 L 202.535156 47.976562 L 202.628906 47.238281 L 202.699219 46.546875 L 202.722656 45.921875 L 202.746094 45.347656 L 202.746094 44.171875 L 202.722656 43.570312 L 202.675781 42.996094 L 202.582031 42.394531 L 202.488281 41.773438 L 202.371094 41.171875 L 202.230469 40.574219 L 202.0625 39.976562 L 201.6875 38.820312 L 201.476562 38.269531 L 201.265625 37.714844 L 201.03125 37.183594 L 200.75 36.65625 L 200.441406 36.125 L 200.113281 35.617188 L 199.761719 35.085938 L 199.386719 34.578125 L 198.960938 34.050781 L 198.515625 33.542969 L 198.046875 33.058594 L 197.550781 32.597656 L 196.519531 31.675781 L 196 31.234375 L 195.484375 30.820312 L 194.941406 30.429688 L 194.355469 30.039062 L 193.675781 29.667969 L 192.898438 29.300781 L 192.050781 28.929688 L 191.253906 28.628906 L 190.476562 28.355469 L 189.75 28.101562 L 189.042969 27.847656 L 188.246094 27.59375 L 187.398438 27.339844 L 186.507812 27.109375 L 185.589844 26.878906 L 184.71875 26.671875 L 183.898438 26.464844 L 183.050781 26.234375 L 182.183594 26.003906 L 181.3125 25.792969 L 180.371094 25.609375 L 179.480469 25.425781 L 178.585938 25.21875 L 177.714844 25.035156 L 176.894531 24.828125 L 176.023438 24.640625 L 175.085938 24.457031 L 174.191406 24.320312 L 173.296875 24.179688 L 172.429688 24.066406 L 171.605469 23.972656 L 170.761719 23.882812 L 169.890625 23.789062 L 168.996094 23.695312 L 168.105469 23.628906 L 167.234375 23.582031 L 166.363281 23.582031 L 165.519531 23.605469 L 164.671875 23.671875 L 163.78125 23.789062 L 162.839844 23.902344 L 161.945312 24.066406 L 161.101562 24.203125 L 160.324219 24.367188 L 159.597656 24.503906 L 158.914062 24.664062 L 158.234375 24.828125 L 157.550781 25.011719 L 156.847656 25.195312 L 156.140625 25.425781 L 155.460938 25.65625 L 154.824219 25.910156 L 154.214844 26.210938 L 153.675781 26.507812 L 153.132812 26.832031 L 152.617188 27.179688 L 152.097656 27.546875 L 151.558594 27.917969 L 150.996094 28.332031 L 150.429688 28.722656 L 149.84375 29.136719 L 149.328125 29.554688 L 148.855469 29.945312 L 148.457031 30.382812 L 148.128906 30.84375 L 147.796875 31.304688 L 147.46875 31.789062 L 147.140625 32.296875 L 146.859375 32.804688 L 146.578125 33.335938 L 146.292969 33.886719 L 146.058594 34.464844 L 145.800781 35.0625 L 145.566406 35.6875 L 145.355469 36.332031 L 145.144531 37 L 144.953125 37.621094 L 144.8125 38.269531 L 144.71875 38.914062 L 144.648438 39.558594 L 144.601562 40.226562 L 144.578125 40.921875 L 144.578125 41.589844 L 144.601562 42.28125 L 144.648438 42.972656 L 144.695312 43.640625 L 144.742188 44.355469 L 144.835938 45.09375 L 144.929688 45.855469 L 145.027344 46.613281 L 145.144531 47.375 L 145.261719 48.113281 L 145.402344 48.851562 L 145.566406 49.542969 L 145.777344 50.234375 L 145.988281 50.878906 L 146.246094 51.527344 L 146.554688 52.171875 L 146.882812 52.839844 L 147.28125 53.578125 L 147.75 54.363281 L 148.222656 55.078125 L 148.691406 55.792969 L 149.230469 56.507812 L 149.796875 57.246094 L 150.359375 57.960938 L 150.902344 58.652344 L 151.441406 59.320312 L 151.980469 60.011719 L 152.523438 60.679688 L 153.085938 61.371094 L 153.722656 62.039062 L 154.425781 62.707031 L 155.203125 63.355469 L 156 64 L 156.824219 64.644531 L 157.644531 65.269531 L 158.46875 65.890625 L 159.265625 66.511719 L 160.113281 67.136719 L 161.007812 67.757812 L 161.898438 68.402344 L 162.792969 69.027344 L 163.664062 69.695312 L 164.53125 70.363281 L 165.449219 71.078125 L 166.414062 71.816406 L 167.304688 72.484375 L 168.152344 73.128906 L 168.996094 73.800781 L 169.84375 74.445312 L 170.6875 75.089844 L 171.558594 75.78125 L 172.453125 76.472656 L 173.390625 77.164062 L 174.285156 77.835938 L 175.132812 78.480469 L 175.953125 79.148438 L 176.777344 79.839844 L 177.597656 80.554688 L 178.445312 81.269531 L 179.292969 82.007812 L 180.113281 82.722656 L 180.867188 83.390625 L 181.523438 84.035156 L 182.253906 84.773438 L 182.980469 85.535156 L 183.78125 86.363281 L 184.601562 87.242188 L 185.378906 88.070312 L 186.082031 88.878906 L 186.789062 89.707031 L 187.445312 90.539062 L 188.082031 91.390625 L 188.691406 92.246094 L 189.28125 93.097656 L 189.867188 93.972656 L 190.453125 94.851562 L 191.042969 95.726562 L 191.605469 96.601562 L 192.148438 97.480469 L 192.617188 98.332031 L 193.015625 99.136719 L 193.390625 100.082031 L 193.722656 101.097656 L 194.003906 102.113281 L 194.238281 103.152344 L 194.402344 104.234375 L 194.542969 105.339844 L 194.636719 106.515625 L 194.683594 107.761719 L 194.636719 108.9375 L 194.496094 110.136719 L 194.308594 111.382812 L 194.050781 112.648438 L 193.746094 113.871094 L 193.390625 115.09375 L 192.96875 116.339844 L 192.476562 117.605469 L 191.886719 118.921875 L 191.207031 120.234375 L 190.476562 121.550781 L 189.703125 122.910156 L 188.855469 124.269531 L 187.964844 125.675781 L 187.023438 127.082031 L 185.988281 128.511719 L 184.882812 129.941406 L 183.757812 131.371094 L 182.582031 132.777344 L 181.335938 134.160156 L 180.066406 135.523438 L 178.820312 136.835938 L 177.667969 138.011719 L 176.660156 139.027344 L 175.71875 139.949219 L 174.753906 140.78125 L 173.722656 141.632812 L 172.640625 142.460938 L 171.535156 143.269531 L 170.429688 144.007812 L 169.328125 144.699219 L 168.246094 145.34375 L 167.164062 145.921875 L 166.128906 146.429688 L 165.097656 146.890625 L 164.085938 147.257812 L 163.050781 147.558594 L 162.039062 147.8125 L 161.03125 147.996094 L 160.042969 148.132812 L 159.078125 148.226562 L 158.070312 148.273438 L 157.035156 148.320312 L 155.976562 148.320312 L 154.894531 148.273438 L 153.839844 148.203125 L 152.757812 148.113281 L 151.652344 147.996094 L 150.523438 147.859375 L 149.351562 147.671875 L 148.152344 147.511719 L 146.90625 147.304688 L 145.613281 147.121094 L 144.296875 146.914062 L 142.957031 146.703125 L 141.59375 146.453125 L 140.230469 146.199219 L 138.84375 145.898438 L 137.480469 145.574219 L 136.140625 145.207031 L 134.824219 144.792969 L 133.53125 144.332031 L 132.265625 143.824219 L 131.042969 143.246094 L 129.867188 142.625 L 128.714844 141.933594 L 127.585938 141.195312 L 126.484375 140.410156 L 125.402344 139.558594 L 124.390625 138.65625 L 123.425781 137.691406 L 122.511719 136.675781 L 121.617188 135.613281 L 120.773438 134.507812 L 119.996094 133.355469 L 119.289062 132.179688 L 118.679688 130.980469 L 118.164062 129.734375 L 117.714844 128.488281 L 117.316406 127.199219 L 116.941406 125.863281 L 116.636719 124.523438 L 116.375 123.140625 L 116.1875 121.734375 L 116.09375 120.351562 L 116.09375 118.921875 L 116.140625 117.492188 L 116.257812 116.039062 L 116.445312 114.585938 L 116.707031 113.132812 L 117.011719 111.679688 L 117.363281 110.253906 L 117.808594 108.84375 L 118.304688 107.460938 L 118.867188 106.078125 L 119.550781 104.71875 L 120.277344 103.359375 L 121.078125 101.996094 L 121.898438 100.636719 L 122.792969 99.300781 L 123.710938 97.960938 L 124.695312 96.648438 L 125.753906 95.335938 L 126.835938 94.066406 L 127.964844 92.820312 L 129.089844 91.644531 L 130.21875 90.515625 L 131.371094 89.453125 L 132.546875 88.441406 L 133.699219 87.519531 L 134.847656 86.617188 L 136.070312 85.789062 L 137.316406 84.957031 L 138.632812 84.175781 L 139.949219 83.390625 L 141.289062 82.628906 L 142.652344 81.867188 L 144.015625 81.109375 L 145.402344 80.371094 L 146.8125 79.679688 L 148.222656 79.011719 L 149.609375 78.363281 L 150.996094 77.742188 L 152.382812 77.164062 L 153.769531 76.613281 L 155.203125 76.105469 L 156.660156 75.597656 L 158.117188 75.066406 L 159.621094 74.535156 L 161.125 74.007812 L 162.652344 73.476562 L 165.800781 72.414062 L 167.398438 71.910156 L 168.996094 71.425781 L 170.59375 70.917969 L 172.171875 70.457031 L 173.746094 70.019531 L 175.296875 69.601562 L 178.304688 68.773438 L 181.265625 67.898438 L 182.699219 67.433594 L 184.132812 66.953125 L 185.519531 66.445312 L 186.882812 65.9375 L 189.515625 64.875 L 190.785156 64.347656 L 192.027344 63.839844 L 193.203125 63.332031 L 194.332031 62.800781 L 195.414062 62.246094 L 196.472656 61.695312 L 197.503906 61.117188 L 198.492188 60.496094 L 199.386719 59.871094 L 200.230469 59.203125 L 201.007812 58.488281 L 201.734375 57.75 L 202.464844 57.015625 L 203.121094 56.253906 L 203.757812 55.46875 L 204.320312 54.683594 L 204.789062 53.902344 L 205.191406 53.09375 L 205.519531 52.289062 L 205.800781 51.457031 L 206.058594 50.648438 L 206.246094 49.820312 L 206.390625 49.011719 L 206.507812 48.207031 L 206.601562 47.375 L 206.648438 46.546875 L 206.695312 45.714844 L 206.695312 44.886719 L 206.71875 44.078125 L 206.695312 43.296875 L 206.671875 42.511719 L 206.625 41.726562 L 206.53125 40.964844 L 206.390625 40.226562 L 206.246094 39.511719 L 206.105469 38.800781 L 205.941406 38.085938 L 205.777344 37.390625 L 205.449219 36.054688 L 205.285156 35.410156 L 205.097656 34.742188 L 204.882812 34.09375 L 204.671875 33.472656 L 204.4375 32.894531 L 204.203125 32.320312 L 203.6875 31.257812 L 203.425781 30.730469 L 203.121094 30.222656 L 202.816406 29.738281 L 202.511719 29.277344 L 202.183594 28.839844 L 201.851562 28.398438 L 201.523438 27.9375 L 201.21875 27.5 L 200.890625 27.0625 L 200.511719 26.625 L 200.089844 26.210938 L 199.644531 25.792969 L 199.148438 25.402344 L 198.632812 25.035156 L 198.070312 24.6875 L 197.503906 24.367188 L 196.917969 24.042969 L 196.328125 23.71875 L 195.742188 23.421875 L 195.132812 23.097656 L 194.496094 22.796875 L 193.863281 22.496094 L 193.132812 22.199219 L 192.382812 21.898438 L 191.582031 21.644531 L 190.738281 21.390625 L 189.914062 21.160156 L 189.066406 20.953125 L 188.199219 20.746094 L 187.304688 20.539062 L 186.363281 20.351562 L 185.425781 20.191406 L 184.484375 20.054688 L 183.519531 19.890625 L 182.582031 19.753906 L 181.640625 19.59375 L 180.675781 19.40625 L 179.667969 19.246094 L 178.65625 19.085938 L 177.667969 18.925781 L 176.660156 18.808594 L 175.648438 18.691406 L 174.613281 18.625 L 173.605469 18.578125 L 172.59375 18.53125 L 171.628906 18.484375 L 170.6875 18.441406 L 169.726562 18.417969 L 168.785156 18.417969 L 167.820312 18.441406 L 166.882812 18.484375 L 165.964844 18.554688 L 165.074219 18.648438 L 164.203125 18.738281 L 163.308594 18.878906 L 162.394531 19.015625 L 161.5 19.222656 L 160.652344 19.453125 L 159.878906 19.730469 L 159.171875 20.007812 L 158.515625 20.308594 L 157.90625 20.605469 L 157.292969 20.929688 L 156.707031 21.277344 L 156.117188 21.621094 L 155.578125 22.011719 L 155.0625 22.40625 L 154.589844 22.84375 L 154.191406 23.304688 L 153.816406 23.8125 L 153.460938 24.34375 L 153.15625 24.894531 L 152.851562 25.496094 L 152.570312 26.117188 L 152.265625 26.761719 L 151.980469 27.433594 L 151.699219 28.125 L 151.371094 28.953125 L 151.019531 29.851562 L 150.6875 30.773438 L 150.382812 31.71875 L 150.101562 32.574219 L 149.84375 33.402344 L 149.585938 34.257812 L 149.351562 35.132812 L 149.113281 36.054688 L 148.878906 37.023438 L 148.644531 38.015625 L 148.457031 39.007812 L 148.316406 39.953125 L 148.292969 40.828125 L 148.363281 41.679688 L 148.527344 42.464844 L 148.785156 43.273438 L 149.089844 44.078125 L 149.445312 44.863281 L 149.820312 45.691406 L 150.21875 46.5 L 150.640625 47.308594 L 151.113281 48.113281 L 151.652344 48.945312 L 152.171875 49.75 L 153.296875 51.273438 L 153.910156 52.011719 L 154.636719 52.769531 L 155.4375 53.53125 L 156.28125 54.246094 L 157.128906 54.984375 L 157.953125 55.699219 L 158.75 56.4375 L 159.527344 57.175781 L 160.347656 57.9375 L 161.171875 58.695312 L 162.039062 59.480469 L 162.910156 60.265625 L 163.734375 61.027344 L 164.53125 61.808594 L 165.308594 62.59375 L 166.105469 63.378906 L 166.953125 64.136719 L 167.820312 64.898438 L 168.714844 65.613281 L 169.585938 66.304688 L 170.429688 66.953125 L 172.171875 68.289062 L 173.0625 68.933594 L 173.957031 69.625 L 174.800781 70.292969 L 175.578125 70.984375 L 176.351562 71.699219 L 177.082031 72.4375 L 177.835938 73.175781 L 178.609375 73.914062 L 179.410156 74.675781 L 180.230469 75.4375 L 181.03125 76.195312 L 181.804688 76.957031 L 182.535156 77.742188 L 183.238281 78.527344 L 183.945312 79.332031 L 184.648438 80.164062 L 185.355469 80.992188 L 186.058594 81.847656 L 186.742188 82.675781 L 187.375 83.527344 L 187.941406 84.359375 L 188.480469 85.1875 L 189.019531 86.066406 L 189.609375 86.941406 L 190.195312 87.773438 L 190.785156 88.601562 L 191.324219 89.433594 L 191.863281 90.214844 L 192.40625 91.046875 L 192.921875 91.898438 L 193.414062 92.730469 L 193.839844 93.582031 L 194.214844 94.457031 L 194.542969 95.355469 L 194.824219 96.257812 L 195.085938 97.109375 L 195.296875 97.984375 L 195.460938 98.816406 L 195.601562 99.667969 L 195.695312 100.523438 L 195.789062 101.351562 L 195.835938 102.160156 L 195.859375 102.964844 L 195.859375 103.75 L 195.835938 104.578125 L 195.789062 105.480469 L 195.695312 106.378906 L 195.554688 107.324219 L 195.34375 108.339844 L 195.109375 109.375 L 194.871094 110.390625 L 194.355469 112.375 L 194.050781 113.363281 L 193.746094 114.332031 L 193.390625 115.324219 L 192.992188 116.339844 L 192.5 117.398438 L 192.003906 118.4375 L 191.511719 119.429688 L 190.996094 120.398438 L 190.453125 121.367188 L 189.914062 122.355469 L 189.375 123.347656 L 188.832031 124.316406 L 188.292969 125.308594 L 187.679688 126.347656 L 187.046875 127.40625 L 186.386719 128.398438 L 185.707031 129.367188 L 185.003906 130.335938 L 184.320312 131.304688 L 183.640625 132.25 L 182.933594 133.171875 L 182.207031 134.140625 L 181.40625 135.128906 L 180.582031 136.097656 L 179.714844 137.042969 L 178.867188 137.941406 L 178.023438 138.796875 L 177.105469 139.648438 L 176.117188 140.527344 L 175.085938 141.402344 L 173.957031 142.230469 L 172.78125 143.039062 L 171.582031 143.824219 L 170.289062 144.582031 L 168.925781 145.34375 L 167.515625 146.058594 L 166.105469 146.796875 L 164.671875 147.488281 L 163.238281 148.132812 L 161.78125 148.734375 L 160.324219 149.242188 L 158.867188 149.679688 L 157.433594 150.023438 L 156.023438 150.300781 L 154.613281 150.507812 L 153.25 150.625 L 151.910156 150.695312 L 150.546875 150.738281 L 149.183594 150.71875 L 147.84375 150.648438 L 146.53125 150.507812 L 145.261719 150.324219 L 144.0625 150.09375 L 142.863281 149.839844 L 141.6875 149.539062 L 140.488281 149.195312 L 139.265625 148.78125 L 138.046875 148.34375 L 136.847656 147.878906 L 135.71875 147.398438 L 134.613281 146.890625 L 133.53125 146.382812 L 132.429688 145.851562 L 131.300781 145.296875 L 130.242188 144.675781 L 129.207031 144.007812 L 128.222656 143.339844 L 127.257812 142.625 L 126.269531 141.933594 L 125.308594 141.21875 L 124.367188 140.503906 L 123.519531 139.789062 L 122.746094 139.097656 L 121.96875 138.359375 L 121.195312 137.621094 L 120.417969 136.835938 L 119.621094 136.007812 L 118.890625 135.199219 L 118.28125 134.394531 L 117.761719 133.5625 L 117.316406 132.710938 L 116.917969 131.789062 L 116.566406 130.820312 L 116.257812 129.828125 L 115.976562 128.835938 L 115.507812 126.851562 L 115.320312 125.863281 L 115.179688 124.871094 L 115.085938 123.902344 L 115.011719 122.957031 L 114.964844 121.988281 L 114.964844 121.019531 L 114.988281 120.003906 L 115.085938 118.96875 L 115.25 117.90625 L 115.460938 116.800781 L 115.695312 115.671875 L 115.929688 114.519531 L 116.210938 113.339844 L 116.566406 112.144531 L 116.917969 110.96875 L 117.292969 109.859375 L 117.667969 108.777344 L 118.070312 107.667969 L 118.46875 106.609375 L 118.9375 105.546875 L 119.480469 104.488281 L 120.066406 103.472656 L 120.699219 102.390625 L 121.359375 101.28125 L 122.015625 100.152344 L 122.699219 99.023438 L 123.402344 97.917969 L 124.15625 96.832031 L 124.976562 95.773438 L 125.871094 94.757812 L 126.765625 93.765625 L 127.679688 92.820312 L 128.574219 91.875 L 129.492188 90.953125 L 130.429688 90.007812 L 131.464844 89.109375 L 132.546875 88.1875 L 133.675781 87.332031 L 134.824219 86.480469 L 136.023438 85.671875 L 137.269531 84.890625 L 138.5625 84.128906 L 139.902344 83.414062 L 141.21875 82.722656 L 142.535156 82.101562 L 143.875 81.523438 L 145.191406 80.992188 L 146.507812 80.507812 L 147.773438 80.070312 L 149.042969 79.679688 L 150.3125 79.332031 L 151.582031 79.011719 L 152.851562 78.710938 L 154.097656 78.433594 L 155.34375 78.132812 L 156.613281 77.855469 L 157.90625 77.558594 L 159.148438 77.28125 L 160.417969 77.003906 L 161.664062 76.703125 L 162.910156 76.425781 L 164.109375 76.152344 L 165.308594 75.898438 L 166.53125 75.644531 L 167.773438 75.390625 L 170.3125 74.835938 L 171.535156 74.558594 L 172.78125 74.238281 L 175.273438 73.589844 L 176.449219 73.222656 L 177.621094 72.855469 L 178.796875 72.484375 L 179.996094 72.140625 L 181.148438 71.839844 L 182.253906 71.539062 L 183.285156 71.238281 L 184.296875 70.941406 L 185.308594 70.640625 L 186.339844 70.292969 L 187.328125 69.949219 L 188.292969 69.558594 L 189.257812 69.140625 L 190.265625 68.65625 L 191.300781 68.171875 L 192.289062 67.667969 L 193.273438 67.160156 L 194.191406 66.675781 L 195.0625 66.214844 L 195.882812 65.730469 L 196.707031 65.246094 L 197.503906 64.738281 L 198.257812 64.230469 L 198.960938 63.699219 L 199.621094 63.148438 L 200.277344 62.546875 L 200.890625 61.902344 L 201.476562 61.234375 L 202.039062 60.542969 L 202.582031 59.851562 L 203.074219 59.15625 L 203.519531 58.464844 L 203.945312 57.75 L 204.296875 57.015625 L 204.625 56.277344 L 204.882812 55.539062 L 205.074219 54.800781 L 205.214844 54.039062 L 205.285156 53.253906 L 205.332031 52.449219 L 205.355469 51.59375 L 205.378906 50.695312 L 205.402344 49.773438 L 205.402344 47.929688 L 205.355469 46.984375 L 205.308594 46.015625 L 205.238281 45.046875 L 205.167969 44.054688 L 204.980469 42.117188 L 204.835938 41.152344 L 204.71875 40.207031 L 204.554688 39.261719 L 204.390625 38.335938 L 204.203125 37.414062 L 203.78125 35.570312 L 203.546875 34.625 L 203.285156 33.703125 L 202.980469 32.828125 L 202.652344 31.972656 L 202.324219 31.144531 L 201.992188 30.335938 L 201.640625 29.53125 L 201.242188 28.746094 L 200.796875 27.984375 L 200.347656 27.246094 L 199.878906 26.554688 L 199.386719 25.863281 L 198.84375 25.171875 L 198.304688 24.527344 L 197.691406 23.902344 L 197.082031 23.304688 L 196.449219 22.75 L 195.8125 22.222656 L 195.15625 21.691406 L 194.472656 21.183594 L 193.722656 20.675781 L 192.945312 20.214844 L 192.171875 19.777344 L 191.394531 19.363281 L 190.664062 18.96875 L 189.914062 18.601562 L 189.160156 18.230469 L 188.363281 17.886719 L 187.515625 17.539062 L 186.648438 17.242188 L 185.777344 16.964844 L 184.835938 16.6875 L 183.875 16.433594 L 182.933594 16.179688 L 181.992188 15.972656 L 181.007812 15.765625 L 179.972656 15.582031 L 178.960938 15.417969 L 178 15.28125 L 176.964844 15.1875 L 175.882812 15.140625 L 174.753906 15.097656 L 173.628906 15.097656 L 172.523438 15.140625 L 171.464844 15.1875 L 170.335938 15.257812 L 169.136719 15.351562 L 168.152344 15.394531 L 167.28125 15.464844 L 166.316406 15.511719 L 165.378906 15.605469 L 164.34375 15.71875 L 163.238281 15.835938 L 162.300781 15.972656 L 161.429688 16.085938 L 160.652344 16.226562 L 159.925781 16.363281 L 159.054688 16.550781 L 158.117188 16.757812 L 157.222656 16.941406 L 156.375 17.125 L 155.671875 17.308594 L 155.0625 17.472656 L 154.449219 17.65625 L 153.863281 17.863281 L 153.296875 18.09375 L 152.710938 18.347656 L 152.097656 18.601562 L 151.464844 18.878906 L 150.832031 19.175781 L 150.195312 19.476562 L 149.609375 19.777344 L 149.066406 20.101562 L 148.550781 20.421875 L 148.082031 20.746094 L 147.632812 21.113281 L 147.234375 21.484375 L 146.859375 21.875 L 146.484375 22.3125 L 146.105469 22.773438 L 145.777344 23.257812 L 145.472656 23.742188 L 145.191406 24.25 L 144.929688 24.78125 L 144.671875 25.355469 L 144.390625 26.070312 L 144.085938 26.878906 L 143.851562 27.664062 L 143.640625 28.445312 L 143.496094 29.300781 L 143.378906 30.175781 L 143.261719 31.027344 L 143.191406 31.90625 L 143.144531 32.644531 L 143.144531 33.3125 L 143.167969 34.003906 L 143.214844 34.742188 L 143.285156 35.457031 L 143.402344 36.148438 L 143.542969 36.839844 L 143.6875 37.53125 L 144.0625 38.914062 L 144.4375 40.34375 L 144.648438 41.152344 L 144.90625 42.027344 L 145.121094 42.8125 L 145.355469 43.546875 L 145.566406 44.195312 L 145.753906 44.792969 L 145.988281 45.4375 L 146.222656 46.109375 L 146.507812 46.824219 L 146.789062 47.539062 L 147.117188 48.253906 L 147.46875 48.96875 L 147.871094 49.75 L 148.339844 50.558594 L 148.785156 51.296875 L 149.207031 51.988281 L 149.609375 52.609375 L 150.007812 53.164062 L 150.5 53.832031 L 151.042969 54.546875 L 151.558594 55.214844 L 152.050781 55.859375 L 152.546875 56.484375 L 153.039062 57.105469 L 153.53125 57.75 L 154.097656 58.375 L 154.683594 58.996094 L 155.34375 59.621094 L 155.976562 60.195312 L 156.636719 60.773438 L 157.316406 61.324219 L 158.023438 61.902344 L 158.726562 62.457031 L 159.457031 63.03125 L 160.207031 63.609375 L 161.007812 64.183594 L 161.78125 64.761719 L 162.582031 65.359375 L 163.332031 65.9375 L 164.085938 66.511719 L 164.882812 67.160156 L 165.800781 67.828125 L 166.648438 68.449219 L 167.492188 69.050781 L 168.292969 69.601562 L 169.042969 70.132812 L 169.820312 70.734375 L 170.59375 71.355469 L 171.417969 72 L 172.3125 72.644531 L 173.109375 73.199219 L 173.839844 73.683594 L 174.613281 74.191406 L 175.390625 74.699219 L 176.164062 75.230469 L 176.941406 75.734375 L 177.738281 76.3125 L 178.5625 76.910156 L 179.386719 77.535156 L 180.183594 78.15625 L 180.890625 78.800781 L 181.546875 79.449219 L 182.230469 80.164062 L 182.957031 80.945312 L 183.570312 81.636719 L 184.15625 82.308594 L 184.765625 83.066406 L 185.378906 83.875 L 185.988281 84.683594 L 186.554688 85.464844 L 187.09375 86.273438 L 187.585938 87.101562 L 188.082031 87.980469 L 188.527344 88.878906 L 188.925781 89.800781 L 189.28125 90.699219 L 189.632812 91.597656 L 190.007812 92.476562 L 190.359375 93.375 L 190.691406 94.273438 L 191.019531 95.171875 L 191.324219 96.050781 L 191.605469 96.949219 L 192.074219 98.746094 L 192.242188 99.667969 L 192.359375 100.589844 L 192.40625 101.511719 L 192.453125 102.414062 L 192.476562 103.289062 L 192.523438 104.164062 L 192.546875 105.019531 L 192.546875 105.894531 L 192.570312 106.746094 L 192.546875 107.507812 L 192.546875 108.222656 L 192.523438 109.074219 L 192.523438 110.875 L 192.5 111.703125 L 192.476562 112.582031 L 192.382812 113.457031 L 192.265625 114.355469 L 192.097656 115.277344 L 191.839844 116.246094 L 191.230469 118.230469 L 190.902344 119.222656 L 190.5 120.191406 L 190.078125 121.179688 L 189.632812 122.265625 L 189.136719 123.417969 L 188.644531 124.5 L 188.105469 125.539062 L 187.492188 126.644531 L 186.789062 127.773438 L 185.988281 128.953125 L 185.144531 130.128906 L 184.25 131.324219 L 183.285156 132.5 L 182.277344 133.65625 L 181.171875 134.832031 L 180.042969 135.984375 L 178.84375 137.113281 L 177.621094 138.195312 L 176.351562 139.257812 L 175.0625 140.273438 L 173.722656 141.261719 L 172.453125 142.164062 L 171.277344 142.945312 L 170.148438 143.683594 L 169.019531 144.332031 L 167.820312 145.042969 L 166.484375 145.757812 L 165.097656 146.472656 L 163.664062 147.144531 L 162.207031 147.765625 L 160.726562 148.34375 L 159.242188 148.828125 L 157.761719 149.265625 L 156.28125 149.632812 L 154.777344 149.957031 L 153.296875 150.210938 L 151.816406 150.417969 L 150.335938 150.53125 L 148.855469 150.601562 L 147.398438 150.625 L 145.917969 150.554688 L 144.4375 150.441406 L 142.980469 150.253906 L 141.546875 150.003906 L 140.136719 149.703125 L 138.773438 149.308594 L 137.410156 148.894531 L 136.09375 148.386719 L 134.777344 147.859375 L 133.484375 147.28125 L 132.21875 146.660156 L 130.949219 146.035156 L 129.703125 145.367188 L 128.480469 144.675781 L 126.035156 143.246094 L 124.859375 142.507812 L 123.734375 141.746094 L 122.605469 140.964844 L 121.5 140.132812 L 120.417969 139.28125 L 119.386719 138.359375 L 118.421875 137.390625 L 117.503906 136.375 L 116.660156 135.292969 L 115.882812 134.183594 L 115.132812 133.054688 L 114.449219 131.902344 L 113.863281 130.726562 L 113.34375 129.503906 L 112.945312 128.28125 L 112.640625 127.015625 L 112.429688 125.699219 L 112.289062 124.339844 L 112.265625 122.933594 L 112.3125 121.480469 L 112.476562 119.980469 L 112.734375 118.4375 L 113.0625 116.847656 L 113.507812 115.253906 L 114.003906 113.640625 L 114.566406 112.027344 L 115.15625 110.414062 L 115.789062 108.824219 L 116.496094 107.230469 L 117.222656 105.664062 L 118.023438 104.117188 L 118.890625 102.621094 L 119.761719 101.144531 L 120.675781 99.714844 L 121.59375 98.332031 L 122.535156 96.972656 L 123.496094 95.632812 L 124.53125 94.320312 L 125.613281 92.984375 L 126.742188 91.667969 L 127.867188 90.332031 L 128.996094 89.0625 L 130.125 87.839844 L 131.277344 86.664062 L 132.429688 85.582031 L 133.554688 84.566406 L 134.683594 83.621094 L 135.859375 82.722656 L 137.035156 81.914062 L 138.257812 81.15625 L 139.457031 80.417969 L 140.675781 79.746094 L 141.898438 79.101562 L 143.144531 78.480469 L 144.414062 77.878906 L 145.707031 77.328125 L 147.023438 76.820312 L 148.339844 76.359375 L 149.65625 75.945312 L 150.972656 75.574219 L 152.289062 75.273438 L 153.582031 75 L 154.894531 74.746094 L 156.234375 74.535156 L 157.574219 74.351562 L 158.9375 74.191406 L 160.324219 74.007812 L 161.757812 73.820312 L 163.191406 73.636719 L 164.648438 73.429688 L 167.609375 72.921875 L 169.113281 72.644531 L 170.640625 72.324219 L 172.148438 71.976562 L 173.628906 71.632812 L 175.109375 71.238281 L 176.566406 70.800781 L 178.023438 70.339844 L 179.480469 69.855469 L 180.9375 69.324219 L 182.394531 68.75 L 183.804688 68.148438 L 185.214844 67.527344 L 186.578125 66.882812 L 187.917969 66.238281 L 189.230469 65.566406 L 190.546875 64.898438 L 191.816406 64.207031 L 193.0625 63.515625 L 194.238281 62.800781 L 195.367188 62.085938 L 196.472656 61.371094 L 197.527344 60.65625 L 198.515625 59.941406 L 199.480469 59.226562 L 200.347656 58.488281 L 201.195312 57.773438 L 201.992188 57.035156 L 202.769531 56.300781 L 203.496094 55.5625 L 204.15625 54.824219 L 204.695312 54.085938 L 205.167969 53.371094 L 205.542969 52.679688 L 205.847656 52.011719 L 206.082031 51.320312 L 206.222656 50.628906 L 206.292969 49.914062 L 206.316406 49.21875 L 206.292969 48.527344 L 206.246094 47.835938 L 206.105469 46.40625 L 205.988281 45.667969 L 205.871094 44.910156 L 205.542969 43.339844 L 205.402344 42.558594 L 205.261719 41.75 L 205.144531 40.921875 L 205.050781 40.089844 L 204.929688 39.238281 L 204.8125 38.40625 L 204.671875 37.554688 L 204.507812 36.722656 L 204.296875 35.894531 L 204.039062 35.0625 L 203.78125 34.257812 L 203.496094 33.425781 L 203.214844 32.621094 L 202.910156 31.835938 L 202.582031 31.074219 L 202.230469 30.335938 L 201.851562 29.621094 L 201.453125 28.929688 L 201.03125 28.261719 L 200.558594 27.617188 L 200.066406 26.992188 L 199.550781 26.394531 L 198.984375 25.816406 L 198.351562 25.265625 L 197.667969 24.734375 L 196.964844 24.226562 L 196.234375 23.742188 L 195.507812 23.28125 L 194.777344 22.796875 L 193.980469 22.335938 L 193.132812 21.898438 L 192.195312 21.484375 L 191.230469 21.089844 L 190.242188 20.769531 L 189.257812 20.445312 L 188.246094 20.167969 L 187.1875 19.914062 L 186.105469 19.660156 L 185.003906 19.453125 L 183.898438 19.269531 L 181.640625 18.902344 L 180.488281 18.738281 L 179.339844 18.554688 L 178.164062 18.394531 L 176.988281 18.210938 L 175.789062 18.023438 L 173.34375 17.703125 L 172.125 17.585938 L 170.902344 17.472656 L 169.679688 17.402344 L 168.433594 17.355469 L 167.210938 17.332031 L 165.988281 17.355469 L 164.765625 17.402344 L 163.570312 17.472656 L 162.347656 17.539062 L 161.148438 17.632812 L 159.972656 17.746094 L 158.773438 17.910156 L 157.597656 18.09375 L 156.421875 18.300781 L 155.273438 18.554688 L 154.167969 18.832031 L 153.109375 19.175781 L 152.074219 19.523438 L 151.066406 19.914062 L 150.101562 20.332031 L 149.183594 20.746094 L 148.386719 21.207031 L 147.65625 21.667969 L 147.023438 22.152344 L 146.460938 22.636719 L 145.917969 23.144531 L 145.402344 23.71875 L 144.929688 24.367188 L 144.484375 25.058594 L 144.0625 25.839844 L 143.710938 26.671875 L 143.402344 27.546875 L 143.144531 28.46875 L 142.957031 29.414062 L 142.816406 30.40625 L 142.722656 31.445312 L 142.699219 32.503906 L 142.722656 33.609375 L 142.769531 34.785156 L 142.863281 35.984375 L 142.980469 37.230469 L 143.121094 38.476562 L 143.332031 39.746094 L 143.566406 40.988281 L 143.851562 42.234375 L 144.179688 43.457031 L 144.578125 44.65625 L 145 45.855469 L 145.496094 47.007812 L 146.011719 48.136719 L 146.695312 49.449219 L 147.492188 50.8125 L 148.363281 52.195312 L 149.351562 53.554688 L 150.265625 54.753906 L 151.136719 55.859375 L 152.003906 56.96875 L 152.875 58.027344 L 153.769531 59.113281 L 154.753906 60.148438 L 155.835938 61.164062 L 156.988281 62.179688 L 158.164062 63.171875 L 159.316406 64.160156 L 160.511719 65.175781 L 161.757812 66.167969 L 163.027344 67.160156 L 164.273438 68.148438 L 165.519531 69.117188 L 166.789062 70.085938 L 167.941406 70.964844 L 168.996094 71.769531 L 170.007812 72.53125 L 170.972656 73.269531 L 172.027344 74.074219 L 173.179688 74.953125 L 174.355469 75.875 L 175.554688 76.820312 L 176.753906 77.8125 L 177.929688 78.824219 L 179.078125 79.886719 L 180.160156 80.945312 L 181.195312 82.054688 L 182.183594 83.160156 L 183.144531 84.3125 L 184.085938 85.464844 L 184.980469 86.640625 L 185.800781 87.816406 L 186.578125 89.039062 L 187.28125 90.261719 L 187.917969 91.507812 L 188.457031 92.773438 L 188.949219 94.066406 L 189.398438 95.402344 L 189.796875 96.785156 L 190.148438 98.191406 L 190.453125 99.621094 L 190.738281 101.050781 L 190.996094 102.480469 L 191.207031 103.933594 L 191.394531 105.410156 L 191.535156 106.886719 L 191.652344 108.382812 L 191.699219 109.882812 L 191.675781 111.382812 L 191.582031 112.902344 L 191.394531 114.449219 L 191.089844 115.992188 L 190.714844 117.5625 L 190.265625 119.128906 L 189.75 120.71875 L 189.160156 122.289062 L 188.480469 123.855469 L 187.679688 125.46875 L 186.71875 127.105469 L 185.636719 128.765625 L 184.4375 130.449219 L 183.144531 132.15625 L 181.734375 133.839844 L 180.253906 135.5 L 178.726562 137.066406 L 177.105469 138.566406 L 175.460938 139.949219 L 173.746094 141.261719 L 172.003906 142.460938 L 170.21875 143.570312 L 168.410156 144.582031 L 166.53125 145.527344 L 164.578125 146.382812 L 162.558594 147.1875 L 160.488281 147.925781 L 158.398438 148.59375 L 156.28125 149.171875 L 154.121094 149.679688 L 151.933594 150.140625 L 149.703125 150.507812 L 147.492188 150.832031 L 145.285156 151.132812 L 143.144531 151.339844 L 141.054688 151.5 L 139.007812 151.59375 L 136.988281 151.570312 L 135.011719 151.453125 L 133.15625 151.246094 L 131.371094 150.949219 L 129.679688 150.554688 L 128.105469 150.09375 L 126.578125 149.539062 L 125.144531 148.894531 L 123.828125 148.15625 L 122.605469 147.328125 L 121.429688 146.382812 L 120.324219 145.367188 L 119.339844 144.238281 L 118.445312 142.992188 L 117.667969 141.703125 L 116.988281 140.316406 L 116.351562 138.867188 L 115.765625 137.320312 L 115.226562 135.730469 L 114.730469 134.070312 L 114.308594 132.386719 L 113.933594 130.703125 L 113.652344 128.996094 L 113.4375 127.269531 L 113.296875 125.5625 L 113.203125 123.878906 L 113.15625 122.195312 L 113.179688 120.558594 L 113.273438 118.898438 L 113.4375 117.261719 L 113.675781 115.625 L 113.933594 113.988281 L 114.261719 112.351562 L 114.636719 110.734375 L 115.0625 109.121094 L 115.554688 107.53125 L 116.09375 105.964844 L 116.683594 104.441406 L 117.292969 102.988281 L 117.953125 101.582031 L 118.632812 100.246094 L 119.386719 98.976562 L 120.160156 97.777344 L 120.984375 96.625 L 121.828125 95.542969 L 122.699219 94.503906 L 123.617188 93.488281 L 124.578125 92.5 L 125.613281 91.484375 L 126.695312 90.515625 L 127.796875 89.546875 L 128.902344 88.625 L 130.078125 87.773438 L 131.277344 86.964844 L 132.476562 86.226562 L 133.675781 85.558594 L 134.894531 84.9375 L 136.117188 84.359375 L 137.363281 83.851562 L 138.679688 83.34375 L 140.019531 82.859375 L 141.382812 82.375 L 142.792969 81.914062 L 145.660156 81.039062 L 147.070312 80.648438 L 148.503906 80.277344 L 149.914062 79.910156 L 152.6875 79.308594 L 154.027344 79.03125 L 155.34375 78.78125 L 156.683594 78.527344 L 158 78.25 L 159.339844 77.972656 L 160.699219 77.695312 L 162.0625 77.371094 L 163.402344 77.027344 L 164.765625 76.660156 L 166.105469 76.265625 L 167.445312 75.875 L 168.761719 75.480469 L 170.03125 75.089844 L 171.253906 74.675781 L 172.453125 74.285156 L 173.628906 73.890625 L 174.777344 73.5 L 175.90625 73.085938 L 177.035156 72.667969 L 178.164062 72.230469 L 179.292969 71.769531 L 180.394531 71.261719 L 181.453125 70.753906 L 182.488281 70.203125 L 183.546875 69.601562 L 184.625 69.027344 L 185.707031 68.402344 L 186.742188 67.804688 L 187.75 67.203125 L 188.691406 66.582031 L 189.609375 65.960938 L 190.523438 65.335938 L 191.394531 64.691406 L 192.265625 64.070312 L 193.085938 63.402344 L 193.886719 62.707031 L 194.660156 61.992188 L 195.367188 61.257812 L 196.046875 60.519531 L 196.683594 59.757812 L 197.292969 58.972656 L 197.835938 58.210938 L 198.351562 57.453125 L 198.796875 56.714844 L 199.195312 55.976562 L 199.550781 55.261719 L 199.878906 54.546875 L 200.183594 53.808594 L 200.464844 53.070312 L 200.726562 52.308594 L 200.960938 51.527344 L 201.195312 50.742188 L 201.382812 49.933594 L 201.570312 49.128906 L 201.710938 48.320312 L 201.851562 47.539062 L 201.945312 46.730469 L 202.015625 45.945312 L 202.0625 45.140625 L 202.113281 44.355469 L 202.113281 42.765625 L 202.085938 41.933594 L 202.039062 41.105469 L 201.96875 40.25 L 201.898438 39.375 L 201.78125 38.546875 L 201.664062 37.714844 L 201.5 36.886719 L 201.3125 36.101562 L 201.078125 35.316406 L 200.820312 34.511719 L 200.535156 33.726562 L 200.253906 32.917969 L 199.925781 32.113281 L 199.574219 31.328125 L 199.148438 30.519531 L 198.679688 29.738281 L 198.164062 28.953125 L 197.621094 28.191406 L 197.058594 27.410156 L 196.496094 26.648438 L 195.929688 25.910156 L 195.367188 25.171875 L 194.777344 24.457031 L 194.167969 23.789062 L 193.484375 23.144531 L 192.757812 22.519531 L 192.003906 21.945312 L 191.230469 21.367188 L 190.476562 20.835938 L 189.726562 20.332031 L 188.972656 19.824219 L 188.199219 19.316406 L 187.398438 18.832031 L 186.53125 18.347656 L 185.660156 17.910156 L 184.765625 17.496094 L 183.875 17.101562 L 182.980469 16.757812 L 182.0625 16.480469 L 181.078125 16.25 L 180.042969 16.085938 L 178.9375 15.972656 L 177.808594 15.925781 L 176.636719 15.925781 L 174.238281 16.019531 L 173.039062 16.109375 L 171.863281 16.203125 L 170.714844 16.320312 L 169.539062 16.410156 L 168.386719 16.527344 L 167.210938 16.640625 L 166.035156 16.78125 L 164.90625 16.941406 L 163.757812 17.148438 L 162.605469 17.355469 L 161.476562 17.585938 L 160.371094 17.839844 L 159.292969 18.09375 L 158.257812 18.347656 L 157.246094 18.625 L 156.257812 18.925781 L 155.296875 19.222656 L 154.402344 19.546875 L 153.554688 19.871094 L 152.757812 20.191406 L 151.980469 20.5625 L 151.183594 20.953125 L 150.382812 21.390625 L 149.585938 21.875 L 148.808594 22.40625 L 148.082031 22.980469 L 147.351562 23.605469 L 146.625 24.273438 L 145.917969 25.011719 L 145.214844 25.773438 L 144.53125 26.554688 L 143.875 27.363281 L 143.285156 28.148438 L 142.816406 28.90625 L 142.441406 29.667969 L 142.132812 30.566406 L 141.921875 31.511719 L 141.757812 32.480469 L 141.664062 33.496094 L 141.59375 34.417969 L 141.59375 35.339844 L 141.617188 36.285156 L 141.710938 37.230469 L 141.828125 38.199219 L 141.96875 39.191406 L 142.085938 40.183594 L 142.230469 41.195312 L 142.417969 42.1875 L 142.675781 43.203125 L 142.980469 44.21875 L 143.378906 45.207031 L 143.828125 46.222656 L 144.273438 47.238281 L 144.742188 48.296875 L 145.261719 49.382812 L 145.800781 50.464844 L 146.363281 51.574219 L 146.976562 52.65625 L 147.632812 53.714844 L 148.363281 54.753906 L 149.183594 55.769531 L 150.101562 56.761719 L 151.042969 57.707031 L 152.027344 58.605469 L 153.015625 59.480469 L 154.050781 60.332031 L 155.132812 61.1875 L 156.28125 62.0625 L 157.457031 62.917969 L 158.632812 63.792969 L 159.832031 64.667969 L 161.078125 65.566406 L 162.347656 66.46875 L 163.640625 67.367188 L 164.953125 68.242188 L 166.246094 69.09375 L 167.585938 69.972656 L 168.925781 70.871094 L 170.242188 71.792969 L 171.558594 72.761719 L 172.875 73.753906 L 174.074219 74.675781 L 175.179688 75.550781 L 176.1875 76.382812 L 177.152344 77.234375 L 178.1875 78.15625 L 179.292969 79.171875 L 180.394531 80.230469 L 181.5 81.363281 L 182.582031 82.539062 L 183.617188 83.738281 L 184.601562 84.957031 L 185.542969 86.179688 L 186.414062 87.449219 L 187.210938 88.738281 L 187.917969 90.03125 L 188.574219 91.324219 L 189.183594 92.636719 L 189.75 93.949219 L 190.265625 95.3125 L 190.761719 96.695312 L 191.207031 98.125 L 191.605469 99.578125 L 191.933594 101.074219 L 192.195312 102.621094 L 192.359375 104.1875 L 192.429688 105.777344 L 192.40625 107.371094 L 192.3125 109.007812 L 192.171875 110.667969 L 191.933594 112.328125 L 191.652344 113.964844 L 191.324219 115.601562 L 190.949219 117.238281 L 190.546875 118.851562 L 190.101562 120.488281 L 189.632812 122.082031 L 189.089844 123.695312 L 188.527344 125.285156 L 187.847656 126.921875 L 187.023438 128.535156 L 186.082031 130.128906 L 185.074219 131.695312 L 184.015625 133.214844 L 182.910156 134.691406 L 181.734375 136.121094 L 180.464844 137.480469 L 179.101562 138.75 L 177.691406 139.972656 L 176.210938 141.101562 L 174.707031 142.1875 L 173.15625 143.222656 L 171.582031 144.214844 L 169.914062 145.183594 L 168.222656 146.175781 L 166.4375 147.144531 L 164.648438 148.089844 L 162.816406 149.011719 L 160.960938 149.886719 L 159.101562 150.671875 L 157.246094 151.386719 L 155.367188 152.03125 L 153.460938 152.609375 L 151.511719 153.089844 L 149.585938 153.484375 L 147.703125 153.804688 L 145.871094 153.992188 L 144.085938 154.082031 L 142.324219 154.082031 L 140.582031 153.992188 L 138.890625 153.804688 L 137.222656 153.574219 L 135.625 153.277344 L 134.027344 152.929688 L 132.476562 152.515625 L 130.925781 152.078125 L 129.398438 151.59375 L 127.894531 151.039062 L 126.433594 150.441406 L 124.976562 149.773438 L 123.542969 149.035156 L 122.132812 148.203125 L 120.773438 147.351562 L 119.457031 146.453125 L 118.234375 145.527344 L 117.058594 144.582031 L 115.953125 143.59375 L 114.894531 142.578125 L 113.910156 141.492188 L 112.992188 140.410156 L 112.195312 139.234375 L 111.488281 138.035156 L 110.855469 136.789062 L 110.289062 135.5 L 109.796875 134.183594 L 109.375 132.871094 L 108.996094 131.535156 L 108.691406 130.171875 L 108.457031 128.789062 L 108.292969 127.382812 L 108.175781 125.929688 L 108.175781 124.457031 L 108.246094 123.003906 L 108.386719 121.550781 L 108.574219 120.144531 L 108.832031 118.738281 L 109.136719 117.355469 L 109.515625 115.96875 L 109.914062 114.5625 L 110.359375 113.15625 L 110.855469 111.796875 L 111.417969 110.4375 L 112.050781 109.074219 L 112.757812 107.761719 L 113.53125 106.425781 L 114.355469 105.109375 L 115.203125 103.84375 L 116.046875 102.597656 L 116.917969 101.398438 L 117.808594 100.246094 L 118.773438 99.117188 L 119.761719 98.007812 L 120.75 96.925781 L 121.734375 95.863281 L 122.746094 94.828125 L 123.804688 93.859375 L 124.882812 92.914062 L 125.988281 92.039062 L 127.09375 91.183594 L 128.199219 90.378906 L 129.300781 89.570312 L 130.40625 88.832031 L 131.535156 88.140625 L 132.664062 87.542969 L 133.792969 86.988281 L 134.917969 86.457031 L 136.046875 85.949219 L 137.199219 85.441406 L 139.503906 84.472656 L 140.652344 84.011719 L 141.804688 83.574219 L 144.203125 82.792969 L 145.402344 82.398438 L 146.601562 82.007812 L 147.796875 81.636719 L 149.019531 81.292969 L 150.242188 80.96875 L 151.464844 80.691406 L 152.710938 80.441406 L 153.933594 80.1875 L 155.203125 79.957031 L 156.449219 79.746094 L 157.714844 79.539062 L 160.160156 79.171875 L 161.40625 78.964844 L 162.628906 78.78125 L 163.875 78.59375 L 165.144531 78.410156 L 166.4375 78.226562 L 167.703125 78.042969 L 168.949219 77.855469 L 170.21875 77.695312 L 171.464844 77.535156 L 172.710938 77.371094 L 173.933594 77.210938 L 175.109375 77.050781 L 176.257812 76.910156 L 177.410156 76.75 L 179.714844 76.382812 L 180.84375 76.175781 L 181.96875 75.921875 L 183.074219 75.644531 L 184.226562 75.34375 L 185.355469 75 L 186.484375 74.652344 L 187.585938 74.285156 L 188.667969 73.914062 L 189.75 73.523438 L 190.808594 73.152344 L 191.863281 72.738281 L 192.875 72.300781 L 193.839844 71.863281 L 194.824219 71.378906 L 195.789062 70.894531 L 196.777344 70.386719 L 197.761719 69.832031 L 198.703125 69.257812 L 199.597656 68.65625 L 200.464844 68.035156 L 201.3125 67.390625 L 202.160156 66.722656 L 203.003906 66.050781 L 203.804688 65.359375 L 204.578125 64.621094 L 205.285156 63.90625 L 205.941406 63.191406 L 206.554688 62.476562 L 207.140625 61.761719 L 207.703125 61.027344 L 208.222656 60.289062 L 208.714844 59.550781 L 209.207031 58.789062 L 209.65625 58.027344 L 210.054688 57.246094 L 210.429688 56.484375 L 210.785156 55.699219 L 211.089844 54.914062 L 211.324219 54.15625 L 211.535156 53.371094 L 211.652344 52.585938 L 211.746094 51.824219 L 211.792969 51.066406 L 211.816406 50.351562 L 211.792969 49.660156 L 211.699219 48.96875 L 211.558594 48.273438 L 211.394531 47.558594 L 211.207031 46.824219 L 210.996094 46.085938 L 210.785156 45.324219 L 210.546875 44.515625 L 210.289062 43.710938 L 210.007812 42.855469 L 209.703125 41.957031 L 209.375 41.058594 L 209.019531 40.113281 L 208.644531 39.144531 L 208.222656 38.199219 L 207.75 37.230469 L 207.28125 36.261719 L 206.765625 35.292969 L 206.222656 34.347656 L 205.660156 33.402344 L 205.027344 32.480469 L 204.320312 31.558594 L 203.59375 30.636719 L 202.863281 29.691406 L 202.113281 28.769531 L 201.359375 27.871094 L 200.558594 26.96875 L 199.738281 26.09375 L 198.867188 25.265625 L 197.953125 24.457031 L 197.035156 23.695312 L 196.117188 22.980469 L 195.203125 22.3125 L 194.214844 21.667969 L 193.203125 21.023438 L 192.125 20.398438 L 190.832031 19.707031 L 189.539062 18.992188 L 188.199219 18.300781 L 186.789062 17.65625 L 185.542969 17.148438 L 184.320312 16.734375 L 183.121094 16.386719 L 181.921875 16.085938 L 180.703125 15.835938 L 179.433594 15.648438 L 178.1875 15.511719 L 176.917969 15.394531 L 175.671875 15.328125 L 174.425781 15.257812 L 173.203125 15.210938 L 172.050781 15.1875 L 170.902344 15.164062 L 169.773438 15.164062 L 168.667969 15.1875 L 167.539062 15.257812 L 166.484375 15.375 L 165.496094 15.558594 L 164.53125 15.742188 L 163.640625 15.972656 L 162.699219 16.25 L 161.734375 16.550781 L 160.820312 16.871094 L 159.996094 17.171875 L 159.292969 17.496094 L 158.703125 17.816406 L 158.09375 18.1875 L 157.457031 18.625 L 156.824219 19.0625 L 156.210938 19.546875 L 155.648438 20.007812 L 155.15625 20.46875 L 154.707031 20.953125 L 154.332031 21.460938 L 153.980469 21.96875 L 153.675781 22.496094 L 153.390625 23.050781 L 153.15625 23.582031 L 152.921875 24.132812 L 152.710938 24.710938 L 152.523438 25.332031 L 152.335938 25.957031 L 152.148438 26.625 L 151.957031 27.292969 L 151.746094 28.007812 L 151.558594 28.722656 L 151.394531 29.414062 L 151.253906 30.105469 L 151.160156 30.773438 L 151.089844 31.421875 L 151.042969 31.996094 L 151.019531 32.503906 L 151.019531 33.472656 L 151.042969 33.886719 L 151.089844 34.234375 L 151.136719 34.578125 L 151.207031 34.902344 L 151.300781 35.226562 L 151.417969 35.570312 L 151.535156 35.871094 L 151.628906 36.171875 L 151.746094 36.46875 L 151.933594 37.023438 L 152.027344 37.324219 L 152.097656 37.621094 L 152.242188 38.152344 L 152.359375 38.636719 L 152.453125 39.050781 L 152.640625 39.699219 L 152.710938 40.019531 L 152.78125 40.367188 L 152.828125 40.691406 L 152.851562 41.035156 L 152.804688 41.425781 "/>
</g>
</svg>
