<?xml version="1.0" encoding="UTF-8"?>
<svg xmlns="http://www.w3.org/2000/svg" xmlns:xlink="http://www.w3.org/1999/xlink" width="283.46pt" height="283.46pt" viewBox="0 0 283.46 283.46" version="1.2">
<g id="surface197784">
<path style=" stroke:none;fill-rule:nonzero;fill:rgb(100%,100%,100%);fill-opacity:1;" d="M 0 0 L 283.460938 0 L 283.460938 283.460938 L 0 283.460938 Z M 0 0 "/>
<path style="fill:none;stroke-width:0.85;stroke-linecap:round;stroke-linejoin:round;stroke:rgb(0%,0%,0%);stroke-opacity:1;comp-op:src;clip-to-self:true;stroke-miterlimit:10;" d="M 81.007812 66.488281 L 80.488281 66.558594 L 79.785156 66.675781 L 78.726562 66.859375 L 77.480469 67.066406 L 76.164062 67.273438 L 74.824219 67.480469 L 73.507812 67.667969 L 72.214844 67.875 L 70.902344 68.105469 L 69.585938 68.359375 L 68.269531 68.679688 L 66.90625 69.050781 L 65.566406 69.464844 L 64.226562 69.925781 L 62.910156 70.410156 L 61.617188 70.964844 L 60.347656 71.5625 L 59.101562 72.207031 L 57.878906 72.921875 L 56.660156 73.683594 L 55.460938 74.515625 L 54.308594 75.367188 L 53.203125 76.289062 L 52.191406 77.234375 L 51.253906 78.226562 L 50.382812 79.261719 L 49.5625 80.347656 L 48.785156 81.476562 L 48.082031 82.652344 L 47.445312 83.898438 L 46.882812 85.210938 L 46.410156 86.597656 L 46.011719 88.046875 L 45.683594 89.546875 L 45.449219 91.09375 L 45.285156 92.683594 L 45.191406 94.296875 L 45.167969 95.980469 L 45.191406 97.710938 L 45.308594 99.4375 L 45.496094 101.191406 L 45.777344 102.964844 L 46.152344 104.765625 L 46.625 106.585938 L 47.1875 108.429688 L 47.84375 110.273438 L 48.574219 112.097656 L 49.347656 113.894531 L 50.21875 115.695312 L 51.207031 117.445312 L 52.335938 119.152344 L 53.601562 120.8125 L 54.964844 122.402344 L 56.445312 123.949219 L 58.023438 125.445312 L 59.667969 126.875 L 61.429688 128.238281 L 63.261719 129.527344 L 65.144531 130.703125 L 67.09375 131.789062 L 69.089844 132.777344 L 71.136719 133.65625 L 73.226562 134.414062 L 75.390625 135.085938 L 77.574219 135.613281 L 79.808594 136.007812 L 82.085938 136.285156 L 84.367188 136.398438 L 86.625 136.375 L 88.808594 136.191406 L 90.972656 135.867188 L 93.0625 135.40625 L 95.132812 134.832031 L 97.175781 134.140625 L 99.171875 133.355469 L 101.101562 132.480469 L 102.980469 131.554688 L 104.765625 130.542969 L 106.484375 129.457031 L 108.082031 128.304688 L 109.585938 127.082031 L 110.996094 125.792969 L 112.3125 124.386719 L 113.53125 122.886719 L 114.707031 121.273438 L 115.789062 119.589844 L 116.777344 117.816406 L 117.691406 115.96875 L 118.539062 114.078125 L 119.289062 112.164062 L 119.925781 110.253906 L 120.417969 108.339844 L 120.820312 106.472656 L 121.078125 104.601562 L 121.195312 102.757812 L 121.195312 100.9375 L 121.078125 99.117188 L 120.867188 97.292969 L 120.511719 95.472656 L 120.066406 93.605469 L 119.503906 91.738281 L 118.84375 89.847656 L 118.09375 87.980469 L 117.269531 86.15625 L 116.351562 84.40625 L 115.320312 82.722656 L 114.191406 81.109375 L 112.96875 79.585938 L 111.652344 78.085938 L 110.265625 76.679688 L 108.761719 75.34375 L 107.164062 74.074219 L 105.519531 72.855469 L 103.804688 71.679688 L 102.039062 70.570312 L 100.207031 69.488281 L 98.375 68.472656 L 96.542969 67.480469 L 94.707031 66.582031 L 92.875 65.730469 L 91.019531 64.96875 L 89.160156 64.277344 L 87.28125 63.675781 L 85.425781 63.171875 L 83.566406 62.753906 L 81.710938 62.457031 L 79.855469 62.269531 L 77.953125 62.226562 L 76.023438 62.269531 L 74.097656 62.410156 L 72.167969 62.664062 L 70.195312 63.007812 L 68.199219 63.445312 L 66.222656 63.953125 L 64.296875 64.554688 L 62.417969 65.246094 L 60.582031 66.027344 L 58.796875 66.90625 L 57.058594 67.875 L 55.390625 68.980469 L 53.792969 70.179688 L 52.3125 71.46875 L 50.949219 72.855469 L 49.703125 74.285156 L 48.597656 75.757812 L 47.609375 77.28125 L 46.765625 78.847656 L 46.058594 80.441406 L 45.425781 82.078125 L 44.90625 83.757812 L 44.4375 85.511719 L 44.015625 87.289062 L 43.613281 89.132812 L 43.261719 91.046875 L 42.933594 93.027344 L 42.652344 95.082031 L 42.441406 97.15625 L 42.300781 99.230469 L 42.277344 101.304688 L 42.324219 103.359375 L 42.441406 105.386719 L 42.652344 107.394531 L 42.933594 109.398438 L 43.261719 111.40625 L 43.636719 113.410156 L 44.0625 115.417969 L 44.53125 117.421875 L 45.023438 119.40625 L 45.613281 121.386719 L 46.292969 123.300781 L 47.070312 125.148438 L 47.964844 126.898438 L 48.972656 128.582031 L 50.078125 130.148438 L 51.300781 131.671875 L 52.617188 133.101562 L 54.074219 134.484375 L 55.625 135.820312 L 57.269531 137.089844 L 58.960938 138.289062 L 60.722656 139.394531 L 62.558594 140.433594 L 64.460938 141.355469 L 66.410156 142.140625 L 68.386719 142.785156 L 70.40625 143.292969 L 72.429688 143.636719 L 74.496094 143.847656 L 76.613281 143.867188 L 78.773438 143.777344 L 80.9375 143.523438 L 83.121094 143.175781 L 85.285156 142.714844 L 87.398438 142.1875 L 89.46875 141.585938 L 91.488281 140.917969 L 93.484375 140.203125 L 95.460938 139.394531 L 97.410156 138.519531 L 99.335938 137.527344 L 101.195312 136.445312 L 103.003906 135.246094 L 104.789062 133.953125 L 106.507812 132.59375 L 108.199219 131.1875 L 109.820312 129.734375 L 111.371094 128.257812 L 112.828125 126.785156 L 114.191406 125.261719 L 115.414062 123.695312 L 116.542969 122.082031 L 117.574219 120.421875 L 118.492188 118.738281 L 119.3125 117.007812 L 120.042969 115.277344 L 120.652344 113.480469 L 121.148438 111.679688 L 121.5 109.882812 L 121.710938 108.0625 L 121.804688 106.238281 L 121.78125 104.417969 L 121.6875 102.574219 L 121.5 100.777344 L 121.21875 98.953125 L 120.867188 97.15625 L 120.441406 95.355469 L 119.949219 93.558594 L 119.363281 91.785156 L 118.726562 89.984375 L 118.046875 88.234375 L 117.339844 86.527344 L 116.542969 84.84375 L 115.695312 83.230469 L 114.753906 81.683594 L 113.722656 80.207031 L 112.617188 78.78125 L 111.464844 77.441406 L 110.195312 76.152344 L 108.832031 74.90625 L 107.375 73.730469 L 105.847656 72.644531 L 104.226562 71.632812 L 102.535156 70.664062 L 100.796875 69.789062 L 98.984375 68.957031 L 97.128906 68.195312 L 95.25 67.480469 L 93.320312 66.835938 L 91.347656 66.257812 L 89.324219 65.773438 L 87.257812 65.335938 L 85.191406 64.992188 L 83.121094 64.691406 L 81.078125 64.460938 L 79.054688 64.277344 L 77.035156 64.160156 L 75.035156 64.136719 L 73.0625 64.183594 L 71.136719 64.300781 L 69.253906 64.53125 L 67.398438 64.808594 L 65.613281 65.175781 L 63.851562 65.613281 L 62.132812 66.144531 L 60.464844 66.722656 L 58.867188 67.367188 L 57.292969 68.058594 L 55.765625 68.796875 L 54.308594 69.625 L 52.921875 70.546875 L 51.605469 71.539062 L 50.335938 72.601562 L 49.136719 73.730469 L 48.035156 74.90625 L 47.023438 76.175781 L 46.105469 77.488281 L 45.261719 78.847656 L 44.507812 80.277344 L 43.804688 81.753906 L 43.167969 83.277344 L 42.605469 84.84375 L 42.132812 86.457031 L 41.710938 88.140625 L 41.359375 89.871094 L 41.054688 91.667969 L 40.816406 93.488281 L 40.652344 95.355469 L 40.558594 97.246094 L 40.511719 99.183594 L 40.535156 101.121094 L 40.605469 103.082031 L 40.769531 105.019531 L 41.054688 106.953125 L 41.40625 108.890625 L 41.851562 110.851562 L 42.394531 112.765625 L 42.980469 114.679688 L 43.6875 116.523438 L 44.4375 118.320312 L 45.308594 120.121094 L 46.246094 121.851562 L 47.28125 123.507812 L 48.433594 125.148438 L 49.65625 126.714844 L 50.949219 128.257812 L 52.335938 129.757812 L 53.816406 131.210938 L 55.367188 132.59375 L 56.964844 133.886719 L 58.632812 135.085938 L 60.371094 136.214844 L 62.132812 137.207031 L 63.992188 138.128906 L 65.871094 138.933594 L 67.820312 139.648438 L 69.796875 140.316406 L 71.792969 140.894531 L 73.839844 141.378906 L 75.953125 141.769531 L 78.140625 142.070312 L 80.371094 142.300781 L 82.605469 142.4375 L 84.859375 142.484375 L 87.09375 142.460938 L 89.351562 142.347656 L 91.605469 142.164062 L 93.863281 141.910156 L 96.09375 141.5625 L 98.304688 141.171875 L 100.441406 140.6875 L 102.535156 140.132812 L 104.554688 139.511719 L 106.484375 138.796875 L 108.339844 137.988281 L 110.101562 137.089844 L 111.769531 136.097656 L 113.367188 135.039062 L 114.894531 133.863281 L 116.351562 132.640625 L 117.761719 131.324219 L 119.054688 129.917969 L 120.277344 128.398438 L 121.382812 126.808594 L 122.394531 125.101562 L 123.308594 123.324219 L 124.085938 121.480469 L 124.71875 119.566406 L 125.238281 117.605469 L 125.589844 115.625 L 125.824219 113.617188 L 125.917969 111.613281 L 125.871094 109.652344 L 125.683594 107.714844 L 125.402344 105.824219 L 125 104.003906 L 124.554688 102.226562 L 124.039062 100.5 L 123.496094 98.792969 L 122.863281 97.0625 L 122.15625 95.3125 L 121.382812 93.535156 L 120.558594 91.761719 L 119.644531 89.960938 L 118.703125 88.164062 L 117.691406 86.386719 L 116.636719 84.660156 L 115.554688 83.023438 L 114.402344 81.453125 L 113.203125 79.957031 L 111.957031 78.550781 L 110.617188 77.234375 L 109.230469 76.011719 L 107.75 74.859375 L 106.175781 73.777344 L 104.554688 72.761719 L 102.863281 71.792969 L 101.125 70.894531 L 99.3125 70.0625 L 97.386719 69.28125 L 95.414062 68.566406 L 93.34375 67.941406 L 91.277344 67.414062 L 89.136719 66.972656 L 86.976562 66.628906 L 84.765625 66.375 L 82.488281 66.191406 L 80.136719 66.097656 L 77.808594 66.074219 L 75.507812 66.097656 L 73.25 66.167969 L 71.066406 66.28125 L 68.902344 66.445312 L 66.789062 66.675781 L 64.671875 66.953125 L 62.628906 67.296875 L 60.652344 67.734375 L 58.726562 68.265625 L 56.917969 68.863281 L 55.179688 69.558594 L 53.53125 70.316406 L 52.003906 71.171875 L 50.546875 72.070312 L 49.183594 73.015625 L 47.914062 73.984375 L 46.765625 75.019531 L 45.707031 76.105469 L 44.765625 77.28125 L 43.921875 78.527344 L 43.144531 79.839844 L 42.417969 81.222656 L 41.78125 82.699219 L 41.21875 84.265625 L 40.722656 85.902344 L 40.300781 87.609375 L 39.996094 89.363281 L 39.738281 91.160156 L 39.550781 93.003906 L 39.433594 94.851562 L 39.359375 96.671875 L 39.410156 98.492188 L 39.527344 100.316406 L 39.714844 102.113281 L 39.949219 103.910156 L 40.277344 105.664062 L 40.675781 107.417969 L 41.148438 109.144531 L 41.6875 110.851562 L 42.277344 112.535156 L 43.589844 115.902344 L 44.320312 117.585938 L 45.09375 119.289062 L 45.964844 120.996094 L 46.882812 122.726562 L 47.890625 124.457031 L 48.925781 126.207031 L 50.007812 128.003906 L 51.160156 129.78125 L 52.335938 131.554688 L 53.554688 133.285156 L 54.847656 134.96875 L 56.210938 136.605469 L 57.621094 138.152344 L 59.101562 139.625 L 60.628906 141.011719 L 62.253906 142.253906 L 63.945312 143.40625 L 65.707031 144.398438 L 67.539062 145.277344 L 69.445312 146.011719 L 71.417969 146.636719 L 73.460938 147.144531 L 75.578125 147.582031 L 77.714844 147.949219 L 79.878906 148.226562 L 81.992188 148.410156 L 84.109375 148.503906 L 86.222656 148.480469 L 88.316406 148.386719 L 90.429688 148.179688 L 92.546875 147.902344 L 94.613281 147.558594 L 96.660156 147.121094 L 98.65625 146.589844 L 100.605469 145.988281 L 102.535156 145.253906 L 104.414062 144.421875 L 106.246094 143.476562 L 108.011719 142.394531 L 109.703125 141.195312 L 111.324219 139.902344 L 112.851562 138.472656 L 114.332031 136.996094 L 115.71875 135.429688 L 117.035156 133.769531 L 118.28125 132.0625 L 119.410156 130.289062 L 120.441406 128.46875 L 121.382812 126.554688 L 122.230469 124.617188 L 122.933594 122.632812 L 123.542969 120.652344 L 124.0625 118.691406 L 124.460938 116.707031 L 124.765625 114.726562 L 124.953125 112.71875 L 125.074219 110.714844 L 125.097656 108.753906 L 125.050781 106.816406 L 124.90625 104.902344 L 124.71875 102.988281 L 124.4375 101.074219 L 124.085938 99.160156 L 123.617188 97.292969 L 123.074219 95.449219 L 122.464844 93.675781 L 121.757812 91.921875 L 120.960938 90.238281 L 120.066406 88.601562 L 119.078125 87.011719 L 118.023438 85.488281 L 116.894531 84.011719 L 115.695312 82.582031 L 114.449219 81.199219 L 113.132812 79.839844 L 111.792969 78.503906 L 110.429688 77.210938 L 109.019531 75.964844 L 107.585938 74.746094 L 106.105469 73.546875 L 104.625 72.394531 L 103.121094 71.308594 L 101.59375 70.292969 L 100.066406 69.347656 L 98.46875 68.472656 L 96.847656 67.667969 L 95.179688 66.90625 L 93.484375 66.238281 L 91.722656 65.636719 L 89.960938 65.105469 L 88.175781 64.644531 L 86.386719 64.277344 L 84.578125 63.976562 L 82.746094 63.746094 L 80.890625 63.585938 L 79.03125 63.46875 L 77.175781 63.445312 L 75.320312 63.46875 L 73.4375 63.5625 L 71.582031 63.722656 L 69.726562 63.953125 L 67.914062 64.230469 L 66.128906 64.597656 L 64.367188 65.0625 L 62.628906 65.613281 L 60.960938 66.257812 L 59.335938 66.996094 L 57.832031 67.78125 L 56.421875 68.589844 L 55.109375 69.441406 L 53.863281 70.316406 L 52.710938 71.238281 L 51.628906 72.207031 L 50.617188 73.222656 L 49.65625 74.285156 L 48.738281 75.414062 L 47.867188 76.613281 L 47.09375 77.855469 L 46.410156 79.195312 L 45.800781 80.578125 L 45.261719 82.03125 L 44.789062 83.507812 L 44.367188 85.027344 L 43.96875 86.597656 L 43.636719 88.210938 L 43.355469 89.847656 L 43.097656 91.53125 L 42.910156 93.214844 L 42.746094 94.917969 L 42.652344 96.648438 L 42.628906 98.402344 L 42.652344 100.152344 L 42.722656 101.929688 L 42.863281 103.726562 L 43.027344 105.546875 L 43.238281 107.347656 L 43.472656 109.144531 L 43.78125 110.921875 L 44.109375 112.671875 L 44.484375 114.425781 L 44.882812 116.15625 L 45.355469 117.859375 L 45.894531 119.542969 L 46.480469 121.179688 L 47.117188 122.773438 L 47.820312 124.339844 L 48.597656 125.863281 L 49.398438 127.335938 L 50.242188 128.765625 L 51.136719 130.128906 L 52.097656 131.441406 L 53.15625 132.710938 L 54.285156 133.910156 L 55.507812 135.0625 L 56.777344 136.167969 L 58.09375 137.230469 L 59.480469 138.195312 L 60.914062 139.097656 L 62.417969 139.972656 L 63.96875 140.78125 L 65.589844 141.5625 L 67.257812 142.277344 L 68.972656 142.921875 L 70.734375 143.476562 L 72.546875 143.960938 L 74.402344 144.375 L 76.328125 144.699219 L 78.28125 144.953125 L 80.230469 145.113281 L 82.179688 145.183594 L 84.132812 145.183594 L 86.058594 145.113281 L 88.011719 144.953125 L 89.9375 144.746094 L 91.863281 144.46875 L 93.769531 144.121094 L 95.625 143.707031 L 97.457031 143.222656 L 99.242188 142.671875 L 101.007812 142.023438 L 102.722656 141.308594 L 104.367188 140.546875 L 105.941406 139.742188 L 107.445312 138.84375 L 108.855469 137.875 L 110.171875 136.8125 L 111.417969 135.660156 L 112.617188 134.4375 L 113.746094 133.171875 L 114.800781 131.832031 L 115.765625 130.425781 L 116.660156 128.972656 L 117.457031 127.476562 L 118.210938 125.929688 L 118.890625 124.410156 L 119.480469 122.863281 L 119.996094 121.34375 L 120.394531 119.796875 L 120.722656 118.253906 L 120.960938 116.683594 L 121.101562 115.09375 L 121.171875 113.480469 L 121.125 111.84375 L 120.984375 110.207031 L 120.75 108.570312 L 120.441406 106.886719 L 120.042969 105.226562 L 119.621094 103.542969 L 119.101562 101.90625 L 118.5625 100.292969 L 117.953125 98.699219 L 117.316406 97.15625 L 116.636719 95.632812 L 115.90625 94.160156 L 115.132812 92.707031 L 114.285156 91.253906 L 113.414062 89.847656 L 112.5 88.441406 L 111.535156 87.078125 L 110.546875 85.742188 L 109.492188 84.453125 L 108.363281 83.230469 L 107.1875 82.03125 L 105.988281 80.855469 L 104.742188 79.703125 L 103.449219 78.550781 L 102.109375 77.417969 L 100.746094 76.335938 L 99.363281 75.25 L 97.953125 74.214844 L 96.519531 73.199219 L 95.085938 72.277344 L 93.601562 71.402344 L 92.074219 70.617188 L 90.5 69.925781 L 88.878906 69.304688 L 87.164062 68.75 L 85.425781 68.242188 L 83.613281 67.804688 L 81.757812 67.433594 L 79.878906 67.113281 L 78 66.859375 L 76.117188 66.652344 L 74.238281 66.511719 L 72.335938 66.445312 L 70.429688 66.46875 L 68.480469 66.628906 L 66.554688 66.882812 L 64.625 67.226562 L 62.746094 67.667969 L 60.890625 68.195312 L 59.03125 68.820312 L 57.222656 69.511719 L 55.460938 70.269531 L 53.769531 71.125 L 52.144531 72.023438 L 50.59375 72.992188 L 49.113281 74.007812 L 47.726562 75.113281 L 46.410156 76.289062 L 45.167969 77.535156 L 44.015625 78.847656 L 42.933594 80.230469 L 41.921875 81.617188 L 41.03125 83.066406 L 40.253906 84.519531 L 39.597656 86.019531 L 39.03125 87.5625 L 38.5625 89.109375 L 38.1875 90.652344 L 37.878906 92.246094 L 37.667969 93.859375 L 37.550781 95.519531 L 37.503906 97.203125 L 37.527344 98.929688 L 37.621094 100.683594 L 37.761719 102.414062 L 37.949219 104.164062 L 38.1875 105.894531 L 38.445312 107.691406 L 38.75 109.46875 L 39.125 111.265625 L 39.550781 113.019531 L 40.066406 114.769531 L 40.675781 116.476562 L 41.359375 118.183594 L 42.109375 119.890625 L 42.886719 121.597656 L 43.6875 123.300781 L 44.53125 125.007812 L 45.402344 126.691406 L 46.339844 128.351562 L 47.375 129.941406 L 48.457031 131.488281 L 49.585938 132.984375 L 50.78125 134.414062 L 52.003906 135.777344 L 53.296875 137.042969 L 54.636719 138.21875 L 56.023438 139.304688 L 57.457031 140.296875 L 58.914062 141.21875 L 60.417969 142.070312 L 61.921875 142.808594 L 63.472656 143.429688 L 65.023438 143.984375 L 66.601562 144.445312 L 68.222656 144.835938 L 69.84375 145.160156 L 71.511719 145.390625 L 73.203125 145.527344 L 74.917969 145.597656 L 76.636719 145.574219 L 78.375 145.484375 L 80.089844 145.320312 L 81.828125 145.113281 L 83.589844 144.835938 L 85.355469 144.492188 L 87.164062 144.121094 L 89.019531 143.707031 L 90.855469 143.246094 L 92.710938 142.738281 L 94.566406 142.164062 L 96.375 141.539062 L 98.1875 140.847656 L 99.996094 140.132812 L 101.78125 139.351562 L 103.566406 138.496094 L 105.378906 137.550781 L 107.164062 136.558594 L 108.878906 135.476562 L 110.570312 134.324219 L 112.242188 133.101562 L 113.910156 131.832031 L 115.578125 130.472656 L 117.199219 129.089844 L 118.820312 127.660156 L 120.394531 126.183594 L 121.945312 124.6875 L 123.425781 123.164062 L 124.882812 121.597656 L 126.269531 120.003906 L 127.632812 118.367188 L 128.949219 116.683594 L 130.195312 114.980469 L 131.417969 113.25 L 132.59375 111.519531 L 133.722656 109.8125 L 134.847656 108.109375 L 136 106.402344 L 137.152344 104.71875 L 138.304688 103.058594 L 139.457031 101.445312 L 140.605469 99.875 L 141.804688 98.332031 L 143.027344 96.832031 L 144.296875 95.335938 L 145.566406 93.859375 L 146.882812 92.382812 L 148.246094 90.882812 L 149.65625 89.410156 L 151.089844 87.933594 L 152.570312 86.480469 L 154.074219 85.074219 L 155.578125 83.738281 L 157.105469 82.46875 L 158.632812 81.269531 L 160.183594 80.140625 L 161.757812 79.078125 L 163.355469 78.085938 L 164.976562 77.164062 L 166.601562 76.335938 L 168.246094 75.574219 L 169.960938 74.859375 L 171.699219 74.167969 L 173.484375 73.523438 L 175.296875 72.921875 L 177.105469 72.371094 L 178.9375 71.886719 L 180.75 71.449219 L 182.558594 71.078125 L 184.320312 70.777344 L 186.082031 70.546875 L 187.847656 70.363281 L 189.609375 70.25 L 191.371094 70.179688 L 193.109375 70.179688 L 194.824219 70.25 L 196.496094 70.363281 L 198.140625 70.523438 L 199.761719 70.753906 L 201.359375 71.03125 L 202.910156 71.355469 L 204.414062 71.746094 L 205.871094 72.207031 L 207.28125 72.714844 L 208.621094 73.292969 L 209.914062 73.914062 L 211.136719 74.582031 L 212.3125 75.320312 L 213.4375 76.128906 L 214.519531 76.980469 L 215.554688 77.902344 L 216.566406 78.847656 L 217.550781 79.839844 L 218.515625 80.878906 L 219.480469 81.960938 L 220.417969 83.089844 L 221.335938 84.289062 L 222.183594 85.511719 L 222.980469 86.804688 L 223.710938 88.09375 L 224.414062 89.410156 L 225.074219 90.769531 L 225.707031 92.128906 L 226.339844 93.511719 L 226.953125 94.917969 L 227.539062 96.394531 L 228.082031 97.871094 L 228.574219 99.390625 L 229.019531 100.960938 L 229.421875 102.527344 L 229.75 104.117188 L 229.984375 105.710938 L 230.148438 107.324219 L 230.242188 108.914062 L 230.265625 110.550781 L 230.195312 112.1875 L 230.03125 113.824219 L 229.796875 115.507812 L 229.421875 117.167969 L 228.972656 118.851562 L 228.410156 120.558594 L 227.75 122.289062 L 227.023438 123.992188 L 226.222656 125.699219 L 225.378906 127.359375 L 224.460938 128.972656 L 223.472656 130.542969 L 222.394531 132.0625 L 221.265625 133.539062 L 220.089844 134.96875 L 218.84375 136.375 L 217.550781 137.734375 L 216.210938 139.074219 L 214.824219 140.363281 L 213.414062 141.632812 L 211.910156 142.855469 L 210.40625 144.007812 L 208.855469 145.089844 L 207.28125 146.082031 L 205.707031 146.980469 L 204.085938 147.8125 L 202.417969 148.59375 L 200.726562 149.308594 L 198.960938 149.980469 L 197.175781 150.601562 L 195.320312 151.199219 L 193.460938 151.777344 L 191.628906 152.308594 L 189.796875 152.769531 L 188.011719 153.136719 L 186.246094 153.414062 L 184.484375 153.574219 L 182.722656 153.597656 L 180.960938 153.507812 L 179.21875 153.300781 L 177.503906 153.023438 L 175.789062 152.652344 L 174.121094 152.214844 L 172.5 151.683594 L 170.925781 151.0625 L 169.375 150.371094 L 167.871094 149.5625 L 166.414062 148.664062 L 165.003906 147.671875 L 163.617188 146.589844 L 162.253906 145.367188 L 160.9375 144.054688 L 159.714844 142.601562 L 158.5625 141.03125 L 157.503906 139.371094 L 156.472656 137.597656 L 155.53125 135.730469 L 154.636719 133.839844 L 153.863281 131.902344 L 153.15625 129.941406 L 152.523438 127.9375 L 151.933594 125.90625 L 151.371094 123.832031 L 150.878906 121.757812 L 150.429688 119.660156 L 150.054688 117.539062 L 149.726562 115.417969 L 149.46875 113.273438 L 149.304688 111.128906 L 149.183594 108.960938 L 149.160156 106.792969 L 149.230469 104.601562 L 149.398438 102.457031 L 149.585938 100.359375 L 149.84375 98.355469 L 150.148438 96.371094 L 150.5 94.457031 L 150.902344 92.566406 L 151.371094 90.722656 L 151.886719 88.925781 L 152.453125 87.148438 L 153.085938 85.417969 L 153.792969 83.738281 L 154.589844 82.101562 L 155.484375 80.507812 L 156.472656 78.988281 L 157.527344 77.535156 L 158.65625 76.152344 L 159.808594 74.882812 L 161.054688 73.683594 L 162.347656 72.578125 L 163.734375 71.515625 L 165.191406 70.546875 L 166.695312 69.648438 L 168.269531 68.84375 L 169.867188 68.105469 L 171.535156 67.457031 L 173.226562 66.90625 L 174.941406 66.445312 L 176.683594 66.050781 L 178.445312 65.773438 L 180.183594 65.589844 L 181.96875 65.476562 L 183.734375 65.453125 L 185.519531 65.523438 L 187.304688 65.660156 L 189.066406 65.867188 L 190.832031 66.121094 L 192.570312 66.445312 L 194.332031 66.8125 L 196.070312 67.25 L 197.835938 67.710938 L 199.574219 68.265625 L 201.289062 68.84375 L 202.980469 69.488281 L 204.625 70.203125 L 206.222656 70.941406 L 207.773438 71.746094 L 209.28125 72.601562 L 210.738281 73.5 L 212.125 74.421875 L 213.460938 75.367188 L 214.730469 76.359375 L 215.953125 77.371094 L 217.152344 78.433594 L 218.28125 79.539062 L 219.410156 80.671875 L 220.488281 81.847656 L 221.5 83.089844 L 222.488281 84.382812 L 223.378906 85.695312 L 224.25 87.035156 L 225.097656 88.417969 L 225.917969 89.800781 L 226.695312 91.207031 L 227.398438 92.636719 L 228.058594 94.089844 L 228.644531 95.542969 L 229.183594 97.015625 L 229.65625 98.515625 L 230.054688 99.992188 L 230.382812 101.492188 L 230.640625 102.964844 L 230.808594 104.464844 L 230.902344 105.917969 L 230.925781 107.394531 L 230.855469 108.867188 L 230.714844 110.34375 L 230.5 111.84375 L 230.171875 113.363281 L 229.75 114.886719 L 229.234375 116.453125 L 228.597656 118.046875 L 227.871094 119.660156 L 227.070312 121.296875 L 226.199219 122.957031 L 225.238281 124.59375 L 224.226562 126.230469 L 223.144531 127.820312 L 222.015625 129.367188 L 220.820312 130.886719 L 219.574219 132.363281 L 218.304688 133.839844 L 216.988281 135.269531 L 215.648438 136.675781 L 214.261719 138.035156 L 212.804688 139.351562 L 211.347656 140.59375 L 209.84375 141.792969 L 208.316406 142.921875 L 206.8125 143.960938 L 205.285156 144.929688 L 203.710938 145.804688 L 202.136719 146.613281 L 200.511719 147.351562 L 198.84375 148.019531 L 197.152344 148.59375 L 195.414062 149.125 L 193.675781 149.585938 L 191.863281 149.980469 L 190.03125 150.300781 L 188.175781 150.554688 L 186.316406 150.738281 L 184.460938 150.855469 L 182.605469 150.878906 L 180.726562 150.855469 L 178.84375 150.738281 L 176.964844 150.554688 L 175.15625 150.347656 L 173.390625 150.046875 L 171.652344 149.679688 L 169.984375 149.21875 L 168.363281 148.6875 L 166.835938 148.042969 L 165.402344 147.328125 L 164.039062 146.519531 L 162.722656 145.644531 L 161.5 144.699219 L 160.324219 143.660156 L 159.242188 142.53125 L 158.28125 141.355469 L 157.363281 140.085938 L 156.566406 138.726562 L 155.835938 137.273438 L 155.203125 135.730469 L 154.660156 134.09375 L 154.191406 132.363281 L 153.769531 130.566406 L 153.390625 128.699219 L 153.039062 126.785156 L 152.734375 124.824219 L 152.476562 122.816406 L 152.265625 120.765625 L 152.074219 118.667969 L 151.957031 116.546875 L 151.910156 114.425781 L 151.910156 112.328125 L 151.980469 110.253906 L 152.097656 108.199219 L 152.289062 106.171875 L 152.546875 104.117188 L 152.851562 102.089844 L 153.25 100.0625 L 153.746094 98.007812 L 154.332031 95.980469 L 155.015625 93.949219 L 155.765625 91.945312 L 156.589844 89.984375 L 157.457031 88.046875 L 158.375 86.15625 L 159.363281 84.3125 L 160.417969 82.539062 L 161.546875 80.808594 L 162.722656 79.171875 L 163.921875 77.625 L 165.144531 76.175781 L 166.386719 74.835938 L 167.65625 73.589844 L 168.925781 72.484375 L 170.195312 71.46875 L 171.488281 70.546875 L 172.804688 69.765625 L 174.121094 69.050781 L 175.484375 68.402344 L 176.847656 67.875 L 178.257812 67.414062 L 179.691406 67.019531 L 181.171875 66.699219 L 182.699219 66.398438 L 184.25 66.167969 L 185.847656 65.984375 L 187.492188 65.867188 L 189.160156 65.820312 L 190.808594 65.867188 L 192.453125 65.984375 L 194.027344 66.214844 L 195.578125 66.535156 L 197.082031 66.953125 L 198.539062 67.433594 L 199.996094 67.964844 L 201.382812 68.566406 L 202.769531 69.234375 L 204.109375 69.949219 L 205.402344 70.710938 L 206.695312 71.515625 L 207.941406 72.394531 L 209.136719 73.316406 L 210.335938 74.285156 L 211.464844 75.320312 L 212.570312 76.40625 L 213.628906 77.558594 L 214.636719 78.734375 L 215.648438 79.933594 L 216.636719 81.132812 L 217.621094 82.351562 L 219.597656 84.796875 L 220.605469 86.019531 L 221.59375 87.289062 L 222.535156 88.578125 L 223.449219 89.894531 L 224.273438 91.230469 L 225.074219 92.589844 L 225.800781 93.996094 L 226.484375 95.425781 L 227.09375 96.878906 L 227.632812 98.378906 L 228.105469 99.875 L 228.480469 101.398438 L 228.761719 102.941406 L 228.949219 104.511719 L 229.066406 106.078125 L 229.042969 107.691406 L 228.925781 109.328125 L 228.691406 110.988281 L 228.363281 112.671875 L 227.964844 114.355469 L 227.46875 116.0625 L 226.929688 117.769531 L 226.339844 119.476562 L 225.683594 121.179688 L 224.980469 122.910156 L 224.203125 124.617188 L 223.378906 126.324219 L 222.511719 127.984375 L 221.570312 129.621094 L 220.605469 131.210938 L 219.574219 132.734375 L 218.492188 134.207031 L 217.363281 135.613281 L 216.164062 136.953125 L 214.917969 138.242188 L 213.652344 139.417969 L 212.3125 140.527344 L 210.949219 141.515625 L 209.539062 142.417969 L 208.105469 143.175781 L 206.648438 143.847656 L 205.144531 144.445312 L 203.617188 144.976562 L 202.015625 145.414062 L 200.417969 145.804688 L 198.773438 146.128906 L 197.105469 146.40625 L 195.390625 146.636719 L 193.605469 146.84375 L 191.769531 147.003906 L 189.867188 147.144531 L 187.917969 147.257812 L 185.941406 147.328125 L 183.921875 147.351562 L 181.875 147.304688 L 179.832031 147.234375 L 177.859375 147.074219 L 175.953125 146.820312 L 174.097656 146.496094 L 172.3125 146.082031 L 170.59375 145.597656 L 168.925781 145.066406 L 167.351562 144.445312 L 165.917969 143.753906 L 164.578125 142.96875 L 163.332031 142.117188 L 162.183594 141.171875 L 161.125 140.109375 L 160.160156 138.957031 L 159.292969 137.710938 L 158.539062 136.351562 L 157.859375 134.898438 L 157.246094 133.355469 L 156.683594 131.765625 L 156.1875 130.128906 L 155.71875 128.445312 L 155.296875 126.714844 L 154.917969 124.9375 L 154.589844 123.164062 L 154.332031 121.367188 L 154.144531 119.589844 L 153.980469 117.816406 L 153.886719 116.015625 L 153.816406 114.21875 L 153.816406 112.394531 L 153.886719 110.574219 L 154.003906 108.730469 L 154.167969 106.839844 L 154.378906 104.949219 L 154.683594 102.988281 L 155.085938 101.007812 L 155.578125 99.046875 L 156.1875 97.085938 L 156.847656 95.195312 L 157.550781 93.398438 L 158.328125 91.644531 L 159.148438 89.960938 L 160.113281 88.324219 L 161.148438 86.757812 L 162.230469 85.234375 L 163.355469 83.757812 L 164.53125 82.332031 L 165.753906 80.921875 L 167.046875 79.5625 L 168.410156 78.273438 L 169.84375 77.050781 L 171.300781 75.921875 L 172.78125 74.929688 L 174.261719 74.03125 L 175.742188 73.269531 L 177.222656 72.625 L 178.703125 72.070312 L 180.183594 71.65625 L 181.640625 71.308594 L 183.074219 71.054688 L 184.53125 70.871094 L 185.988281 70.753906 L 187.46875 70.710938 L 188.972656 70.734375 L 190.5 70.800781 L 192.027344 70.964844 L 193.53125 71.171875 L 195.0625 71.449219 L 196.566406 71.746094 L 198.070312 72.117188 L 199.550781 72.484375 L 201.007812 72.898438 L 202.464844 73.339844 L 203.875 73.777344 L 205.238281 74.238281 L 206.578125 74.722656 L 207.894531 75.230469 L 209.160156 75.804688 L 210.40625 76.40625 L 211.605469 77.097656 L 212.757812 77.835938 L 213.863281 78.59375 L 214.894531 79.378906 L 215.90625 80.1875 L 216.824219 81.039062 L 217.691406 81.890625 L 218.515625 82.769531 L 219.339844 83.667969 L 220.136719 84.542969 L 220.914062 85.441406 L 221.710938 86.363281 L 222.464844 87.308594 L 223.167969 88.277344 L 223.828125 89.246094 L 224.484375 90.238281 L 225.097656 91.253906 L 225.730469 92.289062 L 226.339844 93.375 L 226.929688 94.457031 L 227.492188 95.609375 L 228.035156 96.765625 L 228.527344 97.960938 L 228.949219 99.160156 L 229.351562 100.382812 L 229.703125 101.605469 L 230.007812 102.828125 L 230.265625 104.074219 L 230.5 105.292969 L 230.691406 106.515625 L 230.832031 107.761719 L 230.925781 109.007812 L 230.949219 110.273438 L 230.925781 111.566406 L 230.855469 112.878906 L 230.691406 114.21875 L 230.476562 115.554688 L 230.171875 116.890625 L 229.820312 118.207031 L 229.375 119.542969 L 228.878906 120.859375 L 228.316406 122.171875 L 227.65625 123.488281 L 226.929688 124.824219 L 226.152344 126.113281 L 225.285156 127.429688 L 224.367188 128.742188 L 223.378906 130.011719 L 222.324219 131.28125 L 221.195312 132.523438 L 219.972656 133.769531 L 218.703125 135.015625 L 217.386719 136.238281 L 216 137.4375 L 214.589844 138.589844 L 213.15625 139.71875 L 211.675781 140.78125 L 210.171875 141.792969 L 208.597656 142.761719 L 207 143.636719 L 205.332031 144.445312 L 203.640625 145.230469 L 201.898438 145.921875 L 200.113281 146.589844 L 198.304688 147.1875 L 196.402344 147.742188 L 194.472656 148.226562 L 192.5 148.664062 L 190.523438 149.011719 L 188.550781 149.289062 L 186.53125 149.496094 L 184.484375 149.609375 L 182.441406 149.632812 L 180.394531 149.585938 L 178.398438 149.449219 L 176.425781 149.21875 L 174.519531 148.894531 L 172.664062 148.480469 L 170.855469 147.996094 L 169.160156 147.441406 L 167.5625 146.773438 L 166.082031 146.058594 L 164.695312 145.253906 L 163.402344 144.351562 L 162.207031 143.363281 L 161.125 142.253906 L 160.160156 141.078125 L 159.265625 139.8125 L 158.46875 138.425781 L 157.691406 136.953125 L 156.964844 135.382812 L 156.257812 133.699219 L 155.578125 131.925781 L 154.941406 130.058594 L 154.378906 128.144531 L 153.863281 126.183594 L 153.414062 124.203125 L 153.039062 122.21875 L 152.734375 120.257812 L 152.5 118.320312 L 152.3125 116.386719 L 152.171875 114.425781 L 152.097656 112.417969 L 152.074219 110.414062 L 152.148438 108.339844 L 152.265625 106.261719 L 152.429688 104.1875 L 152.664062 102.089844 L 152.992188 100.015625 L 153.390625 97.960938 L 153.910156 95.980469 L 154.519531 94.019531 L 155.25 92.082031 L 156.023438 90.191406 L 156.871094 88.347656 L 157.738281 86.550781 L 158.703125 84.796875 L 159.738281 83.113281 L 160.890625 81.476562 L 162.085938 79.910156 L 163.332031 78.410156 L 164.671875 77.027344 L 166.082031 75.691406 L 167.5625 74.445312 L 169.113281 73.246094 L 170.6875 72.164062 L 172.3125 71.195312 L 173.980469 70.316406 L 175.695312 69.558594 L 177.410156 68.886719 L 179.148438 68.3125 L 180.9375 67.828125 L 182.722656 67.457031 L 184.507812 67.160156 L 186.269531 66.972656 L 188.035156 66.859375 L 189.796875 66.835938 L 191.558594 66.90625 L 193.296875 67.042969 L 194.96875 67.25 L 196.589844 67.527344 L 198.140625 67.898438 L 199.644531 68.335938 L 201.125 68.863281 L 202.558594 69.464844 L 203.921875 70.109375 L 205.238281 70.777344 L 206.53125 71.492188 L 207.75 72.253906 L 208.949219 73.039062 L 210.125 73.867188 L 211.253906 74.722656 L 212.359375 75.621094 L 213.4375 76.566406 L 215.601562 78.550781 L 216.660156 79.539062 L 217.667969 80.554688 L 218.632812 81.59375 L 219.574219 82.652344 L 220.488281 83.738281 L 221.335938 84.84375 L 222.160156 85.949219 L 222.863281 87.058594 L 223.523438 88.1875 L 224.109375 89.316406 L 224.625 90.445312 L 225.097656 91.597656 L 225.519531 92.75 L 225.894531 93.929688 L 226.222656 95.125 L 226.507812 96.324219 L 226.742188 97.546875 L 226.90625 98.792969 L 227 100.0625 L 227.023438 101.375 L 226.976562 102.6875 L 226.882812 104.027344 L 226.765625 105.363281 L 226.601562 106.722656 L 226.460938 108.109375 L 226.269531 109.46875 L 226.105469 110.828125 L 225.894531 112.210938 L 225.683594 113.570312 L 225.449219 114.933594 L 225.191406 116.292969 L 224.90625 117.652344 L 224.578125 119.011719 L 224.203125 120.375 L 223.78125 121.757812 L 223.332031 123.117188 L 222.816406 124.476562 L 222.253906 125.816406 L 221.640625 127.128906 L 220.984375 128.421875 L 220.253906 129.6875 L 219.503906 130.910156 L 218.703125 132.085938 L 217.882812 133.238281 L 217.035156 134.347656 L 216.140625 135.40625 L 215.203125 136.421875 L 214.238281 137.390625 L 213.203125 138.289062 L 212.148438 139.121094 L 211.019531 139.902344 L 209.84375 140.664062 L 208.597656 141.378906 L 207.351562 142.046875 L 206.035156 142.714844 L 204.648438 143.363281 L 203.238281 143.960938 L 201.757812 144.515625 L 200.277344 145.023438 L 198.75 145.460938 L 197.199219 145.875 L 195.625 146.199219 L 194.027344 146.496094 L 192.40625 146.726562 L 190.785156 146.914062 L 189.113281 147.050781 L 187.46875 147.144531 L 185.800781 147.167969 L 184.15625 147.167969 L 182.535156 147.097656 L 180.9375 146.980469 L 179.339844 146.820312 L 177.785156 146.613281 L 176.257812 146.359375 L 174.777344 146.058594 L 173.34375 145.738281 L 171.933594 145.320312 L 170.570312 144.859375 L 169.28125 144.308594 L 168.035156 143.683594 L 166.882812 142.945312 L 165.824219 142.117188 L 164.789062 141.171875 L 163.828125 140.15625 L 162.910156 139.074219 L 162.015625 137.921875 L 161.171875 136.699219 L 160.371094 135.40625 L 159.644531 134.09375 L 158.960938 132.753906 L 158.304688 131.394531 L 157.667969 130.035156 L 157.058594 128.699219 L 156.496094 127.335938 L 155.953125 125.953125 L 155.460938 124.523438 L 155.039062 123.046875 L 154.660156 121.480469 L 154.332031 119.820312 L 154.074219 118.046875 L 153.886719 116.175781 L 153.746094 114.265625 L 153.699219 112.328125 L 153.722656 110.4375 L 153.816406 108.613281 L 153.957031 106.839844 L 154.144531 105.109375 L 154.378906 103.472656 L 154.660156 101.859375 L 154.988281 100.292969 L 155.367188 98.746094 L 155.789062 97.179688 L 156.257812 95.589844 L 156.800781 93.929688 L 157.386719 92.246094 L 158.070312 90.515625 L 158.820312 88.808594 L 159.691406 87.171875 L 160.628906 85.605469 L 161.664062 84.082031 L 162.746094 82.652344 L 163.875 81.316406 L 165.027344 80.023438 L 166.246094 78.824219 L 167.492188 77.671875 L 168.832031 76.589844 L 170.21875 75.527344 L 171.699219 74.492188 L 173.226562 73.523438 L 174.800781 72.601562 L 176.425781 71.746094 L 178.070312 70.984375 L 179.738281 70.316406 L 181.40625 69.742188 L 183.097656 69.28125 L 184.742188 68.957031 L 186.339844 68.726562 L 187.964844 68.589844 L 189.5625 68.519531 L 191.160156 68.542969 L 192.78125 68.632812 L 194.378906 68.796875 L 195.976562 69.050781 L 197.550781 69.417969 L 199.148438 69.855469 L 200.703125 70.363281 L 202.207031 70.964844 L 203.710938 71.632812 L 205.167969 72.371094 L 206.601562 73.175781 L 207.988281 74.074219 L 209.351562 75 L 210.667969 75.988281 L 211.933594 77.027344 L 213.203125 78.085938 L 214.472656 79.195312 L 215.695312 80.347656 L 216.894531 81.523438 L 218.023438 82.769531 L 219.125 84.011719 L 220.207031 85.328125 L 221.21875 86.640625 L 222.136719 88.003906 L 223.003906 89.386719 L 223.78125 90.792969 L 224.484375 92.199219 L 225.144531 93.605469 L 225.753906 95.058594 L 226.292969 96.535156 L 226.8125 98.054688 L 227.257812 99.601562 L 227.632812 101.144531 L 227.917969 102.710938 L 228.105469 104.28125 L 228.199219 105.871094 L 228.246094 107.460938 L 228.199219 109.097656 L 228.082031 110.757812 L 227.917969 112.464844 L 227.65625 114.171875 L 227.328125 115.945312 L 226.90625 117.722656 L 226.414062 119.542969 L 225.847656 121.367188 L 225.214844 123.1875 L 224.53125 124.984375 L 223.78125 126.761719 L 222.910156 128.488281 L 221.945312 130.195312 L 220.890625 131.902344 L 219.761719 133.585938 L 218.5625 135.246094 L 217.292969 136.835938 L 215.953125 138.359375 L 214.566406 139.835938 L 213.085938 141.21875 L 211.582031 142.53125 L 210.054688 143.730469 L 208.527344 144.835938 L 206.976562 145.828125 L 205.378906 146.726562 L 203.757812 147.535156 L 202.113281 148.226562 L 200.464844 148.828125 L 198.796875 149.332031 L 197.105469 149.773438 L 195.390625 150.117188 L 193.675781 150.417969 L 191.933594 150.671875 L 190.171875 150.878906 L 188.433594 150.992188 L 186.71875 151.0625 L 185.003906 151.0625 L 183.308594 150.96875 L 181.59375 150.808594 L 179.902344 150.53125 L 178.234375 150.1875 L 176.589844 149.75 L 174.964844 149.195312 L 173.34375 148.574219 L 171.746094 147.878906 L 170.195312 147.121094 L 168.691406 146.335938 L 167.28125 145.507812 L 165.917969 144.652344 L 164.625 143.753906 L 163.332031 142.808594 L 162.085938 141.816406 L 160.867188 140.800781 L 159.714844 139.695312 L 158.609375 138.542969 L 157.527344 137.34375 L 156.496094 136.050781 L 155.507812 134.691406 L 154.566406 133.261719 L 153.722656 131.789062 L 152.898438 130.289062 L 152.148438 128.765625 L 151.417969 127.222656 L 150.640625 125.652344 L 149.867188 124.085938 L 149.089844 122.542969 L 148.316406 120.996094 L 147.539062 119.476562 L 146.8125 117.929688 L 146.011719 116.386719 L 145.191406 114.839844 L 144.296875 113.320312 L 143.378906 111.773438 L 142.464844 110.253906 L 141.546875 108.753906 L 140.582031 107.253906 L 139.574219 105.800781 L 138.515625 104.371094 L 137.410156 102.964844 L 136.304688 101.605469 L 135.179688 100.269531 L 134.050781 98.976562 L 132.898438 97.710938 L 131.722656 96.441406 L 130.523438 95.171875 L 129.328125 93.90625 L 128.082031 92.636719 L 126.8125 91.367188 L 125.519531 90.101562 L 122.933594 87.5625 L 121.617188 86.320312 L 120.277344 85.097656 L 118.9375 83.921875 L 117.621094 82.792969 L 116.257812 81.683594 L 114.894531 80.625 L 113.507812 79.585938 L 112.121094 78.570312 L 110.734375 77.582031 L 109.351562 76.589844 L 107.917969 75.621094 L 106.457031 74.675781 L 105.023438 73.707031 L 103.613281 72.785156 L 102.207031 71.863281 L 100.796875 70.964844 L 99.386719 70.085938 L 97.976562 69.234375 L 96.566406 68.425781 L 95.132812 67.667969 L 93.675781 66.953125 L 92.191406 66.328125 L 90.6875 65.773438 L 89.136719 65.269531 L 87.5625 64.828125 L 85.964844 64.4375 L 84.34375 64.117188 L 82.699219 63.839844 L 81.054688 63.585938 L 79.386719 63.378906 L 77.691406 63.214844 L 76.023438 63.101562 L 74.355469 63.03125 L 72.6875 63.03125 L 71.019531 63.078125 L 69.347656 63.171875 L 67.703125 63.285156 L 66.105469 63.46875 L 64.484375 63.675781 L 62.886719 63.953125 L 61.289062 64.253906 L 59.714844 64.597656 L 58.210938 64.96875 L 56.707031 65.359375 L 55.25 65.820312 L 53.816406 66.304688 L 52.429688 66.859375 L 51.066406 67.433594 L 49.726562 68.058594 L 48.457031 68.75 L 47.234375 69.511719 L 46.082031 70.316406 L 44.953125 71.195312 L 43.898438 72.117188 L 42.863281 73.109375 L 41.875 74.144531 L 40.984375 75.230469 L 40.136719 76.359375 L 39.382812 77.558594 L 38.726562 78.78125 L 38.140625 80.070312 L 37.621094 81.386719 L 37.152344 82.722656 L 36.777344 84.105469 L 36.445312 85.511719 L 36.210938 86.988281 L 36.046875 88.507812 L 35.929688 90.03125 L 35.882812 91.574219 L 35.882812 93.144531 L 35.953125 94.734375 L 36.09375 96.371094 L 36.28125 98.054688 L 36.515625 99.808594 L 36.800781 101.582031 L 37.152344 103.402344 L 37.550781 105.273438 L 38.023438 107.140625 L 38.5625 109.054688 L 39.171875 110.96875 L 39.855469 112.902344 L 40.652344 114.839844 L 41.546875 116.730469 L 42.535156 118.597656 L 43.542969 120.441406 L 44.625 122.265625 L 45.777344 124.015625 L 47.023438 125.722656 L 48.339844 127.359375 L 49.726562 128.882812 L 51.207031 130.359375 L 52.734375 131.765625 L 54.332031 133.125 L 56.023438 134.460938 L 57.714844 135.753906 L 59.457031 137.019531 L 61.242188 138.195312 L 63.050781 139.304688 L 64.882812 140.316406 L 66.71875 141.261719 L 68.574219 142.070312 L 70.429688 142.761719 L 72.359375 143.316406 L 74.332031 143.777344 L 76.328125 144.097656 L 78.351562 144.332031 L 80.394531 144.445312 L 82.488281 144.492188 L 84.601562 144.421875 L 86.71875 144.285156 L 88.832031 144.054688 L 90.902344 143.730469 L 92.945312 143.339844 L 94.964844 142.855469 L 97.011719 142.277344 L 99.054688 141.632812 L 101.054688 140.917969 L 103.003906 140.132812 L 104.882812 139.257812 L 106.71875 138.289062 L 108.480469 137.230469 L 110.171875 136.097656 L 111.769531 134.921875 L 113.25 133.679688 L 114.636719 132.410156 L 115.953125 131.117188 L 117.152344 129.828125 L 118.28125 128.511719 L 119.3125 127.152344 L 120.253906 125.792969 L 121.078125 124.386719 L 121.828125 122.957031 L 122.488281 121.527344 L 123.050781 120.050781 L 123.542969 118.53125 L 123.945312 116.984375 L 124.296875 115.441406 L 124.554688 113.871094 L 124.71875 112.304688 L 124.835938 110.734375 L 124.859375 109.191406 L 124.835938 107.648438 L 124.742188 106.078125 L 124.601562 104.511719 L 124.390625 102.921875 L 124.085938 101.328125 L 123.734375 99.738281 L 123.308594 98.171875 L 122.863281 96.601562 L 122.347656 95.082031 L 121.804688 93.605469 L 121.171875 92.199219 L 120.464844 90.839844 L 119.667969 89.523438 L 118.820312 88.300781 L 117.90625 87.148438 L 116.917969 86.042969 L 115.859375 84.980469 L 114.730469 83.945312 L 113.53125 82.929688 L 112.3125 81.914062 L 111.066406 80.878906 L 109.773438 79.863281 L 108.480469 78.824219 L 107.164062 77.8125 L 105.824219 76.84375 L 104.460938 75.921875 L 103.074219 75.066406 L 101.640625 74.261719 L 100.183594 73.5 L 98.703125 72.785156 L 97.175781 72.09375 L 95.625 71.46875 L 94.050781 70.847656 L 92.476562 70.269531 L 90.878906 69.695312 L 89.277344 69.09375 L 87.65625 68.519531 L 86.011719 67.964844 L 84.34375 67.457031 L 82.675781 66.996094 L 80.960938 66.605469 L 79.265625 66.304688 L 77.550781 66.121094 L 75.835938 66.027344 L 74.097656 66.050781 L 72.382812 66.144531 L 70.640625 66.304688 L 68.949219 66.511719 L 67.304688 66.765625 L 65.660156 67.089844 L 64.0625 67.433594 L 62.488281 67.804688 L 60.9375 68.195312 L 59.410156 68.632812 L 57.902344 69.140625 L 56.421875 69.742188 L 55.011719 70.386719 L 53.648438 71.125 L 52.335938 71.929688 L 51.066406 72.808594 L 49.84375 73.753906 L 48.691406 74.746094 L 47.609375 75.804688 L 46.625 76.933594 L 45.730469 78.066406 L 44.882812 79.261719 L 44.132812 80.460938 L 43.425781 81.707031 L 42.816406 83 L 42.277344 84.335938 L 41.828125 85.671875 L 41.429688 87.058594 L 41.101562 88.464844 L 40.792969 89.914062 L 40.558594 91.414062 L 40.371094 92.9375 L 40.230469 94.550781 L 40.136719 96.210938 L 40.066406 97.941406 L 40.019531 99.761719 L 40.042969 101.628906 L 40.113281 103.566406 L 40.277344 105.527344 L 40.535156 107.507812 L 40.914062 109.515625 L 41.359375 111.496094 L 41.921875 113.457031 L 42.558594 115.417969 L 43.308594 117.355469 L 44.109375 119.265625 L 45.023438 121.15625 L 46.011719 123.003906 L 47.117188 124.777344 L 48.339844 126.507812 L 49.65625 128.191406 L 51.042969 129.828125 L 52.523438 131.394531 L 54.097656 132.917969 L 55.71875 134.371094 L 57.433594 135.753906 L 59.242188 137.042969 L 61.148438 138.265625 L 63.121094 139.394531 L 65.121094 140.457031 L 67.164062 141.425781 L 69.253906 142.300781 L 71.394531 143.0625 L 73.625 143.707031 L 75.882812 144.238281 L 78.164062 144.675781 L 80.464844 144.976562 L 82.769531 145.160156 L 85.046875 145.253906 L 87.351562 145.230469 L 89.65625 145.089844 L 91.980469 144.835938 L 94.285156 144.46875 L 96.613281 144.007812 L 98.890625 143.429688 L 101.101562 142.738281 L 103.261719 141.976562 L 105.308594 141.125 L 107.28125 140.203125 L 109.160156 139.210938 L 110.972656 138.152344 L 112.664062 136.996094 L 114.285156 135.777344 L 115.835938 134.484375 L 117.292969 133.148438 L 118.65625 131.71875 L 119.902344 130.265625 L 121.007812 128.742188 L 121.992188 127.199219 L 122.886719 125.632812 L 123.640625 124.015625 L 124.296875 122.378906 L 124.859375 120.695312 L 125.308594 119.011719 L 125.660156 117.308594 L 125.917969 115.578125 L 126.082031 113.847656 L 126.152344 112.144531 L 126.152344 110.484375 L 126.035156 108.84375 L 125.847656 107.277344 L 125.589844 105.710938 L 125.261719 104.1875 L 124.882812 102.667969 L 124.460938 101.121094 L 124.015625 99.53125 L 123.496094 97.941406 L 122.933594 96.324219 L 122.300781 94.710938 L 121.640625 93.144531 L 120.914062 91.597656 L 120.136719 90.101562 L 119.339844 88.625 L 118.515625 87.195312 L 117.667969 85.789062 L 116.800781 84.453125 L 115.882812 83.160156 L 114.894531 81.914062 L 113.863281 80.691406 L 112.78125 79.539062 L 111.652344 78.410156 L 110.453125 77.351562 L 109.230469 76.335938 L 107.964844 75.414062 L 106.648438 74.515625 L 105.308594 73.683594 L 103.945312 72.875 L 102.535156 72.140625 L 101.125 71.449219 L 99.667969 70.777344 L 98.210938 70.15625 L 96.753906 69.578125 L 95.273438 69.003906 L 93.769531 68.472656 L 92.242188 67.988281 L 90.710938 67.550781 L 89.136719 67.136719 L 87.5625 66.765625 L 85.988281 66.445312 L 84.390625 66.144531 L 82.792969 65.890625 L 81.171875 65.683594 L 79.550781 65.5 L 77.878906 65.382812 L 76.234375 65.269531 L 74.589844 65.222656 L 72.945312 65.199219 L 71.300781 65.222656 L 69.65625 65.292969 L 67.988281 65.40625 L 66.339844 65.566406 L 64.695312 65.773438 L 63.027344 66.050781 L 61.359375 66.375 L 59.714844 66.765625 L 58.046875 67.203125 L 56.375 67.6875 L 54.707031 68.242188 L 53.039062 68.886719 L 51.441406 69.601562 L 49.84375 70.410156 L 48.339844 71.285156 L 46.882812 72.253906 L 45.519531 73.316406 L 44.226562 74.445312 L 43.027344 75.644531 L 41.898438 76.890625 L 40.867188 78.179688 L 39.996094 79.496094 L 39.21875 80.832031 L 38.585938 82.191406 L 38.046875 83.621094 L 37.597656 85.097656 L 37.246094 86.640625 L 36.964844 88.277344 L 36.777344 89.960938 L 36.707031 91.691406 L 36.730469 93.445312 L 36.847656 95.265625 L 37.035156 97.15625 L 37.316406 99.160156 L 37.644531 101.214844 L 38.070312 103.335938 L 38.585938 105.527344 L 39.195312 107.738281 L 39.925781 109.976562 L 40.746094 112.257812 L 41.6875 114.519531 L 42.675781 116.753906 L 43.734375 118.945312 L 44.90625 121.113281 L 46.152344 123.210938 L 47.539062 125.238281 L 49.066406 127.199219 L 50.664062 129.089844 L 52.40625 130.886719 L 54.238281 132.59375 L 56.210938 134.253906 L 58.304688 135.820312 L 60.488281 137.296875 L 62.769531 138.679688 L 65.097656 139.949219 L 67.46875 141.078125 L 69.867188 142.070312 L 72.289062 142.878906 L 74.753906 143.546875 L 77.246094 144.054688 L 79.761719 144.398438 L 82.324219 144.582031 L 84.90625 144.582031 L 87.492188 144.421875 L 90.078125 144.078125 L 92.640625 143.546875 L 95.226562 142.855469 L 97.761719 142 L 100.277344 141.03125 L 102.722656 139.925781 L 105.097656 138.75 L 107.351562 137.460938 L 109.515625 136.097656 L 111.558594 134.667969 L 113.507812 133.195312 L 115.320312 131.625 L 117.035156 129.988281 L 118.609375 128.257812 L 120.066406 126.484375 L 121.359375 124.640625 L 122.511719 122.75 L 123.496094 120.835938 L 124.34375 118.898438 L 125.023438 116.984375 L 125.589844 115.140625 L 126.011719 113.363281 L 126.269531 111.636719 L 126.410156 109.953125 L 126.386719 108.292969 L 126.222656 106.679688 L 125.941406 105.042969 L 125.566406 103.402344 L 125.074219 101.765625 L 124.507812 100.152344 L 123.898438 98.5625 L 123.238281 97.039062 L 122.535156 95.589844 L 121.78125 94.179688 L 120.984375 92.820312 L 120.136719 91.484375 L 119.242188 90.214844 L 118.304688 88.96875 L 117.316406 87.773438 L 116.28125 86.617188 L 115.179688 85.511719 L 114.027344 84.429688 L 112.828125 83.367188 L 111.605469 82.332031 L 110.3125 81.316406 L 109.019531 80.324219 L 107.679688 79.355469 L 106.339844 78.433594 L 104.976562 77.558594 L 103.589844 76.726562 L 102.15625 75.945312 L 100.722656 75.230469 L 99.265625 74.558594 L 97.785156 73.9375 L 96.328125 73.359375 L 94.847656 72.785156 L 93.34375 72.253906 L 91.839844 71.746094 L 90.359375 71.285156 L 88.855469 70.824219 L 87.375 70.410156 L 85.894531 70.019531 L 84.390625 69.671875 L 82.863281 69.324219 L 81.359375 69.027344 L 79.878906 68.75 L 78.421875 68.519531 L 76.988281 68.335938 L 75.554688 68.21875 L 74.121094 68.128906 L 72.664062 68.105469 L 71.230469 68.082031 L 69.820312 68.105469 L 68.386719 68.148438 L 66.976562 68.242188 L 65.589844 68.402344 L 64.203125 68.613281 L 62.863281 68.863281 L 61.523438 69.1875 L 60.207031 69.558594 L 58.960938 69.996094 L 57.738281 70.503906 L 56.566406 71.054688 L 55.414062 71.65625 L 54.285156 72.324219 L 53.203125 73.015625 L 52.167969 73.753906 L 51.183594 74.515625 L 50.21875 75.320312 L 49.277344 76.152344 L 48.363281 77.027344 L 47.445312 77.972656 L 46.601562 78.964844 L 45.824219 80.023438 L 45.070312 81.175781 L 44.367188 82.375 L 43.660156 83.621094 L 42.980469 84.9375 L 42.300781 86.296875 L 41.664062 87.726562 L 41.078125 89.15625 L 40.558594 90.628906 L 40.136719 92.105469 L 39.785156 93.582031 L 39.503906 95.058594 L 39.289062 96.554688 L 39.195312 98.054688 L 39.171875 99.601562 L 39.21875 101.144531 L 39.335938 102.710938 L 39.550781 104.28125 L 39.832031 105.871094 L 40.230469 107.484375 L 40.699219 109.144531 L 41.289062 110.875 L 41.945312 112.625 L 42.675781 114.425781 L 43.449219 116.269531 L 44.273438 118.160156 L 45.144531 120.074219 L 46.058594 122.035156 L 47.070312 123.992188 L 48.152344 125.976562 L 49.300781 127.914062 L 50.570312 129.804688 L 51.933594 131.601562 L 53.414062 133.308594 L 54.964844 134.898438 L 56.636719 136.375 L 58.398438 137.710938 L 60.253906 138.890625 L 62.203125 139.949219 L 64.226562 140.847656 L 66.316406 141.632812 L 68.480469 142.277344 L 70.710938 142.761719 L 73.015625 143.085938 L 75.414062 143.269531 L 77.855469 143.292969 L 80.347656 143.175781 L 82.886719 142.902344 L 85.402344 142.460938 L 87.890625 141.886719 L 90.335938 141.195312 L 92.710938 140.410156 L 95.035156 139.511719 L 97.292969 138.519531 L 99.480469 137.414062 L 101.617188 136.214844 L 103.664062 134.921875 L 105.613281 133.5625 L 107.46875 132.15625 L 109.207031 130.679688 L 110.832031 129.183594 L 112.359375 127.636719 L 113.769531 126.046875 L 115.109375 124.410156 L 116.304688 122.726562 L 117.410156 121.019531 L 118.445312 119.246094 L 119.363281 117.398438 L 120.207031 115.507812 L 120.960938 113.570312 L 121.59375 111.613281 L 122.109375 109.628906 L 122.558594 107.691406 L 122.863281 105.757812 L 123.074219 103.84375 L 123.144531 101.976562 L 123.121094 100.175781 L 122.957031 98.425781 L 122.699219 96.765625 L 122.371094 95.125 L 121.945312 93.558594 L 121.453125 92.015625 L 120.890625 90.539062 L 120.230469 89.109375 L 119.527344 87.703125 L 118.726562 86.320312 L 117.90625 85.003906 L 117.011719 83.691406 L 116.070312 82.445312 L 115.0625 81.246094 L 114.027344 80.09375 L 112.945312 79.011719 L 111.863281 77.972656 L 110.761719 76.980469 L 109.632812 76.058594 L 108.480469 75.160156 L 107.28125 74.285156 L 106.058594 73.429688 L 104.8125 72.625 L 103.519531 71.839844 L 102.230469 71.101562 L 100.914062 70.410156 L 99.574219 69.765625 L 98.210938 69.1875 L 96.847656 68.632812 L 95.460938 68.148438 L 94.074219 67.6875 L 92.664062 67.273438 L 91.253906 66.90625 L 88.386719 66.257812 L 86.90625 65.984375 L 85.425781 65.707031 L 83.921875 65.476562 L 82.441406 65.269531 L 80.9375 65.105469 L 79.433594 64.992188 L 77.925781 64.875 L 76.421875 64.808594 L 74.964844 64.761719 L 73.507812 64.738281 L 72.050781 64.785156 L 70.59375 64.875 L 69.089844 65.015625 L 67.585938 65.246094 L 66.058594 65.523438 L 64.53125 65.84375 L 63.027344 66.238281 L 61.523438 66.652344 L 60.042969 67.136719 L 58.585938 67.644531 L 57.128906 68.195312 L 55.71875 68.773438 L 54.308594 69.394531 L 52.921875 70.0625 L 51.582031 70.753906 L 50.265625 71.46875 L 48.996094 72.207031 L 47.773438 72.992188 L 46.578125 73.800781 L 45.425781 74.652344 L 44.273438 75.527344 L 43.144531 76.449219 L 42.0625 77.417969 L 41.03125 78.410156 L 40.066406 79.449219 L 39.171875 80.484375 L 38.304688 81.546875 L 37.503906 82.628906 L 36.753906 83.738281 L 36.046875 84.84375 L 35.414062 85.996094 L 34.871094 87.148438 L 34.378906 88.347656 L 34.003906 89.570312 L 33.699219 90.792969 L 33.460938 92.039062 L 33.296875 93.28125 L 33.203125 94.574219 L 33.15625 95.886719 L 33.179688 97.179688 L 33.273438 98.492188 L 33.4375 99.808594 L 33.671875 101.144531 L 33.980469 102.527344 L 34.378906 103.886719 L 34.871094 105.273438 L 35.4375 106.679688 L 36.046875 108.109375 L 36.707031 109.539062 L 37.410156 110.988281 L 38.117188 112.464844 L 38.890625 113.941406 L 39.738281 115.441406 L 40.628906 116.960938 L 41.617188 118.460938 L 42.652344 119.980469 L 43.757812 121.503906 L 44.882812 122.980469 L 46.082031 124.410156 L 47.328125 125.816406 L 48.621094 127.152344 L 49.984375 128.46875 L 51.441406 129.710938 L 52.945312 130.886719 L 54.542969 132.019531 L 56.164062 133.054688 L 57.832031 134.046875 L 59.527344 134.96875 L 61.289062 135.820312 L 63.097656 136.605469 L 64.953125 137.320312 L 66.835938 137.898438 L 68.714844 138.382812 L 70.617188 138.75 L 72.570312 139.027344 L 74.542969 139.210938 L 76.519531 139.304688 L 78.492188 139.328125 L 80.441406 139.28125 L 82.394531 139.1875 L 84.34375 139.003906 L 86.269531 138.773438 L 88.175781 138.449219 L 90.007812 138.011719 L 91.816406 137.480469 L 93.601562 136.859375 L 95.390625 136.144531 L 97.152344 135.382812 L 98.914062 134.554688 L 100.699219 133.65625 L 102.464844 132.6875 L 104.203125 131.625 L 105.917969 130.472656 L 107.585938 129.273438 L 109.230469 128.003906 L 110.832031 126.714844 L 112.382812 125.378906 L 113.933594 123.992188 L 115.460938 122.609375 L 116.988281 121.179688 L 118.515625 119.773438 L 119.996094 118.34375 L 121.5 116.914062 L 122.957031 115.484375 L 124.414062 114.035156 L 125.847656 112.558594 L 127.257812 111.082031 L 128.644531 109.605469 L 130.03125 108.085938 L 131.394531 106.5625 L 132.734375 105.019531 L 134.097656 103.472656 L 135.484375 101.929688 L 136.871094 100.40625 L 138.28125 98.929688 L 139.714844 97.5 L 141.148438 96.117188 L 142.605469 94.78125 L 144.015625 93.511719 L 145.402344 92.289062 L 146.742188 91.09375 L 149.421875 88.648438 L 150.785156 87.402344 L 152.121094 86.15625 L 153.460938 84.9375 L 154.777344 83.714844 L 156.117188 82.539062 L 157.433594 81.386719 L 158.703125 80.300781 L 159.972656 79.242188 L 161.195312 78.25 L 162.371094 77.328125 L 163.570312 76.40625 L 164.765625 75.527344 L 165.964844 74.675781 L 167.1875 73.84375 L 168.433594 72.992188 L 169.679688 72.164062 L 170.949219 71.332031 L 172.21875 70.546875 L 173.484375 69.808594 L 174.753906 69.09375 L 176.046875 68.449219 L 177.339844 67.875 L 178.65625 67.34375 L 179.972656 66.90625 L 181.265625 66.511719 L 182.535156 66.167969 L 183.804688 65.84375 L 185.097656 65.589844 L 186.363281 65.359375 L 187.65625 65.175781 L 188.925781 65.039062 L 190.195312 64.96875 L 191.488281 64.96875 L 192.734375 65.015625 L 193.957031 65.128906 L 195.179688 65.3125 L 196.375 65.542969 L 197.574219 65.820312 L 198.820312 66.144531 L 200.042969 66.488281 L 201.242188 66.882812 L 202.441406 67.320312 L 203.617188 67.78125 L 204.765625 68.289062 L 205.894531 68.863281 L 207.023438 69.441406 L 208.175781 70.085938 L 209.304688 70.734375 L 210.476562 71.402344 L 211.628906 72.140625 L 212.78125 72.898438 L 213.910156 73.683594 L 214.992188 74.535156 L 215.976562 75.414062 L 216.917969 76.359375 L 217.8125 77.351562 L 218.65625 78.363281 L 219.480469 79.425781 L 220.300781 80.507812 L 221.101562 81.636719 L 221.875 82.769531 L 222.558594 83.945312 L 223.167969 85.144531 L 223.734375 86.320312 L 224.25 87.519531 L 224.742188 88.738281 L 225.238281 89.984375 L 225.707031 91.253906 L 226.152344 92.566406 L 226.578125 93.882812 L 226.976562 95.21875 L 227.351562 96.554688 L 227.703125 97.917969 L 228.011719 99.277344 L 228.269531 100.660156 L 228.480469 102.066406 L 228.644531 103.472656 L 228.738281 104.902344 L 228.808594 106.355469 L 228.808594 107.855469 L 228.785156 109.351562 L 228.714844 110.875 L 228.621094 112.394531 L 228.457031 113.917969 L 228.222656 115.394531 L 227.917969 116.871094 L 227.515625 118.320312 L 227.070312 119.75 L 226.554688 121.179688 L 225.964844 122.609375 L 225.285156 124.015625 L 224.554688 125.378906 L 223.757812 126.738281 L 222.863281 128.074219 L 221.898438 129.390625 L 220.84375 130.703125 L 219.714844 131.996094 L 218.539062 133.261719 L 217.269531 134.484375 L 215.953125 135.660156 L 214.566406 136.8125 L 213.132812 137.921875 L 211.628906 138.957031 L 210.078125 139.949219 L 208.480469 140.894531 L 206.835938 141.769531 L 205.097656 142.601562 L 203.332031 143.40625 L 201.5 144.167969 L 199.644531 144.90625 L 197.738281 145.621094 L 195.789062 146.3125 L 193.816406 146.980469 L 191.816406 147.605469 L 189.84375 148.132812 L 187.917969 148.550781 L 186.011719 148.847656 L 184.085938 149.058594 L 182.207031 149.125 L 180.347656 149.125 L 178.515625 148.988281 L 176.730469 148.757812 L 174.964844 148.410156 L 173.226562 147.972656 L 171.511719 147.464844 L 169.84375 146.867188 L 168.246094 146.175781 L 166.742188 145.390625 L 165.285156 144.46875 L 163.921875 143.476562 L 162.605469 142.371094 L 161.335938 141.148438 L 160.136719 139.835938 L 159.007812 138.40625 L 157.953125 136.859375 L 156.917969 135.199219 L 155.953125 133.46875 L 155.039062 131.625 L 154.214844 129.710938 L 153.460938 127.707031 L 152.851562 125.632812 L 152.3125 123.488281 L 151.863281 121.296875 L 151.488281 119.058594 L 151.207031 116.800781 L 150.996094 114.5625 L 150.878906 112.351562 L 150.808594 110.136719 L 150.808594 107.945312 L 150.925781 105.734375 L 151.113281 103.496094 L 151.394531 101.304688 L 151.792969 99.136719 L 152.289062 97.015625 L 152.851562 94.988281 L 153.53125 92.984375 L 154.308594 91.046875 L 155.179688 89.179688 L 156.09375 87.355469 L 157.058594 85.652344 L 158.046875 84.035156 L 159.054688 82.46875 L 160.136719 81.015625 L 161.265625 79.609375 L 162.394531 78.296875 L 163.570312 77.050781 L 164.742188 75.921875 L 165.941406 74.835938 L 167.164062 73.867188 L 168.410156 72.96875 L 169.679688 72.164062 L 171.019531 71.425781 L 172.40625 70.734375 L 173.816406 70.109375 L 175.25 69.558594 L 176.730469 69.050781 L 178.210938 68.613281 L 179.714844 68.21875 L 181.242188 67.898438 L 182.792969 67.621094 L 184.367188 67.367188 L 185.941406 67.160156 L 187.515625 66.996094 L 189.089844 66.859375 L 190.664062 66.789062 L 192.21875 66.742188 L 193.746094 66.765625 L 195.25 66.835938 L 196.707031 66.953125 L 198.117188 67.136719 L 199.503906 67.367188 L 200.84375 67.644531 L 202.183594 67.988281 L 203.472656 68.378906 L 204.765625 68.820312 L 206.035156 69.304688 L 207.28125 69.808594 L 208.527344 70.386719 L 209.75 70.984375 L 210.925781 71.65625 L 212.074219 72.371094 L 213.179688 73.128906 L 214.285156 73.9375 L 215.367188 74.789062 L 216.425781 75.714844 L 217.433594 76.660156 L 218.421875 77.625 L 219.410156 78.640625 L 220.417969 79.679688 L 221.40625 80.738281 L 222.371094 81.824219 L 223.285156 82.929688 L 224.203125 84.058594 L 225.074219 85.234375 L 225.894531 86.457031 L 226.671875 87.679688 L 227.398438 88.949219 L 228.035156 90.238281 L 228.621094 91.574219 L 229.113281 92.9375 L 229.585938 94.320312 L 229.984375 95.726562 L 230.335938 97.132812 L 230.59375 98.539062 L 230.785156 99.96875 L 230.925781 101.375 L 230.996094 102.804688 L 231.019531 104.234375 L 230.996094 105.640625 L 230.878906 107.070312 L 230.738281 108.523438 L 230.5 109.929688 L 230.242188 111.335938 L 229.914062 112.695312 L 229.5625 114.011719 L 229.136719 115.324219 L 228.691406 116.59375 L 228.175781 117.835938 L 227.632812 119.058594 L 227.046875 120.257812 L 226.414062 121.433594 L 225.730469 122.632812 L 225.003906 123.855469 L 224.25 125.078125 L 223.402344 126.347656 L 222.488281 127.613281 L 221.523438 128.859375 L 220.488281 130.105469 L 219.457031 131.304688 L 218.375 132.433594 L 217.269531 133.492188 L 216.140625 134.484375 L 214.992188 135.40625 L 213.816406 136.238281 L 212.617188 136.996094 L 211.371094 137.691406 L 210.03125 138.335938 L 208.621094 138.933594 L 207.140625 139.488281 L 205.613281 140.042969 L 203.992188 140.570312 L 202.324219 141.101562 L 200.582031 141.585938 L 198.796875 142.046875 L 196.988281 142.417969 L 195.132812 142.714844 L 193.25 142.921875 L 191.347656 143.039062 L 189.421875 143.0625 L 187.539062 142.992188 L 185.683594 142.855469 L 183.851562 142.648438 L 182.015625 142.371094 L 180.207031 142.046875 L 178.421875 141.65625 L 176.660156 141.21875 L 174.964844 140.734375 L 173.296875 140.15625 L 171.699219 139.511719 L 170.148438 138.796875 L 168.691406 137.988281 L 167.304688 137.113281 L 165.964844 136.144531 L 164.671875 135.105469 L 163.402344 134 L 162.183594 132.800781 L 161.03125 131.535156 L 159.949219 130.171875 L 158.9375 128.71875 L 157.976562 127.199219 L 157.082031 125.585938 L 156.234375 123.972656 L 155.460938 122.3125 L 154.777344 120.695312 L 154.191406 119.105469 L 153.722656 117.515625 L 153.34375 115.925781 L 153.0625 114.285156 L 152.875 112.605469 L 152.78125 110.828125 L 152.78125 108.960938 L 152.875 107 L 153.085938 104.949219 L 153.390625 102.875 L 153.792969 100.753906 L 154.285156 98.65625 L 154.824219 96.578125 L 155.460938 94.574219 L 156.140625 92.613281 L 156.871094 90.746094 L 157.644531 88.96875 L 158.492188 87.242188 L 159.386719 85.535156 L 160.324219 83.851562 L 161.335938 82.191406 L 162.371094 80.53125 L 163.449219 78.917969 L 164.601562 77.351562 L 165.824219 75.828125 L 167.09375 74.375 L 168.410156 73.015625 L 169.773438 71.722656 L 171.160156 70.570312 L 172.570312 69.511719 L 173.980469 68.566406 L 175.390625 67.710938 L 176.824219 66.972656 L 178.28125 66.328125 L 179.761719 65.753906 L 181.289062 65.246094 L 182.863281 64.828125 L 184.4375 64.460938 L 186.035156 64.183594 L 187.632812 63.976562 L 189.28125 63.863281 L 190.902344 63.839844 L 192.546875 63.90625 L 194.144531 64.046875 L 195.695312 64.277344 L 197.246094 64.597656 L 198.796875 64.96875 L 200.324219 65.40625 L 201.875 65.890625 L 203.378906 66.421875 L 204.859375 66.996094 L 206.316406 67.597656 L 207.726562 68.21875 L 209.113281 68.910156 L 210.453125 69.625 L 211.769531 70.410156 L 213.039062 71.21875 L 214.261719 72.070312 L 215.4375 72.96875 L 216.566406 73.914062 L 217.644531 74.882812 L 218.703125 75.898438 L 219.738281 76.933594 L 220.75 78.019531 L 221.6875 79.148438 L 222.582031 80.300781 L 223.402344 81.476562 L 224.179688 82.699219 L 224.929688 83.921875 L 225.636719 85.167969 L 226.316406 86.433594 L 226.976562 87.75 L 227.585938 89.0625 L 228.152344 90.398438 L 228.667969 91.714844 L 229.136719 93.027344 L 229.5625 94.34375 L 229.9375 95.679688 L 230.242188 97.015625 L 230.476562 98.378906 L 230.667969 99.761719 L 230.808594 101.167969 L 230.925781 102.621094 L 230.996094 104.074219 L 231.019531 105.546875 L 230.996094 107.046875 L 230.972656 108.523438 L 230.902344 110 L 230.832031 111.449219 L 230.738281 112.902344 L 230.59375 114.378906 L 230.359375 115.832031 L 230.078125 117.308594 L 229.726562 118.804688 L 229.304688 120.304688 L 228.785156 121.804688 L 228.175781 123.324219 L 227.492188 124.824219 L 226.742188 126.300781 L 225.941406 127.753906 L 225.097656 129.203125 L 224.15625 130.609375 L 223.167969 132.019531 L 222.089844 133.378906 L 220.984375 134.691406 L 219.808594 135.960938 L 218.632812 137.136719 L 217.386719 138.242188 L 216.09375 139.28125 L 214.730469 140.273438 L 213.320312 141.21875 L 211.839844 142.140625 L 210.289062 142.992188 L 208.644531 143.824219 L 206.953125 144.582031 L 205.214844 145.296875 L 203.472656 145.921875 L 201.6875 146.472656 L 199.902344 146.933594 L 198.117188 147.304688 L 196.351562 147.582031 L 194.589844 147.765625 L 192.828125 147.859375 L 191.089844 147.878906 L 189.375 147.8125 L 187.703125 147.648438 L 186.105469 147.398438 L 184.507812 147.121094 L 182.957031 146.773438 L 181.40625 146.359375 L 179.855469 145.898438 L 178.375 145.390625 L 176.894531 144.8125 L 175.484375 144.191406 L 174.097656 143.523438 L 172.757812 142.808594 L 171.464844 142.046875 L 170.195312 141.261719 L 168.972656 140.410156 L 167.796875 139.511719 L 166.671875 138.542969 L 165.636719 137.503906 L 164.671875 136.398438 L 163.710938 135.222656 L 162.816406 134 L 161.992188 132.6875 L 161.242188 131.28125 L 160.582031 129.804688 L 160.019531 128.28125 L 159.574219 126.667969 L 159.171875 125.03125 L 158.890625 123.347656 L 158.65625 121.617188 L 158.539062 119.890625 L 158.46875 118.089844 L 158.515625 116.222656 L 158.609375 114.308594 L 158.773438 112.304688 L 159.007812 110.253906 L 159.292969 108.128906 L 159.667969 106.007812 L 160.113281 103.910156 L 160.652344 101.835938 L 161.265625 99.832031 L 161.921875 97.847656 L 162.652344 95.933594 L 163.402344 94.066406 L 164.226562 92.269531 L 165.121094 90.492188 L 166.082031 88.785156 L 167.117188 87.078125 L 168.222656 85.417969 L 169.398438 83.757812 L 170.640625 82.144531 L 172.003906 80.578125 L 173.414062 79.078125 L 174.917969 77.695312 L 176.472656 76.40625 L 178.070312 75.230469 L 179.714844 74.167969 L 181.40625 73.199219 L 183.121094 72.324219 L 184.835938 71.515625 L 186.578125 70.824219 L 188.292969 70.226562 L 190.03125 69.671875 L 191.746094 69.210938 L 193.484375 68.84375 L 195.25 68.519531 L 196.988281 68.289062 L 198.679688 68.148438 L 200.347656 68.105469 L 201.945312 68.148438 L 203.496094 68.289062 L 205.027344 68.496094 L 206.53125 68.796875 L 208.011719 69.164062 L 209.445312 69.558594 L 210.832031 70.019531 L 212.195312 70.503906 L 213.507812 71.054688 L 214.777344 71.632812 L 216.023438 72.277344 L 217.222656 72.945312 L 218.351562 73.683594 L 219.457031 74.46875 L 220.488281 75.296875 L 221.5 76.175781 L 222.417969 77.097656 L 223.285156 78.066406 L 224.109375 79.078125 L 224.882812 80.09375 L 225.660156 81.132812 L 226.414062 82.191406 L 227.117188 83.277344 L 227.773438 84.335938 L 228.386719 85.417969 L 228.949219 86.503906 L 229.515625 87.609375 L 230.03125 88.71875 L 230.5 89.800781 L 230.972656 90.90625 L 231.394531 91.96875 L 231.839844 93.050781 L 232.265625 94.136719 L 232.664062 95.21875 L 232.992188 96.324219 L 233.273438 97.433594 L 233.511719 98.539062 L 233.675781 99.691406 L 233.816406 100.84375 L 233.933594 101.996094 L 234.003906 103.152344 L 234.027344 104.328125 L 234.003906 105.503906 L 233.957031 106.679688 L 233.886719 107.855469 L 233.769531 109.054688 L 233.605469 110.253906 L 233.390625 111.496094 L 233.132812 112.765625 L 232.804688 114.035156 L 232.453125 115.347656 L 232.050781 116.683594 L 231.605469 118.023438 L 231.136719 119.40625 L 230.617188 120.765625 L 230.101562 122.125 L 229.515625 123.488281 L 228.878906 124.847656 L 228.199219 126.160156 L 227.421875 127.453125 L 226.601562 128.71875 L 225.730469 129.964844 L 224.835938 131.164062 L 223.898438 132.363281 L 222.886719 133.492188 L 221.804688 134.601562 L 220.679688 135.683594 L 219.503906 136.699219 L 218.328125 137.644531 L 217.128906 138.566406 L 215.90625 139.441406 L 214.613281 140.296875 L 213.273438 141.171875 L 211.863281 142.023438 L 210.382812 142.855469 L 208.832031 143.660156 L 207.234375 144.421875 L 205.613281 145.160156 L 203.945312 145.851562 L 202.253906 146.496094 L 200.511719 147.074219 L 198.75 147.582031 L 196.988281 148.019531 L 195.203125 148.386719 L 193.414062 148.6875 L 191.582031 148.941406 L 189.773438 149.148438 L 187.964844 149.308594 L 186.175781 149.425781 L 184.390625 149.519531 L 182.605469 149.5625 L 180.820312 149.5625 L 179.054688 149.496094 L 177.316406 149.378906 L 175.601562 149.195312 L 173.910156 148.917969 L 172.265625 148.574219 L 170.6875 148.132812 L 169.136719 147.605469 L 167.65625 147.003906 L 166.222656 146.3125 L 164.882812 145.527344 L 163.59375 144.675781 L 162.347656 143.753906 L 161.195312 142.808594 L 160.089844 141.792969 L 159.054688 140.734375 L 158.070312 139.601562 L 157.128906 138.40625 L 156.234375 137.136719 L 155.390625 135.777344 L 154.636719 134.324219 L 153.957031 132.777344 L 153.320312 131.140625 L 152.757812 129.414062 L 152.242188 127.566406 L 151.792969 125.652344 L 151.417969 123.648438 L 151.136719 121.597656 L 150.949219 119.542969 L 150.832031 117.445312 L 150.808594 115.324219 L 150.855469 113.15625 L 150.972656 110.96875 L 151.207031 108.683594 L 151.511719 106.378906 L 151.910156 104.050781 L 152.359375 101.722656 L 152.875 99.460938 L 153.460938 97.269531 L 154.167969 95.171875 L 154.964844 93.167969 L 155.835938 91.230469 L 156.777344 89.363281 L 157.761719 87.519531 L 158.867188 85.742188 L 160.042969 84.011719 L 161.335938 82.308594 L 162.722656 80.648438 L 164.203125 79.011719 L 165.753906 77.464844 L 167.398438 75.988281 L 169.089844 74.652344 L 170.785156 73.453125 L 172.5 72.371094 L 174.238281 71.425781 L 176 70.59375 L 177.785156 69.878906 L 179.597656 69.257812 L 181.453125 68.726562 L 183.308594 68.3125 L 185.167969 67.964844 L 187.023438 67.710938 L 188.878906 67.550781 L 190.691406 67.503906 L 192.523438 67.527344 L 194.332031 67.6875 L 196.117188 67.917969 L 197.882812 68.265625 L 199.621094 68.679688 L 201.3125 69.164062 L 202.980469 69.695312 L 204.601562 70.292969 L 206.199219 70.917969 L 207.726562 71.5625 L 209.230469 72.253906 L 210.691406 72.96875 L 213.558594 74.492188 L 214.941406 75.296875 L 216.328125 76.175781 L 217.667969 77.074219 L 218.960938 78.019531 L 220.230469 78.988281 L 221.453125 80 L 222.628906 81.0625 L 223.78125 82.144531 L 224.882812 83.296875 L 225.964844 84.496094 L 227.023438 85.742188 L 227.988281 87.035156 L 228.878906 88.394531 L 229.703125 89.777344 L 230.453125 91.207031 L 231.183594 92.636719 L 231.910156 94.089844 L 232.640625 95.542969 L 233.34375 96.996094 L 233.980469 98.445312 L 234.566406 99.898438 L 235.0625 101.351562 L 235.484375 102.804688 L 235.859375 104.28125 L 236.140625 105.734375 L 236.378906 107.207031 L 236.542969 108.683594 L 236.636719 110.183594 L 236.636719 111.679688 L 236.566406 113.179688 L 236.378906 114.703125 L 236.117188 116.246094 L 235.71875 117.816406 L 235.25 119.40625 L 234.636719 120.996094 L 233.957031 122.585938 L 233.179688 124.179688 L 232.359375 125.746094 L 231.464844 127.292969 L 230.5 128.8125 L 229.46875 130.3125 L 228.339844 131.765625 L 227.164062 133.195312 L 225.941406 134.601562 L 224.671875 135.960938 L 223.332031 137.25 L 221.945312 138.496094 L 220.488281 139.671875 L 218.984375 140.78125 L 217.457031 141.769531 L 215.90625 142.691406 L 214.355469 143.523438 L 212.757812 144.261719 L 211.136719 144.929688 L 209.492188 145.550781 L 207.796875 146.128906 L 206.105469 146.660156 L 204.414062 147.167969 L 202.675781 147.648438 L 200.9375 148.132812 L 199.195312 148.59375 L 197.480469 149.011719 L 195.789062 149.378906 L 194.167969 149.679688 L 192.546875 149.957031 L 190.972656 150.164062 L 189.398438 150.300781 L 187.820312 150.417969 L 186.246094 150.441406 L 184.671875 150.417969 L 183.121094 150.347656 L 181.570312 150.234375 L 180.019531 150.070312 L 178.515625 149.886719 L 177.058594 149.65625 L 175.625 149.402344 L 174.285156 149.078125 L 172.992188 148.710938 L 171.816406 148.273438 L 170.6875 147.765625 L 169.632812 147.210938 L 168.621094 146.589844 L 167.679688 145.921875 L 166.8125 145.207031 L 165.988281 144.445312 L 165.238281 143.636719 L 164.507812 142.808594 L 163.828125 141.933594 L 163.167969 141.03125 L 162.511719 140.132812 L 161.875 139.234375 L 161.242188 138.335938 L 160.628906 137.414062 L 160.066406 136.492188 L 159.527344 135.546875 L 159.007812 134.601562 L 158.445312 133.65625 L 157.882812 132.6875 L 157.316406 131.695312 L 156.707031 130.679688 L 156.09375 129.6875 L 155.484375 128.675781 L 154.871094 127.683594 L 154.261719 126.691406 L 153.675781 125.675781 L 153.109375 124.6875 L 152.523438 123.671875 L 151.957031 122.65625 L 151.371094 121.617188 L 150.808594 120.582031 L 150.195312 119.496094 L 149.609375 118.390625 L 149.019531 117.261719 L 148.433594 116.15625 L 147.871094 115.023438 L 147.304688 113.917969 L 146.742188 112.8125 L 146.152344 111.726562 L 145.566406 110.667969 L 144.953125 109.628906 L 144.320312 108.613281 L 143.664062 107.601562 L 142.980469 106.609375 L 142.300781 105.664062 L 141.617188 104.71875 L 140.9375 103.796875 L 140.230469 102.875 L 139.527344 101.953125 L 138.773438 101.03125 L 138 100.128906 L 137.222656 99.253906 L 136.472656 98.378906 L 135.742188 97.523438 L 135.011719 96.671875 L 134.285156 95.863281 L 133.507812 95.058594 L 132.734375 94.273438 L 131.933594 93.535156 L 131.160156 92.796875 L 130.40625 92.082031 L 129.703125 91.34375 L 128.996094 90.585938 L 128.269531 89.824219 L 127.5625 89.0625 L 126.8125 88.347656 L 126.058594 87.632812 L 125.308594 86.964844 L 124.554688 86.320312 L 123.828125 85.695312 L 123.121094 85.121094 L 122.417969 84.542969 L 121.6875 84.011719 L 120.960938 83.507812 L 120.183594 83.023438 L 119.433594 82.539062 L 118.679688 82.078125 L 117.953125 81.617188 L 117.269531 81.175781 L 116.613281 80.761719 L 115.953125 80.347656 L 115.273438 79.957031 L 114.589844 79.5625 L 113.910156 79.171875 L 113.25 78.800781 L 112.640625 78.410156 L 112.074219 78.042969 L 111.535156 77.671875 L 111.042969 77.328125 L 110.546875 76.980469 L 110.078125 76.660156 L 109.609375 76.335938 L 109.136719 76.011719 L 108.621094 75.734375 L 108.105469 75.480469 L 107.5625 75.230469 L 107.046875 75 L 106.554688 74.765625 L 106.082031 74.535156 L 105.613281 74.304688 L 105.167969 74.054688 L 104.71875 73.800781 L 103.78125 73.292969 L 103.285156 73.039062 L 102.769531 72.785156 L 102.207031 72.554688 L 101.640625 72.300781 L 101.078125 72.070312 L 100.511719 71.816406 L 99.949219 71.5625 L 99.410156 71.332031 L 98.84375 71.101562 L 98.257812 70.894531 L 97.667969 70.664062 L 97.035156 70.433594 L 96.398438 70.179688 L 95.71875 69.925781 L 95.035156 69.671875 L 94.355469 69.417969 L 93.652344 69.1875 L 92.945312 68.980469 L 92.191406 68.796875 L 91.371094 68.613281 L 90.476562 68.425781 L 89.5625 68.289062 L 88.433594 68.148438 L 87.210938 68.058594 L 85.894531 67.964844 L 84.484375 67.898438 L 83.167969 67.804688 L 81.828125 67.734375 L 80.464844 67.644531 L 79.007812 67.574219 L 77.457031 67.480469 L 75.789062 67.390625 L 74.027344 67.273438 L 72.121094 67.160156 L 70.054688 67.066406 L 67.773438 67.042969 L 65.285156 67.136719 L 62.535156 67.34375 L 59.527344 67.710938 L 56.304688 68.242188 L 53.132812 68.863281 L 49.9375 69.578125 L 46.578125 70.433594 L 44.085938 71.101562 L 31.792969 75.089844 "/>
</g>
</svg>
