<?xml version="1.0" encoding="UTF-8"?>
<svg xmlns="http://www.w3.org/2000/svg" xmlns:xlink="http://www.w3.org/1999/xlink" width="283.46pt" height="283.46pt" viewBox="0 0 283.46 283.46" version="1.2">
<g id="surface34293">
<path style=" stroke:none;fill-rule:nonzero;fill:rgb(100%,100%,100%);fill-opacity:1;" d="M 0 0 L 283.460938 0 L 283.460938 283.460938 L 0 283.460938 Z M 0 0 "/>
<path style="fill:none;stroke-width:0.85;stroke-linecap:round;stroke-linejoin:round;stroke:rgb(0%,0%,0%);stroke-opacity:1;comp-op:src;clip-to-self:true;stroke-miterlimit:10;" d="M 136.164062 39.699219 L 136.164062 40.066406 L 136.070312 40.390625 L 135.929688 40.828125 L 135.8125 41.21875 L 135.671875 41.566406 L 135.554688 41.886719 L 135.367188 42.28125 L 135.085938 42.742188 L 134.894531 42.996094 L 134.730469 43.25 L 134.542969 43.527344 L 134.332031 43.800781 L 134.121094 44.078125 L 133.910156 44.378906 L 133.652344 44.703125 L 133.390625 45 L 133.109375 45.300781 L 132.804688 45.601562 L 132.5 45.921875 L 132.171875 46.269531 L 131.839844 46.613281 L 131.511719 46.984375 L 131.183594 47.351562 L 130.855469 47.722656 L 130.5 48.113281 L 130.148438 48.527344 L 129.796875 48.96875 L 129.46875 49.40625 L 129.136719 49.867188 L 128.785156 50.328125 L 128.128906 51.25 L 127.796875 51.6875 L 127.492188 52.101562 L 127.164062 52.519531 L 126.835938 52.933594 L 126.484375 53.300781 L 126.105469 53.671875 L 125.707031 54.015625 L 125.332031 54.363281 L 124.953125 54.730469 L 124.578125 55.125 L 124.203125 55.5625 L 123.804688 56 L 123.378906 56.460938 L 122.980469 56.921875 L 122.535156 57.382812 L 122.0625 57.84375 L 121.570312 58.328125 L 121.054688 58.8125 L 120.511719 59.296875 L 119.972656 59.828125 L 119.433594 60.378906 L 118.914062 60.933594 L 118.398438 61.511719 L 117.878906 62.085938 L 117.386719 62.6875 L 116.917969 63.285156 L 116.445312 63.882812 L 115.976562 64.484375 L 115.484375 65.0625 L 114.988281 65.660156 L 114.472656 66.238281 L 113.957031 66.8125 L 113.4375 67.390625 L 112.921875 67.988281 L 112.40625 68.613281 L 111.910156 69.210938 L 111.417969 69.808594 L 110.949219 70.386719 L 110.453125 70.964844 L 109.914062 71.515625 L 109.324219 72.046875 L 108.714844 72.578125 L 108.082031 73.128906 L 107.445312 73.683594 L 106.8125 74.238281 L 106.199219 74.8125 L 105.589844 75.390625 L 104.976562 75.964844 L 104.367188 76.542969 L 103.734375 77.121094 L 103.097656 77.671875 L 102.417969 78.25 L 101.757812 78.78125 L 101.125 79.332031 L 100.535156 79.863281 L 99.996094 80.394531 L 99.457031 80.902344 L 98.9375 81.429688 L 98.375 81.960938 L 97.832031 82.492188 L 97.269531 83.023438 L 96.707031 83.550781 L 96.140625 84.082031 L 95.554688 84.613281 L 94.988281 85.167969 L 94.472656 85.71875 L 93.980469 86.273438 L 93.484375 86.828125 L 92.992188 87.378906 L 92.476562 87.933594 L 91.910156 88.464844 L 91.371094 89.015625 L 90.785156 89.570312 L 90.21875 90.125 L 89.609375 90.652344 L 89.019531 91.183594 L 88.457031 91.714844 L 87.914062 92.269531 L 87.398438 92.820312 L 86.90625 93.375 L 86.316406 93.972656 L 85.683594 94.574219 L 85.046875 95.171875 L 84.414062 95.75 L 83.828125 96.257812 L 83.285156 96.742188 L 82.746094 97.226562 L 82.230469 97.730469 L 81.710938 98.214844 L 81.242188 98.675781 L 80.746094 99.160156 L 80.277344 99.621094 L 79.785156 100.082031 L 79.265625 100.546875 L 78.28125 101.421875 L 77.738281 101.882812 L 77.199219 102.367188 L 76.660156 102.804688 L 76.140625 103.265625 L 75.695312 103.679688 L 75.320312 104.097656 L 74.941406 104.535156 L 74.566406 104.996094 L 73.722656 105.917969 L 73.296875 106.402344 L 72.898438 106.839844 L 72.523438 107.277344 L 72.144531 107.691406 L 71.792969 108.109375 L 71.089844 108.890625 L 70.757812 109.261719 L 70.40625 109.652344 L 70.078125 110.042969 L 69.75 110.4375 L 69.421875 110.828125 L 69.089844 111.21875 L 68.761719 111.636719 L 68.058594 112.417969 L 67.679688 112.835938 L 67.28125 113.25 L 66.835938 113.664062 L 66.363281 114.078125 L 65.917969 114.496094 L 65.472656 114.886719 L 65.023438 115.277344 L 64.625 115.648438 L 64.25 116.015625 L 63.898438 116.386719 L 63.566406 116.777344 L 63.191406 117.167969 L 62.839844 117.585938 L 62.464844 117.976562 L 62.085938 118.390625 L 61.710938 118.78125 L 61.335938 119.199219 L 60.960938 119.613281 L 60.558594 120.050781 L 60.160156 120.488281 L 59.785156 120.90625 L 59.410156 121.320312 L 59.078125 121.710938 L 58.773438 122.082031 L 58.515625 122.449219 L 58.257812 122.796875 L 57.976562 123.164062 L 57.667969 123.554688 L 57.363281 123.972656 L 57.058594 124.386719 L 56.753906 124.777344 L 56.46875 125.148438 L 56.1875 125.539062 L 55.90625 125.953125 L 55.578125 126.347656 L 55.273438 126.738281 L 54.964844 127.105469 L 54.683594 127.476562 L 54.425781 127.84375 L 54.121094 128.214844 L 53.839844 128.605469 L 53.554688 129.019531 L 53.273438 129.414062 L 52.992188 129.804688 L 52.710938 130.171875 L 52.476562 130.519531 L 52.265625 130.84375 L 52.074219 131.117188 L 51.933594 131.417969 L 51.792969 131.742188 L 51.652344 132.0625 L 51.535156 132.386719 L 51.464844 132.710938 L 51.371094 133.261719 L 51.394531 133.816406 L 51.488281 134.347656 L 51.722656 134.875 L 51.933594 135.128906 L 52.214844 135.382812 L 52.59375 135.636719 L 53.039062 135.890625 L 53.578125 136.097656 L 54.121094 136.261719 L 54.683594 136.398438 L 55.25 136.492188 L 55.859375 136.582031 L 56.492188 136.628906 L 57.199219 136.675781 L 58.046875 136.699219 L 58.984375 136.722656 L 59.878906 136.722656 L 60.769531 136.699219 L 61.6875 136.675781 L 62.628906 136.628906 L 63.664062 136.558594 L 64.835938 136.492188 L 65.847656 136.421875 L 66.789062 136.351562 L 67.820312 136.261719 L 68.902344 136.167969 L 70.054688 136.074219 L 71.277344 135.984375 L 72.453125 135.890625 L 73.601562 135.800781 L 74.824219 135.683594 L 76.070312 135.570312 L 78.5625 135.382812 L 79.808594 135.316406 L 81.078125 135.246094 L 82.371094 135.199219 L 83.757812 135.152344 L 85.121094 135.128906 L 86.457031 135.085938 L 89.183594 135.039062 L 91.957031 135.039062 L 93.367188 135.0625 L 94.800781 135.105469 L 96.1875 135.152344 L 97.550781 135.199219 L 98.960938 135.246094 L 100.417969 135.292969 L 101.96875 135.316406 L 103.566406 135.339844 L 105.144531 135.316406 L 106.695312 135.292969 L 108.246094 135.222656 L 109.820312 135.152344 L 111.441406 135.0625 L 113.0625 134.921875 L 114.707031 134.785156 L 116.375 134.644531 L 118.070312 134.507812 L 119.761719 134.371094 L 121.476562 134.230469 L 123.144531 134.070312 L 124.671875 133.953125 L 126.035156 133.816406 L 127.328125 133.699219 L 128.574219 133.609375 L 129.9375 133.492188 L 131.371094 133.402344 L 132.875 133.285156 L 134.402344 133.195312 L 135.976562 133.101562 L 137.550781 132.984375 L 139.125 132.894531 L 140.675781 132.777344 L 142.230469 132.664062 L 143.78125 132.570312 L 145.332031 132.5 L 146.882812 132.433594 L 148.410156 132.363281 L 149.914062 132.316406 L 151.441406 132.25 L 152.945312 132.179688 L 154.472656 132.132812 L 156 132.0625 L 157.550781 132.019531 L 159.101562 131.996094 L 160.628906 131.996094 L 162.160156 132.019531 L 163.664062 132.0625 L 166.53125 132.15625 L 167.917969 132.226562 L 169.28125 132.292969 L 170.664062 132.363281 L 172.027344 132.457031 L 173.367188 132.523438 L 174.730469 132.617188 L 176.09375 132.664062 L 177.457031 132.734375 L 178.84375 132.777344 L 180.207031 132.800781 L 181.570312 132.847656 L 182.886719 132.871094 L 185.519531 132.964844 L 186.835938 133.007812 L 188.175781 133.078125 L 189.492188 133.148438 L 190.832031 133.238281 L 192.171875 133.332031 L 193.507812 133.425781 L 194.824219 133.492188 L 196.140625 133.5625 L 197.433594 133.609375 L 198.679688 133.679688 L 199.902344 133.722656 L 201.078125 133.769531 L 202.207031 133.839844 L 203.332031 133.910156 L 204.390625 133.976562 L 205.425781 134.046875 L 206.4375 134.117188 L 207.445312 134.160156 L 208.457031 134.207031 L 209.445312 134.253906 L 210.382812 134.277344 L 211.277344 134.324219 L 212.148438 134.371094 L 212.992188 134.414062 L 213.792969 134.484375 L 214.566406 134.53125 L 215.320312 134.601562 L 216.046875 134.667969 L 216.730469 134.738281 L 217.363281 134.855469 L 217.929688 134.945312 L 218.421875 135.0625 L 218.867188 135.152344 L 219.269531 135.199219 L 219.644531 135.246094 L 220.605469 135.246094 L 221.125 135.199219 L 221.546875 135.105469 L 221.828125 134.921875 L 221.96875 134.578125 L 221.78125 134.207031 L 221.570312 133.953125 L 221.289062 133.65625 L 220.960938 133.355469 L 220.605469 133.007812 L 220.253906 132.6875 L 219.855469 132.339844 L 219.457031 131.949219 L 219.007812 131.554688 L 218.539062 131.164062 L 218.046875 130.726562 L 217.527344 130.265625 L 216.964844 129.78125 L 216.378906 129.25 L 215.742188 128.71875 L 215.109375 128.144531 L 214.472656 127.566406 L 213.839844 126.96875 L 213.203125 126.367188 L 212.570312 125.746094 L 211.886719 125.101562 L 211.183594 124.433594 L 210.453125 123.742188 L 209.75 123.046875 L 209.019531 122.332031 L 208.292969 121.617188 L 207.5625 120.882812 L 206.859375 120.121094 L 206.128906 119.359375 L 205.402344 118.574219 L 204.625 117.792969 L 203.851562 116.960938 L 203.097656 116.132812 L 202.371094 115.300781 L 201.664062 114.449219 L 200.984375 113.59375 L 200.277344 112.71875 L 199.574219 111.820312 L 198.820312 110.898438 L 198.070312 109.976562 L 197.316406 109.03125 L 196.589844 108.0625 L 195.882812 107.070312 L 195.203125 106.078125 L 194.519531 105.042969 L 193.839844 104.003906 L 193.132812 102.941406 L 192.382812 101.882812 L 191.652344 100.820312 L 190.902344 99.738281 L 190.21875 98.632812 L 189.539062 97.546875 L 188.878906 96.488281 L 188.199219 95.425781 L 187.492188 94.34375 L 186.765625 93.28125 L 186.035156 92.199219 L 185.308594 91.136719 L 184.578125 90.101562 L 183.875 89.039062 L 183.167969 87.980469 L 182.441406 86.941406 L 181.710938 85.882812 L 180.960938 84.867188 L 180.253906 83.828125 L 179.550781 82.792969 L 178.84375 81.753906 L 178.046875 80.53125 L 177.222656 79.285156 L 176.351562 78.019531 L 175.484375 76.75 L 174.730469 75.644531 L 174.003906 74.582031 L 173.296875 73.570312 L 172.59375 72.601562 L 171.910156 71.609375 L 171.253906 70.664062 L 170.570312 69.695312 L 169.890625 68.75 L 169.207031 67.804688 L 167.847656 65.914062 L 167.1875 64.945312 L 166.53125 64 L 165.894531 63.054688 L 165.285156 62.109375 L 164.671875 61.210938 L 164.0625 60.3125 L 163.425781 59.433594 L 162.769531 58.582031 L 162.085938 57.707031 L 161.429688 56.875 L 160.773438 56.070312 L 160.183594 55.308594 L 159.597656 54.570312 L 159.03125 53.832031 L 158.445312 53.09375 L 157.859375 52.378906 L 157.246094 51.640625 L 156.636719 50.925781 L 156 50.210938 L 155.414062 49.519531 L 154.824219 48.875 L 154.261719 48.273438 L 153.746094 47.675781 L 153.226562 47.097656 L 152.6875 46.5 L 152.148438 45.898438 L 151.582031 45.324219 L 151.019531 44.769531 L 150.429688 44.242188 L 149.304688 43.226562 L 148.785156 42.765625 L 148.339844 42.328125 L 147.894531 41.910156 L 147.46875 41.496094 L 147.046875 41.082031 L 146.601562 40.667969 L 146.175781 40.25 L 145.800781 39.882812 L 145.425781 39.511719 L 145.097656 39.167969 L 144.789062 38.820312 L 144.484375 38.476562 L 144.226562 38.175781 L 143.96875 37.898438 L 143.710938 37.644531 L 143.449219 37.414062 L 143.191406 37.207031 L 142.746094 36.863281 L 142.371094 36.65625 L 141.921875 36.492188 L 141.476562 36.378906 L 141.125 36.355469 L 140.699219 36.425781 L 140.253906 36.539062 L 139.808594 36.722656 L 139.289062 36.976562 L 138.773438 37.277344 L 138.304688 37.578125 L 137.976562 37.785156 L 137.597656 38.015625 L 137.152344 38.269531 L 136.707031 38.546875 L 136.234375 38.84375 L 135.765625 39.144531 L 135.25 39.445312 L 134.707031 39.8125 L 134.121094 40.207031 L 133.460938 40.621094 L 132.78125 41.082031 L 132.097656 41.519531 L 131.394531 41.980469 L 130.710938 42.417969 L 130.03125 42.878906 L 129.328125 43.363281 L 128.597656 43.871094 L 127.773438 44.472656 L 126.90625 45.117188 L 126.082031 45.738281 L 125.285156 46.363281 L 124.601562 46.9375 L 123.96875 47.46875 L 123.285156 48.042969 L 122.605469 48.621094 L 121.828125 49.289062 L 121.007812 49.980469 L 120.230469 50.648438 L 119.457031 51.296875 L 118.75 51.964844 L 118.117188 52.609375 L 117.457031 53.300781 L 116.800781 53.992188 L 116.09375 54.730469 L 115.320312 55.492188 L 114.472656 56.300781 L 113.578125 57.152344 L 112.757812 57.960938 L 111.980469 58.765625 L 111.160156 59.621094 L 110.3125 60.496094 L 109.421875 61.394531 L 108.503906 62.316406 L 107.5625 63.261719 L 106.625 64.230469 L 105.707031 65.222656 L 104.835938 66.214844 L 103.921875 67.226562 L 102.980469 68.289062 L 102.039062 69.324219 L 101.078125 70.339844 L 100.160156 71.355469 L 99.289062 72.324219 L 98.421875 73.292969 L 97.574219 74.285156 L 96.753906 75.230469 L 95.929688 76.175781 L 95.15625 77.074219 L 94.402344 77.972656 L 93.675781 78.871094 L 92.96875 79.769531 L 92.21875 80.671875 L 91.441406 81.570312 L 90.617188 82.492188 L 89.75 83.414062 L 88.902344 84.335938 L 88.105469 85.28125 L 87.304688 86.226562 L 86.554688 87.171875 L 85.777344 88.140625 L 84.953125 89.109375 L 84.132812 90.054688 L 83.308594 91.023438 L 82.488281 91.96875 L 81.710938 92.914062 L 80.960938 93.859375 L 80.230469 94.78125 L 79.457031 95.726562 L 78.632812 96.671875 L 77.832031 97.617188 L 77.082031 98.539062 L 76.398438 99.484375 L 75.765625 100.429688 L 75.226562 101.304688 L 74.730469 102.113281 L 74.191406 102.988281 L 73.601562 103.867188 L 73.015625 104.742188 L 72.40625 105.617188 L 71.792969 106.449219 L 71.230469 107.277344 L 70.664062 108.085938 L 70.125 108.867188 L 69.632812 109.652344 L 69.160156 110.414062 L 68.714844 111.175781 L 68.246094 111.933594 L 67.773438 112.671875 L 67.304688 113.410156 L 66.8125 114.148438 L 66.316406 114.863281 L 65.800781 115.601562 L 65.285156 116.316406 L 64.765625 117.03125 L 64.273438 117.746094 L 63.828125 118.460938 L 63.402344 119.152344 L 63.027344 119.84375 L 62.628906 120.558594 L 62.277344 121.273438 L 61.898438 122.011719 L 61.523438 122.773438 L 61.125 123.554688 L 60.675781 124.339844 L 60.207031 125.148438 L 59.738281 125.90625 L 59.289062 126.667969 L 58.890625 127.3125 L 58.5625 127.890625 L 58.210938 128.488281 L 57.855469 129.136719 L 57.527344 129.710938 L 57.199219 130.265625 L 56.894531 130.796875 L 56.613281 131.304688 L 56.328125 131.789062 L 56.046875 132.25 L 55.765625 132.664062 L 55.53125 133.054688 L 55.25 133.445312 L 54.964844 133.816406 L 54.683594 134.207031 L 54.355469 134.601562 L 54.050781 134.96875 L 53.722656 135.316406 L 53.414062 135.660156 L 53.085938 135.984375 L 52.757812 136.328125 L 52.429688 136.652344 L 52.121094 136.929688 L 51.839844 137.207031 L 51.582031 137.460938 L 51.277344 137.734375 L 50.972656 138.011719 L 50.664062 138.289062 L 50.359375 138.519531 L 50.078125 138.75 L 49.820312 138.957031 L 49.5625 139.140625 L 49.136719 139.464844 L 48.832031 139.671875 L 48.527344 139.925781 L 47.964844 140.339844 L 47.703125 140.570312 L 48.035156 140.824219 L 48.457031 140.941406 L 48.996094 141.03125 L 49.585938 141.101562 L 49.9375 141.125 L 50.359375 141.148438 L 50.804688 141.171875 L 51.324219 141.171875 L 51.910156 141.195312 L 52.570312 141.171875 L 53.25 141.148438 L 53.957031 141.101562 L 54.683594 141.054688 L 55.4375 141.011719 L 56.1875 140.941406 L 57.128906 140.847656 L 58.210938 140.734375 L 59.242188 140.617188 L 60.253906 140.480469 L 61.359375 140.296875 L 62.511719 140.085938 L 63.804688 139.835938 L 65.261719 139.535156 L 66.625 139.28125 L 67.9375 139.003906 L 69.347656 138.726562 L 70.808594 138.449219 L 72.335938 138.175781 L 73.910156 137.921875 L 75.460938 137.691406 L 77.058594 137.460938 L 78.679688 137.230469 L 80.347656 137.042969 L 82.039062 136.882812 L 83.710938 136.746094 L 85.355469 136.675781 L 87.046875 136.605469 L 88.738281 136.582031 L 90.40625 136.535156 L 92.121094 136.492188 L 93.886719 136.445312 L 95.484375 136.421875 L 96.988281 136.398438 L 98.421875 136.375 L 99.785156 136.375 L 101.289062 136.351562 L 102.910156 136.351562 L 104.648438 136.375 L 106.410156 136.398438 L 108.222656 136.445312 L 110.054688 136.492188 L 111.910156 136.535156 L 113.792969 136.582031 L 115.671875 136.628906 L 117.574219 136.699219 L 119.433594 136.789062 L 123.238281 136.976562 L 125.191406 137.089844 L 127.117188 137.183594 L 129.042969 137.296875 L 130.972656 137.390625 L 132.96875 137.480469 L 135.039062 137.550781 L 137.152344 137.644531 L 139.265625 137.734375 L 141.382812 137.851562 L 143.472656 137.964844 L 145.589844 138.082031 L 147.703125 138.21875 L 149.820312 138.382812 L 151.933594 138.542969 L 154.050781 138.703125 L 156.140625 138.890625 L 158.257812 139.074219 L 160.417969 139.234375 L 162.605469 139.417969 L 164.8125 139.582031 L 167.023438 139.742188 L 169.207031 139.902344 L 171.347656 140.066406 L 173.460938 140.226562 L 175.554688 140.433594 L 177.597656 140.664062 L 179.621094 140.917969 L 181.59375 141.171875 L 183.519531 141.449219 L 185.425781 141.679688 L 187.351562 141.886719 L 189.230469 142.09375 L 191.089844 142.253906 L 192.898438 142.417969 L 194.613281 142.578125 L 196.257812 142.738281 L 197.835938 142.921875 L 199.339844 143.109375 L 200.773438 143.316406 L 202.183594 143.523438 L 203.519531 143.753906 L 204.8125 143.960938 L 206.082031 144.191406 L 207.304688 144.398438 L 208.480469 144.605469 L 209.632812 144.835938 L 210.738281 145.042969 L 211.769531 145.253906 L 212.734375 145.460938 L 213.628906 145.644531 L 214.496094 145.804688 L 215.320312 145.988281 L 216.117188 146.128906 L 216.871094 146.265625 L 217.574219 146.359375 L 218.234375 146.40625 L 218.867188 146.453125 L 219.972656 146.453125 L 220.417969 146.429688 L 220.84375 146.40625 L 221.195312 146.382812 L 221.523438 146.359375 L 222.0625 146.3125 L 222.441406 146.265625 L 222.816406 146.199219 L 222.980469 145.945312 L 223.050781 145.621094 L 223.050781 145.277344 L 222.933594 145 L 222.839844 144.628906 L 222.652344 144.261719 L 222.488281 143.984375 L 222.300781 143.660156 L 222.039062 143.199219 L 221.851562 142.902344 L 221.664062 142.601562 L 221.429688 142.277344 L 221.171875 141.933594 L 220.867188 141.585938 L 220.558594 141.21875 L 220.230469 140.824219 L 219.925781 140.410156 L 219.597656 139.996094 L 219.292969 139.535156 L 218.960938 139.050781 L 218.609375 138.542969 L 218.234375 137.988281 L 217.8125 137.414062 L 217.363281 136.8125 L 216.472656 135.523438 L 216 134.832031 L 215.484375 134.140625 L 214.917969 133.378906 L 214.355469 132.617188 L 213.792969 131.808594 L 213.226562 130.980469 L 212.664062 130.128906 L 212.027344 129.25 L 211.371094 128.375 L 210.640625 127.453125 L 209.867188 126.53125 L 209.089844 125.585938 L 208.292969 124.617188 L 207.515625 123.648438 L 206.742188 122.679688 L 205.964844 121.664062 L 205.121094 120.652344 L 204.25 119.613281 L 203.378906 118.53125 L 202.488281 117.421875 L 201.640625 116.316406 L 200.820312 115.1875 L 199.996094 114.054688 L 199.148438 112.902344 L 198.28125 111.726562 L 197.363281 110.550781 L 196.472656 109.351562 L 195.601562 108.128906 L 194.730469 106.886719 L 193.863281 105.640625 L 192.96875 104.371094 L 192.074219 103.082031 L 191.207031 101.765625 L 190.335938 100.453125 L 189.515625 99.136719 L 188.714844 97.800781 L 187.917969 96.488281 L 187.117188 95.171875 L 186.292969 93.835938 L 185.449219 92.519531 L 184.625 91.183594 L 183.828125 89.847656 L 183.027344 88.53125 L 182.277344 87.195312 L 181.476562 85.882812 L 180.652344 84.589844 L 179.832031 83.277344 L 179.007812 81.960938 L 178.234375 80.671875 L 177.480469 79.378906 L 176.730469 78.109375 L 175.976562 76.867188 L 175.25 75.644531 L 174.496094 74.445312 L 173.769531 73.246094 L 173.0625 72.046875 L 172.382812 70.871094 L 171.722656 69.695312 L 171.066406 68.542969 L 170.40625 67.390625 L 169.726562 66.238281 L 169.042969 65.128906 L 168.363281 64.023438 L 167.703125 62.960938 L 167.09375 61.925781 L 166.507812 60.886719 L 165.964844 59.894531 L 165.449219 58.90625 L 164.976562 57.9375 L 164.53125 56.96875 L 164.109375 56.023438 L 163.6875 55.101562 L 163.285156 54.199219 L 162.886719 53.324219 L 162.464844 52.472656 L 162.039062 51.640625 L 161.617188 50.835938 L 161.21875 50.050781 L 160.84375 49.289062 L 160.511719 48.574219 L 160.207031 47.882812 L 159.902344 47.214844 L 159.621094 46.59375 L 159.339844 45.96875 L 159.054688 45.371094 L 158.796875 44.792969 L 158.539062 44.261719 L 158.304688 43.757812 L 158.070312 43.273438 L 157.832031 42.8125 L 157.574219 42.351562 L 157.339844 41.886719 L 157.082031 41.449219 L 156.847656 41.035156 L 156.613281 40.644531 L 156.398438 40.296875 L 156.1875 39.976562 L 155.976562 39.675781 L 155.132812 38.566406 L 154.941406 38.292969 L 154.753906 38.039062 L 154.425781 37.53125 L 154.144531 37.046875 L 153.910156 36.5625 L 153.792969 36.285156 L 153.652344 36.007812 L 153.507812 35.730469 L 153.25 35.269531 L 153.085938 34.925781 L 152.898438 34.554688 L 152.664062 34.117188 L 152.453125 33.75 L 152.265625 33.472656 L 151.957031 33.171875 L 151.699219 32.894531 L 151.464844 32.644531 L 151.183594 32.414062 L 150.925781 32.25 L 150.664062 32.066406 L 150.359375 31.972656 L 150.03125 32.136719 L 149.65625 32.296875 L 149.375 32.457031 L 148.996094 32.757812 L 148.714844 33.035156 L 148.503906 33.289062 L 148.410156 33.632812 L 148.175781 33.863281 L 147.84375 33.933594 L 147.539062 33.957031 L 146.929688 33.957031 L 146.578125 34.027344 L 146.199219 34.164062 L 145.871094 34.394531 L 145.519531 34.671875 L 145.214844 34.949219 L 144.90625 35.25 L 144.648438 35.523438 L 144.34375 35.871094 L 144.015625 36.261719 L 143.617188 36.792969 L 143.355469 37.117188 L 143.050781 37.484375 L 142.746094 37.898438 L 142.417969 38.316406 L 142.085938 38.777344 L 141.710938 39.261719 L 141.335938 39.8125 L 140.890625 40.414062 L 140.371094 41.082031 L 139.785156 41.84375 L 139.21875 42.535156 L 138.632812 43.226562 L 137.976562 43.964844 L 137.292969 44.722656 L 136.636719 45.484375 L 136 46.246094 L 135.390625 46.984375 L 134.824219 47.699219 L 134.238281 48.460938 L 133.652344 49.21875 L 132.992188 50.027344 L 132.3125 50.859375 L 131.652344 51.664062 L 130.972656 52.519531 L 130.265625 53.371094 L 129.539062 54.269531 L 128.738281 55.285156 L 127.894531 56.34375 L 126.246094 58.375 L 125.402344 59.386719 L 124.554688 60.425781 L 123.734375 61.488281 L 122.886719 62.570312 L 122.015625 63.722656 L 121.054688 64.898438 L 120.066406 66.121094 L 119.03125 67.390625 L 118 68.65625 L 116.964844 69.996094 L 115.882812 71.378906 L 114.730469 72.832031 L 113.554688 74.304688 L 112.382812 75.804688 L 111.207031 77.304688 L 110.054688 78.800781 L 109.019531 80.164062 L 108.035156 81.386719 L 107.117188 82.539062 L 106.222656 83.644531 L 105.285156 84.84375 L 104.273438 86.132812 L 103.238281 87.496094 L 102.179688 88.855469 L 101.148438 90.214844 L 100.089844 91.574219 L 99.054688 92.914062 L 98.023438 94.25 L 96.988281 95.609375 L 95.929688 96.949219 L 94.917969 98.308594 L 93.910156 99.667969 L 92.921875 101.007812 L 91.933594 102.34375 L 90.949219 103.65625 L 89.9375 104.972656 L 88.972656 106.285156 L 88.011719 107.578125 L 87.09375 108.84375 L 86.152344 110.089844 L 85.191406 111.359375 L 84.179688 112.605469 L 83.191406 113.847656 L 82.203125 115.070312 L 81.265625 116.269531 L 80.324219 117.46875 L 79.335938 118.667969 L 78.351562 119.84375 L 77.386719 121.042969 L 76.445312 122.195312 L 75.601562 123.347656 L 74.777344 124.457031 L 74.003906 125.515625 L 73.25 126.554688 L 72.5 127.566406 L 71.769531 128.558594 L 71.042969 129.527344 L 70.335938 130.496094 L 69.65625 131.464844 L 68.949219 132.410156 L 68.246094 133.332031 L 67.539062 134.253906 L 66.835938 135.152344 L 66.128906 136.050781 L 65.449219 136.929688 L 64.789062 137.78125 L 64.132812 138.613281 L 63.472656 139.417969 L 62.816406 140.203125 L 62.203125 140.964844 L 61.59375 141.679688 L 61.007812 142.347656 L 60.464844 142.992188 L 59.925781 143.570312 L 59.433594 144.078125 L 58.960938 144.5625 L 58.5625 144.953125 L 58.210938 145.320312 L 57.902344 145.621094 L 57.667969 145.875 L 57.292969 146.265625 L 56.988281 146.542969 L 56.683594 146.796875 L 56.421875 146.980469 L 56.140625 147.234375 L 55.882812 147.441406 L 56.023438 147.167969 L 56.445312 147.050781 L 56.753906 146.980469 L 57.128906 146.933594 L 57.550781 146.914062 L 58.046875 146.890625 L 58.609375 146.890625 L 59.242188 146.84375 L 59.972656 146.796875 L 60.722656 146.703125 L 61.523438 146.589844 L 62.371094 146.472656 L 63.285156 146.335938 L 64.273438 146.222656 L 65.355469 146.105469 L 66.480469 145.988281 L 67.632812 145.875 L 68.855469 145.757812 L 70.148438 145.644531 L 71.511719 145.527344 L 72.945312 145.4375 L 74.449219 145.296875 L 75.976562 145.183594 L 77.550781 145.042969 L 79.21875 144.90625 L 80.9375 144.746094 L 82.722656 144.605469 L 84.578125 144.445312 L 86.480469 144.308594 L 88.433594 144.144531 L 90.429688 144.007812 L 92.453125 143.847656 L 94.472656 143.683594 L 96.542969 143.523438 L 98.65625 143.386719 L 100.820312 143.222656 L 103.027344 143.085938 L 105.285156 142.902344 L 107.585938 142.738281 L 109.914062 142.578125 L 112.289062 142.417969 L 114.660156 142.300781 L 117.058594 142.1875 L 119.433594 142.117188 L 121.804688 142.046875 L 124.179688 142.046875 L 126.554688 142.070312 L 128.925781 142.117188 L 131.300781 142.207031 L 133.699219 142.324219 L 136.117188 142.4375 L 140.914062 142.671875 L 143.308594 142.785156 L 145.753906 142.878906 L 148.222656 142.992188 L 150.738281 143.109375 L 153.273438 143.222656 L 155.835938 143.339844 L 158.351562 143.453125 L 160.84375 143.570312 L 163.308594 143.707031 L 165.753906 143.824219 L 168.199219 143.9375 L 170.59375 144.054688 L 172.945312 144.144531 L 175.296875 144.238281 L 177.621094 144.332031 L 179.949219 144.445312 L 182.253906 144.5625 L 184.53125 144.652344 L 186.765625 144.722656 L 188.949219 144.792969 L 191.136719 144.835938 L 193.296875 144.859375 L 195.414062 144.90625 L 197.480469 144.929688 L 199.480469 144.953125 L 201.429688 144.976562 L 203.285156 145 L 205.097656 145.023438 L 206.789062 145.066406 L 208.386719 145.089844 L 209.890625 145.113281 L 211.300781 145.136719 L 212.617188 145.160156 L 213.839844 145.207031 L 214.992188 145.253906 L 216.023438 145.320312 L 216.964844 145.367188 L 217.8125 145.4375 L 218.515625 145.484375 L 219.101562 145.507812 L 219.621094 145.550781 L 220.019531 145.574219 L 220.324219 145.574219 L 220.726562 145.597656 L 220.277344 145.367188 L 219.761719 145.160156 L 219.363281 144.90625 L 218.984375 144.5625 L 218.5625 144.144531 L 218.140625 143.636719 L 217.929688 143.339844 L 217.714844 143.015625 L 217.457031 142.648438 L 217.199219 142.253906 L 216.941406 141.839844 L 216.378906 140.917969 L 216.070312 140.410156 L 215.742188 139.902344 L 215.390625 139.394531 L 215.039062 138.867188 L 214.660156 138.289062 L 214.261719 137.710938 L 213.863281 137.089844 L 213.4375 136.445312 L 212.992188 135.777344 L 212.523438 135.105469 L 212.050781 134.4375 L 211.535156 133.722656 L 210.996094 132.984375 L 210.40625 132.226562 L 209.820312 131.441406 L 209.183594 130.632812 L 208.550781 129.828125 L 207.941406 128.972656 L 207.328125 128.121094 L 206.71875 127.222656 L 206.082031 126.277344 L 205.449219 125.332031 L 204.789062 124.363281 L 204.109375 123.347656 L 203.425781 122.3125 L 202.722656 121.25 L 202.015625 120.191406 L 201.335938 119.105469 L 200.628906 118.023438 L 199.925781 116.9375 L 199.171875 115.832031 L 198.398438 114.726562 L 197.597656 113.59375 L 196.800781 112.464844 L 196 111.3125 L 195.226562 110.136719 L 194.425781 108.960938 L 193.605469 107.761719 L 192.734375 106.539062 L 191.839844 105.316406 L 190.949219 104.097656 L 190.054688 102.851562 L 189.136719 101.605469 L 188.222656 100.335938 L 187.234375 99.070312 L 186.199219 97.777344 L 185.167969 96.488281 L 184.132812 95.171875 L 183.074219 93.859375 L 182.015625 92.542969 L 180.914062 91.183594 L 179.785156 89.800781 L 178.679688 88.441406 L 177.574219 87.035156 L 176.449219 85.628906 L 175.296875 84.222656 L 174.121094 82.792969 L 172.96875 81.386719 L 171.839844 79.957031 L 170.738281 78.550781 L 169.609375 77.164062 L 168.480469 75.804688 L 167.375 74.46875 L 166.292969 73.128906 L 165.238281 71.792969 L 164.15625 70.480469 L 163.074219 69.164062 L 162.015625 67.851562 L 160.960938 66.535156 L 159.949219 65.246094 L 158.960938 63.953125 L 157.976562 62.664062 L 156.988281 61.371094 L 156.046875 60.082031 L 155.15625 58.789062 L 154.285156 57.519531 L 153.484375 56.277344 L 152.6875 55.03125 L 151.863281 53.832031 L 151.019531 52.632812 L 150.171875 51.480469 L 149.304688 50.375 L 148.480469 49.265625 L 147.679688 48.183594 L 146.929688 47.144531 L 146.175781 46.152344 L 145.449219 45.1875 L 144.671875 44.261719 L 143.921875 43.410156 L 143.191406 42.582031 L 142.464844 41.796875 L 141.78125 41.058594 L 141.148438 40.367188 L 140.511719 39.699219 L 139.925781 39.074219 L 139.386719 38.5 L 138.890625 37.921875 L 138.398438 37.390625 L 137.929688 36.886719 L 137.480469 36.445312 L 137.035156 36.054688 L 136.613281 35.710938 L 136.257812 35.410156 L 135.953125 35.203125 L 135.484375 34.855469 L 135.132812 34.625 L 134.824219 34.511719 L 134.519531 34.464844 L 134.214844 34.511719 L 133.933594 34.855469 L 133.769531 35.15625 L 133.578125 35.457031 L 133.414062 35.710938 L 133.226562 36.054688 L 132.96875 36.46875 L 132.710938 36.90625 L 132.476562 37.277344 L 132.171875 37.691406 L 131.957031 37.96875 L 131.722656 38.246094 L 131.488281 38.546875 L 131.230469 38.84375 L 130.972656 39.144531 L 130.710938 39.492188 L 130.453125 39.882812 L 130.148438 40.273438 L 129.820312 40.667969 L 129.46875 41.128906 L 129.113281 41.613281 L 128.714844 42.140625 L 128.316406 42.71875 L 127.867188 43.339844 L 127.398438 43.988281 L 126.882812 44.65625 L 126.363281 45.371094 L 125.824219 46.109375 L 125.285156 46.890625 L 124.765625 47.722656 L 124.25 48.597656 L 123.734375 49.496094 L 123.191406 50.441406 L 122.652344 51.410156 L 122.085938 52.425781 L 121.476562 53.464844 L 120.820312 54.546875 L 120.113281 55.675781 L 119.386719 56.875 L 118.65625 58.074219 L 117.90625 59.34375 L 117.128906 60.65625 L 116.351562 61.992188 L 115.53125 63.378906 L 114.660156 64.828125 L 113.769531 66.28125 L 112.851562 67.804688 L 111.933594 69.394531 L 110.949219 71.054688 L 109.914062 72.785156 L 108.808594 74.558594 L 107.679688 76.382812 L 106.507812 78.226562 L 105.332031 80.117188 L 104.109375 82.007812 L 102.863281 83.921875 L 101.570312 85.859375 L 100.277344 87.816406 L 98.984375 89.753906 L 97.667969 91.691406 L 96.375 93.628906 L 95.085938 95.519531 L 93.839844 97.386719 L 91.394531 101.074219 L 90.148438 102.898438 L 88.902344 104.695312 L 87.679688 106.492188 L 86.457031 108.246094 L 85.238281 109.953125 L 84.0625 111.636719 L 82.886719 113.296875 L 81.757812 114.886719 L 80.652344 116.429688 L 79.550781 117.953125 L 78.445312 119.453125 L 77.386719 120.925781 L 76.398438 122.378906 L 75.4375 123.832031 L 74.472656 125.261719 L 73.53125 126.667969 L 72.59375 128.027344 L 71.675781 129.320312 L 70.808594 130.542969 L 70.007812 131.742188 L 69.230469 132.871094 L 68.480469 133.953125 L 67.726562 134.992188 L 67.023438 135.984375 L 66.339844 136.929688 L 65.660156 137.828125 L 65.023438 138.679688 L 64.414062 139.511719 L 63.851562 140.316406 L 63.355469 141.078125 L 62.886719 141.816406 L 62.441406 142.507812 L 62.039062 143.175781 L 61.664062 143.777344 L 61.335938 144.308594 L 61.054688 144.769531 L 60.820312 145.160156 L 60.628906 145.484375 L 60.464844 145.78125 L 60.230469 146.265625 L 60.019531 146.703125 L 59.808594 147.097656 L 59.644531 147.441406 L 59.480469 147.835938 L 59.503906 148.179688 L 59.949219 148.273438 L 60.441406 148.320312 L 61.007812 148.363281 L 61.335938 148.386719 L 61.664062 148.386719 L 62.015625 148.410156 L 62.371094 148.433594 L 62.722656 148.457031 L 63.074219 148.503906 L 63.472656 148.550781 L 63.921875 148.59375 L 64.414062 148.640625 L 64.953125 148.664062 L 65.519531 148.710938 L 66.105469 148.734375 L 66.695312 148.757812 L 67.328125 148.78125 L 72.617188 148.78125 L 73.53125 148.804688 L 74.496094 148.828125 L 75.484375 148.847656 L 76.519531 148.847656 L 77.597656 148.871094 L 82.441406 148.871094 L 83.78125 148.894531 L 85.167969 148.917969 L 86.578125 148.941406 L 88.035156 148.988281 L 89.515625 149.011719 L 94.121094 149.011719 L 95.742188 148.964844 L 97.386719 148.941406 L 99.054688 148.871094 L 100.746094 148.828125 L 102.488281 148.757812 L 106.058594 148.617188 L 107.890625 148.527344 L 109.75 148.410156 L 111.628906 148.320312 L 113.53125 148.226562 L 115.414062 148.132812 L 117.316406 148.042969 L 119.21875 147.949219 L 121.125 147.878906 L 123.050781 147.8125 L 124.976562 147.742188 L 126.929688 147.695312 L 128.855469 147.648438 L 130.785156 147.628906 L 132.734375 147.648438 L 134.683594 147.695312 L 136.613281 147.742188 L 138.539062 147.8125 L 140.488281 147.878906 L 142.417969 147.949219 L 144.367188 148.042969 L 146.316406 148.132812 L 148.246094 148.25 L 150.171875 148.320312 L 152.097656 148.386719 L 154.027344 148.457031 L 155.953125 148.480469 L 157.90625 148.527344 L 161.757812 148.527344 L 163.710938 148.503906 L 167.609375 148.410156 L 169.585938 148.363281 L 171.535156 148.296875 L 173.507812 148.226562 L 175.507812 148.15625 L 177.527344 148.066406 L 179.550781 147.996094 L 181.570312 147.902344 L 183.546875 147.8125 L 185.496094 147.71875 L 187.398438 147.628906 L 189.257812 147.535156 L 191.089844 147.441406 L 192.875 147.351562 L 194.636719 147.257812 L 196.375 147.167969 L 198.070312 147.074219 L 199.738281 146.957031 L 201.359375 146.867188 L 202.957031 146.75 L 204.53125 146.613281 L 206.058594 146.472656 L 207.5625 146.3125 L 208.996094 146.128906 L 210.40625 145.96875 L 211.746094 145.78125 L 213.015625 145.597656 L 214.261719 145.4375 L 215.390625 145.277344 L 216.449219 145.160156 L 217.386719 145.042969 L 218.210938 144.953125 L 218.960938 144.859375 L 219.644531 144.769531 L 220.253906 144.675781 L 220.820312 144.582031 L 221.3125 144.515625 L 221.6875 144.445312 L 222.207031 144.261719 L 222.535156 144.03125 L 222.722656 143.730469 L 222.792969 143.40625 L 222.746094 143.0625 L 222.582031 142.671875 L 222.324219 142.253906 L 221.945312 141.792969 L 221.710938 141.585938 L 221.476562 141.355469 L 221.195312 141.125 L 220.914062 140.871094 L 220.65625 140.59375 L 220.394531 140.339844 L 220.160156 140.066406 L 219.925781 139.765625 L 219.667969 139.464844 L 219.363281 139.121094 L 219.054688 138.75 L 218.75 138.382812 L 218.46875 137.964844 L 218.164062 137.527344 L 217.859375 137.066406 L 217.527344 136.558594 L 217.175781 136.050781 L 216.824219 135.523438 L 216.449219 134.96875 L 216.046875 134.394531 L 215.648438 133.792969 L 215.203125 133.171875 L 214.730469 132.523438 L 213.746094 131.1875 L 213.25 130.472656 L 212.78125 129.757812 L 212.265625 128.996094 L 211.746094 128.214844 L 211.183594 127.382812 L 210.59375 126.554688 L 209.984375 125.675781 L 209.351562 124.800781 L 208.714844 123.902344 L 208.082031 123.027344 L 207.421875 122.125 L 206.789062 121.226562 L 206.128906 120.328125 L 205.449219 119.40625 L 204.742188 118.460938 L 204.015625 117.515625 L 203.285156 116.546875 L 202.558594 115.578125 L 201.828125 114.5625 L 201.125 113.550781 L 200.371094 112.488281 L 199.597656 111.40625 L 198.796875 110.320312 L 197.976562 109.214844 L 196.375 106.910156 L 195.578125 105.734375 L 194.777344 104.558594 L 193.933594 103.359375 L 193.0625 102.136719 L 192.148438 100.9375 L 191.253906 99.691406 L 190.3125 98.445312 L 189.398438 97.203125 L 188.457031 95.933594 L 187.492188 94.640625 L 186.53125 93.375 L 185.542969 92.105469 L 184.53125 90.816406 L 183.546875 89.523438 L 182.511719 88.210938 L 181.476562 86.871094 L 180.417969 85.535156 L 179.363281 84.199219 L 178.304688 82.835938 L 177.222656 81.476562 L 176.117188 80.117188 L 174.992188 78.734375 L 173.816406 77.351562 L 172.664062 75.964844 L 170.359375 73.246094 L 169.230469 71.886719 L 168.082031 70.503906 L 166.953125 69.140625 L 165.847656 67.734375 L 164.8125 66.351562 L 163.757812 64.96875 L 162.699219 63.585938 L 161.640625 62.226562 L 160.582031 60.886719 L 159.527344 59.574219 L 158.515625 58.257812 L 157.503906 56.96875 L 156.519531 55.699219 L 155.578125 54.429688 L 154.660156 53.164062 L 153.792969 51.917969 L 152.96875 50.648438 L 152.171875 49.429688 L 151.371094 48.230469 L 150.59375 47.054688 L 149.820312 45.945312 L 149.066406 44.863281 L 148.363281 43.847656 L 147.679688 42.855469 L 147.046875 41.933594 L 146.460938 41.058594 L 145.894531 40.226562 L 145.355469 39.492188 L 144.8125 38.800781 L 144.320312 38.128906 L 143.828125 37.507812 L 143.378906 36.929688 L 142.933594 36.402344 L 142.558594 35.941406 L 142.230469 35.523438 L 141.945312 35.179688 L 141.710938 34.902344 L 141.335938 34.511719 L 140.984375 34.257812 L 140.675781 34.164062 L 140.324219 34.210938 L 140.042969 34.347656 L 139.738281 34.535156 L 139.480469 34.71875 L 139.21875 34.972656 L 138.867188 35.339844 L 138.65625 35.570312 L 138.421875 35.824219 L 138.140625 36.101562 L 137.832031 36.378906 L 137.503906 36.699219 L 137.128906 37.023438 L 136.707031 37.371094 L 136.28125 37.738281 L 135.835938 38.128906 L 135.390625 38.523438 L 134.917969 38.960938 L 134.378906 39.421875 L 133.792969 39.90625 L 133.15625 40.4375 L 132.476562 41.011719 L 131.746094 41.636719 L 130.972656 42.304688 L 130.171875 43.042969 L 129.351562 43.800781 L 128.480469 44.609375 L 127.585938 45.4375 L 126.648438 46.316406 L 125.707031 47.214844 L 124.71875 48.136719 L 123.710938 49.082031 L 122.675781 50.097656 L 121.617188 51.132812 L 120.535156 52.195312 L 119.433594 53.300781 L 118.304688 54.429688 L 117.152344 55.585938 L 115.976562 56.761719 L 114.753906 57.9375 L 113.53125 59.136719 L 109.867188 62.800781 L 108.621094 64.070312 L 107.375 65.335938 L 106.128906 66.628906 L 104.859375 67.941406 L 103.542969 69.28125 L 102.207031 70.640625 L 100.84375 72 L 99.457031 73.40625 L 98.09375 74.859375 L 96.707031 76.359375 L 95.320312 77.878906 L 93.886719 79.425781 L 92.453125 80.96875 L 91.042969 82.492188 L 89.65625 83.992188 L 88.292969 85.488281 L 86.976562 86.964844 L 85.683594 88.441406 L 84.390625 89.914062 L 81.851562 92.820312 L 80.628906 94.273438 L 79.410156 95.726562 L 78.210938 97.179688 L 77.035156 98.632812 L 75.882812 100.082031 L 74.753906 101.535156 L 73.675781 102.988281 L 72.570312 104.417969 L 70.40625 107.230469 L 69.375 108.59375 L 67.351562 111.21875 L 66.363281 112.488281 L 65.378906 113.710938 L 64.390625 114.957031 L 63.449219 116.15625 L 62.511719 117.332031 L 61.59375 118.507812 L 60.652344 119.660156 L 59.738281 120.789062 L 58.84375 121.917969 L 57.949219 123.027344 L 57.105469 124.085938 L 56.257812 125.101562 L 55.4375 126.070312 L 54.613281 126.992188 L 53.816406 127.84375 L 53.039062 128.652344 L 52.3125 129.433594 L 51.582031 130.171875 L 50.925781 130.863281 L 50.265625 131.511719 L 49.65625 132.132812 L 49.066406 132.734375 L 48.503906 133.308594 L 47.988281 133.816406 L 47.46875 134.277344 L 47.023438 134.691406 L 46.601562 135.0625 L 46.199219 135.382812 L 45.871094 135.683594 L 45.613281 135.9375 L 45.378906 136.167969 L 45 136.558594 L 44.789062 136.789062 L 44.53125 137.066406 L 44.34375 137.367188 L 44.273438 137.667969 L 44.320312 137.964844 L 44.695312 138.128906 L 45.238281 138.058594 L 45.589844 138.011719 L 46.011719 137.941406 L 46.503906 137.875 L 47.023438 137.804688 L 47.5625 137.734375 L 48.152344 137.667969 L 48.761719 137.597656 L 49.398438 137.503906 L 50.078125 137.4375 L 50.78125 137.34375 L 51.558594 137.25 L 52.429688 137.183594 L 53.390625 137.113281 L 54.402344 137.042969 L 55.460938 136.996094 L 56.515625 136.976562 L 57.621094 136.953125 L 58.75 136.953125 L 59.925781 136.976562 L 61.125 136.996094 L 62.394531 137.066406 L 63.6875 137.136719 L 65.046875 137.207031 L 66.457031 137.296875 L 67.914062 137.390625 L 69.445312 137.460938 L 70.996094 137.550781 L 72.617188 137.621094 L 74.285156 137.710938 L 76 137.804688 L 77.785156 137.921875 L 79.621094 137.988281 L 81.546875 138.082031 L 83.519531 138.152344 L 85.519531 138.242188 L 87.5625 138.335938 L 89.632812 138.425781 L 91.769531 138.542969 L 93.933594 138.636719 L 96.140625 138.703125 L 98.375 138.796875 L 100.605469 138.890625 L 102.886719 138.957031 L 105.191406 139.027344 L 107.515625 139.121094 L 109.890625 139.1875 L 112.3125 139.28125 L 114.730469 139.351562 L 117.175781 139.417969 L 119.621094 139.488281 L 122.0625 139.558594 L 124.507812 139.648438 L 129.351562 139.835938 L 131.792969 139.925781 L 134.238281 140.042969 L 136.730469 140.179688 L 139.21875 140.339844 L 141.734375 140.527344 L 144.25 140.710938 L 146.765625 140.871094 L 149.277344 141.011719 L 151.792969 141.148438 L 154.308594 141.261719 L 156.800781 141.378906 L 159.316406 141.472656 L 161.828125 141.539062 L 164.367188 141.609375 L 166.882812 141.65625 L 169.398438 141.726562 L 171.863281 141.792969 L 174.332031 141.863281 L 176.777344 141.933594 L 179.171875 142 L 181.546875 142.046875 L 183.875 142.09375 L 186.175781 142.140625 L 188.480469 142.140625 L 190.808594 142.117188 L 193.109375 142.09375 L 195.390625 142.070312 L 197.621094 142.046875 L 199.808594 142.023438 L 208.035156 142.023438 L 209.960938 142.046875 L 211.792969 142.070312 L 213.558594 142.09375 L 215.226562 142.140625 L 216.753906 142.1875 L 218.210938 142.253906 L 219.574219 142.300781 L 220.84375 142.371094 L 222.015625 142.4375 L 223.097656 142.507812 L 224.0625 142.554688 L 224.90625 142.578125 L 225.683594 142.554688 L 226.367188 142.507812 L 226.976562 142.417969 L 227.492188 142.324219 L 227.941406 142.207031 L 228.269531 142.070312 L 228.644531 141.816406 L 228.832031 141.492188 L 228.878906 141.078125 L 228.691406 140.59375 L 228.527344 140.316406 L 228.292969 140.019531 L 228.011719 139.742188 L 227.703125 139.464844 L 227.398438 139.1875 L 227.046875 138.890625 L 226.671875 138.589844 L 226.292969 138.265625 L 225.894531 137.898438 L 225.496094 137.527344 L 225.097656 137.136719 L 224.695312 136.722656 L 224.296875 136.285156 L 223.851562 135.820312 L 223.402344 135.339844 L 222.910156 134.832031 L 222.394531 134.300781 L 221.828125 133.769531 L 221.242188 133.195312 L 220.628906 132.59375 L 220.019531 131.949219 L 219.386719 131.257812 L 218.75 130.519531 L 218.117188 129.78125 L 217.433594 128.996094 L 216.730469 128.167969 L 215.953125 127.335938 L 215.132812 126.484375 L 214.285156 125.585938 L 213.4375 124.640625 L 212.570312 123.671875 L 211.675781 122.65625 L 210.761719 121.640625 L 209.773438 120.582031 L 208.808594 119.496094 L 207.824219 118.367188 L 206.835938 117.238281 L 205.847656 116.0625 L 204.8125 114.886719 L 203.757812 113.6875 L 202.675781 112.488281 L 201.617188 111.242188 L 200.582031 110 L 199.527344 108.730469 L 198.46875 107.417969 L 197.410156 106.125 L 196.328125 104.789062 L 195.25 103.449219 L 193.039062 100.777344 L 191.910156 99.4375 L 190.785156 98.078125 L 189.65625 96.695312 L 188.550781 95.3125 L 187.421875 93.90625 L 186.269531 92.5 L 185.144531 91.09375 L 184.015625 89.683594 L 182.910156 88.300781 L 181.828125 86.894531 L 180.726562 85.511719 L 179.597656 84.175781 L 178.46875 82.835938 L 177.316406 81.546875 L 176.164062 80.253906 L 174.992188 78.964844 L 173.792969 77.695312 L 172.617188 76.425781 L 171.464844 75.183594 L 170.289062 73.960938 L 169.113281 72.761719 L 167.964844 71.5625 L 166.8125 70.339844 L 165.707031 69.117188 L 164.625 67.898438 L 163.542969 66.675781 L 162.488281 65.453125 L 161.453125 64.253906 L 160.417969 63.03125 L 159.410156 61.832031 L 157.386719 59.480469 L 156.398438 58.328125 L 155.414062 57.199219 L 154.472656 56.046875 L 153.582031 54.890625 L 152.734375 53.714844 L 151.910156 52.5625 L 151.113281 51.433594 L 150.359375 50.304688 L 149.632812 49.199219 L 148.925781 48.089844 L 148.246094 47.03125 L 147.5625 45.992188 L 146.90625 45 L 146.246094 44.054688 L 145.613281 43.15625 L 144.976562 42.28125 L 144.367188 41.402344 L 143.734375 40.550781 L 143.144531 39.722656 L 142.582031 38.914062 L 142.085938 38.128906 L 141.640625 37.390625 L 141.21875 36.699219 L 140.796875 36.03125 L 140.394531 35.433594 L 140.019531 34.902344 L 139.667969 34.441406 L 139.316406 34.050781 L 139.007812 33.75 L 138.703125 33.519531 L 138.398438 33.335938 L 138.117188 33.148438 L 137.667969 32.917969 L 137.316406 32.828125 L 137.011719 32.828125 L 136.777344 33.125 L 136.589844 33.472656 L 136.351562 33.980469 L 136.234375 34.28125 L 136.117188 34.601562 L 136 34.925781 L 135.835938 35.269531 L 135.625 35.640625 L 135.390625 36.078125 L 135.15625 36.539062 L 134.871094 37.023438 L 134.589844 37.554688 L 134.285156 38.128906 L 133.933594 38.730469 L 133.53125 39.351562 L 133.109375 39.976562 L 132.640625 40.644531 L 132.144531 41.335938 L 131.605469 42.074219 L 131.066406 42.832031 L 130.5 43.617188 L 129.890625 44.449219 L 129.253906 45.300781 L 128.574219 46.175781 L 127.84375 47.121094 L 127.070312 48.066406 L 126.269531 49.058594 L 125.425781 50.074219 L 124.554688 51.132812 L 123.6875 52.195312 L 122.769531 53.300781 L 121.804688 54.429688 L 120.820312 55.605469 L 119.785156 56.785156 L 118.703125 57.960938 L 117.621094 59.203125 L 116.496094 60.472656 L 115.320312 61.785156 L 114.074219 63.171875 L 112.804688 64.578125 L 111.464844 66.027344 L 110.101562 67.503906 L 108.691406 69.050781 L 107.257812 70.59375 L 105.800781 72.183594 L 104.320312 73.820312 L 102.816406 75.460938 L 101.3125 77.121094 L 99.738281 78.824219 L 98.164062 80.578125 L 96.542969 82.351562 L 94.941406 84.152344 L 93.34375 85.972656 L 91.792969 87.792969 L 90.265625 89.640625 L 88.761719 91.484375 L 87.304688 93.304688 L 85.871094 95.105469 L 84.484375 96.925781 L 83.121094 98.746094 L 81.757812 100.546875 L 80.417969 102.320312 L 79.078125 104.097656 L 77.761719 105.871094 L 76.46875 107.625 L 75.25 109.375 L 74.074219 111.105469 L 72.921875 112.765625 L 71.792969 114.425781 L 70.6875 116.015625 L 69.65625 117.5625 L 68.644531 119.058594 L 67.679688 120.488281 L 66.71875 121.851562 L 65.800781 123.1875 L 64.882812 124.457031 L 64.039062 125.675781 L 63.214844 126.828125 L 62.441406 127.9375 L 61.664062 128.996094 L 60.914062 130.011719 L 60.183594 131.003906 L 59.457031 131.949219 L 58.773438 132.847656 L 58.117188 133.699219 L 57.503906 134.53125 L 56.941406 135.339844 L 56.398438 136.074219 L 55.90625 136.746094 L 55.414062 137.34375 L 54.988281 137.875 L 54.589844 138.3125 L 54.261719 138.65625 L 54.003906 138.933594 L 53.675781 139.257812 L 53.746094 138.910156 L 54.074219 138.472656 L 54.496094 138.058594 L 54.964844 137.757812 L 55.507812 137.527344 L 55.8125 137.414062 L 56.140625 137.296875 L 56.492188 137.207031 L 56.917969 137.136719 L 57.363281 137.089844 L 57.855469 137.066406 L 58.445312 137.042969 L 59.078125 137.019531 L 59.738281 136.996094 L 60.441406 136.996094 L 61.171875 137.019531 L 61.921875 137.066406 L 62.722656 137.113281 L 63.566406 137.183594 L 64.484375 137.25 L 65.472656 137.320312 L 66.503906 137.414062 L 67.585938 137.480469 L 68.714844 137.527344 L 69.914062 137.574219 L 71.136719 137.621094 L 72.40625 137.667969 L 73.746094 137.710938 L 75.109375 137.757812 L 76.566406 137.804688 L 78.070312 137.851562 L 79.621094 137.921875 L 81.242188 138.011719 L 82.886719 138.105469 L 84.578125 138.195312 L 86.316406 138.265625 L 88.082031 138.335938 L 89.890625 138.425781 L 91.722656 138.542969 L 93.601562 138.65625 L 95.53125 138.75 L 97.527344 138.867188 L 99.574219 138.933594 L 101.6875 139.027344 L 103.828125 139.164062 L 105.988281 139.304688 L 108.128906 139.511719 L 110.289062 139.742188 L 112.453125 139.996094 L 114.660156 140.273438 L 116.917969 140.546875 L 119.195312 140.800781 L 121.5 141.078125 L 123.828125 141.355469 L 126.128906 141.609375 L 128.457031 141.886719 L 130.808594 142.140625 L 133.15625 142.394531 L 135.554688 142.648438 L 138 142.878906 L 140.441406 143.132812 L 142.910156 143.339844 L 145.355469 143.570312 L 147.773438 143.777344 L 150.195312 143.960938 L 152.617188 144.167969 L 155.015625 144.351562 L 157.433594 144.5625 L 159.855469 144.746094 L 162.277344 144.953125 L 164.648438 145.113281 L 167.046875 145.277344 L 169.421875 145.390625 L 171.769531 145.507812 L 174.074219 145.621094 L 176.328125 145.738281 L 178.585938 145.804688 L 180.820312 145.898438 L 183.050781 145.945312 L 185.238281 146.011719 L 187.398438 146.035156 L 189.46875 146.082031 L 191.511719 146.082031 L 193.507812 146.105469 L 197.386719 146.105469 L 199.21875 146.058594 L 200.984375 146.035156 L 202.699219 146.011719 L 204.34375 145.96875 L 205.941406 145.945312 L 207.492188 145.921875 L 208.996094 145.851562 L 210.453125 145.804688 L 211.863281 145.738281 L 213.25 145.667969 L 214.542969 145.597656 L 215.765625 145.527344 L 216.917969 145.460938 L 218 145.390625 L 219.007812 145.320312 L 219.972656 145.253906 L 220.9375 145.183594 L 221.828125 145.113281 L 222.652344 145.042969 L 223.402344 144.953125 L 224.109375 144.859375 L 224.71875 144.746094 L 225.308594 144.628906 L 225.824219 144.515625 L 226.292969 144.398438 L 226.695312 144.308594 L 227.023438 144.238281 L 227.445312 144.144531 L 227.800781 144.03125 L 228.035156 143.753906 L 228.128906 143.429688 L 228.152344 143.0625 L 228.128906 142.691406 L 228.058594 142.277344 L 227.917969 141.863281 L 227.679688 141.425781 L 227.328125 140.941406 L 227.117188 140.6875 L 226.90625 140.410156 L 226.671875 140.109375 L 226.414062 139.8125 L 226.175781 139.488281 L 225.941406 139.140625 L 225.683594 138.796875 L 225.402344 138.425781 L 225.074219 138.035156 L 224.742188 137.621094 L 224.132812 136.699219 L 223.804688 136.214844 L 223.472656 135.707031 L 223.097656 135.175781 L 222.699219 134.625 L 222.277344 134.046875 L 221.804688 133.425781 L 221.359375 132.777344 L 220.890625 132.085938 L 220.417969 131.347656 L 219.925781 130.589844 L 219.386719 129.78125 L 218.820312 128.972656 L 218.234375 128.144531 L 217.597656 127.269531 L 216.917969 126.390625 L 216.1875 125.46875 L 215.4375 124.5 L 214.660156 123.53125 L 213.863281 122.542969 L 213.015625 121.503906 L 212.171875 120.441406 L 211.277344 119.335938 L 210.359375 118.207031 L 209.421875 117.054688 L 208.457031 115.878906 L 207.46875 114.679688 L 206.4375 113.457031 L 205.355469 112.234375 L 204.226562 110.96875 L 203.097656 109.675781 L 201.96875 108.363281 L 200.820312 106.976562 L 199.667969 105.570312 L 198.46875 104.117188 L 197.246094 102.644531 L 196.046875 101.121094 L 194.847656 99.601562 L 193.628906 98.078125 L 192.382812 96.554688 L 191.113281 95.011719 L 189.867188 93.464844 L 188.644531 91.921875 L 187.398438 90.355469 L 186.128906 88.808594 L 184.882812 87.265625 L 183.617188 85.742188 L 182.324219 84.199219 L 181.03125 82.675781 L 179.738281 81.132812 L 178.445312 79.585938 L 177.128906 78.066406 L 175.8125 76.542969 L 174.449219 75.042969 L 173.085938 73.546875 L 171.746094 72.09375 L 170.40625 70.617188 L 166.386719 66.328125 L 165.027344 64.921875 L 163.640625 63.539062 L 162.277344 62.179688 L 160.9375 60.839844 L 159.667969 59.503906 L 158.445312 58.191406 L 156.046875 55.605469 L 154.871094 54.363281 L 153.769531 53.117188 L 152.710938 51.847656 L 151.699219 50.605469 L 150.738281 49.359375 L 149.773438 48.136719 L 148.855469 46.9375 L 147.988281 45.761719 L 147.140625 44.609375 L 146.363281 43.503906 L 145.636719 42.441406 L 144.90625 41.425781 L 144.179688 40.480469 L 143.449219 39.582031 L 142.769531 38.753906 L 142.109375 37.96875 L 141.5 37.207031 L 140.960938 36.515625 L 140.441406 35.894531 L 139.972656 35.316406 L 139.527344 34.808594 L 139.101562 34.347656 L 138.703125 33.980469 L 138.375 33.65625 L 138.070312 33.425781 L 137.621094 33.148438 L 137.152344 33.011719 L 136.683594 33.011719 L 136.351562 33.125 L 136.09375 33.359375 L 135.8125 33.703125 L 135.578125 34.117188 L 135.414062 34.578125 L 135.273438 35.179688 L 135.179688 35.546875 L 135.039062 35.960938 L 134.871094 36.402344 L 134.683594 36.863281 L 134.472656 37.347656 L 134.238281 37.855469 L 133.957031 38.382812 L 133.652344 38.960938 L 133.320312 39.535156 L 132.96875 40.160156 L 132.546875 40.828125 L 132.097656 41.519531 L 131.605469 42.257812 L 131.066406 43.042969 L 130.476562 43.871094 L 129.867188 44.722656 L 129.183594 45.648438 L 128.480469 46.636719 L 127.726562 47.652344 L 126.90625 48.714844 L 126.058594 49.820312 L 125.167969 50.949219 L 124.226562 52.148438 L 123.285156 53.371094 L 122.324219 54.640625 L 121.3125 55.929688 L 120.253906 57.246094 L 119.148438 58.605469 L 118.023438 59.988281 L 116.871094 61.417969 L 115.625 62.917969 L 114.332031 64.484375 L 112.992188 66.097656 L 111.652344 67.757812 L 110.265625 69.441406 L 108.878906 71.148438 L 107.421875 72.898438 L 105.917969 74.628906 L 104.390625 76.382812 L 102.863281 78.109375 L 101.359375 79.863281 L 99.902344 81.617188 L 98.46875 83.34375 L 97.058594 85.050781 L 95.648438 86.78125 L 94.285156 88.488281 L 92.898438 90.167969 L 91.511719 91.851562 L 90.148438 93.511719 L 88.808594 95.171875 L 87.46875 96.878906 L 86.105469 98.609375 L 84.71875 100.359375 L 83.285156 102.113281 L 81.828125 103.867188 L 80.371094 105.617188 L 78.9375 107.371094 L 77.503906 109.097656 L 76.117188 110.828125 L 74.777344 112.535156 L 73.460938 114.21875 L 72.167969 115.832031 L 70.902344 117.375 L 69.703125 118.875 L 68.550781 120.328125 L 67.421875 121.757812 L 66.316406 123.140625 L 65.285156 124.5 L 64.296875 125.792969 L 63.402344 127.015625 L 62.605469 128.167969 L 61.851562 129.25 L 61.125 130.265625 L 60.464844 131.210938 L 59.832031 132.109375 L 59.242188 132.894531 L 58.726562 133.632812 L 58.257812 134.277344 L 57.855469 134.855469 L 57.527344 135.359375 L 57.246094 135.820312 L 57.035156 136.214844 L 56.871094 136.558594 L 56.660156 137.019531 L 56.800781 137.320312 L 57.246094 137.273438 L 57.832031 137.066406 L 58.164062 136.953125 L 58.515625 136.859375 L 58.890625 136.789062 L 59.335938 136.746094 L 59.785156 136.699219 L 60.277344 136.675781 L 60.792969 136.652344 L 61.851562 136.652344 L 62.441406 136.675781 L 63.074219 136.699219 L 63.757812 136.722656 L 64.53125 136.765625 L 65.355469 136.789062 L 66.269531 136.8125 L 67.210938 136.859375 L 68.222656 136.882812 L 69.277344 136.929688 L 70.429688 136.953125 L 71.652344 136.976562 L 72.945312 136.996094 L 74.261719 137.042969 L 75.648438 137.089844 L 77.105469 137.160156 L 78.632812 137.25 L 80.207031 137.367188 L 81.828125 137.503906 L 83.472656 137.644531 L 85.214844 137.78125 L 87 137.941406 L 88.832031 138.082031 L 90.710938 138.242188 L 92.664062 138.382812 L 94.636719 138.519531 L 96.660156 138.65625 L 98.726562 138.796875 L 100.84375 138.957031 L 103.003906 139.121094 L 105.191406 139.28125 L 107.375 139.464844 L 109.5625 139.648438 L 111.816406 139.835938 L 114.121094 139.996094 L 116.445312 140.179688 L 118.796875 140.339844 L 121.148438 140.480469 L 123.472656 140.640625 L 125.847656 140.78125 L 128.222656 140.917969 L 130.640625 141.03125 L 133.109375 141.171875 L 135.625 141.285156 L 138.1875 141.378906 L 140.773438 141.492188 L 143.332031 141.585938 L 145.917969 141.679688 L 148.480469 141.769531 L 151.019531 141.863281 L 153.554688 141.976562 L 158.632812 142.117188 L 161.195312 142.1875 L 163.734375 142.230469 L 166.292969 142.253906 L 168.855469 142.300781 L 178.984375 142.300781 L 181.476562 142.277344 L 183.921875 142.253906 L 186.339844 142.207031 L 188.738281 142.1875 L 191.089844 142.140625 L 193.390625 142.070312 L 195.648438 142.023438 L 197.882812 141.976562 L 200.042969 141.957031 L 202.136719 141.933594 L 204.179688 141.910156 L 206.175781 141.886719 L 208.128906 141.863281 L 210.03125 141.839844 L 211.886719 141.816406 L 213.652344 141.792969 L 215.320312 141.746094 L 216.917969 141.726562 L 218.46875 141.679688 L 219.925781 141.632812 L 221.335938 141.585938 L 222.652344 141.515625 L 223.875 141.449219 L 225.003906 141.378906 L 226.058594 141.308594 L 227.046875 141.242188 L 227.917969 141.195312 L 228.667969 141.148438 L 229.28125 141.125 L 229.773438 141.101562 L 230.171875 141.078125 L 230.640625 141.054688 L 230.949219 141.011719 L 230.617188 140.664062 L 230.382812 140.457031 L 230.125 140.203125 L 229.820312 139.949219 L 229.492188 139.648438 L 229.136719 139.351562 L 228.761719 139.003906 L 228.363281 138.636719 L 227.917969 138.242188 L 227.492188 137.828125 L 227.023438 137.367188 L 226.53125 136.859375 L 226.035156 136.328125 L 225.496094 135.777344 L 224.957031 135.199219 L 224.390625 134.601562 L 223.828125 133.953125 L 223.214844 133.261719 L 222.558594 132.5 L 221.851562 131.71875 L 221.078125 130.886719 L 220.253906 130.035156 L 219.410156 129.136719 L 218.515625 128.214844 L 217.597656 127.246094 L 216.660156 126.253906 L 215.695312 125.214844 L 214.707031 124.15625 L 213.722656 123.027344 L 212.6875 121.871094 L 211.628906 120.671875 L 210.523438 119.453125 L 209.421875 118.183594 L 208.292969 116.871094 L 207.1875 115.53125 L 206.035156 114.148438 L 204.859375 112.71875 L 203.6875 111.242188 L 202.464844 109.746094 L 201.242188 108.199219 L 198.75 105.019531 L 196.257812 101.699219 L 195.039062 100.015625 L 193.792969 98.332031 L 192.546875 96.671875 L 190.007812 93.304688 L 188.738281 91.597656 L 187.46875 89.894531 L 186.222656 88.164062 L 184.980469 86.433594 L 183.757812 84.703125 L 182.535156 82.976562 L 181.359375 81.246094 L 180.160156 79.515625 L 178.9375 77.8125 L 177.714844 76.128906 L 176.449219 74.445312 L 173.957031 71.125 L 172.710938 69.511719 L 171.441406 67.917969 L 170.148438 66.351562 L 168.832031 64.785156 L 167.539062 63.238281 L 166.269531 61.742188 L 165.003906 60.242188 L 163.734375 58.742188 L 161.195312 55.835938 L 159.972656 54.410156 L 158.75 53 L 157.550781 51.617188 L 156.351562 50.257812 L 155.179688 48.898438 L 154.050781 47.582031 L 152.921875 46.269531 L 151.816406 44.976562 L 150.738281 43.6875 L 149.703125 42.464844 L 148.691406 41.265625 L 147.75 40.113281 L 146.835938 39.007812 L 145.964844 37.921875 L 145.097656 36.863281 L 144.296875 35.871094 L 143.519531 34.902344 L 142.769531 34.003906 L 142.085938 33.171875 L 141.429688 32.390625 L 140.796875 31.71875 L 140.230469 31.097656 L 139.714844 30.566406 L 139.21875 30.105469 L 138.773438 29.691406 L 138.375 29.367188 L 138.023438 29.113281 L 137.714844 28.929688 L 137.457031 28.769531 L 137.058594 28.5625 L 136.707031 28.515625 L 136.398438 28.628906 L 136.09375 28.929688 L 135.789062 29.460938 L 135.648438 29.808594 L 135.507812 30.199219 L 135.390625 30.613281 L 135.15625 31.535156 L 135.011719 32.042969 L 134.847656 32.597656 L 134.660156 33.148438 L 134.449219 33.726562 L 134.214844 34.324219 L 133.957031 34.972656 L 133.675781 35.640625 L 133.296875 36.378906 L 132.898438 37.160156 L 132.429688 37.96875 L 131.910156 38.820312 L 131.347656 39.722656 L 130.761719 40.667969 L 130.125 41.65625 L 129.46875 42.671875 L 128.761719 43.757812 L 127.988281 44.886719 L 127.140625 46.039062 L 126.246094 47.238281 L 125.308594 48.484375 L 124.367188 49.773438 L 123.402344 51.109375 L 122.394531 52.496094 L 121.335938 53.925781 L 120.230469 55.421875 L 119.078125 56.96875 L 117.90625 58.535156 L 116.730469 60.171875 L 115.507812 61.832031 L 114.261719 63.539062 L 112.992188 65.292969 L 111.699219 67.089844 L 110.359375 68.933594 L 109.019531 70.871094 L 107.632812 72.855469 L 106.269531 74.859375 L 104.90625 76.84375 L 103.496094 78.847656 L 102.0625 80.855469 L 100.558594 82.882812 L 99.03125 84.957031 L 97.457031 87.035156 L 95.882812 89.132812 L 94.261719 91.253906 L 92.640625 93.351562 L 90.996094 95.472656 L 89.351562 97.570312 L 87.703125 99.667969 L 86.058594 101.722656 L 84.414062 103.75 L 82.792969 105.734375 L 81.195312 107.691406 L 79.597656 109.582031 L 78.023438 111.429688 L 76.492188 113.25 L 74.988281 115.023438 L 73.53125 116.800781 L 72.121094 118.53125 L 70.734375 120.257812 L 69.421875 121.941406 L 68.128906 123.554688 L 66.882812 125.101562 L 65.707031 126.554688 L 64.578125 127.914062 L 63.566406 129.183594 L 62.652344 130.335938 L 61.78125 131.441406 L 60.9375 132.480469 L 60.113281 133.492188 L 59.3125 134.460938 L 58.539062 135.382812 L 57.832031 136.261719 L 57.175781 137.113281 L 56.589844 137.898438 L 56.046875 138.589844 L 55.554688 139.210938 L 55.109375 139.71875 L 54.753906 140.132812 L 54.472656 140.457031 L 54.097656 140.964844 L 54.402344 141.125 L 54.707031 141.148438 L 55.082031 141.125 L 55.554688 141.101562 L 56.023438 141.03125 L 56.542969 140.964844 L 57.105469 140.871094 L 57.738281 140.78125 L 58.445312 140.664062 L 59.21875 140.546875 L 60.042969 140.433594 L 60.914062 140.296875 L 61.828125 140.179688 L 62.816406 140.066406 L 63.851562 139.972656 L 64.976562 139.878906 L 66.175781 139.8125 L 67.421875 139.742188 L 68.738281 139.695312 L 70.125 139.648438 L 71.582031 139.625 L 73.085938 139.601562 L 78.023438 139.601562 L 79.832031 139.625 L 81.710938 139.648438 L 83.6875 139.695312 L 85.707031 139.742188 L 87.796875 139.789062 L 89.960938 139.835938 L 92.191406 139.878906 L 94.449219 139.925781 L 96.777344 139.972656 L 99.171875 140.019531 L 101.617188 140.042969 L 104.132812 140.042969 L 106.695312 140.019531 L 109.277344 139.972656 L 111.933594 139.925781 L 114.589844 139.902344 L 117.292969 139.855469 L 119.996094 139.8125 L 128.175781 139.601562 L 130.902344 139.535156 L 133.652344 139.441406 L 136.421875 139.351562 L 139.21875 139.210938 L 142.015625 139.074219 L 144.835938 138.933594 L 147.609375 138.796875 L 150.359375 138.65625 L 153.0625 138.519531 L 155.695312 138.382812 L 158.328125 138.242188 L 160.914062 138.105469 L 163.496094 137.988281 L 166.058594 137.898438 L 168.621094 137.828125 L 171.160156 137.78125 L 173.675781 137.734375 L 176.164062 137.710938 L 178.609375 137.691406 L 181.054688 137.667969 L 183.425781 137.644531 L 185.753906 137.621094 L 188.058594 137.574219 L 190.335938 137.550781 L 192.59375 137.503906 L 194.800781 137.480469 L 196.941406 137.460938 L 199.007812 137.460938 L 201.007812 137.414062 L 202.980469 137.390625 L 204.882812 137.367188 L 209.984375 137.367188 L 211.441406 137.390625 L 212.828125 137.414062 L 214.144531 137.460938 L 215.390625 137.503906 L 216.542969 137.574219 L 217.574219 137.621094 L 218.539062 137.691406 L 219.410156 137.734375 L 220.207031 137.78125 L 220.890625 137.804688 L 221.5 137.851562 L 221.96875 137.851562 L 222.371094 137.875 L 222.863281 137.851562 L 223.167969 137.828125 L 223.472656 137.597656 L 223.523438 137.230469 L 223.332031 136.929688 L 222.910156 136.582031 L 222.652344 136.421875 L 222.347656 136.261719 L 222.039062 136.074219 L 221.734375 135.890625 L 221.429688 135.660156 L 221.125 135.359375 L 220.820312 135.015625 L 220.511719 134.601562 L 220.207031 134.140625 L 219.902344 133.632812 L 219.597656 133.101562 L 219.269531 132.523438 L 218.9375 131.925781 L 218.5625 131.28125 L 218.1875 130.609375 L 217.8125 129.941406 L 217.386719 129.226562 L 216.964844 128.488281 L 216.496094 127.683594 L 216 126.828125 L 215.460938 125.929688 L 214.871094 124.984375 L 214.261719 124.015625 L 213.628906 123.003906 L 212.96875 121.964844 L 212.265625 120.882812 L 211.488281 119.773438 L 210.640625 118.621094 L 209.75 117.421875 L 208.808594 116.15625 L 207.847656 114.863281 L 206.859375 113.503906 L 205.824219 112.097656 L 204.765625 110.667969 L 203.664062 109.191406 L 202.535156 107.691406 L 201.359375 106.125 L 200.160156 104.511719 L 198.914062 102.851562 L 197.644531 101.191406 L 196.375 99.507812 L 195.0625 97.824219 L 193.722656 96.140625 L 192.359375 94.433594 L 190.996094 92.730469 L 186.765625 87.609375 L 185.332031 85.882812 L 183.875 84.152344 L 182.441406 82.421875 L 180.984375 80.714844 L 179.527344 79.011719 L 178.09375 77.328125 L 176.636719 75.621094 L 175.179688 73.9375 L 173.722656 72.277344 L 172.289062 70.617188 L 170.855469 68.980469 L 169.445312 67.34375 L 168.058594 65.730469 L 166.695312 64.160156 L 165.378906 62.59375 L 164.039062 61.070312 L 162.722656 59.574219 L 161.40625 58.074219 L 160.113281 56.597656 L 158.84375 55.125 L 157.644531 53.695312 L 156.449219 52.289062 L 155.320312 50.902344 L 154.238281 49.542969 L 153.179688 48.207031 L 152.171875 46.867188 L 151.183594 45.578125 L 150.21875 44.308594 L 149.328125 43.0625 L 148.480469 41.84375 L 147.703125 40.667969 L 146.929688 39.535156 L 146.199219 38.453125 L 145.472656 37.4375 L 144.789062 36.46875 L 144.109375 35.570312 L 143.449219 34.742188 L 142.839844 33.957031 L 142.230469 33.21875 L 141.6875 32.574219 L 141.195312 32.019531 L 140.722656 31.535156 L 140.277344 31.121094 L 139.832031 30.820312 L 139.433594 30.589844 L 139.054688 30.429688 L 138.726562 30.335938 L 138.375 30.289062 L 138.023438 30.289062 L 137.667969 30.335938 L 137.363281 30.453125 L 137.082031 30.589844 L 136.824219 30.796875 L 136.566406 31.027344 L 136.328125 31.328125 L 136.09375 31.652344 L 135.882812 32.019531 L 135.695312 32.414062 L 135.507812 32.804688 L 135.34375 33.21875 L 135.15625 33.632812 L 134.988281 34.09375 L 134.800781 34.554688 L 134.613281 35.0625 L 134.402344 35.59375 L 134.191406 36.171875 L 133.933594 36.792969 L 133.605469 37.460938 L 133.226562 38.199219 L 132.804688 38.984375 L 132.335938 39.789062 L 131.816406 40.621094 L 131.253906 41.496094 L 130.640625 42.417969 L 130.007812 43.386719 L 129.300781 44.425781 L 128.550781 45.484375 L 127.726562 46.613281 L 126.859375 47.769531 L 125.941406 48.945312 L 125 50.164062 L 124.015625 51.433594 L 123.003906 52.726562 L 121.898438 54.0625 L 120.75 55.421875 L 119.550781 56.804688 L 118.328125 58.210938 L 117.082031 59.664062 L 115.789062 61.140625 L 114.449219 62.6875 L 113.039062 64.253906 L 111.605469 65.84375 L 110.148438 67.457031 L 108.667969 69.074219 L 107.140625 70.753906 L 105.589844 72.460938 L 103.992188 74.191406 L 102.347656 75.988281 L 100.675781 77.789062 L 97.199219 81.523438 L 95.4375 83.4375 L 93.722656 85.398438 L 92.003906 87.355469 L 90.335938 89.316406 L 88.691406 91.277344 L 87.046875 93.191406 L 85.449219 95.082031 L 82.253906 98.769531 L 80.675781 100.613281 L 79.101562 102.457031 L 77.527344 104.304688 L 72.804688 109.835938 L 71.253906 111.660156 L 69.773438 113.433594 L 68.339844 115.164062 L 66.953125 116.847656 L 65.589844 118.507812 L 64.320312 120.097656 L 63.097656 121.640625 L 61.945312 123.140625 L 60.84375 124.570312 L 59.808594 125.90625 L 58.84375 127.152344 L 57.925781 128.328125 L 57.105469 129.390625 L 56.328125 130.378906 L 55.648438 131.28125 L 55.011719 132.085938 L 54.472656 132.800781 L 54.003906 133.425781 L 53.625 133.929688 L 53.34375 134.347656 L 53.109375 134.667969 L 52.804688 135.0625 L 52.640625 135.40625 L 52.851562 135.777344 L 53.179688 135.960938 L 53.699219 136.074219 L 54.003906 136.121094 L 54.378906 136.144531 L 54.753906 136.191406 L 55.15625 136.214844 L 55.578125 136.238281 L 56.023438 136.285156 L 56.492188 136.328125 L 56.964844 136.375 L 57.503906 136.421875 L 58.09375 136.492188 L 58.726562 136.558594 L 59.433594 136.628906 L 60.160156 136.722656 L 60.960938 136.765625 L 61.804688 136.835938 L 62.675781 136.882812 L 63.636719 136.929688 L 64.648438 136.976562 L 65.730469 137.019531 L 66.882812 137.066406 L 68.058594 137.089844 L 69.300781 137.136719 L 70.59375 137.183594 L 71.957031 137.230469 L 73.367188 137.296875 L 74.824219 137.34375 L 76.328125 137.414062 L 77.902344 137.460938 L 79.527344 137.527344 L 81.171875 137.621094 L 82.863281 137.691406 L 84.601562 137.78125 L 86.386719 137.851562 L 88.246094 137.921875 L 90.148438 138.011719 L 92.097656 138.105469 L 94.074219 138.195312 L 96.09375 138.289062 L 98.164062 138.359375 L 100.277344 138.40625 L 102.441406 138.472656 L 104.671875 138.519531 L 106.90625 138.566406 L 109.136719 138.636719 L 111.417969 138.703125 L 113.722656 138.773438 L 116.046875 138.84375 L 118.421875 138.910156 L 120.820312 138.957031 L 123.238281 139.003906 L 125.707031 139.074219 L 128.175781 139.097656 L 130.664062 139.121094 L 138.375 139.121094 L 140.984375 139.140625 L 146.175781 139.140625 L 148.785156 139.121094 L 151.417969 139.097656 L 159.339844 139.097656 L 161.96875 139.121094 L 167.257812 139.121094 L 169.914062 139.140625 L 177.691406 139.140625 L 180.230469 139.121094 L 182.746094 139.074219 L 185.238281 139.027344 L 187.726562 138.957031 L 190.195312 138.910156 L 192.59375 138.867188 L 194.941406 138.820312 L 197.222656 138.796875 L 199.386719 138.773438 L 201.453125 138.75 L 203.402344 138.75 L 205.261719 138.773438 L 207 138.820312 L 208.621094 138.867188 L 210.101562 138.957031 L 211.488281 139.050781 L 212.804688 139.164062 L 214.027344 139.28125 L 215.179688 139.417969 L 216.210938 139.582031 L 217.105469 139.695312 L 217.882812 139.8125 L 218.5625 139.902344 L 219.148438 139.972656 L 219.644531 140.042969 L 220.066406 140.066406 L 220.394531 140.085938 L 220.890625 140.085938 L 221.242188 139.949219 L 221.335938 139.582031 L 221.265625 139.140625 L 221.03125 138.542969 L 220.867188 138.21875 L 220.628906 137.875 L 220.417969 137.527344 L 220.160156 137.183594 L 219.925781 136.8125 L 219.667969 136.421875 L 219.386719 136.007812 L 219.078125 135.589844 L 218.773438 135.128906 L 218.445312 134.667969 L 218.140625 134.183594 L 217.8125 133.65625 L 217.480469 133.078125 L 217.105469 132.480469 L 216.730469 131.832031 L 216.328125 131.140625 L 215.90625 130.402344 L 215.484375 129.621094 L 215.039062 128.789062 L 214.589844 127.914062 L 214.097656 127.015625 L 213.582031 126.046875 L 213.039062 125.054688 L 212.476562 124.039062 L 211.886719 122.980469 L 211.253906 121.871094 L 210.570312 120.71875 L 209.867188 119.519531 L 209.136719 118.253906 L 208.363281 116.914062 L 207.5625 115.554688 L 206.71875 114.171875 L 205.824219 112.742188 L 204.859375 111.289062 L 203.875 109.835938 L 202.816406 108.339844 L 201.710938 106.839844 L 200.558594 105.339844 L 199.363281 103.84375 L 198.117188 102.34375 L 196.847656 100.820312 L 195.578125 99.324219 L 194.238281 97.800781 L 192.875 96.28125 L 191.464844 94.734375 L 190.054688 93.191406 L 188.644531 91.621094 L 185.871094 88.488281 L 184.507812 86.894531 L 183.144531 85.304688 L 180.417969 82.078125 L 179.054688 80.484375 L 177.691406 78.894531 L 176.328125 77.328125 L 174.964844 75.78125 L 173.582031 74.261719 L 172.195312 72.785156 L 169.46875 69.832031 L 168.152344 68.359375 L 166.835938 66.90625 L 165.542969 65.453125 L 162.957031 62.59375 L 161.710938 61.164062 L 160.511719 59.78125 L 159.339844 58.421875 L 158.164062 57.082031 L 156.988281 55.769531 L 155.8125 54.453125 L 154.683594 53.1875 L 153.582031 51.941406 L 152.523438 50.742188 L 151.488281 49.519531 L 150.476562 48.320312 L 149.492188 47.097656 L 148.527344 45.855469 L 147.609375 44.632812 L 146.742188 43.433594 L 145.894531 42.28125 L 145.097656 41.171875 L 144.296875 40.089844 L 143.519531 39.050781 L 142.769531 38.085938 L 142.0625 37.160156 L 141.429688 36.285156 L 140.84375 35.480469 L 140.300781 34.742188 L 139.785156 34.070312 L 139.316406 33.449219 L 138.84375 32.894531 L 138.398438 32.390625 L 138 31.949219 L 137.597656 31.582031 L 137.269531 31.28125 L 136.964844 31.027344 L 136.707031 30.84375 L 136.234375 30.589844 L 135.882812 30.519531 L 135.460938 30.660156 L 135.15625 30.914062 L 134.800781 31.375 L 134.613281 31.71875 L 134.425781 32.089844 L 134.238281 32.503906 L 134.050781 32.941406 L 133.839844 33.378906 L 133.605469 33.863281 L 133.320312 34.347656 L 133.015625 34.878906 L 132.6875 35.433594 L 132.3125 36.007812 L 131.863281 36.632812 L 131.394531 37.324219 L 130.878906 38.0625 L 130.335938 38.84375 L 129.75 39.699219 L 129.113281 40.597656 L 128.433594 41.566406 L 127.65625 42.582031 L 126.8125 43.6875 L 125.917969 44.816406 L 124.953125 46.015625 L 123.96875 47.261719 L 122.910156 48.550781 L 121.78125 49.890625 L 120.605469 51.363281 L 119.363281 52.910156 L 118.023438 54.546875 L 116.636719 56.230469 L 115.203125 57.960938 L 113.722656 59.734375 L 112.195312 61.578125 L 110.640625 63.46875 L 109.066406 65.40625 L 107.445312 67.390625 L 105.777344 69.417969 L 104.109375 71.515625 L 102.441406 73.660156 L 100.746094 75.804688 L 99.03125 77.996094 L 97.292969 80.1875 L 95.554688 82.375 L 93.839844 84.589844 L 92.144531 86.828125 L 90.476562 89.0625 L 88.808594 91.277344 L 87.164062 93.464844 L 85.542969 95.65625 L 83.945312 97.800781 L 82.371094 99.898438 L 80.84375 101.953125 L 79.363281 103.933594 L 77.878906 105.894531 L 76.445312 107.808594 L 75.035156 109.699219 L 73.648438 111.542969 L 72.289062 113.339844 L 69.5625 116.847656 L 68.222656 118.574219 L 66.859375 120.328125 L 65.542969 122.058594 L 64.273438 123.785156 L 63.050781 125.445312 L 61.898438 127.015625 L 60.820312 128.46875 L 59.832031 129.804688 L 58.960938 130.980469 L 58.210938 132.019531 L 57.550781 132.917969 L 56.988281 133.699219 L 56.492188 134.371094 L 56.09375 134.898438 L 55.789062 135.339844 L 55.554688 135.660156 L 55.390625 135.914062 L 55.203125 136.214844 L 55.058594 136.535156 L 55.15625 136.835938 L 55.414062 137.042969 L 55.859375 137.183594 L 56.164062 137.25 L 56.492188 137.320312 L 56.894531 137.390625 L 57.316406 137.480469 L 57.785156 137.574219 L 58.328125 137.667969 L 58.914062 137.78125 L 59.574219 137.875 L 60.300781 137.964844 L 61.101562 138.035156 L 61.945312 138.082031 L 62.863281 138.152344 L 63.875 138.21875 L 64.953125 138.289062 L 66.105469 138.359375 L 67.328125 138.425781 L 68.621094 138.496094 L 69.960938 138.566406 L 71.394531 138.613281 L 72.875 138.679688 L 74.449219 138.726562 L 76.070312 138.773438 L 77.785156 138.796875 L 79.574219 138.84375 L 81.476562 138.867188 L 83.425781 138.910156 L 85.425781 138.933594 L 87.445312 138.957031 L 89.515625 138.957031 L 91.628906 138.980469 L 93.769531 138.980469 L 96 139.003906 L 98.234375 139.003906 L 100.511719 139.027344 L 105.214844 139.027344 L 107.609375 139.003906 L 110.054688 138.957031 L 112.523438 138.910156 L 115.011719 138.84375 L 117.550781 138.796875 L 120.113281 138.703125 L 122.699219 138.613281 L 125.285156 138.519531 L 127.894531 138.425781 L 130.476562 138.40625 L 133.0625 138.382812 L 135.671875 138.359375 L 138.304688 138.359375 L 143.617188 138.3125 L 154.308594 138.3125 L 156.964844 138.335938 L 164.859375 138.335938 L 170.125 138.289062 L 172.734375 138.265625 L 175.320312 138.21875 L 177.859375 138.152344 L 180.347656 138.105469 L 182.792969 138.035156 L 185.214844 137.941406 L 187.632812 137.851562 L 190.007812 137.734375 L 192.382812 137.621094 L 194.707031 137.503906 L 196.964844 137.34375 L 199.125 137.183594 L 201.21875 137.019531 L 203.238281 136.835938 L 205.144531 136.675781 L 206.953125 136.535156 L 208.644531 136.398438 L 210.242188 136.285156 L 211.722656 136.167969 L 213.109375 136.050781 L 214.425781 135.960938 L 215.625 135.890625 L 216.707031 135.867188 L 217.644531 135.84375 L 218.445312 135.820312 L 220.65625 135.820312 L 220.960938 135.84375 L 221.335938 135.867188 L 220.726562 135.753906 L 220.347656 135.660156 L 219.972656 135.570312 L 219.621094 135.429688 L 219.316406 135.292969 L 219.007812 135.128906 L 218.679688 134.921875 L 218.328125 134.691406 L 217.953125 134.414062 L 217.550781 134.09375 L 217.175781 133.746094 L 216.800781 133.355469 L 216.449219 132.941406 L 216.070312 132.457031 L 215.695312 131.925781 L 215.273438 131.324219 L 214.847656 130.65625 L 214.378906 129.964844 L 213.933594 129.203125 L 213.4375 128.398438 L 212.945312 127.5 L 212.453125 126.578125 L 211.910156 125.585938 L 211.371094 124.546875 L 210.785156 123.507812 L 210.148438 122.402344 L 209.445312 121.273438 L 208.714844 120.121094 L 207.941406 118.921875 L 207.140625 117.675781 L 206.316406 116.386719 L 205.449219 115.070312 L 204.53125 113.6875 L 203.617188 112.28125 L 202.675781 110.851562 L 201.734375 109.375 L 200.796875 107.855469 L 199.832031 106.261719 L 198.84375 104.625 L 197.835938 102.941406 L 196.824219 101.214844 L 195.8125 99.4375 L 194.824219 97.617188 L 193.816406 95.773438 L 192.804688 93.90625 L 191.792969 92.015625 L 190.808594 90.101562 L 189.84375 88.164062 L 188.878906 86.203125 L 187.964844 84.242188 L 187.023438 82.285156 L 186.058594 80.300781 L 185.121094 78.339844 L 184.15625 76.382812 L 183.214844 74.445312 L 182.300781 72.484375 L 181.359375 70.546875 L 180.417969 68.613281 L 179.457031 66.699219 L 178.492188 64.808594 L 177.550781 62.960938 L 176.589844 61.140625 L 175.601562 59.367188 L 174.589844 57.636719 L 173.558594 55.953125 L 172.5 54.292969 L 171.441406 52.703125 L 170.40625 51.15625 L 169.328125 49.660156 L 168.269531 48.230469 L 167.234375 46.847656 L 166.199219 45.484375 L 165.167969 44.148438 L 164.132812 42.832031 L 163.074219 41.566406 L 162.015625 40.367188 L 160.960938 39.214844 L 159.925781 38.105469 L 158.9375 37.023438 L 157.953125 35.984375 L 156.988281 34.996094 L 156.023438 34.027344 L 155.109375 33.082031 L 154.214844 32.179688 L 153.390625 31.328125 L 152.570312 30.5 L 151.792969 29.691406 L 151.042969 28.953125 L 150.289062 28.261719 L 149.5625 27.617188 L 148.855469 27.015625 L 148.199219 26.464844 L 147.585938 25.957031 L 147 25.519531 L 146.460938 25.125 L 145.964844 24.78125 L 145.496094 24.480469 L 145.050781 24.226562 L 144.648438 24.019531 L 144.273438 23.835938 L 143.921875 23.695312 L 143.640625 23.558594 L 143.121094 23.328125 L 142.628906 23.121094 L 142.253906 23.003906 L 141.945312 22.9375 L 141.59375 22.84375 L 141.3125 22.957031 L 141.054688 23.1875 L 140.773438 23.535156 L 140.464844 23.902344 L 140.183594 24.320312 L 139.949219 24.617188 L 139.691406 24.964844 L 139.433594 25.332031 L 139.148438 25.726562 L 138.867188 26.117188 L 138.5625 26.554688 L 138.210938 26.992188 L 137.808594 27.5 L 137.363281 28.054688 L 136.894531 28.652344 L 136.421875 29.300781 L 135.929688 29.992188 L 135.460938 30.730469 L 134.941406 31.511719 L 134.378906 32.34375 L 133.769531 33.21875 L 133.085938 34.140625 L 132.359375 35.0625 L 131.558594 36.054688 L 130.738281 37.09375 L 129.867188 38.175781 L 128.972656 39.304688 L 128.035156 40.480469 L 127.070312 41.726562 L 126.058594 42.996094 L 125 44.285156 L 123.96875 45.601562 L 122.933594 46.960938 L 121.828125 48.34375 L 120.675781 49.796875 L 119.480469 51.320312 L 118.210938 52.910156 L 116.917969 54.570312 L 115.601562 56.300781 L 114.238281 58.050781 L 112.875 59.851562 L 111.464844 61.742188 L 110.03125 63.675781 L 108.574219 65.707031 L 107.070312 67.757812 L 105.566406 69.855469 L 104.085938 71.976562 L 102.628906 74.074219 L 101.195312 76.128906 L 99.832031 78.15625 L 98.539062 80.117188 L 97.292969 82.03125 L 96.117188 83.898438 L 95.011719 85.742188 L 93.957031 87.519531 L 92.945312 89.269531 L 91.980469 90.953125 L 91.066406 92.566406 L 90.171875 94.136719 L 89.324219 95.65625 L 88.550781 97.109375 L 87.796875 98.515625 L 87.09375 99.875 L 86.386719 101.191406 L 85.707031 102.480469 L 85.023438 103.726562 L 84.320312 104.925781 L 83.636719 106.054688 L 83.003906 107.164062 L 82.417969 108.199219 L 81.875 109.191406 L 81.382812 110.113281 L 80.914062 110.988281 L 80.464844 111.820312 L 80.019531 112.605469 L 79.597656 113.339844 L 79.171875 114.011719 L 78.75 114.632812 L 78.351562 115.230469 L 77.953125 115.785156 L 77.527344 116.316406 L 77.128906 116.847656 L 76.753906 117.332031 L 76.375 117.816406 L 76.046875 118.277344 L 75.71875 118.714844 L 75.414062 119.152344 L 75.109375 119.542969 L 74.824219 119.914062 L 74.542969 120.28125 L 74.261719 120.628906 L 73.980469 120.972656 L 73.722656 121.320312 L 73.484375 121.640625 L 73.226562 121.988281 L 72.992188 122.3125 L 72.710938 122.632812 L 72.429688 123.003906 L 72.121094 123.371094 L 71.816406 123.742188 L 71.207031 124.476562 L 70.902344 124.800781 L 70.617188 125.125 L 70.359375 125.445312 L 70.078125 125.769531 L 69.820312 126.09375 L 69.539062 126.4375 L 69.230469 126.785156 L 68.949219 127.152344 L 68.644531 127.523438 L 68.035156 128.304688 L 67.75 128.699219 L 67.445312 129.089844 L 67.117188 129.457031 L 66.8125 129.828125 L 66.480469 130.195312 L 66.152344 130.542969 L 65.824219 130.910156 L 65.472656 131.257812 L 65.121094 131.601562 L 64.789062 131.972656 L 64.460938 132.292969 L 64.203125 132.59375 L 63.96875 132.847656 L 63.613281 133.238281 L 63.332031 133.515625 L 63.097656 133.769531 L 62.839844 134.046875 L 62.558594 134.347656 L 62.226562 134.691406 L 61.898438 135.0625 L 61.617188 135.429688 L 61.429688 135.730469 L 61.265625 135.984375 L 61.007812 136.261719 L 60.675781 136.445312 "/>
</g>
</svg>
